<svg xmlns="http://www.w3.org/2000/svg" width="26" height="24" viewBox="0 0 26 24">
  <path id="ad" d="M17.262,1.723a1.084,1.084,0,0,0-2.087.246c-.2,1.764-.921,3.4-4.882,3.4H4.334A4.358,4.358,0,0,0,0,9.736V11.92a4.36,4.36,0,0,0,2.313,3.841L5.5,23a3.368,3.368,0,0,0,5.919.485,3.424,3.424,0,0,0,.271-3.23L9.976,16.287h.316c3.961,0,4.687,1.633,4.882,3.4a1.085,1.085,0,0,0,2.161-.12V2.09c-.023-.122-.039-.247-.074-.367ZM9.7,21.129a1.212,1.212,0,0,1-.1,1.16,1.251,1.251,0,0,1-2.125-.175L4.917,16.289h2.7L9.7,21.13Zm.589-7.025H4.334a2.178,2.178,0,0,1-2.167-2.184V9.734A2.178,2.178,0,0,1,4.334,7.55h5.959a8.173,8.173,0,0,0,4.876-1.281v9.117A8.173,8.173,0,0,0,10.293,14.1Zm13.172,2.9a1.077,1.077,0,0,1-1.532,0,1.1,1.1,0,0,1,0-1.544,6.6,6.6,0,0,0,0-9.268,1.1,1.1,0,0,1,0-1.544,1.076,1.076,0,0,1,1.532,0,8.8,8.8,0,0,1,0,12.357Zm-3.185-2.77a1.077,1.077,0,0,1-1.532,0,1.1,1.1,0,0,1,0-1.544,2.655,2.655,0,0,0,0-3.729,1.1,1.1,0,0,1,0-1.544,1.076,1.076,0,0,1,1.532,0,4.854,4.854,0,0,1,0,6.818Z" transform="translate(0 -1.026)" fill="#232323"/>
</svg>
