<svg width="23" height="24" viewBox="0 0 23 24" fill="none" xmlns="http://www.w3.org/2000/svg">
<path d="M22.2964 6.58854C22.0899 6.69235 21.8494 6.71232 21.6277 6.64405C21.406 6.57578 21.2213 6.42485 21.1142 6.22444C20.2768 4.61849 19.0092 3.26114 17.4447 2.29502C17.3472 2.23532 17.2627 2.15757 17.1962 2.06619C17.1296 1.97482 17.0823 1.87162 17.0568 1.76248C17.0314 1.65334 17.0283 1.54041 17.0478 1.43012C17.0673 1.31983 17.109 1.21435 17.1705 1.1197C17.232 1.02506 17.3121 0.943093 17.4062 0.878494C17.5003 0.813896 17.6067 0.767927 17.7191 0.743213C17.8315 0.718499 17.9479 0.715523 18.0615 0.734455C18.1751 0.753388 18.2837 0.793857 18.3812 0.853554C20.2046 1.98686 21.6852 3.56994 22.6715 5.4409C22.7785 5.64138 22.799 5.87489 22.7287 6.09009C22.6584 6.30528 22.5029 6.48457 22.2964 6.58854ZM1.64676 6.68435C1.8075 6.68429 1.96513 6.64136 2.10244 6.56025C2.23976 6.47915 2.35148 6.36299 2.42542 6.22444C3.26286 4.61849 4.53044 3.26114 6.09496 2.29502C6.29187 2.17446 6.43139 1.9829 6.4828 1.76248C6.53422 1.54207 6.49333 1.31085 6.36913 1.1197C6.24494 0.928553 6.0476 0.793126 5.82054 0.743213C5.59348 0.6933 5.3553 0.732991 5.15838 0.853554C3.33502 1.98686 1.85446 3.56994 0.868111 5.4409C0.798841 5.5707 0.765152 5.71561 0.770285 5.86171C0.775419 6.0078 0.819203 6.15015 0.897423 6.27506C0.975643 6.39998 1.08567 6.50324 1.2169 6.57492C1.34814 6.6466 1.49618 6.68429 1.64676 6.68435ZM22.0563 17.7498C22.2117 18.0085 22.2941 18.3025 22.2952 18.602C22.2962 18.9015 22.2159 19.196 22.0623 19.4558C21.9087 19.7155 21.6873 19.9314 21.4203 20.0816C21.1533 20.2318 20.8503 20.311 20.5417 20.3112H16.0672C15.8658 21.2738 15.3278 22.1393 14.5443 22.7609C13.7609 23.3826 12.7801 23.7222 11.7682 23.7222C10.7563 23.7222 9.77547 23.3826 8.99199 22.7609C8.2085 22.1393 7.67049 21.2738 7.46912 20.3112H2.9946C2.68624 20.3106 2.38347 20.2311 2.11682 20.0808C1.85016 19.9305 1.62902 19.7146 1.47568 19.4549C1.32234 19.1951 1.24221 18.9008 1.24337 18.6015C1.24452 18.3021 1.32692 18.0084 1.48226 17.7498C2.47038 16.0943 2.9946 13.7405 2.9946 10.9427C2.9946 8.68395 3.91896 6.51767 5.56432 4.92047C7.20968 3.32326 9.44127 2.42596 11.7682 2.42596C14.0951 2.42596 16.3267 3.32326 17.972 4.92047C19.6174 6.51767 20.5417 8.68395 20.5417 10.9427C20.5417 13.7394 21.066 16.0933 22.0563 17.7498ZM14.2489 20.3112H9.28744C9.46921 20.8088 9.80531 21.2395 10.2495 21.5441C10.6938 21.8488 11.2243 22.0123 11.7682 22.0123C12.312 22.0123 12.8426 21.8488 13.2868 21.5441C13.731 21.2395 14.0671 20.8088 14.2489 20.3112ZM20.5417 18.6078C19.3748 16.6628 18.787 14.0844 18.787 10.9427C18.787 9.13571 18.0475 7.40269 16.7312 6.12492C15.415 4.84716 13.6297 4.12932 11.7682 4.12932C9.90665 4.12932 8.12138 4.84716 6.80509 6.12492C5.4888 7.40269 4.74932 9.13571 4.74932 10.9427C4.74932 14.0854 4.15929 16.6639 2.9946 18.6078H20.5417Z" fill="white"/>
</svg>
