<svg width="22" height="25" viewBox="0 0 22 25" fill="none" xmlns="http://www.w3.org/2000/svg">
<path d="M10.9294 3.5C8.85274 3.5 6.82268 4.11581 5.09596 5.26957C3.36924 6.42332 2.02343 8.0632 1.22871 9.98182C0.433993 11.9004 0.226058 14.0116 0.631203 16.0484C1.03635 18.0852 2.03638 19.9562 3.50483 21.4246C4.97328 22.8931 6.8442 23.8931 8.881 24.2982C10.9178 24.7034 13.029 24.4955 14.9476 23.7007C16.8662 22.906 18.5061 21.5602 19.6599 19.8335C20.8136 18.1068 21.4294 16.0767 21.4294 14C21.4263 11.2162 20.319 8.54734 18.3505 6.57889C16.3821 4.61045 13.7132 3.50318 10.9294 3.5ZM10.9294 22.75C9.19886 22.75 7.50714 22.2368 6.06821 21.2754C4.62928 20.3139 3.50777 18.9473 2.8455 17.3485C2.18324 15.7496 2.00996 13.9903 2.34758 12.293C2.6852 10.5956 3.51855 9.03652 4.74226 7.81281C5.96597 6.58911 7.52507 5.75575 9.22241 5.41813C10.9197 5.08051 12.6791 5.25379 14.2779 5.91605C15.8768 6.57832 17.2433 7.69983 18.2048 9.13876C19.1663 10.5777 19.6794 12.2694 19.6794 14C19.6768 16.3198 18.7541 18.5439 17.1138 20.1843C15.4734 21.8247 13.2493 22.7474 10.9294 22.75ZM15.9235 9.00594C16.0049 9.0872 16.0694 9.1837 16.1134 9.28993C16.1575 9.39615 16.1801 9.51001 16.1801 9.625C16.1801 9.73999 16.1575 9.85385 16.1134 9.96007C16.0694 10.0663 16.0049 10.1628 15.9235 10.2441L11.5485 14.6191C11.4672 14.7004 11.3707 14.7648 11.2645 14.8088C11.1583 14.8528 11.0444 14.8755 10.9294 14.8755C10.8145 14.8755 10.7006 14.8528 10.5944 14.8088C10.4882 14.7648 10.3917 14.7004 10.3104 14.6191C10.2291 14.5378 10.1646 14.4413 10.1206 14.335C10.0766 14.2288 10.054 14.115 10.054 14C10.054 13.885 10.0766 13.7712 10.1206 13.665C10.1646 13.5587 10.2291 13.4622 10.3104 13.3809L14.6854 9.00594C14.7666 8.92458 14.8631 8.86004 14.9694 8.81601C15.0756 8.77198 15.1895 8.74931 15.3044 8.74931C15.4194 8.74931 15.5333 8.77198 15.6395 8.81601C15.7457 8.86004 15.8422 8.92458 15.9235 9.00594ZM7.42945 0.875C7.42945 0.642935 7.52163 0.420376 7.68573 0.256281C7.84982 0.0921872 8.07238 0 8.30445 0H13.5544C13.7865 0 14.0091 0.0921872 14.1732 0.256281C14.3373 0.420376 14.4294 0.642935 14.4294 0.875C14.4294 1.10706 14.3373 1.32962 14.1732 1.49372C14.0091 1.65781 13.7865 1.75 13.5544 1.75H8.30445C8.07238 1.75 7.84982 1.65781 7.68573 1.49372C7.52163 1.32962 7.42945 1.10706 7.42945 0.875Z" fill="white"/>
</svg>
