<svg width="14" height="25" viewBox="0 0 14 25" fill="none" xmlns="http://www.w3.org/2000/svg">
<path d="M13.6718 22.8297C13.7763 22.9342 13.8593 23.0583 13.9158 23.1949C13.9724 23.3314 14.0015 23.4778 14.0015 23.6256C14.0015 23.7734 13.9724 23.9198 13.9158 24.0564C13.8593 24.193 13.7763 24.317 13.6718 24.4216C13.5673 24.5261 13.4432 24.609 13.3066 24.6656C13.1701 24.7221 13.0237 24.7513 12.8759 24.7513C12.7281 24.7513 12.5817 24.7221 12.4451 24.6656C12.3086 24.609 12.1845 24.5261 12.0799 24.4216L0.829947 13.1716C0.725349 13.0671 0.64237 12.943 0.585756 12.8064C0.529141 12.6699 0.5 12.5235 0.5 12.3756C0.5 12.2278 0.529141 12.0814 0.585756 11.9448C0.64237 11.8082 0.725349 11.6842 0.829947 11.5797L12.0799 0.329688C12.291 0.118592 12.5774 -5.88483e-09 12.8759 0C13.1744 5.88483e-09 13.4607 0.118592 13.6718 0.329688C13.8829 0.540784 14.0015 0.827091 14.0015 1.12563C14.0015 1.42416 13.8829 1.71047 13.6718 1.92156L3.21635 12.3756L13.6718 22.8297Z" fill="white"/>
</svg>
