<svg width="22" height="22" viewBox="0 0 22 22" fill="none" xmlns="http://www.w3.org/2000/svg">
<path d="M21.3917 18.6535L17.7615 1.39364C17.7145 1.16793 17.6234 0.953719 17.4934 0.763316C17.3635 0.572914 17.1971 0.410071 17.004 0.284143C16.8109 0.158215 16.5948 0.0716827 16.3682 0.0295183C16.1415 -0.0126462 15.9088 -0.00961216 15.6833 0.0384461L10.5633 1.13879C10.1104 1.23795 9.71502 1.51191 9.46308 1.90109C9.21113 2.29027 9.12304 2.76318 9.21796 3.21697L12.8482 20.4768C12.9291 20.8706 13.1431 21.2245 13.4543 21.4791C13.7654 21.7336 14.1547 21.8733 14.5567 21.8747C14.681 21.8745 14.8049 21.8613 14.9264 21.8353L20.0464 20.7349C20.4998 20.6355 20.8956 20.361 21.1476 19.9712C21.3996 19.5813 21.4873 19.1077 21.3917 18.6535ZM10.9297 2.8593C10.9297 2.85274 10.9297 2.84946 10.9297 2.84946L16.0486 1.75568L16.4128 3.49151L11.294 4.59294L10.9297 2.8593ZM11.6538 6.30143L16.7749 5.20218L17.1402 6.94129L12.0235 8.04163L11.6538 6.30143ZM12.3801 9.75449L17.5012 8.65414L18.9559 15.5712L13.8348 16.6715L12.3801 9.75449ZM19.68 19.0243L14.5611 20.118L14.1968 18.3822L19.3157 17.2808L19.68 19.0144C19.68 19.021 19.68 19.0243 19.68 19.0243ZM7.42963 0.874093H2.17949C1.71535 0.874093 1.27022 1.05847 0.94202 1.38667C0.613823 1.71487 0.429443 2.16 0.429443 2.62414V20.1246C0.429443 20.5887 0.613823 21.0339 0.94202 21.3621C1.27022 21.6903 1.71535 21.8747 2.17949 21.8747H7.42963C7.89377 21.8747 8.3389 21.6903 8.6671 21.3621C8.9953 21.0339 9.17968 20.5887 9.17968 20.1246V2.62414C9.17968 2.16 8.9953 1.71487 8.6671 1.38667C8.3389 1.05847 7.89377 0.874093 7.42963 0.874093ZM2.17949 2.62414H7.42963V4.37419H2.17949V2.62414ZM2.17949 6.12423H7.42963V16.6245H2.17949V6.12423ZM7.42963 20.1246H2.17949V18.3746H7.42963V20.1246Z" fill="white"/>
</svg>
