<svg width="24" height="24" viewBox="0 0 24 24" fill="none" xmlns="http://www.w3.org/2000/svg">
<path d="M22.999 20.4659L19.016 1.52904C18.9645 1.2814 18.8646 1.04638 18.7219 0.83748C18.5793 0.628578 18.3968 0.449914 18.185 0.31175C17.9731 0.173587 17.736 0.0786475 17.4873 0.0323863C17.2387 -0.0138749 16.9833 -0.0105461 16.7359 0.0421815L11.1185 1.24943C10.6216 1.35823 10.1878 1.65881 9.91134 2.0858C9.63492 2.51279 9.53827 3.03165 9.64241 3.52953L13.6254 22.4663C13.7141 22.8984 13.9489 23.2867 14.2903 23.566C14.6317 23.8453 15.0588 23.9985 15.4999 24C15.6362 23.9998 15.7722 23.9853 15.9055 23.9568L21.5229 22.7495C22.0204 22.6405 22.4547 22.3393 22.7311 21.9116C23.0076 21.4839 23.1038 20.9642 22.999 20.4659ZM11.5205 3.13711C11.5205 3.12991 11.5205 3.12631 11.5205 3.12631L17.1367 1.92626L17.5363 3.83074L11.9201 5.03919L11.5205 3.13711ZM12.3149 6.91367L17.9336 5.70762L18.3344 7.6157L12.7205 8.82295L12.3149 6.91367ZM13.1118 10.7022L18.7304 9.49498L20.3265 17.0841L14.7078 18.2914L13.1118 10.7022ZM21.1209 20.8727L15.5047 22.0727L15.105 20.1682L20.7213 18.9598L21.1209 20.8619C21.1209 20.8691 21.1209 20.8727 21.1209 20.8727ZM7.68033 0.95902H1.92008C1.41084 0.95902 0.922464 1.16131 0.562379 1.5214C0.202294 1.88148 0 2.36986 0 2.8791V22.0799C0 22.5892 0.202294 23.0775 0.562379 23.4376C0.922464 23.7977 1.41084 24 1.92008 24H7.68033C8.18956 24 8.67794 23.7977 9.03803 23.4376C9.39811 23.0775 9.60041 22.5892 9.60041 22.0799V2.8791C9.60041 2.36986 9.39811 1.88148 9.03803 1.5214C8.67794 1.16131 8.18956 0.95902 7.68033 0.95902ZM1.92008 2.8791H7.68033V4.79918H1.92008V2.8791ZM1.92008 6.71927H7.68033V18.2398H1.92008V6.71927ZM7.68033 22.0799H1.92008V20.1598H7.68033V22.0799Z" fill="white"/>
</svg>
