<svg width="21" height="24" viewBox="0 0 21 24" fill="none" xmlns="http://www.w3.org/2000/svg">
<path d="M4.97502 10.9091H15.8841C16.1252 10.9091 16.3564 10.8133 16.5269 10.6428C16.6974 10.4723 16.7932 10.2411 16.7932 10V4.54545C16.7932 4.30435 16.6974 4.07312 16.5269 3.90263C16.3564 3.73214 16.1252 3.63636 15.8841 3.63636H4.97502C4.73391 3.63636 4.50268 3.73214 4.3322 3.90263C4.16171 4.07312 4.06593 4.30435 4.06593 4.54545V10C4.06593 10.2411 4.16171 10.4723 4.3322 10.6428C4.50268 10.8133 4.73391 10.9091 4.97502 10.9091ZM5.88411 5.45455H14.975V9.09091H5.88411V5.45455ZM18.6114 0H2.24775C1.76554 0 1.30307 0.191558 0.962098 0.532533C0.621123 0.873508 0.429565 1.33597 0.429565 1.81818V21.8182C0.429565 22.3004 0.621123 22.7629 0.962098 23.1038C1.30307 23.4448 1.76554 23.6364 2.24775 23.6364H18.6114C19.0936 23.6364 19.5561 23.4448 19.897 23.1038C20.238 22.7629 20.4296 22.3004 20.4296 21.8182V1.81818C20.4296 1.33597 20.238 0.873508 19.897 0.532533C19.5561 0.191558 19.0936 0 18.6114 0ZM18.6114 21.8182H2.24775V1.81818H18.6114V21.8182ZM7.24775 14.0909C7.24775 14.3606 7.16777 14.6243 7.01793 14.8485C6.8681 15.0728 6.65512 15.2475 6.40595 15.3507C6.15678 15.454 5.8826 15.481 5.61808 15.4283C5.35356 15.3757 5.11058 15.2459 4.91987 15.0551C4.72917 14.8644 4.59929 14.6215 4.54668 14.3569C4.49406 14.0924 4.52106 13.8182 4.62428 13.5691C4.72749 13.3199 4.90227 13.1069 5.12652 12.9571C5.35076 12.8072 5.61441 12.7273 5.88411 12.7273C6.24577 12.7273 6.59262 12.8709 6.84835 13.1267C7.10408 13.3824 7.24775 13.7293 7.24775 14.0909ZM11.7932 14.0909C11.7932 14.3606 11.7132 14.6243 11.5634 14.8485C11.4135 15.0728 11.2006 15.2475 10.9514 15.3507C10.7022 15.454 10.4281 15.481 10.1635 15.4283C9.89901 15.3757 9.65604 15.2459 9.46533 15.0551C9.27462 14.8644 9.14475 14.6215 9.09213 14.3569C9.03951 14.0924 9.06652 13.8182 9.16973 13.5691C9.27294 13.3199 9.44772 13.1069 9.67197 12.9571C9.89622 12.8072 10.1599 12.7273 10.4296 12.7273C10.7912 12.7273 11.1381 12.8709 11.3938 13.1267C11.6495 13.3824 11.7932 13.7293 11.7932 14.0909ZM16.3387 14.0909C16.3387 14.3606 16.2587 14.6243 16.1088 14.8485C15.959 15.0728 15.746 15.2475 15.4969 15.3507C15.2477 15.454 14.9735 15.481 14.709 15.4283C14.4445 15.3757 14.2015 15.2459 14.0108 15.0551C13.8201 14.8644 13.6902 14.6215 13.6376 14.3569C13.585 14.0924 13.612 13.8182 13.7152 13.5691C13.8184 13.3199 13.9932 13.1069 14.2174 12.9571C14.4417 12.8072 14.7053 12.7273 14.975 12.7273C15.3367 12.7273 15.6835 12.8709 15.9393 13.1267C16.195 13.3824 16.3387 13.7293 16.3387 14.0909ZM7.24775 18.6364C7.24775 18.9061 7.16777 19.1697 7.01793 19.394C6.8681 19.6182 6.65512 19.793 6.40595 19.8962C6.15678 19.9994 5.8826 20.0264 5.61808 19.9738C5.35356 19.9212 5.11058 19.7913 4.91987 19.6006C4.72917 19.4099 4.59929 19.1669 4.54668 18.9024C4.49406 18.6379 4.52106 18.3637 4.62428 18.1145C4.72749 17.8654 4.90227 17.6524 5.12652 17.5025C5.35076 17.3527 5.61441 17.2727 5.88411 17.2727C6.24577 17.2727 6.59262 17.4164 6.84835 17.6721C7.10408 17.9279 7.24775 18.2747 7.24775 18.6364ZM11.7932 18.6364C11.7932 18.9061 11.7132 19.1697 11.5634 19.394C11.4135 19.6182 11.2006 19.793 10.9514 19.8962C10.7022 19.9994 10.4281 20.0264 10.1635 19.9738C9.89901 19.9212 9.65604 19.7913 9.46533 19.6006C9.27462 19.4099 9.14475 19.1669 9.09213 18.9024C9.03951 18.6379 9.06652 18.3637 9.16973 18.1145C9.27294 17.8654 9.44772 17.6524 9.67197 17.5025C9.89622 17.3527 10.1599 17.2727 10.4296 17.2727C10.7912 17.2727 11.1381 17.4164 11.3938 17.6721C11.6495 17.9279 11.7932 18.2747 11.7932 18.6364ZM16.3387 18.6364C16.3387 18.9061 16.2587 19.1697 16.1088 19.394C15.959 19.6182 15.746 19.793 15.4969 19.8962C15.2477 19.9994 14.9735 20.0264 14.709 19.9738C14.4445 19.9212 14.2015 19.7913 14.0108 19.6006C13.8201 19.4099 13.6902 19.1669 13.6376 18.9024C13.585 18.6379 13.612 18.3637 13.7152 18.1145C13.8184 17.8654 13.9932 17.6524 14.2174 17.5025C14.4417 17.3527 14.7053 17.2727 14.975 17.2727C15.3367 17.2727 15.6835 17.4164 15.9393 17.6721C16.195 17.9279 16.3387 18.2747 16.3387 18.6364Z" fill="white"/>
</svg>
