<svg width="46" height="40" viewBox="0 0 46 40" fill="none" xmlns="http://www.w3.org/2000/svg">
<path d="M40.4396 5.21739H34.3473L31.3516 0.773913C31.1912 0.535982 30.9738 0.340876 30.7189 0.205882C30.4639 0.0708874 30.1793 0.00017175 29.8901 0H15.8242C15.535 0.00017175 15.2503 0.0708874 14.9954 0.205882C14.7405 0.340876 14.5231 0.535982 14.3626 0.773913L11.3648 5.21739H5.27473C3.87578 5.21739 2.53413 5.76708 1.54493 6.74553C0.555729 7.72398 0 9.05104 0 10.4348V34.7826C0 36.1663 0.555729 37.4934 1.54493 38.4719C2.53413 39.4503 3.87578 40 5.27473 40H40.4396C41.8385 40 43.1802 39.4503 44.1694 38.4719C45.1586 37.4934 45.7143 36.1663 45.7143 34.7826V10.4348C45.7143 9.05104 45.1586 7.72398 44.1694 6.74553C43.1802 5.76708 41.8385 5.21739 40.4396 5.21739ZM42.1978 34.7826C42.1978 35.2439 42.0126 35.6862 41.6828 36.0124C41.3531 36.3385 40.9059 36.5217 40.4396 36.5217H5.27473C4.80841 36.5217 4.3612 36.3385 4.03146 36.0124C3.70173 35.6862 3.51648 35.2439 3.51648 34.7826V10.4348C3.51648 9.97354 3.70173 9.53118 4.03146 9.20503C4.3612 8.87888 4.80841 8.69565 5.27473 8.69565H12.3077C12.5972 8.69584 12.8823 8.62529 13.1377 8.49028C13.393 8.35527 13.6107 8.15998 13.7714 7.92174L16.7648 3.47826H28.9473L31.9429 7.92174C32.1036 8.15998 32.3212 8.35527 32.5766 8.49028C32.8319 8.62529 33.1171 8.69584 33.4066 8.69565H40.4396C40.9059 8.69565 41.3531 8.87888 41.6828 9.20503C42.0126 9.53118 42.1978 9.97354 42.1978 10.4348V34.7826ZM22.8571 12.1739C20.9445 12.1739 19.0749 12.7349 17.4846 13.7859C15.8943 14.837 14.6548 16.3309 13.9229 18.0787C13.191 19.8265 12.9995 21.7497 13.3726 23.6052C13.7458 25.4607 14.6668 27.165 16.0192 28.5028C17.3716 29.8405 19.0947 30.7515 20.9706 31.1206C22.8464 31.4896 24.7908 31.3002 26.5578 30.5762C28.3248 29.8523 29.8351 28.6263 30.8977 27.0533C31.9603 25.4803 32.5275 23.631 32.5275 21.7391C32.5246 19.2032 31.5048 16.7719 29.6919 14.9787C27.879 13.1855 25.421 12.1768 22.8571 12.1739ZM22.8571 27.8261C21.64 27.8261 20.4502 27.4691 19.4382 26.8002C18.4263 26.1314 17.6375 25.1808 17.1717 24.0685C16.706 22.9563 16.5841 21.7324 16.8215 20.5516C17.059 19.3709 17.6451 18.2863 18.5057 17.435C19.3663 16.5837 20.4629 16.004 21.6566 15.7691C22.8503 15.5343 24.0876 15.6548 25.2121 16.1155C26.3366 16.5762 27.2977 17.3564 27.9739 18.3574C28.6501 19.3584 29.011 20.5352 29.011 21.7391C29.011 23.3535 28.3626 24.9017 27.2086 26.0433C26.0545 27.1848 24.4892 27.8261 22.8571 27.8261Z" fill="black"/>
<path d="M40.4396 5.21739H34.3473L31.3516 0.773913C31.1912 0.535982 30.9738 0.340876 30.7189 0.205882C30.4639 0.0708874 30.1793 0.00017175 29.8901 0H15.8242C15.535 0.00017175 15.2503 0.0708874 14.9954 0.205882C14.7405 0.340876 14.5231 0.535982 14.3626 0.773913L11.3648 5.21739H5.27473C3.87578 5.21739 2.53413 5.76708 1.54493 6.74553C0.555729 7.72398 0 9.05104 0 10.4348V34.7826C0 36.1663 0.555729 37.4934 1.54493 38.4719C2.53413 39.4503 3.87578 40 5.27473 40H40.4396C41.8385 40 43.1802 39.4503 44.1694 38.4719C45.1586 37.4934 45.7143 36.1663 45.7143 34.7826V10.4348C45.7143 9.05104 45.1586 7.72398 44.1694 6.74553C43.1802 5.76708 41.8385 5.21739 40.4396 5.21739ZM42.1978 34.7826C42.1978 35.2439 42.0126 35.6862 41.6828 36.0124C41.3531 36.3385 40.9059 36.5217 40.4396 36.5217H5.27473C4.80841 36.5217 4.3612 36.3385 4.03146 36.0124C3.70173 35.6862 3.51648 35.2439 3.51648 34.7826V10.4348C3.51648 9.97354 3.70173 9.53118 4.03146 9.20503C4.3612 8.87888 4.80841 8.69565 5.27473 8.69565H12.3077C12.5972 8.69584 12.8823 8.62529 13.1377 8.49028C13.393 8.35527 13.6107 8.15998 13.7714 7.92174L16.7648 3.47826H28.9473L31.9429 7.92174C32.1036 8.15998 32.3212 8.35527 32.5766 8.49028C32.8319 8.62529 33.1171 8.69584 33.4066 8.69565H40.4396C40.9059 8.69565 41.3531 8.87888 41.6828 9.20503C42.0126 9.53118 42.1978 9.97354 42.1978 10.4348V34.7826ZM22.8571 12.1739C20.9445 12.1739 19.0749 12.7349 17.4846 13.7859C15.8943 14.837 14.6548 16.3309 13.9229 18.0787C13.191 19.8265 12.9995 21.7497 13.3726 23.6052C13.7458 25.4607 14.6668 27.165 16.0192 28.5028C17.3716 29.8405 19.0947 30.7515 20.9706 31.1206C22.8464 31.4896 24.7908 31.3002 26.5578 30.5762C28.3248 29.8523 29.8351 28.6263 30.8977 27.0533C31.9603 25.4803 32.5275 23.631 32.5275 21.7391C32.5246 19.2032 31.5048 16.7719 29.6919 14.9787C27.879 13.1855 25.421 12.1768 22.8571 12.1739ZM22.8571 27.8261C21.64 27.8261 20.4502 27.4691 19.4382 26.8002C18.4263 26.1314 17.6375 25.1808 17.1717 24.0685C16.706 22.9563 16.5841 21.7324 16.8215 20.5516C17.059 19.3709 17.6451 18.2863 18.5057 17.435C19.3663 16.5837 20.4629 16.004 21.6566 15.7691C22.8503 15.5343 24.0876 15.6548 25.2121 16.1155C26.3366 16.5762 27.2977 17.3564 27.9739 18.3574C28.6501 19.3584 29.011 20.5352 29.011 21.7391C29.011 23.3535 28.3626 24.9017 27.2086 26.0433C26.0545 27.1848 24.4892 27.8261 22.8571 27.8261Z" fill="#24394A"/>
<path d="M34.2143 5.46739L34.14 5.35714L31.1444 0.913712C31.1444 0.913695 31.1444 0.913679 31.1444 0.913662C31.007 0.709986 30.8207 0.542687 30.6019 0.426819C30.3831 0.310946 30.1386 0.250159 29.8901 0.25C29.8901 0.25 29.89 0.25 29.89 0.25L29.8901 0L34.2143 5.46739ZM34.2143 5.46739H34.3473H40.4396C41.7731 5.46739 43.0514 5.9914 43.9935 6.92327C44.9356 7.85505 45.4643 9.11824 45.4643 10.4348V34.7826C45.4643 36.0992 44.9356 37.3623 43.9935 38.2941C43.0514 39.226 41.7731 39.75 40.4396 39.75H5.27473C3.94121 39.75 2.66285 39.226 1.72074 38.2941L1.54493 38.4719L1.72074 38.2941C0.778718 37.3623 0.25 36.0992 0.25 34.7826V10.4348C0.25 9.11824 0.778718 7.85505 1.72074 6.92327C2.66285 5.9914 3.94121 5.46739 5.27473 5.46739H11.3648H11.4977L11.5721 5.35721L14.5699 0.913732L14.5699 0.913713C14.7073 0.710014 14.8936 0.542696 15.1124 0.426819L14.9957 0.206452L15.1124 0.426819C15.3312 0.310957 15.5757 0.250172 15.8242 0.25L34.2143 5.46739ZM12.3079 8.44565H12.3077H5.27473C4.74298 8.44565 4.23248 8.65456 3.85565 9.02729C3.47874 9.40011 3.26648 9.90635 3.26648 10.4348V34.7826C3.26648 35.311 3.47874 35.8173 3.85565 36.1901C4.23248 36.5628 4.74298 36.7717 5.27473 36.7717H40.4396C40.9713 36.7717 41.4818 36.5628 41.8586 36.1901C42.2355 35.8173 42.4478 35.311 42.4478 34.7826V10.4348C42.4478 9.90635 42.2355 9.40011 41.8586 9.02729C41.4818 8.65456 40.9713 8.44565 40.4396 8.44565H33.4066H33.4064C33.1576 8.44581 32.9127 8.38517 32.6934 8.26927C32.4743 8.15339 32.2877 7.98593 32.1502 7.78199C32.1501 7.78197 32.1501 7.78196 32.1501 7.78194L29.1545 3.33851L29.0802 3.22826H28.9473H16.7648H16.6318L16.5575 3.33858L13.5642 7.78194C13.4266 7.9859 13.24 8.15338 13.0208 8.26927C12.8016 8.38517 12.5567 8.44581 12.3079 8.44565ZM5.27473 8.69565H12.3077L31.9429 7.92174C32.1036 8.15998 32.3212 8.35527 32.5766 8.49028C32.8319 8.62529 33.1171 8.69584 33.4066 8.69565H40.4396C40.9059 8.69565 41.3531 8.87888 41.6828 9.20503C42.0126 9.53118 42.1978 9.97354 42.1978 10.4348V34.7826C42.1978 35.2439 42.0126 35.6862 41.6828 36.0124C41.3531 36.3385 40.9059 36.5217 40.4396 36.5217H5.27473C4.80841 36.5217 4.3612 36.3385 4.03146 36.0124C3.70173 35.6862 3.51648 35.2439 3.51648 34.7826V10.4348C3.51648 9.97354 3.70173 9.53118 4.03146 9.20503C4.3612 8.87888 4.80841 8.69565 5.27473 8.69565ZM17.6224 13.9945C19.1716 12.9706 20.9932 12.424 22.8569 12.4239C25.3554 12.4267 27.7502 13.4097 29.5161 15.1564C31.2819 16.903 32.2746 19.2705 32.2775 21.7394C32.2774 23.5811 31.7253 25.3816 30.6906 26.9133C29.6558 28.4452 28.1847 29.6395 26.463 30.3449C24.7414 31.0503 22.8467 31.2349 21.0188 30.8753C19.1909 30.5156 17.5123 29.628 16.195 28.325C14.8777 27.0221 13.981 25.3624 13.6177 23.5559C13.2544 21.7495 13.4409 19.877 14.1535 18.1752C14.8662 16.4734 16.0732 15.0184 17.6224 13.9945ZM19.3004 27.0088C20.3534 27.7048 21.5912 28.0761 22.8571 28.0761C24.5547 28.0761 26.1832 27.4091 27.3844 26.221C28.5856 25.0328 29.261 23.4207 29.261 21.7391C29.261 20.4852 28.8851 19.2596 28.181 18.2175C27.4771 17.1753 26.4767 16.3635 25.3069 15.8842C24.1371 15.4049 22.85 15.2795 21.6083 15.5238C20.3666 15.7681 19.2257 16.3712 18.3299 17.2573C17.4341 18.1433 16.8238 19.2726 16.5764 20.5023C16.3291 21.7321 16.4561 23.0068 16.9411 24.1651C17.4262 25.3233 18.2473 26.3128 19.3004 27.0088Z" stroke="#30495E" stroke-opacity="0.5" stroke-width="0.5"/>
</svg>
