<svg xmlns="http://www.w3.org/2000/svg" width="26.94" height="24" viewBox="0 0 26.94 24">
  <path id="Combined-Shape" d="M17.939.478a3.762,3.762,0,0,1,1.84,1.7l.164.285.609,1.168.02.033h0l.018.028.052.071a1.6,1.6,0,0,0,1.048.485,5.249,5.249,0,0,1,5.242,4.978l.007.27v7.806a6.7,6.7,0,0,1-6.4,6.688l-.29.006H6.695A6.7,6.7,0,0,1,.006,17.6L0,17.305V9.5A5.249,5.249,0,0,1,5.249,4.252,1.6,1.6,0,0,0,6.3,3.766l.01-.011h0L6.32,3.74l.069-.106L7,2.467A3.994,3.994,0,0,1,9,.477C10.6-.159,16.338-.159,17.939.478ZM9.747,2.355a1.93,1.93,0,0,0-.856.87l-.125.217-.518,1-.128.231a2.8,2.8,0,0,1-.335.459,3.635,3.635,0,0,1-2.3,1.129l-.234.01-.221.007a3.229,3.229,0,0,0-3,3L2.021,9.5v7.806a4.675,4.675,0,0,0,4.418,4.667l.256.007H20.245a4.676,4.676,0,0,0,4.667-4.418l.007-.256V9.5a3.229,3.229,0,0,0-3.008-3.22l-.221-.007-.235-.01a3.629,3.629,0,0,1-2.3-1.13,2.8,2.8,0,0,1-.332-.455L18.8,4.634h0l-.03-.054-.156-.293-.436-.845a2.516,2.516,0,0,0-.856-1.026l-.126-.061L17.031,2.3A21.657,21.657,0,0,0,9.747,2.355Zm3.722,6a5.292,5.292,0,1,1-5.292,5.292A5.292,5.292,0,0,1,13.47,8.35Zm0,2.02a3.272,3.272,0,1,0,3.272,3.272A3.271,3.271,0,0,0,13.47,10.371Zm7.415-2.962a1.347,1.347,0,0,1,.157,2.685l-.157.009a1.347,1.347,0,0,1-.169-2.685Z" transform="translate(0 0)" fill="#fff"/>
</svg>
