<svg width="23" height="23" viewBox="0 0 23 23" fill="none" xmlns="http://www.w3.org/2000/svg">
<path d="M16.044 10.0848C16.044 10.328 15.9474 10.5611 15.7755 10.7331C15.6035 10.905 15.3704 11.0016 15.1272 11.0016H7.3344C7.09125 11.0016 6.85806 10.905 6.68612 10.7331C6.51419 10.5611 6.4176 10.328 6.4176 10.0848C6.4176 9.84165 6.51419 9.60846 6.68612 9.43653C6.85806 9.26459 7.09125 9.168 7.3344 9.168H15.1272C15.3704 9.168 15.6035 9.26459 15.7755 9.43653C15.9474 9.60846 16.044 9.84165 16.044 10.0848ZM15.1272 12.8352H7.3344C7.09125 12.8352 6.85806 12.9318 6.68612 13.1037C6.51419 13.2757 6.4176 13.5089 6.4176 13.752C6.4176 13.9952 6.51419 14.2283 6.68612 14.4003C6.85806 14.5722 7.09125 14.6688 7.3344 14.6688H15.1272C15.3704 14.6688 15.6035 14.5722 15.7755 14.4003C15.9474 14.2283 16.044 13.9952 16.044 13.752C16.044 13.5089 15.9474 13.2757 15.7755 13.1037C15.6035 12.9318 15.3704 12.8352 15.1272 12.8352ZM22.92 11.46C22.9167 14.4984 21.7082 17.4113 19.5598 19.5598C17.4113 21.7082 14.4984 22.9167 11.46 22.92H1.8336C1.3473 22.92 0.880916 22.7268 0.537049 22.383C0.193182 22.0391 0 21.5727 0 21.0864V11.46C4.52903e-08 8.42062 1.20739 5.50572 3.35656 3.35656C5.50572 1.20739 8.42062 0 11.46 0C14.4994 0 17.4143 1.20739 19.5634 3.35656C21.7126 5.50572 22.92 8.42062 22.92 11.46ZM21.0864 11.46C21.0864 8.90692 20.0722 6.45841 18.2669 4.65311C16.4616 2.84781 14.0131 1.8336 11.46 1.8336C8.90692 1.8336 6.45841 2.84781 4.65311 4.65311C2.84781 6.45841 1.8336 8.90692 1.8336 11.46V21.0864H11.46C14.0122 21.0837 16.4592 20.0686 18.2639 18.2639C20.0686 16.4592 21.0837 14.0122 21.0864 11.46Z" fill="#86CD4B"/>
</svg>
