<svg width="22" height="22" viewBox="0 0 22 22" fill="none" xmlns="http://www.w3.org/2000/svg">
<path d="M15.2308 9.30855C15.2308 9.53297 15.1416 9.74819 14.9829 9.90687C14.8243 10.0656 14.609 10.1547 14.3846 10.1547H7.61538C7.39097 10.1547 7.17575 10.0656 7.01706 9.90687C6.85838 9.74819 6.76923 9.53297 6.76923 9.30855C6.76923 9.08414 6.85838 8.86892 7.01706 8.71023C7.17575 8.55155 7.39097 8.4624 7.61538 8.4624H14.3846C14.609 8.4624 14.8243 8.55155 14.9829 8.71023C15.1416 8.86892 15.2308 9.08414 15.2308 9.30855ZM14.3846 11.847H7.61538C7.39097 11.847 7.17575 11.9362 7.01706 12.0948C6.85838 12.2535 6.76923 12.4688 6.76923 12.6932C6.76923 12.9176 6.85838 13.1328 7.01706 13.2915C7.17575 13.4502 7.39097 13.5393 7.61538 13.5393H14.3846C14.609 13.5393 14.8243 13.4502 14.9829 13.2915C15.1416 13.1328 15.2308 12.9176 15.2308 12.6932C15.2308 12.4688 15.1416 12.2535 14.9829 12.0948C14.8243 11.9362 14.609 11.847 14.3846 11.847ZM22 11.0009C22.0004 12.9 21.5091 14.7669 20.574 16.4198C19.6388 18.0727 18.2917 19.4554 16.6636 20.4332C15.0356 21.411 13.1821 21.9506 11.2836 21.9996C9.38512 22.0486 7.50629 21.6052 5.83 20.7126L2.22856 21.9131C1.93038 22.0125 1.6104 22.0269 1.30448 21.9547C0.998562 21.8826 0.718794 21.7266 0.496535 21.5043C0.274275 21.2821 0.118308 21.0023 0.0461127 20.6964C-0.0260822 20.3905 -0.0116512 20.0705 0.0877881 19.7723L1.28827 16.1709C0.503618 14.6956 0.0653623 13.061 0.00676641 11.3911C-0.0518295 9.72122 0.270775 8.05991 0.950093 6.53331C1.62941 5.0067 2.64759 3.65492 3.92734 2.58056C5.20709 1.50621 6.71477 0.737517 8.33596 0.332842C9.95714 -0.0718325 11.6492 -0.101857 13.2837 0.245047C14.9183 0.591951 16.4523 1.30667 17.7693 2.33494C19.0864 3.36322 20.1519 4.67803 20.8849 6.17957C21.618 7.68112 21.9993 9.32993 22 11.0009ZM20.3077 11.0009C20.3073 9.57311 19.9784 8.16458 19.3466 6.88426C18.7147 5.60394 17.7967 4.48615 16.6637 3.61736C15.5307 2.74856 14.2131 2.15207 12.8126 1.87402C11.4122 1.59597 9.96662 1.64381 8.58765 2.01386C7.20868 2.3839 5.93333 3.06622 4.86026 4.00802C3.78719 4.94983 2.94516 6.12588 2.39933 7.44518C1.8535 8.76448 1.6185 10.1917 1.7125 11.6163C1.80651 13.041 2.227 14.4249 2.94144 15.6611C3.00141 15.7648 3.03864 15.8802 3.05067 15.9994C3.06271 16.1187 3.04927 16.2391 3.01125 16.3528L1.69231 20.3086L5.64808 18.9896C5.73424 18.9602 5.82464 18.9452 5.91567 18.9452C6.06428 18.9454 6.2102 18.9848 6.33875 19.0594C7.75373 19.8781 9.35937 20.3097 10.9941 20.3107C12.6289 20.3117 14.2351 19.8822 15.6511 19.0653C17.0671 18.2484 18.243 17.073 19.0604 15.6573C19.8779 14.2416 20.3081 12.6356 20.3077 11.0009Z" fill="white"/>
</svg>
