<svg xmlns="http://www.w3.org/2000/svg" width="30.932" height="30.932" viewBox="0 0 30.932 30.932">
  <path id="shield-trust" d="M29.808,18.133l-2.775,2.775v2.215a3.862,3.862,0,0,1-3.855,3.859H20.966l-2.773,2.775a3.85,3.85,0,0,1-5.451,0L9.969,26.982H7.756A3.862,3.862,0,0,1,3.9,23.123V20.907L1.129,18.133a3.867,3.867,0,0,1,0-5.458L3.9,9.9V7.685A3.862,3.862,0,0,1,7.756,3.826H9.969L12.741,1.05a3.945,3.945,0,0,1,5.453,0l2.772,2.775h2.212a1.286,1.286,0,0,1,0,2.573H20.434a1.279,1.279,0,0,1-.909-.377l-3.15-3.153a1.317,1.317,0,0,0-1.817,0L11.41,6.02A1.281,1.281,0,0,1,10.5,6.4H7.756A1.287,1.287,0,0,0,6.471,7.684V10.43a1.284,1.284,0,0,1-.377.91L2.946,14.492a1.29,1.29,0,0,0,0,1.82l3.149,3.152a1.284,1.284,0,0,1,.377.91v2.748a1.286,1.286,0,0,0,1.285,1.286H10.5a1.279,1.279,0,0,1,.909.377l3.149,3.152a1.312,1.312,0,0,0,1.816,0l3.151-3.152a1.281,1.281,0,0,1,.909-.377h2.744a1.286,1.286,0,0,0,1.285-1.286V20.374a1.282,1.282,0,0,1,.377-.91l3.15-3.152a1.29,1.29,0,0,0,0-1.82,1.286,1.286,0,0,1,1.818-1.819,3.87,3.87,0,0,1,0,5.457Zm-16.03-.544L9.9,13.744a1.286,1.286,0,0,0-1.809,1.828l3.88,3.845a4.077,4.077,0,0,0,5.733-.006L29.178,8a1.286,1.286,0,0,0-1.812-1.825L15.89,17.587a1.5,1.5,0,0,1-2.113,0Z" transform="translate(-0.001 0.044)" fill="#0fa968"/>
</svg>
