<svg width="15" height="16" viewBox="0 0 15 16" fill="none" xmlns="http://www.w3.org/2000/svg">
<path d="M13.5385 1.23077H11.6923V0.615385C11.6923 0.452174 11.6275 0.295649 11.5121 0.180242C11.3967 0.064835 11.2401 0 11.0769 0C10.9137 0 10.7572 0.064835 10.6418 0.180242C10.5264 0.295649 10.4615 0.452174 10.4615 0.615385V1.23077H4.30769V0.615385C4.30769 0.452174 4.24286 0.295649 4.12745 0.180242C4.01204 0.064835 3.85552 0 3.69231 0C3.5291 0 3.37257 0.064835 3.25717 0.180242C3.14176 0.295649 3.07692 0.452174 3.07692 0.615385V1.23077H1.23077C0.904349 1.23077 0.591298 1.36044 0.360484 1.59125C0.12967 1.82207 0 2.13512 0 2.46154V14.7692C0 15.0957 0.12967 15.4087 0.360484 15.6395C0.591298 15.8703 0.904349 16 1.23077 16H13.5385C13.8649 16 14.1779 15.8703 14.4087 15.6395C14.6396 15.4087 14.7692 15.0957 14.7692 14.7692V2.46154C14.7692 2.13512 14.6396 1.82207 14.4087 1.59125C14.1779 1.36044 13.8649 1.23077 13.5385 1.23077ZM3.07692 2.46154V3.07692C3.07692 3.24013 3.14176 3.39666 3.25717 3.51207C3.37257 3.62747 3.5291 3.69231 3.69231 3.69231C3.85552 3.69231 4.01204 3.62747 4.12745 3.51207C4.24286 3.39666 4.30769 3.24013 4.30769 3.07692V2.46154H10.4615V3.07692C10.4615 3.24013 10.5264 3.39666 10.6418 3.51207C10.7572 3.62747 10.9137 3.69231 11.0769 3.69231C11.2401 3.69231 11.3967 3.62747 11.5121 3.51207C11.6275 3.39666 11.6923 3.24013 11.6923 3.07692V2.46154H13.5385V4.92308H1.23077V2.46154H3.07692ZM13.5385 14.7692H1.23077V6.15385H13.5385V14.7692ZM8.30769 8.92308C8.30769 9.10564 8.25355 9.28411 8.15213 9.43591C8.0507 9.58771 7.90653 9.70602 7.73786 9.77589C7.56919 9.84575 7.38359 9.86403 7.20453 9.82842C7.02547 9.7928 6.861 9.70489 6.7319 9.57579C6.60281 9.4467 6.51489 9.28222 6.47928 9.10316C6.44366 8.9241 6.46194 8.7385 6.5318 8.56983C6.60167 8.40116 6.71998 8.257 6.87178 8.15557C7.02358 8.05414 7.20205 8 7.38462 8C7.62943 8 7.86422 8.09725 8.03733 8.27036C8.21044 8.44347 8.30769 8.67826 8.30769 8.92308ZM11.6923 8.92308C11.6923 9.10564 11.6382 9.28411 11.5367 9.43591C11.4353 9.58771 11.2911 9.70602 11.1225 9.77589C10.9538 9.84575 10.7682 9.86403 10.5891 9.82842C10.4101 9.7928 10.2456 9.70489 10.1165 9.57579C9.98742 9.4467 9.89951 9.28222 9.86389 9.10316C9.82827 8.9241 9.84655 8.7385 9.91642 8.56983C9.98629 8.40116 10.1046 8.257 10.2564 8.15557C10.4082 8.05414 10.5867 8 10.7692 8C11.014 8 11.2488 8.09725 11.4219 8.27036C11.5951 8.44347 11.6923 8.67826 11.6923 8.92308ZM4.92308 12C4.92308 12.1826 4.86894 12.361 4.76751 12.5128C4.66608 12.6646 4.52192 12.7829 4.35325 12.8528C4.18458 12.9227 3.99898 12.941 3.81992 12.9053C3.64086 12.8697 3.47638 12.7818 3.34729 12.6527C3.21819 12.5236 3.13028 12.3591 3.09466 12.1801C3.05904 12.001 3.07732 11.8154 3.14719 11.6468C3.21705 11.4781 3.33537 11.3339 3.48717 11.2325C3.63897 11.1311 3.81743 11.0769 4 11.0769C4.24482 11.0769 4.4796 11.1742 4.65271 11.3473C4.82582 11.5204 4.92308 11.7552 4.92308 12ZM8.30769 12C8.30769 12.1826 8.25355 12.361 8.15213 12.5128C8.0507 12.6646 7.90653 12.7829 7.73786 12.8528C7.56919 12.9227 7.38359 12.941 7.20453 12.9053C7.02547 12.8697 6.861 12.7818 6.7319 12.6527C6.60281 12.5236 6.51489 12.3591 6.47928 12.1801C6.44366 12.001 6.46194 11.8154 6.5318 11.6468C6.60167 11.4781 6.71998 11.3339 6.87178 11.2325C7.02358 11.1311 7.20205 11.0769 7.38462 11.0769C7.62943 11.0769 7.86422 11.1742 8.03733 11.3473C8.21044 11.5204 8.30769 11.7552 8.30769 12ZM11.6923 12C11.6923 12.1826 11.6382 12.361 11.5367 12.5128C11.4353 12.6646 11.2911 12.7829 11.1225 12.8528C10.9538 12.9227 10.7682 12.941 10.5891 12.9053C10.4101 12.8697 10.2456 12.7818 10.1165 12.6527C9.98742 12.5236 9.89951 12.3591 9.86389 12.1801C9.82827 12.001 9.84655 11.8154 9.91642 11.6468C9.98629 11.4781 10.1046 11.3339 10.2564 11.2325C10.4082 11.1311 10.5867 11.0769 10.7692 11.0769C11.014 11.0769 11.2488 11.1742 11.4219 11.3473C11.5951 11.5204 11.6923 11.7552 11.6923 12Z" fill="#24394A"/>
</svg>
