<svg xmlns="http://www.w3.org/2000/svg" width="22.396" height="20.263" viewBox="0 0 22.396 20.263">
  <path id="crown" d="M21.245,4.64a1.73,1.73,0,0,0-2.034.449L16.8,7.765,12.518,3.02a1.74,1.74,0,0,0-2.639,0L5.6,7.765,3.186,5.089a1.735,1.735,0,0,0-2.034-.448A2.083,2.083,0,0,0,0,6.552V17.5a4.945,4.945,0,0,0,4.666,5.173H17.731A4.945,4.945,0,0,0,22.4,17.5V6.552A2.083,2.083,0,0,0,21.245,4.64ZM20.53,17.5a2.963,2.963,0,0,1-2.8,3.1H4.666a2.963,2.963,0,0,1-2.8-3.1V6.552L4.939,9.959a.87.87,0,0,0,1.32,0L11.2,4.483l4.939,5.476a.87.87,0,0,0,1.32,0L20.53,6.552Z" transform="translate(0 -2.414)" fill="#090909"/>
</svg>
