<svg xmlns="http://www.w3.org/2000/svg" width="21.767" height="24" viewBox="0 0 21.767 24">
  <path id="Combined-Shape" d="M15.4,0a.838.838,0,0,1,.837.837v.946a6.008,6.008,0,0,1,3.942,1.63,6,6,0,0,1,1.591,4.372V17.97c0,3.719-2.362,6.03-6.163,6.03H6.163C2.362,24,0,21.657,0,17.885V7.784a5.579,5.579,0,0,1,5.542-6V.837a.837.837,0,0,1,1.674,0v.925H14.56V.837A.838.838,0,0,1,15.4,0Zm4.7,9.939H1.674v7.946c0,2.864,1.594,4.441,4.489,4.441H15.6c2.894,0,4.489-1.547,4.489-4.356Zm-4.241,7.024a.837.837,0,1,1-.01,0Zm-4.953,0a.837.837,0,1,1-.01,0Zm-4.964,0a.838.838,0,1,1-.01,0Zm9.917-4.339a.837.837,0,1,1-.01,0Zm-4.953,0a.837.837,0,1,1-.01,0Zm-4.964,0a.838.838,0,1,1-.01,0ZM14.56,3.437H7.217V4.511a.837.837,0,0,1-1.674,0V3.462c-2.5.21-3.868,1.726-3.868,4.322v.481H20.093V7.784a4.314,4.314,0,0,0-1.1-3.187,4.313,4.313,0,0,0-2.756-1.134V4.511a.837.837,0,1,1-1.674,0Z" fill="#0fa968" fill-rule="evenodd"/>
</svg>
