<svg width="15" height="16" viewBox="0 0 15 16" fill="none" xmlns="http://www.w3.org/2000/svg">
<path d="M14.1538 2.46154H11.0769V1.84615C11.0769 1.35652 10.8824 0.886947 10.5362 0.540726C10.19 0.194505 9.7204 0 9.23077 0H5.53846C5.04883 0 4.57925 0.194505 4.23303 0.540726C3.88681 0.886947 3.69231 1.35652 3.69231 1.84615V2.46154H0.615385C0.452174 2.46154 0.295649 2.52637 0.180242 2.64178C0.0648351 2.75719 0 2.91371 0 3.07692C0 3.24013 0.0648351 3.39666 0.180242 3.51207C0.295649 3.62747 0.452174 3.69231 0.615385 3.69231H1.23077V14.7692C1.23077 15.0957 1.36044 15.4087 1.59125 15.6395C1.82207 15.8703 2.13512 16 2.46154 16H12.3077C12.6341 16 12.9472 15.8703 13.178 15.6395C13.4088 15.4087 13.5385 15.0957 13.5385 14.7692V3.69231H14.1538C14.3171 3.69231 14.4736 3.62747 14.589 3.51207C14.7044 3.39666 14.7692 3.24013 14.7692 3.07692C14.7692 2.91371 14.7044 2.75719 14.589 2.64178C14.4736 2.52637 14.3171 2.46154 14.1538 2.46154ZM4.92308 1.84615C4.92308 1.68294 4.98791 1.52642 5.10332 1.41101C5.21873 1.2956 5.37525 1.23077 5.53846 1.23077H9.23077C9.39398 1.23077 9.55051 1.2956 9.66591 1.41101C9.78132 1.52642 9.84615 1.68294 9.84615 1.84615V2.46154H4.92308V1.84615ZM12.3077 14.7692H2.46154V3.69231H12.3077V14.7692ZM6.15385 6.76923V11.6923C6.15385 11.8555 6.08901 12.012 5.9736 12.1275C5.8582 12.2429 5.70167 12.3077 5.53846 12.3077C5.37525 12.3077 5.21873 12.2429 5.10332 12.1275C4.98791 12.012 4.92308 11.8555 4.92308 11.6923V6.76923C4.92308 6.60602 4.98791 6.4495 5.10332 6.33409C5.21873 6.21868 5.37525 6.15385 5.53846 6.15385C5.70167 6.15385 5.8582 6.21868 5.9736 6.33409C6.08901 6.4495 6.15385 6.60602 6.15385 6.76923ZM9.84615 6.76923V11.6923C9.84615 11.8555 9.78132 12.012 9.66591 12.1275C9.55051 12.2429 9.39398 12.3077 9.23077 12.3077C9.06756 12.3077 8.91103 12.2429 8.79563 12.1275C8.68022 12.012 8.61539 11.8555 8.61539 11.6923V6.76923C8.61539 6.60602 8.68022 6.4495 8.79563 6.33409C8.91103 6.21868 9.06756 6.15385 9.23077 6.15385C9.39398 6.15385 9.55051 6.21868 9.66591 6.33409C9.78132 6.4495 9.84615 6.60602 9.84615 6.76923Z" fill="#F22828"/>
</svg>
