<svg width="72" height="72" viewBox="0 0 72 72" fill="none" xmlns="http://www.w3.org/2000/svg">
<g clip-path="url(#clip0_1477_315)">
<path d="M19.125 21.375C19.6977 21.7206 20.1786 22.1905 20.6718 22.6406C20.7571 22.7181 20.8423 22.7956 20.9301 22.8755C22.1686 24.0088 23.3673 25.1825 24.5566 26.3672C24.6731 26.4831 24.7897 26.599 24.9098 26.7184C25.5887 27.3991 26.2331 28.0989 26.8593 28.8281C26.9996 28.9859 27.1402 29.1434 27.2812 29.3005C28.5414 30.7188 29.6819 32.2157 30.7968 33.75C30.8599 33.8366 30.923 33.9233 30.988 34.0126C31.1484 34.2345 31.3067 34.458 31.4648 34.6816C31.5663 34.8205 31.6678 34.9593 31.7724 35.1024C32.0152 35.5006 32.1521 35.8132 32.2998 36.2472C32.5997 37.0221 32.8737 37.6699 33.6093 38.1094C34.6855 38.3903 35.8525 38.3204 36.954 38.2795C37.0679 38.2755 37.1817 38.2716 37.2991 38.2675C37.5153 38.2583 37.7314 38.2458 37.9472 38.2294C38.7326 38.1875 39.1483 38.3648 39.7968 38.8125C40.5515 39.608 40.6824 40.3255 40.6725 41.3958C40.6726 41.5125 40.6726 41.6292 40.6726 41.7494C40.6724 42.1337 40.6703 42.5179 40.668 42.9022C40.6675 43.1691 40.6671 43.4361 40.6668 43.7031C40.6658 44.4048 40.663 45.1064 40.6599 45.808C40.657 46.5244 40.6557 47.2408 40.6543 47.9572C40.6513 49.3621 40.6465 50.767 40.6406 52.1719C40.7838 52.1689 40.927 52.166 41.0745 52.1629C41.6102 52.1527 42.1459 52.1463 42.6816 52.141C42.9127 52.1382 43.1437 52.1343 43.3747 52.1294C43.7085 52.1225 44.0421 52.1194 44.3759 52.1169C44.5287 52.1126 44.5287 52.1126 44.6846 52.1081C45.5353 52.1078 46.2621 52.3524 46.903 52.928C47.6162 53.7242 47.7139 54.5541 47.7105 55.5842C47.7115 55.7545 47.7115 55.7545 47.7126 55.9282C47.7146 56.3017 47.7145 56.6752 47.7141 57.0487C47.7147 57.3096 47.7153 57.5706 47.716 57.8315C47.717 58.3779 47.717 58.9242 47.7162 59.4706C47.7154 60.1688 47.7178 60.867 47.7211 61.5652C47.7231 62.104 47.7232 62.6428 47.7228 63.1816C47.7229 63.4389 47.7236 63.6963 47.725 63.9536C47.7268 64.3143 47.7258 64.675 47.7242 65.0357C47.7253 65.1408 47.7263 65.2459 47.7274 65.3541C47.7191 66.1939 47.5638 66.991 47.0033 67.6489C46.9194 67.7129 46.8355 67.7768 46.749 67.8428C46.6647 67.9093 46.5804 67.9758 46.4935 68.0444C45.793 68.5322 44.9187 68.3814 44.0947 68.3877C43.9184 68.3918 43.7421 68.3959 43.5605 68.4001C43.3918 68.4012 43.2231 68.4024 43.0493 68.4036C42.8167 68.4067 42.8167 68.4067 42.5794 68.4098C42.1875 68.3438 42.1875 68.3438 41.9227 68.0851C41.7656 67.7812 41.7656 67.7812 41.7656 67.3594C41.3288 67.3626 40.8926 67.3734 40.456 67.3857C40.2702 67.387 40.2702 67.387 40.0806 67.3882C39.7375 67.4 39.427 67.4173 39.0937 67.5C38.7933 67.8281 38.7933 67.8281 38.6718 68.2031C38.4115 68.4635 38.0435 68.3619 37.6971 68.3633C37.5801 68.363 37.4631 68.3627 37.3425 68.3624C37.1627 68.3626 37.1627 68.3626 36.9793 68.3628C36.7249 68.3629 36.4704 68.3627 36.216 68.3621C35.8278 68.3613 35.4395 68.3621 35.0513 68.363C34.8043 68.3629 34.5573 68.3627 34.3103 68.3624C34.1364 68.3629 34.1364 68.3629 33.9591 68.3633C33.3968 68.361 32.896 68.3146 32.3437 68.2031C32.2045 68.2495 32.0653 68.2959 31.9218 68.3438C31.7122 68.3574 31.5021 68.3633 31.2921 68.3644C31.0985 68.366 31.0985 68.366 30.9011 68.3675C30.7597 68.3679 30.6184 68.3683 30.4728 68.3686C30.3236 68.3696 30.1744 68.3705 30.0208 68.3714C29.5252 68.3742 29.0297 68.3759 28.5342 68.3773C28.3643 68.3778 28.1945 68.3784 28.0195 68.379C27.1181 68.3819 26.2167 68.3839 25.3154 68.3853C24.3908 68.3868 23.4662 68.3916 22.5416 68.3972C21.8258 68.4009 21.11 68.4021 20.3941 68.4026C20.0538 68.4033 19.7135 68.4049 19.3731 68.4075C16.7758 68.4263 14.2796 68.2508 11.8476 67.2627C11.726 67.2145 11.6043 67.1664 11.479 67.1167C7.91689 65.6649 4.87067 63.1646 2.81246 59.9062C2.75757 59.8197 2.70269 59.7331 2.64615 59.6439C0.12527 55.5924 -0.771466 50.5128 0.295488 45.8367C0.37863 45.509 0.468919 45.1843 0.562455 44.8594C0.594156 44.745 0.625856 44.6306 0.658517 44.5128C1.53496 41.4235 3.01754 38.5324 4.78121 35.8594C4.85079 35.7535 4.92038 35.6477 4.99207 35.5386C5.20128 35.2225 5.41243 34.9077 5.62496 34.5937C5.68923 34.4985 5.7535 34.4032 5.81972 34.305C6.10631 33.8904 6.32595 33.6108 6.74996 33.3281C6.92108 33.3513 7.0922 33.3745 7.26851 33.3984C7.57101 33.424 7.57101 33.424 7.87496 33.3281C8.45668 32.7861 8.98647 32.1043 9.28121 31.3594C9.2348 31.2666 9.18839 31.1737 9.14058 31.0781C9.05494 30.667 9.02792 30.4884 9.14058 30.0937C9.41291 29.7224 9.71162 29.3997 10.0332 29.0704C10.3254 28.7705 10.6017 28.4677 10.8759 28.1519C12.3278 26.4811 13.8712 24.9094 15.5096 23.422C15.7399 23.2123 15.9682 23.0007 16.196 22.7884C16.3972 22.6021 16.3972 22.6021 16.6025 22.4121C16.7172 22.3059 16.832 22.1997 16.9502 22.0902C18.1291 21.0926 18.1291 21.0926 19.125 21.375Z" fill="#020102"/>
<path d="M44.7874 3.58126C45.0513 3.58027 45.3152 3.57904 45.5791 3.57759C46.2933 3.57443 47.0074 3.57484 47.7216 3.57609C48.3188 3.57681 48.9161 3.57578 49.5133 3.57475C50.9227 3.57237 52.332 3.57286 53.7414 3.57522C55.1932 3.5776 56.645 3.57537 58.0969 3.57083C59.3455 3.56707 60.5941 3.56605 61.8428 3.56724C62.5876 3.56793 63.3324 3.56763 64.0772 3.56474C64.7778 3.56215 65.4782 3.56301 66.1788 3.56646C66.4351 3.56716 66.6915 3.56668 66.9478 3.56489C68.4372 3.55533 69.7445 3.56406 70.8925 4.6392C71.7084 5.48758 72.0523 6.32653 72.0545 7.49905C72.0557 7.64751 72.0557 7.64751 72.0568 7.79897C72.0588 8.12818 72.0578 8.4573 72.0568 8.78651C72.0576 9.02362 72.0586 9.26073 72.0598 9.49783C72.0623 10.1406 72.0621 10.7834 72.0613 11.4262C72.0609 11.9646 72.0617 12.503 72.0626 13.0413C72.0646 14.3136 72.0643 15.5859 72.0627 16.8582C72.0611 18.1651 72.0631 19.4719 72.0669 20.7788C72.07 21.9047 72.0709 23.0306 72.0701 24.1565C72.0696 24.8272 72.0699 25.4978 72.0724 26.1685C72.0746 26.8009 72.074 27.4333 72.0714 28.0657C72.0708 28.2957 72.0713 28.5257 72.0727 28.7558C72.096 32.6409 70.7898 36.4432 68.2031 39.375C68.0454 39.5629 68.0454 39.5629 67.8845 39.7546C66.1351 41.7777 63.422 43.793 60.75 44.2969C60.7516 44.4715 60.7531 44.6461 60.7547 44.826C60.769 46.471 60.7795 48.116 60.7864 49.761C60.7901 50.6068 60.7951 51.4525 60.8031 52.2982C60.8107 53.1143 60.8149 53.9303 60.8167 54.7464C60.818 55.0578 60.8206 55.3693 60.8244 55.6807C60.8295 56.1168 60.8302 56.5526 60.8298 56.9887C60.8336 57.1821 60.8336 57.1821 60.8375 57.3795C60.8326 57.9902 60.8064 58.2785 60.4487 58.7911C59.9761 59.1104 59.7293 59.1508 59.1627 59.1513C58.9872 59.153 58.8117 59.1548 58.6309 59.1566C58.4406 59.1549 58.2503 59.153 58.06 59.151C57.8637 59.1511 57.6675 59.1514 57.4712 59.152C57.0606 59.1524 56.6502 59.1503 56.2396 59.1465C55.7139 59.1417 55.1884 59.1425 54.6626 59.1452C54.2576 59.1466 53.8527 59.1454 53.4477 59.1433C53.2539 59.1425 53.06 59.1426 52.8662 59.1435C52.5953 59.1443 52.3244 59.141 52.0535 59.1375C51.8995 59.1367 51.7454 59.1358 51.5868 59.1349C51.1875 59.0625 51.1875 59.0625 50.8561 58.8621C50.4997 58.3038 50.5511 57.7815 50.5612 57.1324C50.5611 56.9938 50.561 56.8551 50.5609 56.7123C50.5613 56.2542 50.5657 55.7962 50.5701 55.3382C50.5711 55.0205 50.5719 54.7029 50.5725 54.3853C50.5746 53.5493 50.5802 52.7133 50.5864 51.8774C50.5921 51.0243 50.5947 50.1713 50.5975 49.3182C50.6036 47.6444 50.6132 45.9707 50.625 44.2969C50.4665 44.268 50.4665 44.268 50.3048 44.2384C46.824 43.4916 43.733 40.5495 41.8066 37.6908C40.1074 35.0286 39.2196 31.9129 39.2095 28.7638C39.2086 28.6358 39.2077 28.5078 39.2067 28.376C39.2039 27.9563 39.2023 27.5367 39.2009 27.117C39.2003 26.9731 39.1997 26.8292 39.1991 26.6809C39.1962 25.9205 39.1942 25.1602 39.1929 24.3999C39.1913 23.6149 39.1865 22.83 39.1809 22.045C39.1772 21.4405 39.1761 20.836 39.1755 20.2315C39.1749 19.942 39.1732 19.6525 39.1706 19.363C39.1672 18.9588 39.1673 18.5547 39.1683 18.1504C39.1665 18.0311 39.1647 17.9118 39.1628 17.7889C39.1678 17.2311 39.1989 16.9363 39.4846 16.4437C39.7969 16.1719 39.7969 16.1719 40.3594 16.1719C40.313 15.2902 40.2666 14.4085 40.2188 13.5C39.9867 13.4072 39.7547 13.3144 39.5156 13.2188C39.1012 12.7141 39.1914 12.0416 39.1921 11.4203C39.1915 11.2996 39.1909 11.1789 39.1903 11.0545C39.1895 10.7989 39.1894 10.5434 39.19 10.2878C39.1904 9.9008 39.1872 9.51393 39.1836 9.12692C39.1717 6.01777 39.1717 6.01777 40.2363 4.86917C40.3353 4.75786 40.4343 4.64656 40.5363 4.53189C41.8194 3.48999 43.2128 3.57502 44.7874 3.58126Z" fill="#518ED6"/>
<path d="M18.4219 23.7656C19.0758 24.158 19.572 24.619 20.1028 25.1647C20.3598 25.4222 20.6226 25.6581 20.9004 25.8926C22.0832 26.9114 23.2053 28.044 24.2128 29.2363C24.4867 29.552 24.7721 29.8557 25.0587 30.1599C25.9372 31.0948 26.7412 32.0695 27.5193 33.0889C27.6951 33.3176 27.8735 33.544 28.0531 33.7698C29.1508 35.1633 30.3064 36.6457 31.0781 38.25C30.8761 38.252 30.8761 38.252 30.67 38.254C30.1657 38.2596 29.6615 38.2689 29.1572 38.2792C28.9399 38.2831 28.7225 38.2861 28.5051 38.2881C26.8016 38.2496 26.8016 38.2496 25.3125 38.9531C24.6862 39.7098 24.506 40.363 24.5167 41.3289C24.5152 41.4484 24.5137 41.5679 24.5122 41.691C24.5082 42.0821 24.509 42.4731 24.51 42.8643C24.5081 43.1369 24.506 43.4096 24.5035 43.6823C24.4979 44.3971 24.4965 45.1119 24.4959 45.8268C24.4946 46.5574 24.4893 47.2879 24.4844 48.0185C24.4754 49.4498 24.4707 50.8811 24.4688 52.3125C24.2348 52.3123 24.2348 52.3123 23.9961 52.312C23.4131 52.3125 22.8304 52.3186 22.2475 52.3262C21.996 52.3288 21.7445 52.3298 21.493 52.3294C19.7224 52.2658 19.7224 52.2658 18.1909 53.0205C17.6346 53.8259 17.5155 54.5235 17.5173 55.4773C17.5159 55.5927 17.5145 55.7081 17.513 55.8269C17.5088 56.2051 17.5075 56.5832 17.5062 56.9614C17.5038 57.2248 17.5013 57.4882 17.4985 57.7517C17.4919 58.4427 17.4877 59.1336 17.484 59.8247C17.4798 60.5307 17.4732 61.2368 17.4669 61.9428C17.4548 63.3265 17.4453 64.7101 17.4375 66.0937C17.192 66.0961 16.9465 66.0979 16.7009 66.0993C16.5642 66.1003 16.4275 66.1013 16.2866 66.1024C15.7531 66.0907 15.264 66.0037 14.7481 65.874C14.6474 65.8492 14.5467 65.8244 14.443 65.7989C11.6527 65.0719 9.28865 63.6658 7.17189 61.7344C7.06983 61.6439 6.96777 61.5535 6.86262 61.4603C4.90255 59.6274 3.68386 57.2454 2.83009 54.7383C2.7898 54.6203 2.74952 54.5024 2.70801 54.3809C1.13089 49.5119 2.49951 44.6309 4.7309 40.2281C5.62848 38.5105 6.66175 36.8474 7.8459 35.3117C8.06556 34.9285 8.12636 34.611 8.15626 34.1719C8.06345 34.0327 7.97064 33.8934 7.87501 33.75C7.91926 33.2479 8.17306 32.9404 8.48146 32.5547C8.56503 32.4488 8.64859 32.343 8.73469 32.2339C8.9968 31.9257 9.2724 31.6412 9.56251 31.3594C9.70173 31.429 9.70173 31.429 9.84376 31.5C10.2478 31.5704 10.2478 31.5704 10.6875 31.5C11.1554 31.0738 11.5744 30.6006 12.0026 30.1349C13.151 28.8898 14.3424 27.6886 15.5391 26.4902C15.6254 26.4036 15.7117 26.3169 15.8006 26.2277C16.0514 25.976 16.3027 25.7249 16.5542 25.474C16.6658 25.362 16.6658 25.362 16.7796 25.2478C17.3046 24.726 17.8542 24.2406 18.4219 23.7656Z" fill="#FC7F86"/>
<path d="M9.05372 47.2921C10.041 47.9767 10.806 48.959 11.0858 50.167C11.1515 50.9362 11.1031 51.5939 10.6398 52.226C10.2942 52.6086 9.78186 52.8377 9.27854 52.8745C8.02076 52.8934 7.1015 52.3342 6.2013 51.4706C5.45691 50.6855 5.05262 49.7738 5.06268 48.6871C5.08336 48.1239 5.22373 47.5953 5.63334 47.1972C6.74469 46.4192 7.93709 46.5969 9.05372 47.2921Z" fill="#030101"/>
<path d="M7.76998 47.8986C8.7669 48.263 9.51161 48.9742 9.95868 49.8976C10.1491 50.3679 10.1989 50.8942 9.98629 51.3612C9.68418 51.6522 9.40774 51.7281 8.99218 51.75C8.27509 51.7282 7.69186 51.3801 7.16964 50.9315C7.10694 50.8802 7.10694 50.8802 7.04298 50.8279C6.56253 50.4061 6.12971 49.758 6.05445 49.1292C6.03513 48.3645 6.03513 48.3645 6.27748 48.0912C6.67204 47.7331 7.26735 47.7817 7.76998 47.8986Z" fill="#F3324B"/>
<path d="M22.851 41.0012C23.2387 41.2353 23.6021 41.5194 23.7363 41.9666C23.7817 42.3802 23.8063 42.7868 23.5608 43.1397C23.1272 43.6413 22.6599 43.9283 21.9961 44.013C21.2186 44.0444 20.685 43.791 20.1197 43.2678C19.8165 42.9139 19.8245 42.5594 19.8296 42.1092C19.8597 41.8284 19.933 41.7007 20.1199 41.4951C20.1655 41.5187 20.2111 41.5423 20.2581 41.5666C20.5072 41.6466 20.6712 41.6247 20.9236 41.5624C21.0774 41.3304 21.0937 41.1624 21.1245 40.8888C21.6606 40.7091 22.3428 40.76 22.851 41.0012Z" fill="#FEFDFD"/>
<path d="M10.5148 40.7172C10.5221 40.7648 10.5294 40.8124 10.537 40.8615C10.5476 40.9235 10.5582 40.9855 10.5691 41.0494C10.5792 41.1111 10.5893 41.1728 10.5997 41.2363C10.6372 41.4221 10.6372 41.4221 10.8492 41.535C11.0059 41.5175 11.1621 41.4946 11.3173 41.4668C11.4056 41.4668 11.4939 41.4668 11.5849 41.4668C11.8252 41.7705 11.8194 42.0454 11.8085 42.4206C11.7624 42.831 11.6005 43.1097 11.309 43.3919C10.7172 43.8576 10.1109 43.9199 9.37774 43.8519C8.79998 43.7357 8.39007 43.4415 8.04008 42.966C7.82502 42.6151 7.86821 42.2058 7.90632 41.8075C8.00664 41.5776 8.00664 41.5776 8.17385 41.3987C8.21049 41.359 8.24713 41.3193 8.28488 41.2783C8.91256 40.6533 9.67911 40.538 10.5148 40.7172Z" fill="#FEFDFD"/>
<path d="M13.6989 44.4658C14.0302 44.7213 14.1201 44.962 14.2115 45.3698C14.2968 45.4736 14.2968 45.4736 14.5319 45.4687C14.7939 45.473 14.7939 45.473 14.9301 45.3227C15.0246 45.1393 15.0246 45.1393 15.0903 44.9131C15.1977 44.5884 15.1977 44.5884 15.3832 44.4658C15.5937 44.4281 15.5937 44.4281 15.8226 44.4658C16.1538 44.7213 16.2437 44.962 16.3352 45.3698C16.4204 45.4736 16.4204 45.4736 16.6555 45.4687C16.9164 45.4724 16.9164 45.4724 17.0537 45.3274C17.152 45.1342 17.152 45.1342 17.2139 44.8707C17.2871 44.6164 17.2871 44.6164 17.5068 44.4658C17.758 44.4328 17.8973 44.438 18.1201 44.5646C18.3163 44.8985 18.3028 45.2176 18.2391 45.5958C18.0801 46.0118 17.8359 46.2826 17.461 46.5046C17.0434 46.6913 16.6371 46.7254 16.1887 46.6506C16.0294 46.5767 16.0294 46.5767 15.8958 46.4905C15.8233 46.4439 15.7508 46.3972 15.6761 46.3492C15.5151 46.3881 15.5151 46.3881 15.3832 46.4999C14.9553 46.7095 14.5299 46.7067 14.0651 46.6506C13.6023 46.4736 13.2801 46.1116 13.0319 45.6809C12.9119 45.3857 12.9262 45.0805 12.9666 44.7671C13.1568 44.4511 13.3485 44.3995 13.6989 44.4658Z" fill="#040202"/>
<path d="M11.2692 39.1255C11.5227 39.2691 11.5227 39.2691 11.7472 39.5157C11.8183 39.8078 11.814 40.0881 11.8069 40.3876C11.8087 40.4655 11.8106 40.5434 11.8125 40.6237C11.8091 41.045 11.782 41.2247 11.5261 41.5705C11.2692 41.7595 11.2692 41.7595 10.9227 41.7656C10.5559 41.6478 10.4888 41.6115 10.3132 41.2717C10.2692 40.9784 10.2689 40.6901 10.2714 40.3937C10.2695 40.315 10.2676 40.2363 10.2656 40.1552C10.2659 39.7787 10.2678 39.5794 10.4895 39.2688C10.7735 39.0714 10.9319 39.0693 11.2692 39.1255Z" fill="#050404"/>
<path d="M20.9229 39.1291C21.199 39.324 21.408 39.4804 21.4945 39.8037C21.5145 40.0192 21.5155 40.2281 21.5095 40.4443C21.5115 40.5171 21.5135 40.5898 21.5156 40.6647C21.5118 41.0716 21.4761 41.2336 21.2032 41.5674C20.9229 41.7595 20.9229 41.7595 20.5449 41.7656C20.1448 41.648 20.0716 41.6117 19.8801 41.2724C19.832 40.9794 19.8317 40.6916 19.8344 40.3956C19.8324 40.317 19.8303 40.2384 19.8281 40.1574C19.8285 39.7816 19.8303 39.5826 20.0723 39.2726C20.3846 39.0734 20.5522 39.0655 20.9229 39.1291Z" fill="#050404"/>
<path d="M44.7874 3.58126C45.0513 3.58027 45.3152 3.57904 45.5791 3.57759C46.2933 3.57443 47.0074 3.57484 47.7216 3.57609C48.3188 3.57681 48.9161 3.57578 49.5133 3.57475C50.9227 3.57237 52.332 3.57286 53.7414 3.57522C55.1932 3.5776 56.645 3.57537 58.0969 3.57083C59.3455 3.56707 60.5941 3.56605 61.8428 3.56724C62.5876 3.56793 63.3324 3.56763 64.0772 3.56474C64.7778 3.56215 65.4782 3.56301 66.1788 3.56646C66.4351 3.56716 66.6915 3.56668 66.9478 3.56489C68.4372 3.55533 69.7445 3.56406 70.8925 4.6392C71.7084 5.48758 72.0523 6.32653 72.0545 7.49905C72.0557 7.64751 72.0557 7.64751 72.0568 7.79897C72.0588 8.12818 72.0578 8.4573 72.0568 8.78651C72.0576 9.02362 72.0586 9.26073 72.0598 9.49783C72.0623 10.1406 72.0621 10.7834 72.0613 11.4262C72.0609 11.9646 72.0617 12.503 72.0626 13.0413C72.0646 14.3136 72.0643 15.5859 72.0627 16.8582C72.0611 18.1651 72.0631 19.4719 72.0669 20.7788C72.07 21.9047 72.0709 23.0306 72.0701 24.1565C72.0696 24.8272 72.0699 25.4978 72.0724 26.1685C72.0746 26.8009 72.074 27.4333 72.0714 28.0657C72.0708 28.2957 72.0713 28.5257 72.0727 28.7558C72.096 32.6409 70.7898 36.4432 68.2031 39.375C68.0454 39.5629 68.0454 39.5629 67.8845 39.7546C66.1351 41.7777 63.422 43.793 60.75 44.2969C60.7516 44.4715 60.7531 44.6461 60.7547 44.826C60.769 46.471 60.7795 48.116 60.7864 49.761C60.7901 50.6068 60.7951 51.4525 60.8031 52.2982C60.8107 53.1143 60.8149 53.9303 60.8167 54.7464C60.818 55.0578 60.8206 55.3693 60.8244 55.6807C60.8295 56.1168 60.8302 56.5526 60.8298 56.9887C60.8336 57.1821 60.8336 57.1821 60.8375 57.3795C60.8326 57.9902 60.8064 58.2785 60.4487 58.7911C59.9761 59.1104 59.7293 59.1508 59.1627 59.1513C58.9872 59.153 58.8117 59.1548 58.6309 59.1566C58.4406 59.1549 58.2503 59.153 58.06 59.151C57.8637 59.1511 57.6675 59.1514 57.4712 59.152C57.0606 59.1524 56.6502 59.1503 56.2396 59.1465C55.7139 59.1417 55.1884 59.1425 54.6626 59.1452C54.2576 59.1466 53.8527 59.1454 53.4477 59.1433C53.2539 59.1425 53.06 59.1426 52.8662 59.1435C52.5953 59.1443 52.3244 59.141 52.0535 59.1375C51.8995 59.1367 51.7454 59.1358 51.5868 59.1349C51.1875 59.0625 51.1875 59.0625 50.8561 58.8621C50.4997 58.3038 50.5511 57.7815 50.5612 57.1324C50.5611 56.9938 50.561 56.8551 50.5609 56.7123C50.5613 56.2542 50.5657 55.7962 50.5701 55.3382C50.5711 55.0205 50.5719 54.7029 50.5725 54.3853C50.5746 53.5493 50.5802 52.7133 50.5864 51.8774C50.5921 51.0243 50.5947 50.1713 50.5975 49.3182C50.6036 47.6444 50.6132 45.9707 50.625 44.2969C50.4665 44.268 50.4665 44.268 50.3048 44.2384C46.824 43.4916 43.733 40.5495 41.8066 37.6908C40.1074 35.0286 39.2196 31.9129 39.2095 28.7638C39.2086 28.6358 39.2077 28.5078 39.2067 28.376C39.2039 27.9563 39.2023 27.5367 39.2009 27.117C39.2003 26.9731 39.1997 26.8292 39.1991 26.6809C39.1962 25.9205 39.1942 25.1602 39.1929 24.3999C39.1913 23.6149 39.1865 22.83 39.1809 22.045C39.1772 21.4405 39.1761 20.836 39.1755 20.2315C39.1749 19.942 39.1732 19.6525 39.1706 19.363C39.1672 18.9588 39.1673 18.5547 39.1683 18.1504C39.1665 18.0311 39.1647 17.9118 39.1628 17.7889C39.1678 17.2292 39.1957 16.9397 39.4896 16.4492C39.7969 16.1719 39.7969 16.1719 40.2803 16.084C40.9219 16.1966 41.091 16.3597 41.4844 16.875C41.5851 17.3055 41.5787 17.7245 41.5727 18.1651C41.5737 18.2939 41.5747 18.4228 41.5758 18.5555C41.5784 18.9812 41.5761 19.4068 41.5739 19.8325C41.5751 20.1298 41.5765 20.4271 41.5784 20.7244C41.5824 21.5079 41.5824 22.2913 41.5815 23.0748C41.5804 24.3247 41.5849 25.5746 41.5902 26.8245C41.5915 27.2589 41.5907 27.6933 41.5897 28.1277C41.5904 30.0031 41.6624 31.7591 42.3457 33.5303C42.3889 33.6438 42.4321 33.7573 42.4766 33.8742C43.8828 37.455 46.5747 40.1966 50.0889 41.7481C53.6762 43.274 57.6505 43.1188 61.2422 41.7041C62.6279 41.0827 63.8108 40.3587 64.9688 39.375C65.106 39.2663 65.2432 39.1575 65.3846 39.0454C65.8408 38.6645 66.2051 38.2353 66.5684 37.7666C66.6681 37.6385 66.6681 37.6385 66.7698 37.5077C68.274 35.5301 69.2198 33.3912 69.6094 30.9375C69.6338 30.7868 69.6581 30.6361 69.6832 30.4809C69.7996 29.5282 69.7732 28.5652 69.7749 27.607C69.7758 27.3837 69.7767 27.1605 69.7777 26.9372C69.7806 26.2078 69.7821 25.4784 69.7835 24.7489C69.7841 24.4972 69.7847 24.2454 69.7853 23.9936C69.7879 22.8116 69.7899 21.6297 69.7911 20.4477C69.7925 19.0848 69.7962 17.7219 69.8019 16.3589C69.8061 15.3039 69.8082 14.2489 69.8087 13.1938C69.809 12.5642 69.8102 11.9347 69.8138 11.3051C69.8171 10.7134 69.8177 10.1218 69.8162 9.53009C69.8161 9.3132 69.817 9.0963 69.819 8.87942C69.8215 8.58289 69.8205 8.28657 69.8186 7.99003C69.8191 7.7414 69.8191 7.7414 69.8196 7.48774C69.7332 6.92121 69.5562 6.62358 69.1875 6.18753C68.63 5.85549 68.0614 5.86584 67.4285 5.86867C67.3234 5.86803 67.2184 5.86739 67.1101 5.86674C66.7586 5.86496 66.4071 5.86519 66.0556 5.86542C65.8034 5.86458 65.5511 5.86362 65.2988 5.86256C64.614 5.86007 63.9292 5.85941 63.2444 5.85923C62.6726 5.85897 62.1009 5.85793 61.5292 5.85694C60.1804 5.85465 58.8316 5.85396 57.4828 5.85416C56.0913 5.85433 54.6999 5.85136 53.3085 5.84692C52.1137 5.84324 50.919 5.84173 49.7242 5.84191C49.0107 5.84198 48.2972 5.84118 47.5836 5.83821C46.9127 5.83548 46.2417 5.83546 45.5708 5.83751C45.3246 5.8378 45.0785 5.83714 44.8323 5.83544C44.4961 5.83327 44.16 5.83457 43.8237 5.83674C43.7265 5.83529 43.6293 5.83385 43.5292 5.83236C42.8346 5.84224 42.4405 6.03362 41.9063 6.46878C41.6209 6.89682 41.5901 6.97693 41.5913 7.45665C41.5905 7.62635 41.5905 7.62635 41.5897 7.79947C41.5903 7.92121 41.5909 8.04294 41.5915 8.16836C41.5893 8.42654 41.587 8.68472 41.5846 8.9429C41.5823 9.34964 41.5811 9.75631 41.5821 10.1631C41.5824 10.5559 41.5785 10.9484 41.5739 11.3412C41.5754 11.4624 41.5768 11.5835 41.5783 11.7084C41.5681 12.3315 41.5463 12.5787 41.1448 13.0818C40.6133 13.4877 40.6133 13.4877 40.2188 13.5C39.8357 13.3997 39.5953 13.3269 39.3568 13.0032C39.1733 12.4831 39.1915 11.9654 39.1921 11.4203C39.1915 11.2996 39.1909 11.1789 39.1903 11.0545C39.1895 10.7989 39.1894 10.5434 39.19 10.2878C39.1904 9.9008 39.1872 9.51393 39.1836 9.12692C39.1717 6.01777 39.1717 6.01777 40.2363 4.86917C40.3353 4.75786 40.4343 4.64656 40.5363 4.53189C41.8194 3.48999 43.2128 3.57502 44.7874 3.58126Z" fill="#000101"/>
<path d="M46.7371 10.1071C46.982 10.1065 46.982 10.1065 47.2318 10.1059C47.503 10.1063 47.503 10.1063 47.7795 10.1067C47.9705 10.1066 48.1615 10.1063 48.3525 10.106C48.8726 10.1054 49.3926 10.1056 49.9127 10.1061C50.4558 10.1064 50.9989 10.1061 51.5419 10.1059C52.4541 10.1056 53.3663 10.1059 54.2785 10.1066C55.3346 10.1074 56.3907 10.1071 57.4468 10.1064C58.3519 10.1057 59.257 10.1056 60.1622 10.106C60.7035 10.1062 61.2448 10.1062 61.7861 10.1058C62.2949 10.1054 62.8036 10.1056 63.3124 10.1065C63.5893 10.1067 63.8662 10.1063 64.1431 10.1059C64.3064 10.1063 64.4697 10.1067 64.6379 10.1071C64.8521 10.1072 64.8521 10.1072 65.0706 10.1072C65.3906 10.1249 65.3906 10.1249 65.5312 10.2656C65.5454 10.6836 65.5504 11.0983 65.5494 11.5163C65.5498 11.7132 65.5498 11.7132 65.5502 11.914C65.5508 12.3502 65.5504 12.7864 65.5499 13.2225C65.55 13.5243 65.5501 13.8261 65.5503 14.1279C65.5505 14.7615 65.5502 15.395 65.5496 16.0285C65.5488 16.8421 65.5492 17.6557 65.5501 18.4692C65.5506 19.0928 65.5504 19.7163 65.5501 20.3399C65.55 20.6399 65.5501 20.94 65.5504 21.24C65.5508 21.6589 65.5502 22.0777 65.5494 22.4966C65.5497 22.6216 65.55 22.7466 65.5503 22.8754C65.5473 23.7334 65.5473 23.7334 65.3906 24.0468C62.8628 24.0501 60.335 24.0526 57.8071 24.0541C56.6335 24.0548 55.4599 24.0558 54.2862 24.0574C53.2637 24.0588 52.2411 24.0597 51.2185 24.06C50.6767 24.0602 50.135 24.0607 49.5932 24.0617C49.0838 24.0626 48.5745 24.0629 48.0651 24.0627C47.7879 24.0628 47.5106 24.0635 47.2334 24.0643C47.0699 24.0641 46.9064 24.0639 46.738 24.0637C46.595 24.0639 46.4521 24.064 46.3047 24.0641C45.9844 24.0468 45.9844 24.0468 45.8437 23.9062C45.8296 23.4832 45.8246 23.0634 45.8255 22.6403C45.8253 22.5075 45.8251 22.3746 45.8248 22.2377C45.8242 21.7963 45.8246 21.3549 45.8251 20.9135C45.825 20.6082 45.8248 20.3029 45.8247 19.9977C45.8244 19.3569 45.8248 18.7162 45.8254 18.0754C45.8262 17.2521 45.8257 16.4287 45.8249 15.6054C45.8244 14.9747 45.8246 14.344 45.8249 13.7134C45.825 13.4097 45.8249 13.106 45.8246 12.8023C45.8242 12.3787 45.8248 11.9551 45.8255 11.5315C45.8253 11.4046 45.825 11.2778 45.8247 11.1472C45.8283 10.1074 45.8283 10.1074 46.7371 10.1071Z" fill="#DEF5FC"/>
<path d="M47.6729 28.3836C47.8911 28.3815 47.8911 28.3815 48.1137 28.3794C48.2733 28.3785 48.4328 28.3777 48.5972 28.3769C48.7653 28.3755 48.9334 28.3741 49.1066 28.3727C49.6644 28.3685 50.2221 28.3654 50.7799 28.3628C50.8749 28.3624 50.9699 28.3619 51.0678 28.3614C51.9647 28.3571 52.8616 28.3533 53.7585 28.351C54.9038 28.3479 56.0489 28.342 57.1942 28.3322C58.0005 28.3255 58.8067 28.3221 59.613 28.3211C60.094 28.3204 60.5749 28.3183 61.0559 28.3127C61.5935 28.3072 62.1309 28.3071 62.6685 28.3082C62.8263 28.3054 62.9842 28.3026 63.1468 28.2997C64.1922 28.3093 64.8964 28.5284 65.6718 29.25C66.2402 30.0169 66.3221 30.7586 66.2958 31.6933C66.2926 31.8699 66.2926 31.8699 66.2893 32.05C66.2193 34.2907 65.1126 35.4847 63.5712 37.0195C63.4644 37.1286 63.3575 37.2378 63.2474 37.3502C62.0594 38.5392 60.9829 39.2635 59.2438 39.2752C59.0621 39.277 58.8805 39.2788 58.6933 39.2806C58.4974 39.2811 58.3015 39.2814 58.1055 39.2816C57.9019 39.2825 57.6982 39.2834 57.4946 39.2844C57.0688 39.2861 56.6431 39.2866 56.2173 39.2865C55.6747 39.2864 55.1321 39.2903 54.5895 39.2951C54.1692 39.2983 53.7489 39.2988 53.3285 39.2987C53.1286 39.299 52.9287 39.3002 52.7288 39.3024C50.9777 39.3198 49.9265 39.0286 48.6589 37.821C48.594 37.7572 48.529 37.6935 48.4621 37.6278C48.1907 37.3638 47.9143 37.1056 47.6383 36.8465C46.1216 35.4043 45.1444 34.4225 45.062 32.2633C45.059 32.1187 45.0559 31.9741 45.0527 31.8252C45.0493 31.6864 45.0459 31.5476 45.0425 31.4046C45.0533 30.4645 45.2368 29.836 45.8437 29.1093C46.438 28.5575 46.8715 28.3898 47.6729 28.3836Z" fill="#010202"/>
<path d="M46.3691 7.99494C46.5373 7.99394 46.7054 7.99293 46.8787 7.9919C47.0634 7.99152 47.2482 7.99114 47.4385 7.99075C47.6349 7.98987 47.8312 7.98893 48.0276 7.98795C48.6728 7.98499 49.3179 7.98353 49.9631 7.98213C50.1854 7.98156 50.4077 7.98098 50.63 7.9804C51.6745 7.97772 52.7191 7.97572 53.7637 7.97454C54.9684 7.97317 56.1731 7.96947 57.3778 7.96379C58.3095 7.95954 59.2413 7.95746 60.1731 7.957C60.7293 7.95667 61.2855 7.95541 61.8417 7.95187C62.3654 7.94859 62.889 7.948 63.4127 7.94944C63.6953 7.94955 63.9779 7.94687 64.2604 7.94409C65.2672 7.94987 65.9455 8.0251 66.7969 8.57814C67.3303 9.13964 67.6747 9.66484 67.6782 10.4484C67.68 10.6281 67.68 10.6281 67.6819 10.8115C67.6817 11.007 67.6817 11.007 67.6815 11.2065C67.6824 11.3447 67.6834 11.4828 67.6844 11.6252C67.687 12.0824 67.6876 12.5396 67.6879 12.9968C67.6888 13.3149 67.6897 13.633 67.6907 13.9511C67.6924 14.6183 67.6929 15.2855 67.6928 15.9527C67.6927 16.8064 67.6966 17.66 67.7014 18.5137C67.7045 19.1709 67.7051 19.8282 67.705 20.4854C67.7053 20.8001 67.7065 21.1147 67.7087 21.4294C67.7115 21.8703 67.7107 22.3111 67.709 22.752C67.7105 22.8812 67.7121 23.0104 67.7137 23.1435C67.7046 24.0893 67.5029 24.8823 66.8227 25.5712C66.7417 25.6222 66.6606 25.6731 66.5772 25.7256C66.4958 25.7791 66.4144 25.8326 66.3305 25.8876C65.8329 26.1567 65.419 26.1747 64.8643 26.177C64.6118 26.1785 64.6118 26.1785 64.3542 26.18C64.1692 26.1804 63.9842 26.1808 63.7936 26.1812C63.5971 26.182 63.4005 26.183 63.2039 26.184C62.558 26.1869 61.9122 26.1884 61.2664 26.1898C61.0439 26.1903 60.8214 26.1909 60.599 26.1915C59.5537 26.1942 58.5085 26.1962 57.4632 26.1974C56.2573 26.1987 55.0514 26.2024 53.8456 26.2081C52.9131 26.2124 51.9806 26.2144 51.0481 26.2149C50.4913 26.2152 49.9346 26.2165 49.3779 26.22C48.8538 26.2233 48.3299 26.2239 47.8058 26.2225C47.5227 26.2224 47.2396 26.225 46.9565 26.2278C45.8477 26.2214 45.1683 26.1349 44.3331 25.3691C43.9031 24.813 43.7176 24.4257 43.7137 23.7279C43.7127 23.6054 43.7117 23.483 43.7106 23.3569C43.7103 23.223 43.7099 23.0891 43.7095 22.9511C43.7086 22.8098 43.7077 22.6684 43.7067 22.5228C43.7039 22.0543 43.7023 21.5859 43.7009 21.1174C43.7003 20.9575 43.6997 20.7976 43.6991 20.6328C43.6962 19.7866 43.6942 18.9404 43.6929 18.0942C43.6913 17.2198 43.6865 16.3455 43.6809 15.4712C43.6772 14.7991 43.6761 14.127 43.6755 13.4549C43.6749 13.1326 43.6732 12.8103 43.6706 12.4879C43.6672 12.0368 43.6673 11.5859 43.6683 11.1348C43.6665 11.0017 43.6647 10.8686 43.6628 10.7316C43.6703 9.78647 43.8561 9.31307 44.5216 8.62813C45.1593 8.11967 45.5658 7.99824 46.3691 7.99494ZM45.8438 10.2656C45.8296 10.6887 45.8246 11.1085 45.8256 11.5315C45.8253 11.6644 45.8251 11.7972 45.8248 11.9341C45.8242 12.3755 45.8246 12.8169 45.8251 13.2583C45.825 13.5636 45.8249 13.8689 45.8247 14.1742C45.8245 14.8149 45.8248 15.4557 45.8254 16.0964C45.8262 16.9198 45.8258 17.7431 45.8249 18.5665C45.8244 19.1971 45.8246 19.8278 45.8249 20.4585C45.825 20.7622 45.8249 21.0658 45.8246 21.3695C45.8242 21.7931 45.8248 22.2167 45.8256 22.6404C45.8253 22.7672 45.825 22.894 45.8247 23.0247C45.771 23.5802 45.771 23.5802 45.9844 24.0469C46.2353 24.0604 46.4868 24.064 46.738 24.0638C46.9833 24.0641 46.9833 24.0641 47.2334 24.0644C47.4144 24.0639 47.5953 24.0634 47.7818 24.0629C47.973 24.0628 48.1642 24.0628 48.3554 24.0629C48.8761 24.063 49.3967 24.0621 49.9173 24.0611C50.4609 24.0603 51.0044 24.0602 51.5479 24.06C52.5779 24.0596 53.6078 24.0584 54.6377 24.057C55.81 24.0554 56.9822 24.0547 58.1545 24.054C60.5665 24.0525 62.9786 24.05 65.3906 24.0469C65.6298 23.5686 65.5507 23.0229 65.5495 22.4967C65.5497 22.3652 65.55 22.2337 65.5502 22.0982C65.5508 21.6622 65.5504 21.2261 65.5499 20.79C65.55 20.4881 65.5502 20.1861 65.5503 19.8842C65.5506 19.2509 65.5503 18.6176 65.5496 17.9843C65.5488 17.1706 65.5493 16.3569 65.5501 15.5432C65.5506 14.9196 65.5504 14.296 65.5501 13.6725C65.55 13.3723 65.5501 13.0722 65.5504 12.7721C65.5508 12.3535 65.5502 11.935 65.5495 11.5164C65.5499 11.3285 65.5499 11.3285 65.5503 11.1367C65.6031 10.5868 65.6031 10.5868 65.3906 10.125C65.1401 10.1112 64.8889 10.1073 64.6379 10.1072C64.4747 10.1068 64.3114 10.1064 64.1432 10.106C63.9624 10.1062 63.7817 10.1065 63.5955 10.1068C63.4045 10.1066 63.2135 10.1064 63.0225 10.1061C62.5025 10.1054 61.9824 10.1057 61.4623 10.1061C60.9192 10.1065 60.3762 10.1062 59.8331 10.1059C58.9209 10.1057 58.0087 10.106 57.0965 10.1067C56.0404 10.1074 54.9843 10.1072 53.9282 10.1064C53.0231 10.1058 52.118 10.1057 51.2128 10.1061C50.6715 10.1063 50.1302 10.1063 49.5889 10.1058C49.0801 10.1054 48.5714 10.1057 48.0626 10.1065C47.7857 10.1068 47.5088 10.1064 47.2319 10.106C46.987 10.1066 46.987 10.1066 46.7371 10.1072C46.5229 10.1072 46.5229 10.1072 46.3044 10.1073C45.9891 10.0891 45.9891 10.0891 45.8438 10.2656Z" fill="#010102"/>
<path d="M34.4977 54.4028C34.6584 54.4032 34.6584 54.4032 34.8223 54.4037C34.9345 54.4034 35.0468 54.4032 35.1625 54.4029C35.5354 54.4023 35.9083 54.4027 36.2812 54.4032C36.5392 54.4031 36.7972 54.403 37.0552 54.4028C37.5967 54.4026 38.1381 54.4029 38.6796 54.4035C39.3752 54.4043 40.0709 54.4039 40.7665 54.403C41.2995 54.4025 41.8324 54.4027 42.3654 54.403C42.622 54.4031 42.8786 54.403 43.1351 54.4027C43.4931 54.4023 43.851 54.4029 44.209 54.4037C44.3161 54.4034 44.4232 54.4031 44.5335 54.4028C45.2652 54.4058 45.2652 54.4058 45.4219 54.5625C45.436 54.9212 45.441 55.276 45.4401 55.6348C45.4404 55.8032 45.4404 55.8032 45.4408 55.975C45.4414 56.3479 45.441 56.7208 45.4405 57.0937C45.4406 57.3517 45.4408 57.6097 45.441 57.8677C45.4412 58.4092 45.4409 58.9506 45.4402 59.4921C45.4394 60.1877 45.4399 60.8834 45.4407 61.579C45.4412 62.112 45.441 62.6449 45.4407 63.1779C45.4406 63.4345 45.4407 63.6911 45.441 63.9476C45.4414 64.3056 45.4408 64.6635 45.4401 65.0215C45.4403 65.1286 45.4406 65.2357 45.4409 65.346C45.4379 66.0777 45.4379 66.0777 45.2812 66.2344C45.0786 66.2496 44.8753 66.2563 44.672 66.2591C44.4862 66.2641 44.4862 66.2641 44.2966 66.2692C44.0348 66.2753 43.7729 66.2797 43.5111 66.2824C42.759 66.297 42.759 66.297 42.1067 66.6359C41.8843 66.942 41.8843 66.942 41.7656 67.3594C40.8375 67.3594 39.9094 67.3594 38.9531 67.3594C38.8603 67.1273 38.7675 66.8953 38.6719 66.6562C38.1476 66.3068 37.8558 66.3336 37.2294 66.3217C37.1304 66.3193 37.0315 66.3169 36.9295 66.3145C36.6138 66.307 36.2981 66.3013 35.9824 66.2959C35.6657 66.2897 35.349 66.2832 35.0323 66.2758C34.7457 66.2693 34.459 66.264 34.1723 66.2588C33.75 66.2344 33.75 66.2344 33.6094 66.0937C33.5953 65.7351 33.5902 65.3802 33.5912 65.0215C33.5909 64.9092 33.5907 64.7969 33.5904 64.6813C33.5898 64.3083 33.5902 63.9354 33.5907 63.5625C33.5906 63.3045 33.5905 63.0465 33.5903 62.7885C33.5901 62.2471 33.5904 61.7056 33.591 61.1642C33.5918 60.4685 33.5914 59.7729 33.5905 59.0772C33.59 58.5443 33.5902 58.0113 33.5905 57.4783C33.5906 57.2218 33.5905 56.9652 33.5902 56.7086C33.5898 56.3506 33.5904 55.9927 33.5912 55.6348C33.5907 55.4741 33.5907 55.4741 33.5903 55.3102C33.5939 54.4419 33.6294 54.4064 34.4977 54.4028Z" fill="#DEF5FD"/>
<path d="M20.4442 54.4028C20.6068 54.4032 20.6068 54.4032 20.7727 54.4037C20.8864 54.4034 21 54.4032 21.1171 54.4029C21.4946 54.4023 21.8721 54.4027 22.2496 54.4032C22.5107 54.4031 22.7718 54.403 23.033 54.4028C23.5811 54.4026 24.1291 54.4029 24.6772 54.4035C25.3814 54.4043 26.0855 54.4039 26.7897 54.403C27.3292 54.4025 27.8686 54.4027 28.4081 54.403C28.6678 54.4031 28.9275 54.403 29.1873 54.4027C29.5496 54.4023 29.9119 54.4029 30.2742 54.4037C30.3827 54.4034 30.4911 54.4031 30.6028 54.4028C31.3433 54.4058 31.3433 54.4058 31.5 54.5625C31.5149 54.9161 31.5207 55.2659 31.5205 55.6196C31.5209 55.7303 31.5214 55.841 31.5219 55.955C31.5232 56.3227 31.5235 56.6903 31.5237 57.058C31.5241 57.3125 31.5246 57.567 31.5251 57.8216C31.5259 58.3558 31.5262 58.89 31.5261 59.4243C31.5261 60.1101 31.528 60.796 31.5304 61.4818C31.532 62.0077 31.5323 62.5335 31.5322 63.0594C31.5324 63.3123 31.533 63.5653 31.5341 63.8182C31.5354 64.1714 31.5351 64.5246 31.5342 64.8778C31.535 64.9831 31.5358 65.0884 31.5366 65.1968C31.5321 65.921 31.5321 65.921 31.2188 66.2344C30.8561 66.2623 30.5085 66.2727 30.1457 66.2708C30.035 66.2713 29.9243 66.2717 29.8103 66.2723C29.4433 66.2735 29.0764 66.2727 28.7095 66.2717C28.4552 66.2719 28.2009 66.2722 27.9466 66.2725C27.4132 66.2729 26.8798 66.2723 26.3464 66.271C25.6617 66.2694 24.9769 66.2704 24.2922 66.272C23.7669 66.2731 23.2417 66.2727 22.7164 66.272C22.4639 66.2718 22.2113 66.272 21.9588 66.2727C21.6063 66.2734 21.2538 66.2723 20.9013 66.2708C20.7962 66.2713 20.6911 66.2719 20.5829 66.2725C19.8603 66.2665 19.8603 66.2665 19.5469 65.9531C19.5198 65.5897 19.51 65.2413 19.5128 64.8778C19.5125 64.7669 19.5122 64.656 19.5119 64.5417C19.5114 64.1741 19.5129 63.8065 19.5145 63.4389C19.5147 63.1843 19.5147 62.9296 19.5147 62.675C19.5149 62.141 19.5161 61.607 19.518 61.073C19.5204 60.387 19.5209 59.701 19.5208 59.0149C19.5208 58.4891 19.5216 57.9632 19.5226 57.4374C19.5231 57.1843 19.5233 56.9313 19.5235 56.6783C19.5238 56.3254 19.525 55.9725 19.5265 55.6196C19.5264 55.5141 19.5264 55.4085 19.5263 55.2997C19.5317 54.4315 19.578 54.4063 20.4442 54.4028Z" fill="#DEF5FC"/>
<path d="M27.6157 40.3229C27.7209 40.3237 27.8262 40.3245 27.9347 40.3253C28.0456 40.325 28.1565 40.3247 28.2708 40.3245C28.6384 40.3239 29.006 40.3254 29.3736 40.327C29.6282 40.3272 29.8829 40.3273 30.1375 40.3272C30.6715 40.3274 31.2055 40.3286 31.7394 40.3305C32.4255 40.3329 33.1115 40.3334 33.7975 40.3333C34.3234 40.3333 34.8492 40.3341 35.3751 40.3351C35.6281 40.3356 35.8812 40.3359 36.1342 40.336C36.4871 40.3363 36.84 40.3375 37.1929 40.339C37.3512 40.3389 37.3512 40.3389 37.5127 40.3388C38.2339 40.3433 38.2339 40.3433 38.3906 40.5001C38.4047 40.863 38.4098 41.2222 38.4088 41.5852C38.4092 41.7557 38.4092 41.7557 38.4095 41.9296C38.4102 42.3071 38.4098 42.6846 38.4093 43.0621C38.4094 43.3232 38.4095 43.5844 38.4097 43.8455C38.4099 44.3936 38.4096 44.9416 38.4089 45.4897C38.4081 46.1939 38.4086 46.898 38.4094 47.6022C38.4099 48.1417 38.4098 48.6812 38.4094 49.2206C38.4093 49.4803 38.4094 49.7401 38.4098 49.9998C38.4101 50.3621 38.4096 50.7244 38.4088 51.0868C38.4091 51.1952 38.4094 51.3036 38.4097 51.4153C38.4067 52.1559 38.4067 52.1559 38.25 52.3126C37.8964 52.3274 37.5466 52.3332 37.1929 52.333C37.0822 52.3335 36.9715 52.3339 36.8575 52.3344C36.4898 52.3358 36.1221 52.336 35.7544 52.3362C35.4999 52.3366 35.2454 52.3371 34.9909 52.3376C34.4567 52.3384 33.9225 52.3387 33.3882 52.3386C32.7024 52.3386 32.0165 52.3405 31.3306 52.3429C30.8048 52.3445 30.2789 52.3448 29.7531 52.3447C29.5001 52.3449 29.2472 52.3455 28.9943 52.3466C28.6411 52.348 28.2879 52.3476 27.9347 52.3467C27.8294 52.3475 27.7241 52.3483 27.6157 52.3491C26.8915 52.3447 26.8915 52.3447 26.5781 52.0313C26.5502 51.6686 26.5397 51.321 26.5417 50.9582C26.5412 50.8475 26.5407 50.7368 26.5402 50.6228C26.539 50.2559 26.5398 49.889 26.5408 49.522C26.5406 49.2677 26.5403 49.0134 26.5399 48.7591C26.5395 48.2257 26.5401 47.6923 26.5414 47.1589C26.543 46.4742 26.5421 45.7894 26.5404 45.1047C26.5394 44.5794 26.5397 44.0542 26.5405 43.5289C26.5407 43.2764 26.5404 43.0239 26.5398 42.7713C26.5391 42.4188 26.5401 42.0663 26.5417 41.7138C26.5411 41.6087 26.5406 41.5037 26.54 41.3954C26.5474 40.4994 26.7198 40.3284 27.6157 40.3229Z" fill="#DEF5FD"/>
<path d="M2.39069 52.4531C2.83867 52.6539 3.22405 52.9192 3.62394 53.202C5.43709 54.4719 7.40947 55.3147 9.56256 55.8281C9.71991 55.87 9.87725 55.9119 10.0394 55.955C11.1219 56.2137 12.1527 56.2892 13.2628 56.2939C13.45 56.2951 13.45 56.2951 13.6409 56.2963C14.929 56.2829 16.1389 56.1131 17.4376 55.9688C17.4376 59.31 17.4376 62.6512 17.4376 66.0938C15.6221 66.0938 15.6221 66.0938 14.7481 65.874C14.6474 65.8492 14.5468 65.8244 14.443 65.7989C11.6527 65.0719 9.2887 63.6658 7.17194 61.7344C7.06988 61.6439 6.96782 61.5535 6.86267 61.4603C4.88594 59.6118 3.67262 57.2127 2.81256 54.6855C2.76992 54.5605 2.72727 54.4355 2.68333 54.3067C2.47705 53.6703 2.33734 53.131 2.39069 52.4531Z" fill="#FD636E"/>
<path d="M65.9531 5.76564C66.3575 5.75419 66.7616 5.74586 67.166 5.73927C67.2797 5.73574 67.3933 5.7322 67.5104 5.72856C68.2212 5.71989 68.7265 5.76676 69.3281 6.18751C69.8147 6.80118 69.9609 7.20395 69.9602 7.9834C69.9608 8.07566 69.9615 8.16792 69.9622 8.26298C69.9638 8.57032 69.9614 8.87749 69.9589 9.18482C69.9592 9.40597 69.9598 9.62712 69.9606 9.84826C69.9619 10.448 69.9598 11.0478 69.9569 11.6475C69.9544 12.2772 69.9549 12.9068 69.9551 13.5364C69.9548 14.595 69.9524 15.6536 69.9485 16.7122C69.9441 17.9315 69.9426 19.1508 69.9428 20.37C69.943 21.6726 69.941 22.9752 69.9385 24.2778C69.9379 24.6506 69.9377 25.0235 69.9376 25.3963C69.9373 25.986 69.9355 26.5757 69.9327 27.1654C69.9319 27.3802 69.9316 27.5949 69.9317 27.8097C69.9334 31.2586 69.2093 34.4801 67.0781 37.2656C66.9703 37.4069 66.8624 37.5481 66.7513 37.6936C64.6099 40.4019 61.4358 42.3052 57.9946 42.8027C57.6948 42.8365 57.3943 42.8642 57.0938 42.8906C57.457 42.6485 57.8209 42.4523 58.2098 42.2563C61.0919 40.7858 63.3023 38.5827 64.8116 35.7149C64.9676 35.4395 65.1428 35.2028 65.3379 34.9541C66.4183 33.4605 66.4093 31.1518 66.3777 29.3709C66.3749 29.2125 66.3749 29.2125 66.3721 29.0509C66.3631 28.6201 66.352 28.1896 66.3374 27.759C66.3272 27.4379 66.3214 27.1169 66.3162 26.7957C66.3117 26.6991 66.3072 26.6026 66.3026 26.5031C66.2969 25.9733 66.3444 25.7684 66.7039 25.3692C66.8891 25.2019 66.8891 25.2019 67.0781 25.0313C67.5584 24.2902 67.5618 23.6464 67.5591 22.7929C67.5602 22.6546 67.5614 22.5164 67.5627 22.374C67.5659 21.9183 67.5661 21.4627 67.5659 21.007C67.5669 20.6893 67.568 20.3716 67.5692 20.0539C67.5711 19.3884 67.5713 18.7229 67.5704 18.0573C67.5696 17.2059 67.5739 16.3545 67.5796 15.503C67.5832 14.847 67.5837 14.1909 67.5831 13.5349C67.5834 13.221 67.5847 12.9072 67.5872 12.5933C67.5904 12.1537 67.589 11.7144 67.5865 11.2748C67.5884 11.146 67.5902 11.0173 67.5922 10.8846C67.5805 9.99245 67.3594 9.41324 66.7969 8.71876C66.7201 8.64523 66.6434 8.5717 66.5643 8.49594C66.375 8.29689 66.375 8.29689 66.3486 7.98762C66.3661 7.75617 66.3836 7.52472 66.4014 7.29329C66.3644 6.72859 66.1671 6.28885 65.9531 5.76564Z" fill="#0572CD"/>
<path d="M52.7344 44.8594C54.637 44.8594 56.5397 44.8594 58.5 44.8594C58.5 48.8503 58.5 52.8412 58.5 56.9531C56.5973 56.9531 54.6947 56.9531 52.7344 56.9531C52.7344 52.9622 52.7344 48.9713 52.7344 44.8594Z" fill="#DEF5FC"/>
<path d="M44.0157 54.4219C44.2237 54.4182 44.4317 54.4154 44.6397 54.4131C44.7555 54.4115 44.8714 54.4099 44.9907 54.4082C45.2813 54.4219 45.2813 54.4219 45.4219 54.5626C45.436 54.9212 45.4411 55.2761 45.4401 55.6348C45.4405 55.8032 45.4405 55.8032 45.4409 55.975C45.4415 56.348 45.4411 56.7209 45.4406 57.0938C45.4407 57.3518 45.4408 57.6098 45.441 57.8678C45.4412 58.4092 45.4409 58.9507 45.4403 59.4921C45.4395 60.1878 45.4399 60.8834 45.4408 61.5791C45.4413 62.112 45.4411 62.645 45.4407 63.178C45.4406 63.4345 45.4408 63.6911 45.4411 63.9477C45.4414 64.3057 45.4409 64.6636 45.4401 65.0215C45.4404 65.1286 45.4407 65.2357 45.441 65.3461C45.438 66.0777 45.438 66.0777 45.2813 66.2344C45.0786 66.2497 44.8753 66.2563 44.6721 66.2592C44.4863 66.2642 44.4863 66.2642 44.2967 66.2693C44.0348 66.2753 43.773 66.2797 43.5111 66.2825C42.759 66.2971 42.759 66.2971 42.1068 66.636C41.8844 66.942 41.8844 66.942 41.7657 67.3594C40.8376 67.3594 39.9094 67.3594 38.9532 67.3594C38.8604 67.1274 38.7676 66.8954 38.6719 66.6563C38.1477 66.3068 37.8559 66.3337 37.2294 66.3218C37.1305 66.3194 37.0315 66.317 36.9296 66.3145C36.6139 66.3071 36.2982 66.3014 35.9825 66.296C35.6658 66.2898 35.3491 66.2832 35.0324 66.2759C34.7457 66.2693 34.4591 66.2641 34.1724 66.2588C33.7501 66.2344 33.7501 66.2344 33.6094 66.0938C33.5896 65.7183 33.6035 65.3451 33.6094 64.9688C33.7474 64.938 33.8853 64.9072 34.0275 64.8754C37.3803 64.0996 40.2466 62.6287 42.1876 59.6652C43.177 58.0398 43.8627 56.3341 44.0157 54.4219Z" fill="#C7EEFD"/>
<path d="M26.8594 40.3594C28.3422 40.3562 29.8249 40.3537 31.3076 40.3521C31.996 40.3514 32.6844 40.3504 33.3728 40.3488C34.0366 40.3473 34.7004 40.3464 35.3642 40.3461C35.618 40.3458 35.8719 40.3453 36.1257 40.3445C36.48 40.3435 36.8342 40.3434 37.1885 40.3435C37.2945 40.3429 37.4005 40.3424 37.5097 40.3419C38.234 40.3434 38.234 40.3434 38.3907 40.5C38.4048 40.863 38.4098 41.2222 38.4089 41.5852C38.4092 41.7557 38.4092 41.7557 38.4096 41.9296C38.4102 42.3071 38.4098 42.6846 38.4094 43.0621C38.4095 43.3232 38.4096 43.5843 38.4098 43.8455C38.41 44.3936 38.4097 44.9416 38.409 45.4897C38.4082 46.1939 38.4087 46.898 38.4095 47.6022C38.41 48.1417 38.4099 48.6811 38.4095 49.2206C38.4094 49.4803 38.4095 49.74 38.4098 49.9998C38.4102 50.3621 38.4097 50.7244 38.4089 51.0867C38.4092 51.1952 38.4094 51.3036 38.4097 51.4153C38.4067 52.1558 38.4067 52.1558 38.2501 52.3125C37.8964 52.3274 37.5467 52.3332 37.1929 52.333C37.0823 52.3334 36.9716 52.3339 36.8576 52.3344C36.4899 52.3357 36.1222 52.336 35.7545 52.3362C35.5 52.3366 35.2455 52.3371 34.991 52.3376C34.4568 52.3384 33.9225 52.3387 33.3883 52.3386C32.7024 52.3386 32.0166 52.3405 31.3307 52.3429C30.8049 52.3445 30.279 52.3448 29.7531 52.3447C29.5002 52.3449 29.2473 52.3455 28.9944 52.3466C28.6411 52.3479 28.288 52.3476 27.9348 52.3467C27.8295 52.3475 27.7242 52.3483 27.6157 52.3491C26.8915 52.3446 26.8915 52.3446 26.5782 52.0313C26.5518 51.6671 26.5428 51.318 26.5463 50.9537C26.5462 50.8426 26.5462 50.7315 26.5461 50.6169C26.5463 50.2487 26.5485 49.8804 26.5507 49.5121C26.5512 49.2571 26.5516 49.0022 26.5519 48.7472C26.553 48.0754 26.5558 47.4035 26.5589 46.7317C26.5617 46.0465 26.563 45.3612 26.5644 44.6759C26.5675 43.3308 26.5723 41.9858 26.5782 40.6407C26.6246 40.6407 26.671 40.6407 26.7188 40.6407C26.7188 44.0283 26.7188 47.416 26.7188 50.9063C30.555 50.0036 33.3902 48.5988 35.5342 45.2022C36.3517 43.746 36.7653 42.1189 37.1251 40.5C33.7374 40.5 30.3497 40.5 26.8594 40.5C26.8594 40.4536 26.8594 40.4072 26.8594 40.3594Z" fill="#C4EAF8"/>
<path d="M30.0938 54.4219C30.3018 54.4182 30.5098 54.4154 30.7178 54.4131C30.8337 54.4115 30.9495 54.4099 31.0688 54.4082C31.3594 54.4219 31.3594 54.4219 31.5001 54.5626C31.5149 54.9162 31.5207 55.266 31.5205 55.6197C31.521 55.7304 31.5214 55.841 31.5219 55.955C31.5233 56.3227 31.5235 56.6904 31.5237 57.0581C31.5241 57.3126 31.5246 57.5671 31.5251 57.8216C31.5259 58.3559 31.5262 58.8901 31.5261 59.4243C31.5261 60.1102 31.528 60.796 31.5304 61.4819C31.532 62.0078 31.5323 62.5336 31.5322 63.0595C31.5324 63.3124 31.533 63.5653 31.5341 63.8183C31.5355 64.1715 31.5351 64.5246 31.5342 64.8779C31.535 64.9831 31.5358 65.0884 31.5366 65.1969C31.5322 65.9211 31.5322 65.9211 31.2188 66.2344C30.8561 66.2623 30.5085 66.2728 30.1457 66.2708C30.035 66.2713 29.9243 66.2718 29.8103 66.2723C29.4434 66.2736 29.0765 66.2727 28.7095 66.2718C28.4552 66.272 28.2009 66.2723 27.9466 66.2726C27.4132 66.273 26.8798 66.2724 26.3464 66.2711C25.6617 66.2695 24.9769 66.2704 24.2922 66.2721C23.7669 66.2731 23.2417 66.2728 22.7164 66.2721C22.4639 66.2719 22.2114 66.2721 21.9588 66.2728C21.6063 66.2735 21.2538 66.2724 20.9013 66.2708C20.7962 66.2714 20.6912 66.272 20.5829 66.2726C19.8603 66.2666 19.8603 66.2666 19.5469 65.9532C19.5205 65.589 19.5115 65.2399 19.515 64.8756C19.515 64.7645 19.5149 64.6534 19.5149 64.5388C19.5151 64.1706 19.5173 63.8023 19.5195 63.434C19.52 63.179 19.5204 62.9241 19.5207 62.6691C19.5217 61.9973 19.5245 61.3254 19.5276 60.6536C19.5305 59.9684 19.5318 59.2831 19.5332 58.5978C19.5362 57.2527 19.541 55.9077 19.5469 54.5626C19.5933 54.5626 19.6397 54.5626 19.6876 54.5626C19.6876 57.9502 19.6876 61.3379 19.6876 64.8282C22.1165 64.3728 24.468 63.7223 26.2557 61.9113C26.5782 61.5938 26.5782 61.5938 26.8594 61.5938C26.8953 61.5133 26.9312 61.4328 26.9682 61.3499C27.1592 60.9971 27.3859 60.7351 27.6504 60.4337C29.0898 58.6391 29.6522 56.6479 30.0938 54.4219Z" fill="#C4EAF9"/>
<path d="M55.6171 12.7354C55.7716 12.7356 55.7716 12.7356 55.9291 12.7359C56.5594 12.8557 56.9347 13.1593 57.3046 13.667C57.4237 13.8445 57.5408 14.0233 57.6562 14.2031C57.7174 14.2967 57.7785 14.3903 57.8416 14.4868C58.7523 15.9084 59.3989 17.2674 59.2031 18.9844C58.8155 20.2341 58.0149 21.0007 56.9091 21.6475C55.9185 21.9329 55.0441 21.9392 54.0966 21.5069C53.1994 20.9998 52.5566 20.3067 52.2388 19.3151C51.8187 17.2419 52.6597 15.7501 53.7549 14.073C54.2274 13.3792 54.7038 12.7113 55.6171 12.7354Z" fill="#040404"/>
<path d="M56.6719 30.5156C57.6881 30.5092 58.7043 30.5036 59.7206 30.5002C60.0665 30.4988 60.4124 30.4968 60.7584 30.4944C61.2547 30.491 61.7511 30.4894 62.2474 30.4882C62.4029 30.4867 62.5583 30.4853 62.7184 30.4838C62.862 30.4837 63.0055 30.4837 63.1535 30.4837C63.2802 30.4831 63.407 30.4825 63.5377 30.4818C63.8438 30.5156 63.8438 30.5156 64.125 30.7969C64.1607 31.1672 64.1771 31.5163 64.1777 31.8867C64.1812 31.9857 64.1846 32.0847 64.1882 32.1867C64.189 32.3329 64.189 32.3329 64.1898 32.4822C64.191 32.5702 64.1921 32.6583 64.1933 32.749C63.957 33.7793 62.9525 34.5482 62.2292 35.2684C62.0149 35.4821 61.8027 35.6977 61.5905 35.9135C61.454 36.0503 61.3174 36.187 61.1807 36.3236C61.0576 36.4471 60.9345 36.5706 60.8077 36.6978C59.7251 37.6132 57.8596 37.125 56.6719 37.125C56.6719 34.9439 56.6719 32.7628 56.6719 30.5156Z" fill="#BDD3EF"/>
<path d="M47.6798 30.4987C47.8705 30.4991 47.8705 30.4991 48.065 30.4996C48.2085 30.4996 48.3521 30.4996 48.5 30.4996C48.6562 30.5004 48.8123 30.5011 48.9732 30.5018C49.2117 30.5021 49.2117 30.5021 49.455 30.5024C49.9651 30.5032 50.4752 30.505 50.9854 30.5068C51.3302 30.5075 51.6751 30.5081 52.02 30.5087C52.8675 30.5101 53.715 30.5129 54.5625 30.5156C54.5625 32.6967 54.5625 34.8778 54.5625 37.1249C53.7533 37.1423 53.7533 37.1423 52.9277 37.1601C52.7592 37.1652 52.5907 37.1703 52.4171 37.1756C51.1056 37.1893 50.5924 36.8049 49.656 35.917C49.404 35.6671 49.1528 35.4164 48.9023 35.165C48.7744 35.0393 48.6464 34.9136 48.5145 34.784C48.3924 34.6619 48.2702 34.5399 48.1443 34.4141C48.0333 34.3035 47.9223 34.1929 47.808 34.079C47.3843 33.5752 47.2136 33.1152 47.2176 32.4601C47.2179 32.3552 47.2181 32.2502 47.2184 32.1421C47.2201 32.0346 47.2219 31.9271 47.2236 31.8163C47.2237 31.7067 47.2238 31.597 47.2239 31.484C47.2314 30.5249 47.2314 30.5249 47.6798 30.4987Z" fill="#BFD4F0"/>
<path d="M52.7344 44.8594C54.637 44.8594 56.5397 44.8594 58.5 44.8594C58.5 46.0659 58.5 47.2725 58.5 48.5156C57.5216 48.6046 56.5845 48.6787 55.6084 48.6738C55.4997 48.6744 55.3911 48.6749 55.2791 48.6755C54.4615 48.6741 53.6973 48.5979 52.875 48.5156C52.875 51.2536 52.875 53.9916 52.875 56.8125C54.7312 56.8125 56.5875 56.8125 58.5 56.8125C58.5 56.8589 58.5 56.9053 58.5 56.9531C56.5973 56.9531 54.6947 56.9531 52.7344 56.9531C52.7344 52.9622 52.7344 48.9713 52.7344 44.8594Z" fill="#C1E5F3"/>
<path d="M55.5469 15.1875C56.3799 15.9551 57.0095 16.9504 57.1355 18.0994C57.0992 18.5966 56.9981 18.9124 56.7334 19.3359C56.2548 19.6304 55.826 19.7165 55.2656 19.6875C54.8582 19.5192 54.6467 19.3738 54.3779 19.0283C54.031 17.8613 54.4812 17.0575 55.0228 16.0417C55.2656 15.6094 55.2656 15.6094 55.5469 15.1875Z" fill="#F67C83"/>
<path d="M56.1094 52.5937C56.4521 52.8135 56.4521 52.8135 56.6719 53.1562C56.751 53.6484 56.751 53.6484 56.6719 54.1406C56.3368 54.514 56.1026 54.6697 55.6172 54.791C55.0543 54.6503 54.864 54.3383 54.5625 53.8594C54.5625 53.4 54.6265 53.1433 54.8613 52.752C55.2893 52.4952 55.6232 52.534 56.1094 52.5937Z" fill="#090A0B"/>
</g>
<defs>
<clipPath id="clip0_1477_315">
<rect width="72" height="72" fill="white"/>
</clipPath>
</defs>
</svg>
