<svg width="22" height="21" viewBox="0 0 22 21" fill="none" xmlns="http://www.w3.org/2000/svg">
<path d="M18.6037 12.9239C18.6037 13.1635 18.5326 13.3978 18.3995 13.597C18.2664 13.7963 18.0771 13.9516 17.8557 14.0433C17.6343 14.135 17.3907 14.159 17.1557 14.1122C16.9207 14.0655 16.7048 13.9501 16.5353 13.7807C16.3659 13.6112 16.2505 13.3953 16.2037 13.1603C16.157 12.9253 16.181 12.6816 16.2727 12.4602C16.3644 12.2389 16.5197 12.0496 16.7189 11.9165C16.9182 11.7834 17.1524 11.7123 17.3921 11.7123C17.7134 11.7123 18.0216 11.8399 18.2488 12.0672C18.476 12.2944 18.6037 12.6026 18.6037 12.9239ZM18.1443 16.8909C17.9669 18.0347 17.3866 19.0775 16.5081 19.8312C15.6297 20.5849 14.5108 20.9999 13.3534 21.0014H10.9301C9.64517 21 8.41323 20.489 7.50463 19.5804C6.59603 18.6718 6.08499 17.4398 6.08365 16.1549V12.0647C4.52221 11.8679 3.08623 11.1082 2.0452 9.92789C1.00417 8.74761 0.429641 7.22799 0.429443 5.65421V0.807744C0.429443 0.593517 0.514545 0.388064 0.666026 0.236583C0.817508 0.0851016 1.02296 0 1.23719 0H3.66042C3.87465 0 4.0801 0.0851016 4.23158 0.236583C4.38306 0.388064 4.46817 0.593517 4.46817 0.807744C4.46817 1.02197 4.38306 1.22742 4.23158 1.37891C4.0801 1.53039 3.87465 1.61549 3.66042 1.61549H2.04493V5.65421C2.04488 6.29613 2.17234 6.93167 2.41993 7.52392C2.66752 8.11617 3.0303 8.65334 3.4872 9.10423C3.9441 9.55512 4.48603 9.91075 5.0815 10.1505C5.67698 10.3902 6.31415 10.5092 6.95602 10.5007C9.59229 10.4663 11.7379 8.25414 11.7379 5.57041V1.61549H10.1224C9.90815 1.61549 9.70269 1.53039 9.55121 1.37891C9.39973 1.22742 9.31463 1.02197 9.31463 0.807744C9.31463 0.593517 9.39973 0.388064 9.55121 0.236583C9.70269 0.0851016 9.90815 0 10.1224 0H12.5456C12.7598 0 12.9653 0.0851016 13.1168 0.236583C13.2683 0.388064 13.3534 0.593517 13.3534 0.807744V5.57041C13.3534 8.8862 10.8766 11.6578 7.69914 12.0637V16.1549C7.69914 17.0118 8.03955 17.8336 8.64547 18.4395C9.2514 19.0455 10.0732 19.3859 10.9301 19.3859H13.3534C14.0871 19.3847 14.7986 19.1342 15.3713 18.6756C15.9441 18.217 16.344 17.5774 16.5056 16.8617C15.5301 16.6425 14.6705 16.0694 14.0932 15.253C13.5159 14.4367 13.262 13.4353 13.3805 12.4425C13.499 11.4497 13.9815 10.5362 14.7347 9.87863C15.4879 9.22111 16.4582 8.86634 17.4579 8.88297C18.4576 8.8996 19.4156 9.28645 20.1465 9.96866C20.8774 10.6509 21.3293 11.58 21.4147 12.5761C21.5001 13.5723 21.2129 14.5647 20.6088 15.3614C20.0047 16.1581 19.1266 16.7024 18.1443 16.8889V16.8909ZM19.8153 12.9239C19.8153 12.4446 19.6732 11.9761 19.4069 11.5776C19.1407 11.1791 18.7622 10.8685 18.3194 10.6851C17.8766 10.5017 17.3894 10.4537 16.9193 10.5472C16.4493 10.6407 16.0175 10.8715 15.6786 11.2104C15.3397 11.5493 15.1089 11.9811 15.0154 12.4512C14.9219 12.9212 14.9699 13.4085 15.1533 13.8512C15.3367 14.294 15.6473 14.6725 16.0458 14.9388C16.4443 15.205 16.9128 15.3471 17.3921 15.3471C18.0348 15.3471 18.6511 15.0918 19.1056 14.6374C19.56 14.183 19.8153 13.5666 19.8153 12.9239Z" fill="white"/>
</svg>
