<svg width="32" height="20" viewBox="0 0 32 20" fill="none" xmlns="http://www.w3.org/2000/svg">
<path d="M0 1.25C0 0.558777 0.716797 0 1.6 0H22.4C23.2832 0 24 0.558777 24 1.25C24 1.94122 23.2832 2.5 22.4 2.5H1.6C0.716797 2.5 0 1.94122 0 1.25ZM30.4 8.75H1.6C0.716797 8.75 0 9.30878 0 10C0 10.6912 0.716797 11.25 1.6 11.25H30.4C31.2832 11.25 32 10.6912 32 10C32 9.30878 31.2832 8.75 30.4 8.75ZM16 17.5H1.6C0.716797 17.5 0 18.0588 0 18.75C0 19.4412 0.716797 20 1.6 20H16C16.8832 20 17.6 19.4412 17.6 18.75C17.6 18.0588 16.8832 17.5 16 17.5Z" fill="#30495E"/>
</svg>
