<svg width="16" height="16" viewBox="0 0 16 16" fill="none" xmlns="http://www.w3.org/2000/svg">
<path d="M15.6258 3.94945L12.0506 0.375011C11.9317 0.25612 11.7906 0.161808 11.6352 0.0974633C11.4799 0.0331183 11.3135 0 11.1453 0C10.9772 0 10.8107 0.0331183 10.6554 0.0974633C10.5001 0.161808 10.359 0.25612 10.2401 0.375011L0.375211 10.2399C0.255833 10.3584 0.161187 10.4993 0.0967749 10.6547C0.0323627 10.81 -0.000530758 10.9766 6.47604e-06 11.1447V14.72C6.47604e-06 15.0595 0.134865 15.385 0.374914 15.6251C0.614964 15.8651 0.940541 16 1.28002 16H14.7202C14.8899 16 15.0527 15.9326 15.1727 15.8125C15.2928 15.6925 15.3602 15.5297 15.3602 15.36C15.3602 15.1903 15.2928 15.0275 15.1727 14.9074C15.0527 14.7874 14.8899 14.72 14.7202 14.72H6.66569L15.6258 5.75988C15.7447 5.64101 15.839 5.49989 15.9033 5.34457C15.9677 5.18926 16.0008 5.02278 16.0008 4.85466C16.0008 4.68655 15.9677 4.52007 15.9033 4.36476C15.839 4.20944 15.7447 4.06832 15.6258 3.94945ZM4.85526 14.72H1.28002V11.1447L8.32011 4.10466L11.8953 7.6799L4.85526 14.72ZM12.8002 6.77509L9.22572 3.19985L11.1457 1.27982L14.7202 4.85507L12.8002 6.77509Z" fill="#24394A"/>
</svg>
