<svg width="183" height="24" viewBox="0 0 183 24" fill="none" xmlns="http://www.w3.org/2000/svg">
<path d="M176.044 10.0848C176.044 10.328 175.947 10.5611 175.775 10.7331C175.604 10.905 175.37 11.0016 175.127 11.0016H167.334C167.091 11.0016 166.858 10.905 166.686 10.7331C166.514 10.5611 166.418 10.328 166.418 10.0848C166.418 9.84165 166.514 9.60846 166.686 9.43653C166.858 9.26459 167.091 9.168 167.334 9.168H175.127C175.37 9.168 175.604 9.26459 175.775 9.43653C175.947 9.60846 176.044 9.84165 176.044 10.0848ZM175.127 12.8352H167.334C167.091 12.8352 166.858 12.9318 166.686 13.1037C166.514 13.2757 166.418 13.5089 166.418 13.752C166.418 13.9952 166.514 14.2283 166.686 14.4003C166.858 14.5722 167.091 14.6688 167.334 14.6688H175.127C175.37 14.6688 175.604 14.5722 175.775 14.4003C175.947 14.2283 176.044 13.9952 176.044 13.752C176.044 13.5089 175.947 13.2757 175.775 13.1037C175.604 12.9318 175.37 12.8352 175.127 12.8352ZM182.92 11.46C182.917 14.4984 181.708 17.4113 179.56 19.5598C177.411 21.7082 174.498 22.9167 171.46 22.92H161.834C161.347 22.92 160.881 22.7268 160.537 22.383C160.193 22.0391 160 21.5727 160 21.0864V11.46C160 8.42062 161.207 5.50572 163.357 3.35656C165.506 1.20739 168.421 0 171.46 0C174.499 0 177.414 1.20739 179.563 3.35656C181.713 5.50572 182.92 8.42062 182.92 11.46ZM181.086 11.46C181.086 8.90692 180.072 6.45841 178.267 4.65311C176.462 2.84781 174.013 1.8336 171.46 1.8336C168.907 1.8336 166.458 2.84781 164.653 4.65311C162.848 6.45841 161.834 8.90692 161.834 11.46V21.0864H171.46C174.012 21.0837 176.459 20.0686 178.264 18.2639C180.069 16.4592 181.084 14.0122 181.086 11.46Z" fill="#86CD4B"/>
<path d="M12 23.131C6.22759 23.131 0 19.5103 0 11.5655C0 3.62069 6.22759 0 12 0C15.2069 0 18.1655 1.05517 20.3586 2.97931C22.7379 5.08965 24 8.06897 24 11.5655C24 15.0621 22.7379 18.0207 20.3586 20.131C18.1655 22.0552 15.1862 23.131 12 23.131Z" fill="url(#paint0_radial_185_353)"/>
<path d="M21.9085 4.69043C23.0113 6.46974 23.5864 8.58836 23.5864 10.9449C23.5864 14.4415 22.3244 17.4001 19.9451 19.5104C17.752 21.4346 14.7726 22.5104 11.5864 22.5104C7.84989 22.5104 3.92299 20.9897 1.61816 17.7642C3.84437 21.418 8.02989 23.1311 12.0002 23.1311C15.1864 23.1311 18.1658 22.0553 20.3589 20.1311C22.7382 18.0208 24.0002 15.0622 24.0002 11.5656C24.0002 8.92974 23.2823 6.58767 21.9085 4.69043Z" fill="#EB8F00"/>
<path opacity="0.8" d="M4.47909 16.62C6.47874 16.62 8.09978 14.999 8.09978 12.9994C8.09978 10.9997 6.47874 9.37866 4.47909 9.37866C2.47944 9.37866 0.858398 10.9997 0.858398 12.9994C0.858398 14.999 2.47944 16.62 4.47909 16.62Z" fill="url(#paint1_radial_185_353)"/>
<path opacity="0.8" d="M19.6861 16.62C21.6858 16.62 23.3068 14.999 23.3068 12.9994C23.3068 10.9997 21.6858 9.37866 19.6861 9.37866C17.6865 9.37866 16.0654 10.9997 16.0654 12.9994C16.0654 14.999 17.6865 16.62 19.6861 16.62Z" fill="url(#paint2_radial_185_353)"/>
<path d="M8.60293 5.9193C9.08086 5.92551 9.21948 5.27172 8.71258 5.16413C8.33396 5.08758 7.9181 5.07723 7.50638 5.12896C6.35396 5.25517 5.36086 5.84896 4.71327 6.62275C4.39052 7.01999 4.9181 7.43792 5.26983 7.14206C6.16983 6.41172 7.35741 5.92965 8.60293 5.9193Z" fill="#422B0D"/>
<path d="M15.4011 6.06013C14.9273 6.11392 14.7246 5.47668 15.217 5.31944C15.5873 5.20771 15.9991 5.15599 16.4129 5.16633C17.5715 5.17875 18.6184 5.67116 19.3404 6.37875C19.7004 6.74289 19.2163 7.21047 18.8377 6.94978C17.8694 6.31047 16.6404 5.9484 15.4011 6.06013Z" fill="#422B0D"/>
<path d="M12.0832 18.4553C14.3177 18.4553 15.766 16.8208 16.1591 16.0553C16.3039 15.7656 16.3039 15.5173 16.1798 15.4139C16.0763 15.3311 15.9315 15.3311 15.7453 15.4139C15.6832 15.4346 15.6211 15.4759 15.5591 15.5173C14.566 16.2208 13.3453 16.6553 12.0832 16.6553C10.8211 16.6553 9.60046 16.2208 8.60735 15.538C8.54528 15.4966 8.48321 15.4553 8.42115 15.4346C8.23494 15.3518 8.09011 15.3518 7.98666 15.4346C7.86252 15.5587 7.86252 15.7863 8.00735 16.0759C8.40046 16.8208 9.84873 18.4553 12.0832 18.4553Z" fill="#422B0D"/>
<path d="M9.51731 11.2616L9.47593 11.2202C9.45524 11.1995 9.39318 11.1374 9.37249 11.1167C9.33111 11.0754 9.28973 11.0547 9.22766 10.9926C9.16559 10.9512 9.10352 10.8892 9.02076 10.8478C8.938 10.8064 8.85524 10.7443 8.77249 10.703C8.68973 10.6616 8.58628 10.6202 8.48283 10.5788C8.37938 10.5374 8.27593 10.5167 8.17248 10.4961C8.06904 10.4754 7.96559 10.4754 7.84145 10.4754H7.80007H7.738C7.67593 10.4754 7.67593 10.4754 7.65524 10.4754C7.61386 10.4754 7.5518 10.4961 7.51042 10.4961C7.40697 10.5167 7.30352 10.5374 7.20007 10.5788C7.09662 10.6202 6.99317 10.6409 6.91042 10.703C6.82766 10.7443 6.7449 10.7857 6.66214 10.8478C6.51731 10.9512 6.39317 11.0547 6.31042 11.1167C6.22766 11.1995 6.18628 11.2409 6.18628 11.2409L6.1449 11.2823C5.89662 11.5305 5.48283 11.5305 5.19318 11.3236C4.98628 11.1581 4.92421 10.8685 5.02766 10.6616L5.04835 10.5995C5.06904 10.5581 5.08973 10.4961 5.13111 10.434C5.21386 10.2892 5.35869 10.0823 5.58628 9.85468C5.68973 9.75123 5.83455 9.62709 5.97938 9.52365C6.12421 9.4202 6.31042 9.31675 6.49662 9.23399C6.68283 9.15123 6.91042 9.06847 7.11731 9.02709C7.22076 9.00641 7.3449 8.98572 7.46904 8.96503C7.53111 8.96503 7.61386 8.94434 7.63455 8.94434H7.80007C8.02766 8.94434 8.25524 8.96503 8.48283 9.0064C8.71042 9.04778 8.91731 9.13054 9.10352 9.2133C9.28973 9.29606 9.47593 9.39951 9.62076 9.50296C9.78628 9.60641 9.91042 9.70985 10.0139 9.83399C10.1173 9.93744 10.2208 10.0409 10.2828 10.1443C10.3242 10.1857 10.3449 10.2478 10.3863 10.2892C10.407 10.3305 10.4483 10.3719 10.469 10.4133C10.5311 10.4961 10.5311 10.5374 10.5518 10.5788C10.5725 10.6202 10.5725 10.6202 10.5725 10.6202C10.7173 10.9305 10.5518 11.2823 10.2001 11.4064C10.0139 11.5099 9.70352 11.4478 9.51731 11.2616Z" fill="#422B0D"/>
<path d="M17.9814 11.1869C17.9814 11.1869 17.9669 11.1724 17.94 11.1456C17.9172 11.1228 17.8655 11.0649 17.8345 11.0421C17.7952 11.009 17.7476 10.9697 17.6917 10.9242C17.6317 10.8787 17.5634 10.829 17.489 10.7773C17.4124 10.7297 17.3296 10.68 17.2407 10.6366C17.1538 10.589 17.0545 10.5559 16.9552 10.5187C16.8559 10.4835 16.7503 10.4649 16.6448 10.4421C16.5393 10.4256 16.4296 10.4173 16.32 10.4173H16.349H16.3469H16.3427H16.3345H16.3179H16.2848L16.2207 10.4193C16.1669 10.4193 16.1586 10.4235 16.1379 10.4256C16.1048 10.4256 16.0448 10.4359 15.9931 10.4442C15.8876 10.4669 15.7821 10.4856 15.6828 10.5207C15.5855 10.558 15.4862 10.5911 15.3993 10.6387C15.3103 10.6842 15.2276 10.7318 15.151 10.7793C15.0021 10.8787 14.88 10.978 14.7993 11.0524C14.7165 11.1269 14.669 11.1724 14.669 11.1724L14.6172 11.2242C14.3669 11.4662 13.9448 11.4807 13.6717 11.2593C13.4565 11.0835 13.4027 10.8124 13.5103 10.5869C13.5103 10.5869 13.5207 10.5662 13.5414 10.5249C13.5621 10.4856 13.5869 10.4235 13.6324 10.3511C13.7172 10.2042 13.8579 9.99728 14.0814 9.78004C14.1931 9.67245 14.3234 9.55866 14.4786 9.45521C14.6296 9.34762 14.8055 9.25038 15 9.16555C15.1945 9.08279 15.4055 9.01038 15.629 8.96486C15.7427 8.94417 15.8483 8.92348 15.9869 8.91107C16.051 8.90486 16.1276 8.89866 16.1607 8.89659L16.32 8.89038C16.5538 8.89452 16.7855 8.91935 17.011 8.96279C17.2345 9.00831 17.4455 9.08073 17.64 9.16348C17.8324 9.24831 18.0103 9.34555 18.1614 9.45314C18.3165 9.55659 18.4448 9.66831 18.5565 9.77797C18.6683 9.88555 18.7572 9.99314 18.8317 10.0904C18.8669 10.14 18.9 10.1856 18.931 10.229C18.96 10.2766 18.989 10.32 19.0117 10.3593C19.0676 10.4462 19.0717 10.4793 19.0924 10.5187C19.1069 10.5518 19.1152 10.5704 19.1152 10.5704C19.2538 10.8787 19.0862 11.2283 18.7407 11.3524C18.4696 11.4497 18.1655 11.3752 17.9814 11.1869Z" fill="#422B0D"/>
<path d="M44 23.131C38.2276 23.131 32 19.5103 32 11.5655C32 3.62069 38.2276 0 44 0C47.2069 0 50.1655 1.05517 52.3586 2.97931C54.7379 5.08965 56 8.06897 56 11.5655C56 15.0621 54.7379 18.0207 52.3586 20.131C50.1655 22.0552 47.1862 23.131 44 23.131Z" fill="url(#paint3_radial_185_353)"/>
<path d="M53.9085 4.69043C55.0113 6.46974 55.5864 8.58836 55.5864 10.9449C55.5864 14.4415 54.3244 17.4001 51.9451 19.5104C49.752 21.4346 46.7726 22.5104 43.5864 22.5104C39.8499 22.5104 35.9313 20.9897 33.6182 17.7642C35.8444 21.418 40.032 23.1311 44.0002 23.1311C47.1864 23.1311 50.1658 22.0553 52.3589 20.1311C54.7382 18.0208 56.0002 15.0622 56.0002 11.5656C56.0002 8.92974 55.2823 6.58767 53.9085 4.69043Z" fill="#EB8F00"/>
<path d="M44.0825 19.4484C42.3156 19.4484 41.0556 18.147 40.6749 17.425C40.5301 17.1808 40.5032 16.8829 40.5984 16.616C40.6563 16.4567 40.8094 16.3491 40.9791 16.345C41.037 16.347 41.0929 16.3574 41.1467 16.3781C42.0363 16.7277 42.8163 17.2346 44.0929 17.2346C45.3694 17.2346 46.1618 16.7277 47.0391 16.3781C47.0929 16.3574 47.1487 16.345 47.2067 16.345C47.3742 16.3532 47.5191 16.4588 47.577 16.616C47.6722 16.8829 47.6453 17.1808 47.5004 17.425C47.1094 18.147 45.8494 19.4484 44.0825 19.4484Z" fill="#422B0D"/>
<path d="M41.0849 9.80064L41.0435 9.84202C41.0104 9.87926 40.9752 9.91443 40.938 9.94547L40.7952 10.0634C40.7352 10.1089 40.6669 10.1586 40.5883 10.2082C40.5097 10.2579 40.429 10.3055 40.34 10.351C40.249 10.3965 40.1538 10.4358 40.0566 10.4689C39.9552 10.5 39.8517 10.5248 39.7462 10.5455C39.6386 10.562 39.5311 10.5703 39.4214 10.5703H39.3242C39.2704 10.5703 39.26 10.5703 39.2393 10.5703L39.0945 10.5517C38.989 10.531 38.8855 10.5062 38.7842 10.4751C38.6849 10.4379 38.5897 10.3944 38.4966 10.3448C38.4076 10.2993 38.3249 10.2496 38.2483 10.202C38.1262 10.1213 38.0124 10.0303 37.9049 9.93099L37.7745 9.81098L37.7228 9.75926C37.458 9.51719 37.0586 9.50271 36.7773 9.72409C36.5724 9.88133 36.5042 10.1627 36.6159 10.3965L36.6469 10.4586C36.6738 10.5186 36.7049 10.5765 36.738 10.6324C36.9511 10.9882 37.2407 11.2924 37.5842 11.5262C37.7476 11.64 37.9214 11.7372 38.1035 11.8158C38.3042 11.9048 38.5111 11.9731 38.7242 12.0227C38.838 12.0434 38.9435 12.0641 39.0821 12.0765C39.1462 12.0765 39.2207 12.0889 39.2538 12.0889H39.4152C39.6469 12.0848 39.8766 12.062 40.1042 12.0165C40.3173 11.9668 40.5242 11.8986 40.7249 11.8096C40.9069 11.731 41.0807 11.6337 41.2442 11.52C41.5007 11.3462 41.7283 11.131 41.9166 10.8848L42.0159 10.7462L42.0986 10.6158C42.1297 10.5662 42.1566 10.5124 42.1793 10.4565L42.2021 10.4048C42.3262 10.1089 42.1855 9.76754 41.8897 9.6434C41.869 9.63512 41.8483 9.62685 41.8276 9.62271C41.5669 9.53995 41.2793 9.60823 41.0849 9.80064Z" fill="#422B0D"/>
<path d="M50.3954 9.80064L50.354 9.84202C50.3209 9.87926 50.2857 9.91443 50.2485 9.94547L50.1057 10.0634C50.0457 10.1089 49.9775 10.1586 49.8988 10.2082C49.8202 10.2579 49.7395 10.3055 49.6506 10.351C49.5595 10.3965 49.4644 10.4358 49.3671 10.4689C49.2657 10.5 49.1623 10.5248 49.0568 10.5455C48.9492 10.562 48.8416 10.5703 48.732 10.5703H48.6347C48.5809 10.5703 48.5706 10.5703 48.5499 10.5703L48.4051 10.5517C48.2995 10.531 48.1961 10.5062 48.0947 10.4751C47.9954 10.4379 47.9002 10.3944 47.8071 10.3448C47.7182 10.2993 47.6354 10.2496 47.5588 10.202C47.4368 10.1213 47.323 10.0303 47.2154 9.93099L47.0851 9.81098L47.0333 9.75926C46.7685 9.51719 46.3692 9.50271 46.0878 9.72409C45.883 9.88133 45.8147 10.1627 45.9264 10.3965L45.9575 10.4586C45.9844 10.5186 46.0154 10.5765 46.0485 10.6324C46.2616 10.9882 46.5513 11.2924 46.8947 11.5262C47.0582 11.64 47.232 11.7372 47.414 11.8158C47.6168 11.9048 47.8278 11.9751 48.0451 12.0227C48.1588 12.0434 48.2644 12.0641 48.403 12.0765C48.4671 12.0765 48.5416 12.0889 48.5747 12.0889H48.7361C48.9678 12.0848 49.1975 12.062 49.4251 12.0165C49.6423 11.9689 49.8533 11.8986 50.0561 11.8096C50.2382 11.731 50.4119 11.6337 50.5754 11.52C50.8319 11.3462 51.0595 11.131 51.2478 10.8848L51.3471 10.7462L51.4299 10.6158C51.4609 10.5662 51.4878 10.5124 51.5106 10.4565L51.5333 10.4048C51.6575 10.1089 51.5168 9.76754 51.2209 9.6434C51.2002 9.63512 51.1795 9.62685 51.1588 9.62271C50.8919 9.52961 50.594 9.59995 50.3954 9.80064Z" fill="#422B0D"/>
<path d="M36.7215 7.50635C36.5766 7.65738 36.3346 7.66359 36.1835 7.51669C36.047 7.38635 36.0284 7.17325 36.138 7.02014C36.3698 6.68911 36.6532 6.39738 36.9801 6.15738C37.847 5.48911 38.9332 5.17256 40.0235 5.27393C40.5366 5.33807 40.4373 5.99393 39.9801 6.03738C38.7553 6.13462 37.6049 6.65393 36.7215 7.50635Z" fill="#422B0D"/>
<path d="M51.2184 7.50635C51.3633 7.65738 51.6053 7.66359 51.7564 7.51669C51.8929 7.38635 51.9115 7.17325 51.8019 7.02014C51.5702 6.68911 51.2867 6.39738 50.9598 6.15738C50.0929 5.48911 49.0067 5.17256 47.9164 5.27393C47.4033 5.33807 47.5026 5.99393 47.9598 6.03738C49.1847 6.13462 50.335 6.65393 51.2184 7.50635Z" fill="#422B0D"/>
<path d="M76.0082 23.1233C70.2396 23.1233 64.0161 19.505 64.0161 11.5654C64.0161 3.62586 70.2396 0.00756836 76.0082 0.00756836C79.2129 0.00756836 82.1696 1.06204 84.3613 2.98491C86.739 5.09386 88.0002 8.0712 88.0002 11.5654C88.0002 15.0597 86.739 18.0163 84.3613 20.1253C82.1696 22.0481 79.1923 23.1233 76.0082 23.1233Z" fill="url(#paint4_radial_185_353)"/>
<path d="M85.9097 4.69482C87.0118 6.47296 87.5866 8.59018 87.5866 10.9452C87.5866 14.4394 86.3253 17.3961 83.9476 19.505C81.7559 21.4279 78.7786 22.503 75.5945 22.503C71.8604 22.503 67.9444 20.9834 65.6328 17.76C67.8575 21.4113 72.0424 23.1233 76.008 23.1233C79.1921 23.1233 82.1695 22.0482 84.3611 20.1253C86.7388 18.0163 88.0001 15.0597 88.0001 11.5654C88.0001 8.93133 87.2826 6.59081 85.9097 4.69482Z" fill="#EB8F00"/>
<path d="M68.6865 17.4106C67.7974 17.8592 66.8091 18.0763 65.8125 18.0433C66.1392 18.6325 66.5651 19.1618 67.0717 19.6064C67.6568 19.625 68.2399 19.5092 68.7733 19.2673C69.7079 18.8579 70.2061 16.66 68.6865 17.4106Z" fill="#EEEEEE"/>
<path d="M68.7507 12.8723C67.0139 12.7358 65.3619 12.0556 64.0324 10.9287C63.9766 11.5965 63.9931 12.2685 64.08 12.9322C64.08 12.9322 65.428 14.609 68.6969 14.793C71.1884 14.9357 71.1284 13.0335 68.7507 12.8723Z" fill="#EEEEEE"/>
<path d="M83.3127 17.4106C84.2017 17.8592 85.19 18.0763 86.1866 18.0433C85.8579 18.6305 85.432 19.1598 84.9275 19.6064C84.3423 19.625 83.7593 19.5092 83.2258 19.2673C82.2933 18.8579 81.793 16.66 83.3127 17.4106Z" fill="#EEEEEE"/>
<path d="M83.2485 12.8723C84.9853 12.7358 86.6373 12.0556 87.9667 10.9287C88.0226 11.5965 88.006 12.2685 87.9192 12.9322C87.9192 12.9322 86.5711 14.609 83.3022 14.793C80.8108 14.9357 80.8728 13.0335 83.2485 12.8723Z" fill="#EEEEEE"/>
<path d="M83.7408 18.5891V13.1637C83.7243 12.806 83.501 12.6861 83.0399 12.5166C82.0061 12.1423 78.8758 11.2078 76.0969 11.2078C73.3181 11.2078 70.1877 12.1423 69.1539 12.5166C68.6929 12.6861 68.4696 12.806 68.453 13.1637V18.5891C68.4303 19.0316 68.6929 19.4389 69.1064 19.6022C69.8693 19.9702 72.9852 21.1219 76.1011 21.1219C79.2169 21.1219 82.3349 19.9702 83.0957 19.6022C83.5051 19.4368 83.7636 19.0295 83.7408 18.5891Z" fill="#F5F5F5"/>
<path d="M69.1438 12.5165C68.9949 12.5413 68.8585 12.6137 68.7551 12.7233C68.6683 12.8267 68.6186 12.9549 68.6124 13.0893C68.6062 13.2361 68.6083 13.3849 68.6228 13.5317L68.6476 13.9949C68.6869 14.6151 68.7117 15.2478 68.7179 15.8764C68.7241 16.5049 68.7179 17.1335 68.6765 17.762C68.6765 17.9212 68.6621 18.0763 68.6455 18.2396C68.6248 18.3885 68.6145 18.5394 68.6124 18.6904C68.5773 18.9902 68.6869 19.29 68.9081 19.4967C68.7448 19.4492 68.6021 19.3437 68.5091 19.2011C68.4119 19.0563 68.3416 18.8971 68.3023 18.7276C68.2692 18.5663 68.2465 18.403 68.2341 18.2376C68.2175 18.0866 68.2051 17.9254 68.1886 17.7703C68.1307 17.15 68.1017 16.5132 68.0935 15.8826C68.0852 15.252 68.0935 14.6213 68.1596 13.9887C68.1803 13.6599 68.2299 13.3332 68.3106 13.0148C68.3705 12.837 68.4884 12.684 68.6476 12.5848C68.7985 12.4979 68.9763 12.4731 69.1438 12.5165Z" fill="#808080"/>
<path d="M82.9966 12.5165C83.1641 12.4731 83.3419 12.4979 83.4907 12.5848C83.6479 12.6861 83.7657 12.837 83.8236 13.0148C83.9043 13.3332 83.9539 13.6599 83.9746 13.9887C84.0324 14.6213 84.0449 15.252 84.0407 15.8826C84.0366 16.5132 84.0035 17.1417 83.9456 17.7703C83.9291 17.9254 83.9187 18.0866 83.9001 18.2376C83.8856 18.403 83.8629 18.5663 83.8298 18.7276C83.7885 18.8971 83.7182 19.0563 83.6231 19.2011C83.53 19.3437 83.3874 19.4492 83.224 19.4967C83.4453 19.29 83.5548 18.9902 83.5197 18.6904C83.5176 18.5394 83.5073 18.3885 83.4866 18.2396C83.4721 18.0763 83.4659 17.9212 83.4556 17.762C83.4163 17.1417 83.408 16.5049 83.4142 15.8764C83.4204 15.2478 83.4453 14.6193 83.4845 13.9949L83.5135 13.5276C83.5218 13.3808 83.5218 13.2319 83.5135 13.0851C83.5073 12.9507 83.4577 12.8225 83.3708 12.7192C83.2716 12.6137 83.1392 12.5413 82.9966 12.5165Z" fill="#808080"/>
<path d="M78.2408 8.00924C77.9596 8.26975 77.9431 8.70808 78.2036 8.98721C78.2449 9.0327 78.2925 9.07198 78.3442 9.10506C78.9479 9.55373 79.6261 9.89075 80.3498 10.0975C81.0796 10.2795 81.8343 10.3353 82.5828 10.2629C82.9715 10.2526 83.2795 9.92797 83.2692 9.53926C83.2671 9.48343 83.2589 9.42761 83.2444 9.37385C83.1224 9.01616 82.773 8.78665 82.3967 8.8156C81.8426 8.86936 81.2843 8.83628 80.7426 8.71222C80.2092 8.54888 79.7047 8.29663 79.2539 7.96789C78.9479 7.74252 78.5261 7.75906 78.2408 8.00924Z" fill="#422B0D"/>
<path d="M73.9403 8.00924C74.2215 8.26975 74.238 8.70808 73.9775 8.98721C73.9362 9.0327 73.8886 9.07198 73.8369 9.10506C73.2332 9.55373 72.555 9.89075 71.8313 10.0975C71.1015 10.2795 70.3468 10.3353 69.5983 10.2629C69.22 10.2567 68.9202 9.94451 68.9264 9.56614C68.9284 9.49997 68.9388 9.43588 68.9574 9.37385C69.0794 9.01616 69.4288 8.78665 69.8051 8.8156C70.3592 8.86936 70.9175 8.83628 71.4592 8.71222C71.9926 8.54888 72.4971 8.29663 72.9478 7.96789C73.2456 7.74252 73.6632 7.75906 73.9403 8.00924Z" fill="#422B0D"/>
<path d="M107.793 22.9317C102.12 22.9317 96 19.3734 96 11.5656C96 3.75773 102.12 0.199463 107.793 0.199463C110.945 0.199463 113.852 1.23644 116.008 3.12741C118.346 5.20137 119.586 8.12931 119.586 11.5656C119.586 15.0019 118.346 17.9095 116.008 19.9834C113.852 21.8744 110.924 22.9317 107.793 22.9317Z" fill="url(#paint5_radial_185_353)"/>
<path d="M117.53 4.80884C118.614 6.55747 119.179 8.63957 119.179 10.9555C119.179 14.3918 117.939 17.2994 115.601 19.3733C113.445 21.2643 110.518 22.3216 107.386 22.3216C103.714 22.3216 99.8631 20.8271 97.5898 17.6572C99.7777 21.248 103.893 22.9316 107.793 22.9316C110.924 22.9316 113.852 21.8743 116.007 19.9833C118.346 17.9094 119.586 15.0017 119.586 11.5655C119.586 8.97506 118.88 6.67337 117.53 4.80884Z" fill="#EB8F00"/>
<path opacity="0.9" d="M115.529 16.6184C117.488 16.6184 119.076 15.1618 119.076 13.3651C119.076 11.5684 117.488 10.1118 115.529 10.1118C113.571 10.1118 111.983 11.5684 111.983 13.3651C111.983 15.1618 113.571 16.6184 115.529 16.6184Z" fill="url(#paint6_radial_185_353)"/>
<path d="M119.716 7.72261C119.33 7.33628 118.706 7.33628 118.319 7.72261L111.282 14.7497L110.28 15.7541C111.042 15.866 111.791 16.051 112.516 16.3092L113.222 15.6016L117.431 11.4456L117.683 11.2219L119.716 9.11135C120.095 8.72502 120.095 8.10893 119.716 7.72261Z" fill="#E6E6E6"/>
<path d="M117.034 10.5693C116.778 10.3131 116.363 10.3131 116.107 10.5693L110.741 15.8335C111.223 15.921 111.697 16.0389 112.165 16.1853L117.044 11.5087C117.301 11.2505 117.301 10.8337 117.042 10.5775C117.04 10.5754 117.036 10.5714 117.034 10.5693Z" fill="#FF0000"/>
<path d="M107.897 14.215C106.254 14.2007 104.635 14.6135 103.198 15.4085C102.663 15.6911 103.023 16.4089 103.472 16.2503C104.89 15.7704 106.378 15.5407 107.875 15.5732C108.68 15.5712 109.485 15.6322 110.28 15.7542L111.282 14.7497C110.188 14.3959 109.046 14.215 107.897 14.215Z" fill="#422B0D"/>
<path d="M113.344 16.3297C113.521 16.1488 113.517 15.86 113.338 15.6831C113.311 15.6567 113.281 15.6343 113.246 15.614L113.226 15.6018L112.521 16.3094C112.645 16.3541 112.75 16.3968 112.836 16.4334C113.011 16.5066 113.212 16.466 113.344 16.3297Z" fill="#422B0D"/>
<path d="M118.995 9.86175L118.436 9.30463C118.367 9.2355 118.367 9.12367 118.436 9.05453C118.505 8.9854 118.617 8.9854 118.686 9.05453L119.239 9.60759L118.995 9.86175Z" fill="#404040"/>
<path d="M117.964 10.9334L117.655 10.6223C117.588 10.5531 117.588 10.4413 117.655 10.3722C117.724 10.303 117.836 10.303 117.905 10.3722L118.208 10.6772L117.964 10.9334Z" fill="#404040"/>
<path d="M115.979 12.8973L115.676 12.6025C115.607 12.5334 115.607 12.4215 115.676 12.3524C115.745 12.2833 115.857 12.2833 115.926 12.3524L116.231 12.6492L115.979 12.8973Z" fill="#404040"/>
<path d="M113.975 14.8656L113.694 14.5829C113.625 14.5138 113.625 14.402 113.694 14.3329C113.763 14.2637 113.875 14.2637 113.944 14.3329L114.227 14.6175L113.975 14.8656Z" fill="#404040"/>
<path d="M117.024 11.8746L116.473 11.3134C116.404 11.2443 116.404 11.1325 116.473 11.0633C116.542 10.9942 116.654 10.9942 116.723 11.0633L117.276 11.6265L117.024 11.8746Z" fill="#404040"/>
<path d="M115.038 13.8224L114.475 13.2653C114.406 13.1962 114.406 13.0844 114.475 13.0152C114.544 12.9461 114.656 12.9461 114.725 13.0152L115.29 13.5744L115.038 13.8224Z" fill="#404040"/>
<path d="M113.037 15.7907L112.494 15.2458C112.425 15.1767 112.425 15.0648 112.494 14.9957C112.563 14.9266 112.675 14.9266 112.744 14.9957L113.289 15.5406L113.037 15.7907Z" fill="#404040"/>
<path d="M104.214 6.62268C104.42 6.63081 104.593 6.47018 104.601 6.26482C104.609 6.05946 104.448 5.88662 104.243 5.87849C103.848 5.82766 103.448 5.84393 103.06 5.92729C102.002 6.12452 101.059 6.71214 100.416 7.57426C100.128 7.99312 100.67 8.35301 101.006 8.04395C101.878 7.2103 103.015 6.70808 104.218 6.62064" fill="#422B0D"/>
<path d="M111.518 6.66337C111.313 6.67151 111.14 6.51088 111.134 6.30348C111.126 6.09812 111.287 5.92529 111.492 5.91919C111.886 5.87039 112.287 5.88666 112.675 5.97002C113.733 6.16725 114.676 6.75691 115.319 7.61902C115.607 8.03788 115.064 8.39574 114.729 8.08871C113.857 7.25506 112.722 6.75284 111.518 6.66541" fill="#422B0D"/>
<path d="M103.808 8.11719C102.956 8.11719 102.181 8.83697 102.181 10.0326C102.181 11.2281 102.956 11.9459 103.808 11.9459C104.662 11.9459 105.434 11.2261 105.434 10.0326C105.434 8.83901 104.67 8.11719 103.808 8.11719Z" fill="#422B0D"/>
<path d="M103.737 8.91636C103.448 8.77809 103.1 8.90009 102.96 9.18882C102.852 9.41451 102.901 9.68494 103.082 9.85981C103.371 9.99807 103.718 9.87607 103.859 9.58734C103.966 9.36165 103.918 9.09122 103.737 8.91636Z" fill="#896024"/>
<path d="M111.616 8.11719C110.764 8.11719 109.989 8.83697 109.989 10.0326C109.989 11.2281 110.764 11.9459 111.616 11.9459C112.468 11.9459 113.243 11.2261 113.243 10.0326C113.243 8.83901 112.468 8.11719 111.616 8.11719Z" fill="#422B0D"/>
<path d="M111.535 8.91636C111.246 8.77809 110.898 8.90009 110.758 9.18882C110.65 9.41451 110.699 9.68494 110.88 9.85981C111.169 9.99807 111.516 9.87607 111.657 9.58734C111.764 9.36165 111.716 9.09122 111.535 8.91636Z" fill="#896024"/>
<path opacity="0.9" d="M100.443 17.1652C102.401 17.1652 103.989 15.7087 103.989 13.912C103.989 12.1152 102.401 10.6587 100.443 10.6587C98.4846 10.6587 96.897 12.1152 96.897 13.912C96.897 15.7087 98.4846 17.1652 100.443 17.1652Z" fill="url(#paint7_radial_185_353)"/>
<path d="M140.111 23.0244C134.392 23.0244 128.222 19.4371 128.222 11.5655C128.222 3.69398 134.392 0.106689 140.111 0.106689C143.288 0.106689 146.22 1.15213 148.393 3.05852C150.75 5.1494 152 8.10122 152 11.5655C152 15.0298 150.75 17.9611 148.393 20.052C146.22 21.9584 143.268 23.0244 140.111 23.0244Z" fill="url(#paint8_radial_185_353)"/>
<path d="M149.927 4.75366C151.02 6.51656 151.59 8.61564 151.59 10.9505C151.59 14.4147 150.339 17.3461 147.982 19.437C145.809 21.3433 142.857 22.4093 139.701 22.4093C135.998 22.4093 132.116 20.9026 129.824 17.7069C132.03 21.3269 136.179 23.0242 140.111 23.0242C143.267 23.0242 146.219 21.9583 148.392 20.0519C150.749 17.961 152 15.0297 152 11.5654C152 8.95387 151.289 6.6334 149.927 4.75366Z" fill="#EB8F00"/>
<path d="M140.192 16.5366C142.41 16.5366 143.847 18.1601 144.22 18.9083C144.364 19.1974 144.372 19.4372 144.249 19.5499C144.12 19.634 143.952 19.634 143.823 19.5499C143.759 19.5192 143.696 19.4843 143.638 19.4434C141.578 17.9674 138.809 17.9674 136.749 19.4434C136.691 19.4843 136.63 19.5192 136.564 19.5499C136.435 19.636 136.267 19.636 136.138 19.5499C136.015 19.4372 136.023 19.1974 136.167 18.9083C136.538 18.1622 137.975 16.5366 140.192 16.5366Z" fill="#422B0D"/>
<path d="M132.688 6.82425C132.237 6.9042 132.215 7.56016 132.707 7.58271C133.793 7.59911 134.843 7.19733 135.642 6.46142C135.945 6.19904 136.204 5.8895 136.403 5.54102C136.521 5.37088 136.48 5.1372 136.312 5.01626C136.144 4.89531 135.908 4.93836 135.788 5.10645L135.767 5.12695C134.961 6.02685 133.877 6.62336 132.688 6.82425Z" fill="#422B0D"/>
<path d="M144.727 5.13311L144.706 5.11261C144.588 4.94247 144.352 4.90148 144.182 5.02037C144.012 5.13926 143.971 5.375 144.092 5.54514C144.292 5.89157 144.551 6.2011 144.856 6.46144C145.656 7.19734 146.705 7.59707 147.792 7.57862C148.284 7.55607 148.261 6.90011 147.808 6.82017C146.619 6.62133 145.535 6.02686 144.727 5.13311Z" fill="#422B0D"/>
<path d="M131.075 20.6056C129.341 20.6056 128 18.9226 128 17.4816C128 16.4689 128.453 15.2943 129.095 13.6667C129.175 13.4269 129.281 13.185 129.388 12.9185C129.693 12.156 129.962 11.3299 130.372 10.6145C130.566 10.266 131.007 10.143 131.354 10.3377C131.468 10.4033 131.565 10.4976 131.63 10.6145C132.012 11.3176 132.274 12.0781 132.67 12.9657C133.791 15.4747 134.105 16.4894 134.105 17.5021C134.143 18.9308 132.782 20.6056 131.075 20.6056Z" fill="url(#paint9_radial_185_353)"/>
<path d="M132.951 18.6889C132.559 19.3039 131.669 19.1809 131.669 18.1744C131.669 17.5307 131.801 14.2263 132.354 14.6896C133.252 15.4419 133.508 17.8321 132.951 18.6889Z" fill="#81D4FA"/>
<path d="M136.23 9.93384C135.371 9.93384 134.59 10.6595 134.59 11.8648C134.59 13.0702 135.371 13.7938 136.23 13.7938C137.089 13.7938 137.87 13.0681 137.87 11.8648C137.87 10.6615 137.089 9.93384 136.23 9.93384Z" fill="#422B0D"/>
<path d="M136.15 10.7393C135.859 10.5999 135.509 10.7229 135.367 11.014C135.259 11.2416 135.308 11.5142 135.49 11.6905C135.781 11.8299 136.132 11.7069 136.273 11.4158C136.382 11.1883 136.333 10.9156 136.15 10.7393Z" fill="#896024"/>
<path d="M144.088 9.93384C143.229 9.93384 142.448 10.6595 142.448 11.8648C142.448 13.0702 143.229 13.7938 144.088 13.7938C144.947 13.7938 145.728 13.0681 145.728 11.8648C145.728 10.6615 144.951 9.93384 144.088 9.93384Z" fill="#422B0D"/>
<path d="M144.012 10.7393C143.72 10.5999 143.37 10.7229 143.229 11.014C143.12 11.2416 143.169 11.5142 143.352 11.6905C143.643 11.8299 143.993 11.7069 144.135 11.4158C144.243 11.1883 144.194 10.9156 144.012 10.7393Z" fill="#896024"/>
<defs>
<radialGradient id="paint0_radial_185_353" cx="0" cy="0" r="1" gradientUnits="userSpaceOnUse" gradientTransform="translate(12 11.5655) scale(11.7848)">
<stop offset="0.5" stop-color="#FDE030"/>
<stop offset="0.9188" stop-color="#F7C02B"/>
<stop offset="1" stop-color="#F4A223"/>
</radialGradient>
<radialGradient id="paint1_radial_185_353" cx="0" cy="0" r="1" gradientUnits="userSpaceOnUse" gradientTransform="translate(4.4792 12.9991) scale(3.9389 3.74177)">
<stop stop-color="#ED7770"/>
<stop offset="0.9" stop-color="#ED7770" stop-opacity="0"/>
</radialGradient>
<radialGradient id="paint2_radial_185_353" cx="0" cy="0" r="1" gradientUnits="userSpaceOnUse" gradientTransform="translate(19.6866 12.9991) scale(3.9389 3.74177)">
<stop stop-color="#ED7770"/>
<stop offset="0.9" stop-color="#ED7770" stop-opacity="0"/>
</radialGradient>
<radialGradient id="paint3_radial_185_353" cx="0" cy="0" r="1" gradientUnits="userSpaceOnUse" gradientTransform="translate(44 11.5655) scale(11.7848)">
<stop offset="0.5" stop-color="#FDE030"/>
<stop offset="0.92" stop-color="#F7C02B"/>
<stop offset="1" stop-color="#F4A223"/>
</radialGradient>
<radialGradient id="paint4_radial_185_353" cx="0" cy="0" r="1" gradientUnits="userSpaceOnUse" gradientTransform="translate(76.0082 11.5654) scale(11.777)">
<stop offset="0.5" stop-color="#FDE030"/>
<stop offset="0.92" stop-color="#F7C02B"/>
<stop offset="1" stop-color="#F4A223"/>
</radialGradient>
<radialGradient id="paint5_radial_185_353" cx="0" cy="0" r="1" gradientUnits="userSpaceOnUse" gradientTransform="translate(107.793 11.5656) scale(11.5816 11.5816)">
<stop offset="0.5" stop-color="#FDE030"/>
<stop offset="0.92" stop-color="#F7C02B"/>
<stop offset="1" stop-color="#F4A223"/>
</radialGradient>
<radialGradient id="paint6_radial_185_353" cx="0" cy="0" r="1" gradientUnits="userSpaceOnUse" gradientTransform="translate(115.519 13.3951) scale(3.85633 3.3797)">
<stop stop-color="#ED7770"/>
<stop offset="0.08" stop-color="#ED7770" stop-opacity="0.97"/>
<stop offset="0.21" stop-color="#ED7770" stop-opacity="0.88"/>
<stop offset="0.35" stop-color="#ED7770" stop-opacity="0.74"/>
<stop offset="0.52" stop-color="#ED7770" stop-opacity="0.55"/>
<stop offset="0.71" stop-color="#ED7770" stop-opacity="0.29"/>
<stop offset="0.9" stop-color="#ED7770" stop-opacity="0"/>
</radialGradient>
<radialGradient id="paint7_radial_185_353" cx="0" cy="0" r="1" gradientUnits="userSpaceOnUse" gradientTransform="translate(100.443 13.9413) scale(3.85401 3.37767)">
<stop stop-color="#ED7770"/>
<stop offset="0.08" stop-color="#ED7770" stop-opacity="0.97"/>
<stop offset="0.21" stop-color="#ED7770" stop-opacity="0.88"/>
<stop offset="0.35" stop-color="#ED7770" stop-opacity="0.74"/>
<stop offset="0.52" stop-color="#ED7770" stop-opacity="0.55"/>
<stop offset="0.71" stop-color="#ED7770" stop-opacity="0.29"/>
<stop offset="0.9" stop-color="#ED7770" stop-opacity="0"/>
</radialGradient>
<radialGradient id="paint8_radial_185_353" cx="0" cy="0" r="1" gradientUnits="userSpaceOnUse" gradientTransform="translate(140.111 11.5655) scale(11.6761)">
<stop offset="0.5" stop-color="#FDE030"/>
<stop offset="0.92" stop-color="#F7C02B"/>
<stop offset="1" stop-color="#F4A223"/>
</radialGradient>
<radialGradient id="paint9_radial_185_353" cx="0" cy="0" r="1" gradientUnits="userSpaceOnUse" gradientTransform="translate(131.294 11.5739) scale(6.8466 10.5438)">
<stop offset="0.46" stop-color="#29B6F6"/>
<stop offset="1" stop-color="#1E88E5"/>
</radialGradient>
</defs>
</svg>
