<svg xmlns="http://www.w3.org/2000/svg" width="24" height="24" viewBox="0 0 24 24">
  <g id="exit2" transform="translate(-2 -2)">
    <path id="Path_" data-name="Path " d="M12,10a2.006,2.006,0,0,0,2-2V4a2,2,0,0,0-4,0V8A2.006,2.006,0,0,0,12,10Z" transform="translate(2)" fill="#e31b1b"/>
    <path id="Path_2" data-name="Path " d="M22.52,4.991h0A1.618,1.618,0,0,0,21.2,4.5a1.868,1.868,0,0,0-1.8,1.843,2.614,2.614,0,0,0,.48,1.351h0a8.452,8.452,0,0,1,2.4,6.02,8.4,8.4,0,1,1-16.8,0A8.344,8.344,0,0,1,8,7.694H8a1.994,1.994,0,0,0,.6-1.351A1.868,1.868,0,0,0,6.8,4.5a2.481,2.481,0,0,0-1.32.491h0A12.4,12.4,0,0,0,2,13.714,12.181,12.181,0,0,0,14,26,12.181,12.181,0,0,0,26,13.714,12.4,12.4,0,0,0,22.52,4.991Z" transform="translate(0 0)" fill="#e31b1b"/>
  </g>
</svg>
