<svg id="Simplification" xmlns="http://www.w3.org/2000/svg" width="42.601" height="42.601" viewBox="0 0 42.601 42.601">
  <path id="Path_" data-name="Path " d="M49.795,303.558a2.031,2.031,0,0,1,1.021,1.021,6.621,6.621,0,0,1,.055,1.1l0,.322c0,.34,0,.679.005,1.019.014,2.853.092,5.328,2.1,7.544,2.205,2.043,4.968,2,7.791,2,.332,0,.665,0,1,.008l.307,0a1.858,1.858,0,0,1,1.4.465,1.863,1.863,0,0,1,0,2.451,2.574,2.574,0,0,1-2.019.463h-.418q-.438,0-.876,0c-.369,0-.738,0-1.107,0-3.218.018-6.1-.6-8.461-2.925l-.292-.3-.232-.229a9.551,9.551,0,0,1-2.543-6.14l0-.384q0-.205,0-.411v-.211q0-.552,0-1.1,0-.569-.009-1.137,0-.439,0-.878,0-.21,0-.419c-.017-1.348-.017-1.348.455-1.85A2,2,0,0,1,49.795,303.558Z" transform="translate(-47.483 -277.356)" fill="#232323"/>
  <path id="Path_2" data-name="Path " d="M318.868,303.558a1.865,1.865,0,0,1,1.021,1.021,10.218,10.218,0,0,1,.054,1.406q0,.209,0,.418,0,.438,0,.876c0,.369,0,.738,0,1.107a13.256,13.256,0,0,1-.463,4.363l-.12.366a10.215,10.215,0,0,1-2.126,3.515l-.216.241a9.929,9.929,0,0,1-6.327,3.041l-.337,0-.384,0-.411,0h-.211l-1.1,0c-.379,0-.758,0-1.137.009q-.439,0-.878,0l-.419,0c-1.348.017-1.348.017-1.85-.455a1.863,1.863,0,0,1,0-2.451,2.2,2.2,0,0,1,1.71-.464l.322,0c.34,0,.679,0,1.019-.005,2.853-.014,5.328-.092,7.544-2.1,2.043-2.205,2-4.968,2-7.792,0-.332,0-.665.008-1,0-.1,0-.2,0-.307a1.858,1.858,0,0,1,.465-1.4A2,2,0,0,1,318.868,303.558Z" transform="translate(-277.344 -277.356)" fill="#232323"/>
  <path id="Path_3" data-name="Path " d="M56.955,47.53l.384,0,.411,0h.211l1.1,0q.569,0,1.137-.009.439,0,.878,0l.419,0c1.348-.017,1.348-.017,1.85.455a1.864,1.864,0,0,1,0,2.451,2.232,2.232,0,0,1-1.736.464l-.33,0c-.348,0-.7,0-1.043.005-2.853.014-5.286.086-7.483,2.144-1.627,1.694-1.977,3.766-1.987,6.02q0,.332-.007.665-.005.517-.008,1.034c0,.336-.006.671-.01,1.007,0,.1,0,.206,0,.311a1.868,1.868,0,0,1-.468,1.416,1.592,1.592,0,0,1-1.225.46,1.775,1.775,0,0,1-1.442-.692,3.179,3.179,0,0,1-.242-1.8q0-.21,0-.42,0-.44,0-.88c0-.372,0-.743,0-1.115q0-.434,0-.868c0-.2,0-.4,0-.607a10.17,10.17,0,0,1,2.7-6.743l.216-.241A9.822,9.822,0,0,1,56.955,47.53Z" transform="translate(-47.355 -47.487)" fill="#232323"/>
  <path id="Path_4" data-name="Path " d="M305.978,47.408h.418q.438,0,.876,0c.369,0,.738,0,1.107,0a13.257,13.257,0,0,1,4.363.463l.366.12a10.216,10.216,0,0,1,3.515,2.126l.241.216A9.928,9.928,0,0,1,319.9,56.66c0,.111,0,.222,0,.337,0,.19,0,.19,0,.384q0,.206,0,.411c0,.07,0,.139,0,.211q0,.552,0,1.1c0,.379,0,.758.009,1.137q0,.439,0,.878,0,.21,0,.419c.017,1.348.017,1.348-.455,1.85a1.863,1.863,0,0,1-2.451,0,2.2,2.2,0,0,1-.464-1.71c0-.106,0-.213,0-.322,0-.34,0-.679-.005-1.019-.014-2.865-.072-5.329-2.144-7.54a8.057,8.057,0,0,0-5.931-1.987l-.68-.007q-.53-.005-1.059-.008c-.344,0-.687-.006-1.031-.01h-.319a1.883,1.883,0,0,1-1.434-.468,1.864,1.864,0,0,1,0-2.451A2.574,2.574,0,0,1,305.978,47.408Z" transform="translate(-277.344 -47.401)" fill="#232323"/>
  <path id="Path_5" data-name="Path " d="M167.362,314.094a5.878,5.878,0,0,1,.736.634,8.7,8.7,0,0,0,3.778,1.972l.274.076a9.182,9.182,0,0,0,6.5-1.084,15.324,15.324,0,0,0,1.5-1.136q.225-.177.453-.351l.191-.146a1.687,1.687,0,0,1,1.194-.217,1.727,1.727,0,0,1,1.181,2.559,11.947,11.947,0,0,1-7.92,3.976,12.773,12.773,0,0,1-9.394-2.961c-1.08-.987-1.08-.987-1.154-1.569a2.135,2.135,0,0,1,.337-1.392A1.834,1.834,0,0,1,167.362,314.094Z" transform="translate(-152.715 -286.618)" fill="#232323"/>
  <path id="Path_6" data-name="Path " d="M233,196.735a2.4,2.4,0,0,1,1.123,1.123c.011.235.015.471.016.707,0,.109,0,.109,0,.22q0,.362,0,.724l0,.5q0,.528,0,1.056,0,.675.006,1.351,0,.52,0,1.04,0,.249,0,.5c0,.233,0,.465,0,.7,0,.2,0,.2,0,.4a1.763,1.763,0,0,1-.516,1.146c-1.031.735-2.461,1.659-3.771,1.527a1.934,1.934,0,0,1-1.156-.852,2.314,2.314,0,0,1,.051-1.781,2.814,2.814,0,0,1,1.139-.829l.217-.113.527-.271c0-.071,0-.142,0-.215q.006-1.01.018-2.019.006-.519.009-1.038,0-.6.012-1.2c0-.123,0-.246,0-.373a3.026,3.026,0,0,1,.47-1.8A2.017,2.017,0,0,1,233,196.735Z" transform="translate(-210.064 -181.46)" fill="#232323"/>
  <path id="Path_7" data-name="Path " d="M315.843,164.735a2.4,2.4,0,0,1,1.123,1.123c.026.459.028.918.03,1.378,0,.228.006.456.011.684q0,.219,0,.438c0,.132,0,.265,0,.4a1.806,1.806,0,0,1-.725,1.215,1.935,1.935,0,0,1-1.468.274,1.823,1.823,0,0,1-1.132-1.049,5.292,5.292,0,0,1-.131-1.689c0-.127-.005-.254-.008-.386a2.985,2.985,0,0,1,.454-1.88A2.017,2.017,0,0,1,315.843,164.735Z" transform="translate(-286.368 -152.727)" fill="#232323"/>
  <path id="Path_8" data-name="Path " d="M166.722,164.768a1.822,1.822,0,0,1,1.132,1.048,5.288,5.288,0,0,1,.131,1.689c0,.127.005.254.008.385a2.985,2.985,0,0,1-.454,1.88,1.921,1.921,0,0,1-1.582.539,1.657,1.657,0,0,1-1.1-.705,2.915,2.915,0,0,1-.3-1.825c0-.228-.006-.456-.011-.684q0-.219,0-.438c0-.2,0-.2,0-.4a1.806,1.806,0,0,1,.724-1.215A1.935,1.935,0,0,1,166.722,164.768Z" transform="translate(-152.565 -152.76)" fill="#232323"/>
</svg>
