<svg width="23" height="26" viewBox="0 0 23 26" fill="none" xmlns="http://www.w3.org/2000/svg">
<path d="M16.1721 24.0163C16.4114 23.6165 16.4761 23.2077 16.5392 22.8027C16.8045 21.1129 16.8633 19.4074 16.8424 17.7034C16.806 14.6669 16.7198 11.632 16.6448 8.59702C16.6388 8.35104 16.696 8.1712 16.8647 7.98839C18.0664 6.68865 19.2413 5.3629 20.2683 3.91825C20.6659 3.35942 21.0003 2.75377 21.3339 2.15257C21.4216 1.99428 21.3941 1.77283 21.4201 1.57962C21.2388 1.63312 21.0263 1.64204 20.8843 1.74756C20.1739 2.27296 19.4768 2.81619 18.7865 3.36685C17.7268 4.21179 16.6886 5.08349 15.6192 5.91431C14.4094 6.85437 12.9938 7.13825 11.4956 7.11075C11.3054 7.10704 11.1731 7.03644 11.1738 6.83208C11.1738 6.62846 11.3091 6.56752 11.4971 6.55117C12.1503 6.49024 12.8102 6.45977 13.453 6.33938C14.3359 6.17366 15.0686 5.66536 15.7545 5.1199C16.9168 4.19544 18.0381 3.2212 19.1915 2.28634C19.6634 1.90437 20.165 1.55732 20.6688 1.21845C20.8308 1.10921 21.0382 1.04382 21.2344 1.01261C21.7471 0.930862 22.1276 1.30391 22.0146 1.81147C21.9329 2.17709 21.7969 2.54346 21.6186 2.87415C21.0032 4.0156 20.188 5.01958 19.3579 6.00794C18.7166 6.77337 18.0508 7.51724 17.3849 8.26112C17.2601 8.40009 17.217 8.53311 17.2214 8.71517C17.2898 11.8073 17.373 14.8995 17.4087 17.9924C17.4273 19.5827 17.3589 21.1753 17.1196 22.7522C17.0587 23.1587 16.945 23.5592 16.8328 23.9553C16.7904 24.1062 16.7005 24.2533 16.6002 24.3774C16.3356 24.7052 15.9336 24.7052 15.7374 24.3388C15.5375 23.965 15.3651 23.5563 15.2826 23.1438C15.0114 21.7846 14.7855 20.4165 14.5432 19.0521C14.538 19.0202 14.532 18.9897 14.4956 18.9578C14.4473 19.4891 14.4221 20.0242 14.3463 20.5518C14.1828 21.6903 14.0074 22.8273 13.8053 23.9605C13.7555 24.237 13.612 24.5134 13.456 24.7527C13.2412 25.0819 12.8563 25.076 12.6215 24.7579C12.5078 24.6048 12.4282 24.4205 12.3606 24.2407C12.3034 24.0861 12.3606 23.9472 12.5241 23.8847C12.6906 23.8216 12.808 23.8981 12.883 24.046C12.9313 24.1433 12.9707 24.2459 13.0131 24.347C13.0376 24.347 13.0606 24.347 13.0852 24.347C13.1654 24.098 13.2799 23.8535 13.3207 23.5979C13.4969 22.4772 13.7005 21.3573 13.8015 20.2293C13.9465 18.6048 14.0111 16.9736 14.1077 15.3447C14.1196 15.141 14.2229 15.0125 14.4191 15.0117C14.6056 15.0117 14.7015 15.1366 14.7186 15.3291C14.7899 16.1279 14.8345 16.9298 14.9467 17.7227C15.1652 19.2639 15.4134 20.8015 15.6713 22.3368C15.7426 22.7656 15.8845 23.1847 16.0034 23.6061C16.0406 23.7346 16.1067 23.8565 16.1744 24.0185" fill="white"/>
<path d="M16.1721 24.0163C16.4114 23.6165 16.4761 23.2077 16.5392 22.8027C16.8045 21.1129 16.8633 19.4074 16.8424 17.7034C16.806 14.6669 16.7198 11.632 16.6448 8.59702C16.6388 8.35104 16.696 8.1712 16.8647 7.98839C18.0664 6.68865 19.2413 5.3629 20.2683 3.91825C20.6659 3.35942 21.0003 2.75377 21.3339 2.15257C21.4216 1.99428 21.3941 1.77283 21.4201 1.57962C21.2388 1.63312 21.0263 1.64204 20.8843 1.74756C20.1739 2.27296 19.4768 2.81619 18.7865 3.36685C17.7268 4.21179 16.6886 5.08349 15.6192 5.91431C14.4094 6.85437 12.9938 7.13825 11.4956 7.11075C11.3054 7.10704 11.1731 7.03644 11.1738 6.83208C11.1738 6.62846 11.3091 6.56752 11.4971 6.55117C12.1503 6.49024 12.8102 6.45977 13.453 6.33938C14.3359 6.17366 15.0686 5.66536 15.7545 5.1199C16.9168 4.19544 18.0381 3.2212 19.1915 2.28634C19.6634 1.90437 20.165 1.55732 20.6688 1.21845C20.8308 1.10921 21.0382 1.04382 21.2344 1.01261C21.7471 0.930862 22.1276 1.30391 22.0146 1.81147C21.9329 2.17709 21.7969 2.54346 21.6186 2.87415C21.0032 4.0156 20.188 5.01958 19.3579 6.00794C18.7166 6.77337 18.0508 7.51724 17.3849 8.26112C17.2601 8.40009 17.217 8.53311 17.2214 8.71517C17.2898 11.8073 17.373 14.8995 17.4087 17.9924C17.4273 19.5827 17.3589 21.1753 17.1196 22.7522C17.0587 23.1587 16.945 23.5592 16.8328 23.9553C16.7904 24.1062 16.7005 24.2533 16.6002 24.3774C16.3356 24.7052 15.9336 24.7052 15.7374 24.3388C15.5375 23.965 15.3651 23.5563 15.2826 23.1438C15.0114 21.7846 14.7855 20.4165 14.5432 19.0521C14.538 19.0202 14.532 18.9897 14.4956 18.9578C14.4473 19.4891 14.4221 20.0242 14.3463 20.5518C14.1828 21.6903 14.0074 22.8273 13.8053 23.9605C13.7555 24.237 13.612 24.5134 13.456 24.7527C13.2412 25.0819 12.8563 25.076 12.6215 24.7579C12.5078 24.6048 12.4282 24.4205 12.3606 24.2407C12.3034 24.0861 12.3606 23.9472 12.5241 23.8847C12.6906 23.8216 12.808 23.8981 12.883 24.046C12.9313 24.1433 12.9707 24.2459 13.0131 24.347C13.0376 24.347 13.0606 24.347 13.0852 24.347C13.1654 24.098 13.2799 23.8535 13.3207 23.5979C13.4969 22.4772 13.7005 21.3573 13.8015 20.2293C13.9465 18.6048 14.0111 16.9736 14.1077 15.3447C14.1196 15.141 14.2229 15.0125 14.4191 15.0117C14.6056 15.0117 14.7015 15.1366 14.7186 15.3291C14.7899 16.1279 14.8345 16.9298 14.9467 17.7227C15.1652 19.2639 15.4134 20.8015 15.6713 22.3368C15.7426 22.7656 15.8845 23.1847 16.0034 23.6061C16.0406 23.7346 16.1067 23.8565 16.1744 24.0185" stroke="white" stroke-width="0.5"/>
<path d="M9.88057 23.0911C9.82112 23.34 9.78768 23.5481 9.72079 23.7443C9.6227 24.0252 9.53501 24.3202 9.38192 24.5714C9.04008 25.1317 8.39802 25.1325 8.02868 24.5885C7.74332 24.1679 7.64522 23.6804 7.57611 23.1884C7.36878 21.7252 7.42303 20.2568 7.50477 18.7883C7.53227 18.2942 7.57388 17.8007 7.6207 17.308C7.63482 17.1594 7.58503 17.0806 7.46762 16.9907C6.61673 16.342 5.75767 15.7021 4.93502 15.0192C4.60284 14.7442 4.33383 14.3831 4.07447 14.033C3.93922 13.851 3.85525 13.6147 3.80472 13.391C3.70142 12.931 4.05367 12.4725 4.52258 12.4086C4.91644 12.3551 5.28578 12.4517 5.62465 12.6315C6.25408 12.9652 6.86791 13.3271 7.49065 13.6734C7.90086 13.9008 8.31181 14.1274 8.72797 14.3444C9.17013 14.5755 9.6227 14.5889 10.0493 14.3169C10.617 13.955 11.1699 13.5723 11.7273 13.1963C12.2185 12.8648 12.6926 12.5081 13.2001 12.2049C13.4721 12.0429 13.7894 11.9211 14.1008 11.8668C14.7919 11.7472 15.2987 12.3119 15.0624 12.9711C14.9093 13.3954 14.6671 13.8175 14.3669 14.1542C13.7582 14.8371 13.0879 15.4651 12.4325 16.1056C12.3128 16.2231 12.2623 16.3308 12.2593 16.501C12.2296 18.2778 12.2214 20.0569 12.1367 21.8315C12.0981 22.6103 11.9078 23.3839 11.7599 24.1545C11.7213 24.3529 11.6061 24.5499 11.4865 24.7178C11.2323 25.0723 10.7924 25.1035 10.5405 24.7505C10.3339 24.4607 10.2061 24.1092 10.0686 23.7748C9.98535 23.5749 9.95116 23.3549 9.88131 23.0926M10.9544 24.4131C10.9819 24.4131 11.0079 24.4131 11.0354 24.4116C11.1015 24.2608 11.1989 24.1166 11.2286 23.9591C11.3535 23.2992 11.4991 22.6385 11.5615 21.9719C11.7391 20.0784 11.7414 18.1767 11.6946 16.2773C11.6901 16.0796 11.757 15.9488 11.9004 15.8158C12.489 15.2696 13.0931 14.7346 13.6341 14.1438C13.9797 13.767 14.2554 13.3167 14.5043 12.8663C14.6671 12.5713 14.4545 12.3417 14.1246 12.4286C13.8846 12.491 13.6393 12.5839 13.435 12.7199C12.7602 13.1695 12.1092 13.6555 11.4367 14.1074C11.0072 14.3957 10.5628 14.6669 10.1072 14.9137C9.77207 15.095 9.39233 15.17 9.02299 15.0378C8.59123 14.8832 8.15724 14.7145 7.75372 14.4982C7.07673 14.1349 6.42797 13.7157 5.75395 13.3449C5.48122 13.194 5.17802 13.0855 4.87706 13.0031C4.75147 12.9689 4.52333 13.0083 4.46759 13.0952C4.40071 13.2015 4.41854 13.417 4.48468 13.5396C4.6177 13.7863 4.78714 14.0219 4.97887 14.2277C5.80226 15.1128 6.77056 15.8262 7.77824 16.4832C8.11934 16.7046 8.24642 16.9008 8.19663 17.3496C8.00341 19.0849 7.91795 20.8327 8.07921 22.5761C8.12752 23.1097 8.29621 23.6343 8.43815 24.1552C8.46787 24.263 8.61724 24.3908 8.72425 24.4042C8.79857 24.4139 8.94125 24.2571 8.97469 24.15C9.10994 23.719 9.26302 23.2836 9.3195 22.8392C9.41537 22.0752 9.44435 21.3039 9.49934 20.5347C9.51197 20.3534 9.56771 20.2077 9.77504 20.2025C9.97717 20.1981 10.05 20.3289 10.0708 20.5154C10.1109 20.8944 10.1399 21.2764 10.2142 21.6494C10.3651 22.4111 10.536 23.1699 10.7158 23.9256C10.7567 24.0973 10.8726 24.2511 10.9544 24.4131Z" fill="white"/>
<path d="M9.88057 23.0911C9.82112 23.34 9.78768 23.5481 9.72079 23.7443C9.6227 24.0252 9.53501 24.3202 9.38192 24.5714C9.04008 25.1317 8.39802 25.1325 8.02868 24.5885C7.74332 24.1679 7.64522 23.6804 7.57611 23.1884C7.36878 21.7252 7.42303 20.2568 7.50477 18.7883C7.53227 18.2942 7.57388 17.8007 7.6207 17.308C7.63482 17.1594 7.58503 17.0806 7.46762 16.9907C6.61673 16.342 5.75767 15.7021 4.93502 15.0192C4.60284 14.7442 4.33383 14.3831 4.07447 14.033C3.93922 13.851 3.85525 13.6147 3.80472 13.391C3.70142 12.931 4.05367 12.4725 4.52258 12.4086C4.91644 12.3551 5.28578 12.4517 5.62465 12.6315C6.25408 12.9652 6.86791 13.3271 7.49065 13.6734C7.90086 13.9008 8.31181 14.1274 8.72797 14.3444C9.17013 14.5755 9.6227 14.5889 10.0493 14.3169C10.617 13.955 11.1699 13.5723 11.7273 13.1963C12.2185 12.8648 12.6926 12.5081 13.2001 12.2049C13.4721 12.0429 13.7894 11.9211 14.1008 11.8668C14.7919 11.7472 15.2987 12.3119 15.0624 12.9711C14.9093 13.3954 14.6671 13.8175 14.3669 14.1542C13.7582 14.8371 13.0879 15.4651 12.4325 16.1056C12.3128 16.2231 12.2623 16.3308 12.2593 16.501C12.2296 18.2778 12.2214 20.0569 12.1367 21.8315C12.0981 22.6103 11.9078 23.3839 11.7599 24.1545C11.7213 24.3529 11.6061 24.5499 11.4865 24.7178C11.2323 25.0723 10.7924 25.1035 10.5405 24.7505C10.3339 24.4607 10.2061 24.1092 10.0686 23.7748C9.98535 23.5749 9.95116 23.3549 9.88131 23.0926M10.9544 24.4131C10.9819 24.4131 11.0079 24.4131 11.0354 24.4116C11.1015 24.2608 11.1989 24.1166 11.2286 23.9591C11.3535 23.2992 11.4991 22.6385 11.5615 21.9719C11.7391 20.0784 11.7414 18.1767 11.6946 16.2773C11.6901 16.0796 11.757 15.9488 11.9004 15.8158C12.489 15.2696 13.0931 14.7346 13.6341 14.1438C13.9797 13.767 14.2554 13.3167 14.5043 12.8663C14.6671 12.5713 14.4545 12.3417 14.1246 12.4286C13.8846 12.491 13.6393 12.5839 13.435 12.7199C12.7602 13.1695 12.1092 13.6555 11.4367 14.1074C11.0072 14.3957 10.5628 14.6669 10.1072 14.9137C9.77207 15.095 9.39233 15.17 9.02299 15.0378C8.59123 14.8832 8.15724 14.7145 7.75372 14.4982C7.07673 14.1349 6.42797 13.7157 5.75395 13.3449C5.48122 13.194 5.17802 13.0855 4.87706 13.0031C4.75147 12.9689 4.52333 13.0083 4.46759 13.0952C4.40071 13.2015 4.41854 13.417 4.48468 13.5396C4.6177 13.7863 4.78714 14.0219 4.97887 14.2277C5.80226 15.1128 6.77056 15.8262 7.77824 16.4832C8.11934 16.7046 8.24642 16.9008 8.19663 17.3496C8.00341 19.0849 7.91795 20.8327 8.07921 22.5761C8.12752 23.1097 8.29621 23.6343 8.43815 24.1552C8.46787 24.263 8.61724 24.3908 8.72425 24.4042C8.79857 24.4139 8.94125 24.2571 8.97469 24.15C9.10994 23.719 9.26302 23.2836 9.3195 22.8392C9.41537 22.0752 9.44435 21.3038 9.49934 20.5347C9.51197 20.3534 9.56771 20.2077 9.77504 20.2025C9.97717 20.1981 10.05 20.3289 10.0708 20.5154C10.1109 20.8944 10.1399 21.2764 10.2142 21.6494C10.3651 22.4111 10.536 23.1699 10.7158 23.9256C10.7567 24.0973 10.8726 24.2511 10.9544 24.4131Z" stroke="white" stroke-width="0.5"/>
<path d="M11.4955 9.35648C10.2619 9.23832 9.02535 9.14245 7.79621 8.9916C7.07388 8.90242 6.49721 8.50782 6.14571 7.86575C5.75482 7.14863 5.39812 6.41144 5.05405 5.67054C4.67579 4.85532 4.34138 4.01856 3.9609 3.20408C3.8368 2.9373 3.64655 2.69355 3.45111 2.47061C3.2735 2.26774 3.08549 2.32644 3.08846 2.59397C3.09366 3.04282 3.11596 3.50505 3.22371 3.93904C3.49941 5.03888 3.79964 6.13425 4.14222 7.21477C4.50859 8.37257 4.464 9.50585 4.14817 10.6622C3.5113 12.9911 2.6084 15.2198 1.66536 17.4351C1.52566 17.765 1.52045 17.9114 1.81622 18.1046C2.219 18.3692 2.64704 18.6144 3.09738 18.7794C4.17641 19.177 5.30597 19.3568 6.45188 19.4267C6.50836 19.4304 6.56707 19.4281 6.62206 19.4386C6.7848 19.4683 6.89627 19.5589 6.88735 19.7328C6.87695 19.9156 6.75582 20.0137 6.57673 20.0026C6.22894 19.9803 5.88041 19.9543 5.53485 19.9097C4.38894 19.764 3.25864 19.5426 2.2138 19.0261C1.8779 18.8604 1.56058 18.63 1.2886 18.3722C0.976481 18.0764 0.920746 17.7033 1.10579 17.2805C1.97822 15.2904 2.7927 13.2772 3.40429 11.189C3.56853 10.6302 3.68891 10.058 3.81227 9.48801C3.9505 8.84223 3.82045 8.21354 3.64804 7.59228C3.31289 6.38172 2.95544 5.1771 2.65001 3.95911C2.53929 3.51769 2.52294 3.0458 2.51476 2.58728C2.50882 2.24693 2.66562 1.95265 3.01638 1.82557C3.35971 1.70147 3.66365 1.82706 3.86726 2.08567C4.14148 2.43197 4.40604 2.80205 4.59256 3.20037C5.02804 4.13226 5.40332 5.09164 5.82542 6.03022C6.04762 6.52514 6.30474 7.00372 6.56409 7.48007C6.87175 8.0441 7.36222 8.35028 7.99165 8.46695C9.07514 8.66685 10.1705 8.67577 11.2644 8.70326C11.5082 8.70995 11.7519 8.70326 11.9956 8.70623C12.1673 8.70846 12.2788 8.79987 12.2899 8.96782C12.3026 9.15286 12.1874 9.25021 12.009 9.26879C11.8396 9.28588 11.6694 9.29554 11.5 9.30743C11.4985 9.32378 11.4963 9.34013 11.4948 9.35573" fill="white"/>
<path d="M11.4955 9.35648C10.2619 9.23832 9.02535 9.14245 7.79621 8.9916C7.07388 8.90242 6.49721 8.50782 6.14571 7.86575C5.75482 7.14863 5.39812 6.41144 5.05405 5.67054C4.67579 4.85532 4.34138 4.01856 3.9609 3.20408C3.8368 2.9373 3.64655 2.69355 3.45111 2.47061C3.2735 2.26774 3.08549 2.32644 3.08846 2.59397C3.09366 3.04282 3.11596 3.50505 3.22371 3.93904C3.49941 5.03888 3.79964 6.13425 4.14222 7.21477C4.50859 8.37257 4.464 9.50585 4.14817 10.6622C3.5113 12.9911 2.6084 15.2198 1.66536 17.4351C1.52566 17.765 1.52045 17.9114 1.81622 18.1046C2.219 18.3692 2.64704 18.6144 3.09738 18.7794C4.17641 19.177 5.30597 19.3568 6.45188 19.4267C6.50836 19.4304 6.56707 19.4281 6.62206 19.4386C6.7848 19.4683 6.89627 19.5589 6.88736 19.7328C6.87695 19.9156 6.75582 20.0137 6.57673 20.0026C6.22894 19.9803 5.88041 19.9543 5.53485 19.9097C4.38894 19.764 3.25864 19.5426 2.2138 19.0261C1.8779 18.8604 1.56058 18.63 1.2886 18.3722C0.976481 18.0764 0.920746 17.7033 1.10579 17.2805C1.97822 15.2904 2.7927 13.2772 3.40429 11.189C3.56853 10.6302 3.68891 10.058 3.81227 9.48801C3.9505 8.84223 3.82045 8.21354 3.64804 7.59228C3.31289 6.38172 2.95544 5.1771 2.65001 3.95911C2.53929 3.51769 2.52294 3.0458 2.51476 2.58728C2.50882 2.24693 2.66562 1.95265 3.01638 1.82557C3.35971 1.70147 3.66365 1.82706 3.86727 2.08567C4.14148 2.43197 4.40604 2.80205 4.59256 3.20037C5.02804 4.13226 5.40332 5.09164 5.82542 6.03022C6.04762 6.52514 6.30474 7.00372 6.56409 7.48007C6.87175 8.0441 7.36222 8.35028 7.99165 8.46695C9.07514 8.66685 10.1705 8.67577 11.2644 8.70326C11.5082 8.70995 11.7519 8.70326 11.9956 8.70623C12.1673 8.70846 12.2788 8.79987 12.2899 8.96782C12.3026 9.15286 12.1874 9.25021 12.009 9.26879C11.8396 9.28588 11.6694 9.29554 11.5 9.30743C11.4985 9.32378 11.4963 9.34013 11.4948 9.35573" stroke="white" stroke-width="0.5"/>
<path d="M13.4873 1C14.686 1 15.658 1.96533 15.661 3.16029C15.6639 4.36193 14.6785 5.34658 13.4761 5.34138C12.2819 5.33543 11.3181 4.36119 11.3203 3.16177C11.3225 1.95864 12.2827 1 13.4873 1ZM15.088 3.17663C15.0917 2.28488 14.3798 1.56255 13.4917 1.55809C12.6126 1.55438 11.8784 2.28859 11.8799 3.1692C11.8814 4.04684 12.5933 4.76099 13.4717 4.76768C14.3686 4.77363 15.0843 4.06988 15.088 3.17663Z" fill="white" stroke="white" stroke-width="0.5"/>
<path d="M6.59619 5.58433C6.59619 4.38714 7.56301 3.41587 8.75945 3.41066C9.95664 3.40546 10.942 4.39532 10.9368 5.59919C10.9309 6.79117 9.94921 7.76319 8.75648 7.75799C7.55781 7.75204 6.59545 6.78523 6.59619 5.58433ZM10.3639 5.59622C10.3683 4.70297 9.6579 3.98362 8.76837 3.98065C7.88181 3.97842 7.15651 4.70149 7.15726 5.5873C7.15726 6.46122 7.87364 7.18355 8.74682 7.19247C9.63337 7.20213 10.3594 6.485 10.3639 5.59622Z" fill="white" stroke="white" stroke-width="0.5"/>
<path d="M9.48172 13.8391C8.55355 13.8391 7.81116 13.1026 7.80521 12.1744C7.79927 11.2388 8.55057 10.4794 9.48172 10.4808C10.4106 10.4808 11.1738 11.25 11.1642 12.1744C11.1538 13.0981 10.4062 13.8383 9.48172 13.8391ZM10.5957 12.1648C10.5972 11.5509 10.0978 11.0486 9.48469 11.0471C8.87458 11.0449 8.36702 11.5487 8.36405 12.1588C8.36182 12.766 8.87012 13.2772 9.47875 13.2787C10.0881 13.281 10.5942 12.7771 10.5957 12.1648Z" fill="white" stroke="white" stroke-width="0.5"/>
<path d="M4.24248 23.9836C4.31382 23.7473 4.40597 23.5154 4.45353 23.2746C4.61033 22.4877 4.75673 21.6985 4.89495 20.9085C4.9544 20.5704 5.05621 20.427 5.25686 20.4634C5.45825 20.5005 5.52439 20.6603 5.45602 21.0036C5.27321 21.934 5.09411 22.8652 4.89347 23.7911C4.84442 24.0163 4.74187 24.2385 4.62297 24.4376C4.42678 24.7631 4.05596 24.7914 3.84342 24.4778C3.68439 24.2429 3.54097 23.9598 3.50753 23.6834C3.37673 22.6058 3.29053 21.5223 3.19169 20.4411C3.17535 20.2583 3.27418 20.1334 3.45402 20.1238C3.66656 20.1126 3.74904 20.2605 3.76019 20.4545C3.79883 21.0869 3.82113 21.72 3.87835 22.3494C3.91699 22.7842 4.00097 23.2159 4.07305 23.647C4.09237 23.7607 4.1429 23.8691 4.17932 23.9799C4.20012 23.9814 4.22019 23.9821 4.241 23.9836" fill="white"/>
<path d="M4.24248 23.9836C4.31382 23.7473 4.40597 23.5154 4.45353 23.2746C4.61033 22.4877 4.75673 21.6985 4.89495 20.9085C4.9544 20.5704 5.05621 20.427 5.25686 20.4634C5.45825 20.5005 5.52439 20.6603 5.45602 21.0036C5.27321 21.934 5.09411 22.8652 4.89347 23.7911C4.84442 24.0163 4.74187 24.2385 4.62297 24.4376C4.42678 24.7631 4.05596 24.7914 3.84342 24.4778C3.68439 24.2429 3.54097 23.9598 3.50753 23.6834C3.37673 22.6058 3.29053 21.5223 3.19169 20.4411C3.17535 20.2583 3.27418 20.1334 3.45402 20.1238C3.66656 20.1126 3.74904 20.2605 3.76019 20.4545C3.79883 21.0869 3.82113 21.72 3.87835 22.3494C3.91699 22.7842 4.00097 23.2159 4.07305 23.647C4.09237 23.7607 4.1429 23.8691 4.17932 23.9799C4.20012 23.9814 4.22019 23.9821 4.241 23.9836" stroke="white" stroke-width="0.5"/>
<path d="M6.72884 24.3551C6.92057 24.1983 7.07886 24.1314 7.22674 24.2957C7.37982 24.4658 7.28693 24.6301 7.17026 24.7757C6.93172 25.0737 6.55272 25.0737 6.36173 24.7401C6.21088 24.4777 6.08083 24.1812 6.03253 23.8855C5.87275 22.8941 5.74865 21.8968 5.62157 20.8995C5.58962 20.6491 5.75905 20.4752 5.9493 20.5562C6.04888 20.5986 6.15068 20.745 6.16703 20.8557C6.27627 21.6263 6.35059 22.4014 6.4628 23.172C6.51853 23.554 6.63075 23.9278 6.72884 24.3551Z" fill="white" stroke="white" stroke-width="0.5"/>
<path d="M12.2989 11.0457C12.2989 11.3289 12.2967 11.6135 12.2989 11.8966C12.3012 12.092 12.2298 12.2451 12.021 12.2511C11.8122 12.257 11.7267 12.1084 11.7267 11.9115C11.7252 11.3363 11.7267 10.7611 11.7267 10.1859C11.7267 9.98973 11.8092 9.83961 12.018 9.84333C12.2269 9.8463 12.3012 9.99716 12.2997 10.1933C12.2967 10.4765 12.2997 10.7611 12.2997 11.0442" fill="white"/>
<path d="M12.2989 11.0457C12.2989 11.3289 12.2967 11.6135 12.2989 11.8966C12.3012 12.092 12.2298 12.2451 12.021 12.2511C11.8122 12.257 11.7267 12.1084 11.7267 11.9115C11.7252 11.3363 11.7267 10.7611 11.7267 10.1859C11.7267 9.98973 11.8092 9.83961 12.018 9.84333C12.2269 9.8463 12.3012 9.99716 12.2997 10.1933C12.2967 10.4765 12.2997 10.7611 12.2997 11.0442" stroke="white" stroke-width="0.5"/>
</svg>
