<svg width="22" height="19" viewBox="0 0 22 19" fill="none" xmlns="http://www.w3.org/2000/svg">
<path d="M22 6.08929C22 12.9643 11.8063 18.5291 11.3722 18.7589C11.2578 18.8205 11.1299 18.8527 11 18.8527C10.8701 18.8527 10.7422 18.8205 10.6278 18.7589C10.1937 18.5291 0 12.9643 0 6.08929C0.00181965 4.47487 0.643952 2.92709 1.78552 1.78552C2.92709 0.643952 4.47487 0.00181965 6.08929 0C8.11741 0 9.89312 0.872143 11 2.34634C12.1069 0.872143 13.8826 0 15.9107 0C17.5251 0.00181965 19.0729 0.643952 20.2145 1.78552C21.356 2.92709 21.9982 4.47487 22 6.08929Z" fill="#86CD4B"/>
</svg>
