<svg width="22" height="16" viewBox="0 0 22 16" fill="none" xmlns="http://www.w3.org/2000/svg">
<path d="M21.1482 5.8725C21.009 5.67951 20.8259 5.5224 20.6139 5.41416C20.402 5.30592 20.1674 5.24965 19.9294 5.25H18.4294V3.75C18.4294 3.35218 18.2714 2.97064 17.9901 2.68934C17.7088 2.40804 17.3273 2.25 16.9294 2.25H10.4298L7.83007 0.3C7.56998 0.106109 7.25447 0.000937519 6.93007 0H1.92944C1.53162 0 1.15009 0.158035 0.868783 0.43934C0.587479 0.720644 0.429443 1.10218 0.429443 1.5V15C0.429443 15.1989 0.508461 15.3897 0.649113 15.5303C0.789766 15.671 0.980531 15.75 1.17944 15.75H17.9701C18.1275 15.75 18.2809 15.7005 18.4086 15.6085C18.5363 15.5164 18.6318 15.3865 18.6816 15.2372L21.3526 7.22437C21.4277 6.99891 21.4483 6.75886 21.4128 6.52388C21.3773 6.28891 21.2866 6.06569 21.1482 5.8725ZM6.93007 1.5L9.72944 3.6C9.85927 3.69737 10.0172 3.75 10.1794 3.75H16.9294V5.25H4.72038C4.40554 5.24998 4.09868 5.34902 3.84326 5.53309C3.58785 5.71717 3.39682 5.97695 3.29726 6.27563L1.92944 10.3781V1.5H6.93007ZM17.4301 14.25H2.22007L4.72038 6.75H19.9294L17.4301 14.25Z" fill="white"/>
</svg>
