<svg width="22" height="21" viewBox="0 0 22 21" fill="none" xmlns="http://www.w3.org/2000/svg">
<g clip-path="url(#clip0_52_1135)">
<path d="M5.26932 0.615261C5.70036 1.00671 5.72117 1.28154 5.76151 1.88675C8.52268 1.88675 11.2839 1.88675 14.1287 1.88675C14.1287 1.69725 14.1287 1.50776 14.1287 1.31253C14.2847 0.910757 14.465 0.667903 14.8388 0.456325C15.2104 0.342958 15.5609 0.335578 15.9158 0.500065C16.2218 0.667701 16.4157 0.87402 16.5435 1.19973C16.5879 1.35366 16.5945 1.49293 16.5925 1.65283C16.5921 1.69675 16.5917 1.74067 16.5913 1.78593C16.5907 1.8192 16.5902 1.85247 16.5896 1.88675C16.6324 1.8861 16.6752 1.88546 16.7193 1.88479C16.8796 1.88255 17.0399 1.88115 17.2002 1.87999C17.2693 1.87937 17.3384 1.87853 17.4075 1.87746C18.3162 1.86373 18.3162 1.86373 18.6608 2.18427C18.8559 2.41079 18.9323 2.66993 18.9333 2.96418C18.9335 3.00793 18.9338 3.05169 18.934 3.09678C18.934 3.14457 18.9341 3.19237 18.9341 3.24161C18.9343 3.29211 18.9345 3.34261 18.9348 3.39464C18.9352 3.53303 18.9356 3.67141 18.9357 3.8098C18.9359 3.89629 18.936 3.98278 18.9362 4.06927C18.9368 4.33997 18.9372 4.61067 18.9373 4.88137C18.9375 5.1937 18.9382 5.50601 18.9394 5.81834C18.9403 6.05991 18.9407 6.30147 18.9408 6.54305C18.9408 6.68727 18.9411 6.83149 18.9418 6.97571C18.9426 7.13654 18.9424 7.29737 18.9421 7.45821C18.9425 7.50592 18.9429 7.55364 18.9433 7.6028C18.9429 7.66861 18.9429 7.66861 18.9426 7.73575C18.9427 7.77376 18.9427 7.81177 18.9428 7.85093C18.9243 7.97963 18.88 8.05719 18.8045 8.16214C18.6777 8.22554 18.575 8.21519 18.4353 8.20315C18.3161 8.11215 18.2778 8.0588 18.2303 7.91604C18.2303 7.23928 18.2303 6.56253 18.2303 5.86526C12.7485 5.86526 7.26679 5.86526 1.61893 5.86526C1.62232 7.44549 1.6257 9.02572 1.62919 10.6538C1.63016 11.4032 1.63016 11.4032 1.63115 12.1677C1.63251 12.6142 1.63251 12.6142 1.63409 13.0607C1.63479 13.2601 1.63503 13.4595 1.63499 13.6589C1.63496 13.913 1.63571 14.167 1.63703 14.421C1.63738 14.5145 1.63745 14.6079 1.63722 14.7013C1.63695 14.8272 1.63768 14.953 1.63866 15.0788C1.63819 15.1341 1.63819 15.1341 1.6377 15.1905C1.63978 15.3399 1.64485 15.4364 1.7196 15.5676C1.87847 15.6579 2.02353 15.6498 2.20343 15.6483C2.24226 15.6486 2.28109 15.6489 2.3211 15.6492C2.45154 15.65 2.58194 15.6497 2.71238 15.6494C2.80575 15.6497 2.89912 15.6502 2.99248 15.6507C3.24627 15.6518 3.50006 15.6519 3.75385 15.6519C4.01896 15.652 4.28406 15.6531 4.54917 15.654C4.99424 15.6555 5.43931 15.6564 5.88438 15.6569C6.3428 15.6574 6.80122 15.6582 7.25964 15.6595C7.2879 15.6596 7.31616 15.6596 7.34527 15.6597C7.48703 15.6601 7.62879 15.6605 7.77055 15.6609C8.94657 15.6643 10.1226 15.6665 11.2986 15.668C11.3012 15.6259 11.3037 15.5838 11.3063 15.5404C11.3099 15.4846 11.3134 15.4287 11.3169 15.3729C11.3194 15.3313 11.3194 15.3313 11.3219 15.289C11.3352 15.0825 11.3641 14.8885 11.4165 14.6887C11.4237 14.6597 11.4309 14.6307 11.4384 14.6008C11.4912 14.3921 11.5532 14.1886 11.6267 13.9864C11.5763 13.9883 11.5259 13.9902 11.4739 13.9921C11.4069 13.9937 11.34 13.9952 11.273 13.9966C11.2398 13.998 11.2067 13.9994 11.1725 14.0008C10.9474 14.0044 10.8199 13.9742 10.6424 13.8223C10.5542 13.69 10.5498 13.653 10.5484 13.5003C10.5479 13.4599 10.5474 13.4195 10.5468 13.3779C10.5467 13.3343 10.5467 13.2907 10.5466 13.2458C10.5462 13.1785 10.5462 13.1785 10.5457 13.1099C10.5453 13.0149 10.5451 12.92 10.5451 12.825C10.545 12.6798 10.5435 12.5347 10.5419 12.3895C10.5417 12.2972 10.5415 12.205 10.5414 12.1128C10.5408 12.0694 10.5403 12.0259 10.5396 11.9812C10.5415 11.6811 10.5415 11.6811 10.6333 11.522C10.7788 11.3964 10.8886 11.3512 11.0808 11.3501C11.1187 11.3497 11.1566 11.3493 11.1957 11.3489C11.2567 11.349 11.2567 11.349 11.319 11.349C11.3821 11.3488 11.3821 11.3488 11.4465 11.3485C11.5354 11.3482 11.6243 11.3482 11.7132 11.3484C11.8491 11.3485 11.985 11.3476 12.1209 11.3465C12.2074 11.3464 12.2938 11.3464 12.3802 11.3465C12.4411 11.3459 12.4411 11.3459 12.5033 11.3453C12.7091 11.3467 12.855 11.3485 13.0213 11.4844C13.149 11.6169 13.1786 11.7608 13.2264 11.9356C13.2607 11.9123 13.295 11.8889 13.3303 11.8649C14.4633 11.108 15.7482 10.8216 17.0938 11.0718C17.4675 11.1502 17.8495 11.2684 18.1892 11.4434C18.1895 11.4188 18.1897 11.3941 18.19 11.3687C18.1926 11.1119 18.1961 10.8551 18.2 10.5982C18.2014 10.5024 18.2025 10.4066 18.2035 10.3109C18.2048 10.173 18.207 10.0351 18.2093 9.89729C18.2095 9.8546 18.2098 9.81191 18.2101 9.76792C18.2146 9.5456 18.2246 9.37786 18.3533 9.18753C18.482 9.12316 18.5805 9.13207 18.7225 9.14651C18.8322 9.21408 18.8702 9.24053 18.9275 9.35159C18.9533 9.53822 18.9443 9.72268 18.9378 9.91059C18.937 9.96613 18.9363 10.0217 18.9358 10.0772C18.9336 10.3123 18.9295 10.5473 18.9221 10.7822C18.8673 11.4648 18.8673 11.4648 19.0828 12.0777C19.2084 12.206 19.3489 12.2937 19.5017 12.3867C19.572 12.4532 19.6408 12.5212 19.7068 12.5918C19.7294 12.6145 19.752 12.6372 19.7752 12.6606C20.6183 13.5687 20.9721 14.8398 20.9341 16.0566C20.8784 17.0592 20.5316 18.0602 19.8709 18.8262C19.8414 18.8613 19.812 18.8963 19.7816 18.9324C18.9268 19.9179 17.7645 20.524 16.4607 20.6219C15.1667 20.6931 13.914 20.3043 12.9392 19.4414C12.9104 19.418 12.8815 19.3945 12.8518 19.3703C12.1766 18.8143 11.7054 17.9674 11.4678 17.1343C11.4595 17.1053 11.4511 17.0762 11.4425 17.0463C11.3976 16.8772 11.3725 16.7128 11.3577 16.5383C11.3543 16.4981 11.3508 16.4579 11.3472 16.4165C11.3447 16.386 11.3422 16.3556 11.3396 16.3242C11.2901 16.3244 11.2405 16.3245 11.1894 16.3247C10.0119 16.3283 8.83446 16.331 7.65699 16.3326C7.51201 16.3328 7.36703 16.333 7.22205 16.3333C7.19319 16.3333 7.16433 16.3333 7.13459 16.3334C6.66748 16.3341 6.20037 16.3354 5.73326 16.3369C5.25383 16.3384 4.77441 16.3393 4.29498 16.3397C4.02574 16.3399 3.75651 16.3404 3.48728 16.3416C3.23385 16.3427 2.98043 16.343 2.727 16.3428C2.63401 16.3428 2.54102 16.3432 2.44803 16.3438C2.32097 16.3446 2.19395 16.3444 2.06689 16.344C2.03018 16.3445 1.99347 16.3449 1.95565 16.3454C1.67057 16.3427 1.45429 16.2694 1.23986 16.0782C1.21776 16.0511 1.19566 16.024 1.17289 15.9961C1.15015 15.9691 1.12742 15.942 1.104 15.9141C0.942742 15.6909 0.916599 15.4677 0.916393 15.1959C0.91626 15.1517 0.916128 15.1076 0.915992 15.0621C0.916055 15.014 0.916119 14.966 0.916184 14.9165C0.916091 14.8651 0.915998 14.8137 0.915903 14.7607C0.915652 14.6184 0.915657 14.476 0.915706 14.3336C0.915714 14.1799 0.915488 14.0263 0.915293 13.8726C0.914953 13.5717 0.91484 13.2707 0.914817 12.9698C0.914797 12.7252 0.914713 12.4805 0.914583 12.2359C0.914222 11.5422 0.914033 10.8485 0.914063 10.1549C0.914065 10.1175 0.914067 10.0801 0.914068 10.0416C0.91407 10.0041 0.914072 9.9667 0.914073 9.92813C0.91409 9.3214 0.913697 8.71466 0.913119 8.10792C0.91253 7.4848 0.912247 6.86169 0.912282 6.23858C0.912296 5.88879 0.912183 5.53901 0.911742 5.18922C0.911368 4.89144 0.911279 4.59366 0.911558 4.29587C0.911692 4.14398 0.911694 3.99209 0.911338 3.8402C0.910956 3.67545 0.911211 3.5107 0.911528 3.34594C0.911317 3.29807 0.911106 3.2502 0.910889 3.20088C0.912639 2.7892 0.96564 2.4489 1.24979 2.13284C1.53852 1.91883 1.80482 1.88028 2.15807 1.88274C2.18964 1.8828 2.22121 1.88286 2.25374 1.88292C2.35403 1.88314 2.45432 1.88366 2.5546 1.88418C2.62283 1.88439 2.69105 1.88457 2.75928 1.88474C2.92604 1.88519 3.0928 1.8859 3.25956 1.88675C3.25867 1.84608 3.25867 1.84608 3.25776 1.80459C3.25301 1.43428 3.30452 1.11484 3.54667 0.820339C4.02594 0.334786 4.68647 0.208035 5.26932 0.615261ZM4.01257 1.31694C3.93884 1.47384 3.93841 1.61796 3.93904 1.78789C3.93883 1.82161 3.93861 1.85533 3.93839 1.89008C3.93813 1.96119 3.93818 2.03231 3.93853 2.10343C3.93888 2.21183 3.9377 2.32013 3.9364 2.42852C3.93633 2.49781 3.93635 2.56711 3.93648 2.6364C3.93602 2.66858 3.93556 2.70076 3.93508 2.73391C3.93779 2.94878 3.98127 3.0684 4.12089 3.24026C4.24763 3.36277 4.35504 3.39755 4.53104 3.40432C4.71 3.36563 4.83061 3.31057 4.95914 3.17874C5.07217 2.9979 5.07198 2.83502 5.07402 2.62823C5.07435 2.59631 5.07468 2.56439 5.07502 2.53151C5.07559 2.46393 5.07603 2.39636 5.07635 2.32878C5.07683 2.25997 5.07766 2.19115 5.07888 2.12234C5.08063 2.02265 5.08129 1.923 5.08171 1.8233C5.08243 1.79287 5.08315 1.76244 5.08389 1.73109C5.08296 1.50582 5.02892 1.37508 4.90018 1.18948C4.74055 1.07701 4.598 1.04395 4.40623 1.05201C4.232 1.08331 4.11863 1.18071 4.01257 1.31694ZM14.8613 1.33857C14.7712 1.5014 14.7612 1.63228 14.7632 1.81353C14.763 1.84527 14.7628 1.87702 14.7627 1.90972C14.7626 1.97656 14.7629 2.0434 14.7636 2.11024C14.7644 2.21189 14.7636 2.31342 14.7625 2.41506C14.7626 2.4803 14.7628 2.54553 14.7632 2.61077C14.7628 2.64081 14.7625 2.67086 14.7622 2.70181C14.7662 2.92461 14.8229 3.05603 14.949 3.24026C15.0789 3.34018 15.1954 3.39263 15.3592 3.40432C15.5914 3.37055 15.6993 3.28807 15.8446 3.11513C15.9853 2.87961 15.941 2.56633 15.941 2.30244C15.9411 2.21783 15.9418 2.13325 15.9426 2.04864C15.9427 1.99485 15.9428 1.94105 15.9428 1.88562C15.943 1.83667 15.9432 1.78771 15.9434 1.73727C15.9258 1.49426 15.8545 1.32554 15.6873 1.14846C15.5624 1.05477 15.4325 1.04902 15.2781 1.05362C15.0886 1.08288 14.9778 1.19501 14.8613 1.33857ZM1.61893 2.78909C1.61893 3.57413 1.61893 4.35917 1.61893 5.16799C7.10067 5.16799 12.5824 5.16799 18.2303 5.16799C18.2303 4.36942 18.2303 3.57085 18.2303 2.74807C18.0863 2.57035 18.0863 2.57035 17.912 2.56539C17.8504 2.56541 17.7888 2.56633 17.7272 2.56799C17.6946 2.56822 17.6621 2.56845 17.6286 2.56869C17.5249 2.56961 17.4213 2.57167 17.3177 2.57376C17.2473 2.57458 17.1769 2.57533 17.1065 2.576C16.9342 2.57781 16.7619 2.58064 16.5896 2.58401C16.5848 2.62578 16.5799 2.66754 16.5748 2.71057C16.568 2.76617 16.5611 2.82177 16.5542 2.87737C16.5495 2.91852 16.5495 2.91852 16.5447 2.9605C16.5054 3.27148 16.4015 3.52827 16.1744 3.74783C15.9079 3.95126 15.5866 4.04821 15.2531 4.03286C14.8802 3.98278 14.5832 3.81645 14.3469 3.5232C14.1423 3.22899 14.157 2.9524 14.1287 2.58401C11.3675 2.58401 8.60636 2.58401 5.76151 2.58401C5.72091 2.81411 5.6803 3.04421 5.63847 3.28128C5.5308 3.48123 5.5308 3.48123 5.43339 3.6094C5.41308 3.67031 5.41308 3.67031 5.39237 3.73245C5.31803 3.77587 5.31803 3.77587 5.22831 3.81448C5.20124 3.82849 5.17417 3.8425 5.14628 3.85694C5.11921 3.87084 5.09214 3.88475 5.06425 3.89907C5.03718 3.91309 5.01011 3.9271 4.98222 3.94153C4.68484 4.0757 4.34985 4.0531 4.04655 3.95034C3.70546 3.81061 3.5354 3.61522 3.38261 3.28128C3.32159 3.11348 3.2949 2.95657 3.27814 2.77996C3.27462 2.74321 3.27109 2.70646 3.26745 2.6686C3.26485 2.64068 3.26224 2.61277 3.25956 2.58401C3.05887 2.57893 2.85823 2.57521 2.65749 2.57275C2.58926 2.57172 2.52103 2.57032 2.45282 2.56854C2.35455 2.56604 2.25635 2.56489 2.15807 2.56398C2.12772 2.56293 2.09738 2.56187 2.06612 2.56078C1.81939 2.56064 1.81343 2.5946 1.61893 2.78909ZM13.0872 12.9578C12.3477 13.7398 11.9216 14.8001 11.9472 15.8788C12.0282 17.1148 12.4967 18.1143 13.4058 18.9569C13.9049 19.3862 14.5172 19.6924 15.1541 19.8516C15.1903 19.8608 15.2264 19.8701 15.2637 19.8796C16.3419 20.1056 17.4698 19.8567 18.3943 19.2774C18.5376 19.1748 18.6714 19.0647 18.8045 18.9492C18.8667 18.9023 18.8667 18.9023 18.9301 18.8544C19.1153 18.6849 19.2662 18.4911 19.4197 18.293C19.4453 18.2604 19.4708 18.2278 19.4971 18.1941C20.0012 17.5156 20.2577 16.6622 20.2528 15.8218C20.2527 15.7808 20.2525 15.7397 20.2523 15.6974C20.2472 15.3601 20.2073 15.0509 20.117 14.7246C20.0998 14.662 20.0998 14.662 20.0824 14.5981C19.7629 13.5487 19.0255 12.6698 18.0691 12.1429C17.8044 12.0031 17.533 11.8976 17.2459 11.8125C17.2035 11.7999 17.1612 11.7874 17.1176 11.7744C15.6653 11.3927 14.1266 11.9 13.0872 12.9578ZM11.2166 12.0176C11.2166 12.4507 11.2166 12.8839 11.2166 13.3301C11.6519 13.3964 11.6519 13.3964 12.067 13.2804C12.1986 13.1381 12.2797 12.97 12.365 12.7969C12.4056 12.7428 12.4462 12.6886 12.4881 12.6328C12.4881 12.4298 12.4881 12.2268 12.4881 12.0176C12.0685 12.0176 11.6489 12.0176 11.2166 12.0176Z" fill="white"/>
<path d="M15.723 12.9022C15.7697 12.9018 15.7697 12.9018 15.8174 12.9015C15.8831 12.9012 15.9489 12.9013 16.0146 12.9016C16.1149 12.902 16.2151 12.9008 16.3154 12.8995C16.3794 12.8994 16.4434 12.8995 16.5074 12.8996C16.5522 12.8989 16.5522 12.8989 16.5978 12.8982C16.7979 12.9009 16.9005 12.9415 17.0408 13.084C17.0913 13.1849 17.0902 13.2586 17.0948 13.3714C17.0965 13.4119 17.0982 13.4523 17.1 13.494C17.1016 13.5363 17.1032 13.5787 17.1049 13.6223C17.1066 13.665 17.1084 13.7077 17.1102 13.7516C17.1146 13.8572 17.1188 13.9628 17.1228 14.0684C17.1639 14.0422 17.205 14.016 17.2473 13.9891C17.3024 13.9548 17.3574 13.9206 17.4125 13.8864C17.4394 13.8691 17.4664 13.8518 17.4941 13.8341C17.6992 13.7078 17.8872 13.6286 18.1328 13.6813C18.3957 13.8404 18.5439 14.1512 18.6942 14.4093C18.7168 14.4462 18.7393 14.4831 18.7626 14.5211C18.8954 14.7493 18.9943 14.9502 18.9275 15.2168C18.7975 15.4261 18.637 15.5288 18.4225 15.6423C18.3828 15.6642 18.3828 15.6642 18.3423 15.6864C18.2779 15.7217 18.2131 15.7565 18.1482 15.791C18.1706 15.8059 18.1929 15.8209 18.216 15.8362C18.281 15.8795 18.3459 15.9229 18.4108 15.9663C18.4811 16.0131 18.5517 16.0594 18.6226 16.1054C18.6556 16.1268 18.6885 16.1483 18.7224 16.1704C18.7529 16.1901 18.7833 16.2098 18.8147 16.23C18.9023 16.295 18.9229 16.3385 18.9412 16.4451C18.9619 16.782 18.8266 17.0027 18.6532 17.283C18.6275 17.3267 18.6019 17.3704 18.5754 17.4155C18.2921 17.8872 18.2921 17.8872 18.0598 17.9464C17.8069 17.9443 17.6404 17.8719 17.4279 17.7393C17.3982 17.7217 17.3686 17.7041 17.3381 17.6859C17.2659 17.6429 17.1943 17.5989 17.1228 17.5547C17.1227 17.5795 17.1225 17.6043 17.1223 17.6299C17.121 17.7433 17.1181 17.8566 17.1151 17.97C17.1148 18.0285 17.1148 18.0285 17.1144 18.0882C17.1085 18.2758 17.1037 18.4152 16.9823 18.5644C16.8217 18.713 16.7093 18.7107 16.4993 18.7129C16.4699 18.7132 16.4406 18.7136 16.4103 18.7139C16.3481 18.7145 16.2859 18.7149 16.2237 18.7152C16.1291 18.716 16.0345 18.7178 15.9399 18.7196C15.8794 18.72 15.8189 18.7203 15.7584 18.7206C15.7303 18.7213 15.7023 18.722 15.6733 18.7228C15.4682 18.7219 15.3531 18.6672 15.1951 18.5391C15.0819 18.358 15.0949 18.1394 15.0874 17.9315C15.085 17.8772 15.085 17.8772 15.0826 17.8217C15.0788 17.7327 15.0754 17.6437 15.072 17.5547C15.0319 17.5814 14.9918 17.608 14.9504 17.6355C14.4371 17.9667 14.4371 17.9667 14.1708 17.9568C13.848 17.8287 13.7183 17.5284 13.5622 17.2394C13.5382 17.196 13.5142 17.1526 13.4895 17.1079C13.2257 16.6295 13.2257 16.6295 13.3084 16.3242C13.3928 16.2281 13.4479 16.1846 13.5545 16.1192C13.599 16.091 13.6435 16.0629 13.6894 16.0339C13.8212 15.9514 13.9542 15.8709 14.0877 15.791C14.0422 15.7672 13.9967 15.7434 13.9499 15.7189C13.8898 15.6866 13.8298 15.6542 13.7698 15.6218C13.7249 15.5985 13.7249 15.5985 13.6791 15.5747C13.4886 15.4708 13.3572 15.3818 13.2674 15.1758C13.2248 14.8444 13.4233 14.5699 13.5878 14.2991C13.6136 14.2548 13.6394 14.2106 13.6661 14.165C13.9219 13.7349 13.9219 13.7349 14.1793 13.6613C14.3801 13.6573 14.4994 13.7193 14.6721 13.8146C14.7011 13.8297 14.7301 13.8449 14.7599 13.8605C14.8823 13.925 14.9978 13.9915 15.1131 14.0684C15.1109 13.9883 15.1109 13.9883 15.1087 13.9066C15.1076 13.8357 15.1065 13.7649 15.1054 13.6941C15.1043 13.659 15.1033 13.6239 15.1022 13.5877C15.0998 13.375 15.113 13.225 15.2361 13.043C15.3803 12.8973 15.5288 12.9014 15.723 12.9022ZM15.8103 13.5762C15.8083 13.6601 15.8063 13.7441 15.8042 13.8306C15.8019 13.9122 15.7997 13.9938 15.7973 14.0754C15.7957 14.1319 15.7943 14.1885 15.793 14.2451C15.7911 14.3265 15.7887 14.408 15.7863 14.4894C15.785 14.5384 15.7837 14.5874 15.7824 14.6378C15.77 14.7587 15.7543 14.8296 15.6873 14.9297C15.5602 14.9932 15.4549 14.9977 15.3181 14.9707C15.1476 14.8942 14.9889 14.7999 14.8285 14.7041C14.7848 14.6787 14.7411 14.6533 14.6961 14.6271C14.5886 14.5644 14.4816 14.5012 14.3748 14.4375C14.2283 14.5815 14.1372 14.7043 14.0466 14.8887C14.0983 15.0438 14.1473 15.0591 14.2862 15.1404C14.3264 15.164 14.3666 15.1877 14.408 15.2121C14.4503 15.2365 14.4927 15.2609 14.5363 15.286C14.5784 15.3109 14.6206 15.3358 14.664 15.3614C14.8563 15.4907 14.8563 15.4907 15.072 15.5449C15.0846 15.6019 15.0953 15.6592 15.1054 15.7167C15.1115 15.7486 15.1177 15.7805 15.1241 15.8133C15.1109 15.9339 15.0693 15.9842 14.9803 16.0645C14.8252 16.1817 14.6559 16.2762 14.4876 16.3729C14.4129 16.4161 14.3383 16.4594 14.2639 16.5029C14.2311 16.5218 14.1982 16.5406 14.1644 16.5601C14.0818 16.6061 14.0818 16.6061 14.0466 16.6934C14.1062 16.8141 14.1062 16.8141 14.1876 16.9446C14.2147 16.9895 14.2417 17.0345 14.2695 17.0808C14.2907 17.1154 14.3119 17.1499 14.3338 17.1856C14.4295 17.1353 14.5252 17.0849 14.6209 17.0343C14.6491 17.0194 14.6773 17.0045 14.7064 16.9891C14.8539 16.9105 14.9968 16.8296 15.1361 16.737C15.2645 16.655 15.3672 16.6113 15.5232 16.6113C15.7105 16.6987 15.7105 16.6987 15.7693 16.8164C15.7757 16.9087 15.7796 17.0011 15.7823 17.0936C15.7831 17.1208 15.784 17.148 15.7849 17.176C15.7875 17.2629 15.79 17.3499 15.7924 17.4368C15.7941 17.4957 15.7959 17.5546 15.7977 17.6135C15.8022 17.758 15.8062 17.9024 15.8103 18.0469C16.0133 18.0469 16.2164 18.0469 16.4256 18.0469C16.4293 17.9114 16.4293 17.9114 16.4331 17.7731C16.4356 17.6855 16.4382 17.598 16.4408 17.5104C16.4426 17.4496 16.4443 17.3888 16.446 17.3279C16.4483 17.2405 16.4509 17.153 16.4536 17.0656C16.4551 17.0129 16.4566 16.9603 16.4581 16.9061C16.4666 16.7754 16.4666 16.7754 16.5076 16.6524C16.764 16.5909 16.8925 16.6355 17.1126 16.7575C17.1409 16.7724 17.1693 16.7874 17.1985 16.8028C17.2831 16.8476 17.367 16.8934 17.4509 16.9395C17.4981 16.9648 17.5453 16.9901 17.5939 17.0162C17.697 17.0719 17.7996 17.1286 17.9021 17.1856C17.9969 17.0096 18.0916 16.8336 18.1892 16.6524C17.8811 16.4614 17.5727 16.2742 17.2568 16.0964C17.1638 16.0371 17.1638 16.0371 17.1228 15.9551C17.11 15.8167 17.11 15.8167 17.1228 15.668C17.2318 15.5378 17.3544 15.4561 17.5003 15.3713C17.5405 15.3477 17.5807 15.3242 17.6221 15.3C17.6846 15.2639 17.6846 15.2639 17.7483 15.2271C17.7906 15.2024 17.8329 15.1777 17.8765 15.1522C17.9806 15.0915 18.0848 15.031 18.1892 14.9707C18.1633 14.9233 18.1633 14.9233 18.1368 14.8749C18.1144 14.8338 18.0919 14.7926 18.0687 14.7503C18.0464 14.7093 18.024 14.6684 18.001 14.6263C17.9671 14.5638 17.9339 14.501 17.9021 14.4375C17.7645 14.4892 17.6426 14.5483 17.5181 14.6263C17.4685 14.6564 17.4685 14.6564 17.418 14.6871C17.3496 14.7291 17.2814 14.7715 17.2136 14.8143C16.9949 14.9461 16.8461 15.0127 16.5896 14.9707C16.488 14.8745 16.4677 14.8147 16.4488 14.6751C16.4478 14.6244 16.4467 14.5737 16.4456 14.5215C16.4448 14.4944 16.4441 14.4673 16.4433 14.4394C16.4411 14.3533 16.4397 14.2673 16.4384 14.1812C16.437 14.1226 16.4356 14.0641 16.4341 14.0056C16.4305 13.8624 16.4281 13.7194 16.4256 13.5762C16.2225 13.5762 16.0195 13.5762 15.8103 13.5762Z" fill="white"/>
<path d="M3.47279 7.29427C3.52312 7.29368 3.52312 7.29368 3.57446 7.29308C3.61039 7.2929 3.64633 7.29273 3.68335 7.29255C3.72067 7.29232 3.758 7.29208 3.79645 7.29184C3.87536 7.29145 3.95428 7.29119 4.03319 7.29103C4.15337 7.29063 4.27351 7.28936 4.39367 7.28806C4.4705 7.2878 4.54732 7.28758 4.62415 7.28742C4.65983 7.28692 4.69551 7.28641 4.73228 7.28589C4.95631 7.2867 5.11181 7.31806 5.31036 7.42393C5.44355 7.566 5.47924 7.69846 5.48168 7.88988C5.48247 7.9439 5.48247 7.9439 5.48327 7.99902C5.48358 8.03786 5.48388 8.07669 5.48419 8.11671C5.48452 8.15682 5.48485 8.19693 5.4852 8.23826C5.48576 8.32321 5.4862 8.40817 5.48653 8.49312C5.48723 8.62257 5.48903 8.75198 5.49084 8.88143C5.49126 8.96404 5.49161 9.04666 5.49188 9.12928C5.4926 9.16779 5.49332 9.20629 5.49406 9.24596C5.49324 9.49383 5.46018 9.64348 5.31036 9.84385C5.18733 9.92217 5.09093 9.9365 4.94643 9.9378C4.88709 9.93858 4.88709 9.93858 4.82655 9.93938C4.76284 9.93952 4.76284 9.93952 4.69785 9.93966C4.65396 9.93993 4.61007 9.94021 4.56484 9.94049C4.47207 9.9409 4.37929 9.9411 4.28652 9.94108C4.14464 9.94126 4.00282 9.94275 3.86095 9.94431C3.77078 9.94455 3.6806 9.94471 3.59042 9.94479C3.54804 9.94538 3.50565 9.94597 3.46198 9.94657C3.28192 9.94543 3.16865 9.94451 3.01075 9.85292C2.88431 9.70766 2.83925 9.59791 2.83815 9.40543C2.83776 9.36751 2.83737 9.32958 2.83697 9.29052C2.83701 9.24984 2.83704 9.20916 2.83708 9.16725C2.83691 9.12518 2.83673 9.08311 2.83655 9.03977C2.83631 8.95086 2.83629 8.86194 2.83647 8.77303C2.8366 8.6371 2.83564 8.50121 2.8346 8.36529C2.83451 8.27885 2.83448 8.19241 2.83452 8.10597C2.83414 8.06538 2.83376 8.02479 2.83337 7.98296C2.83475 7.77732 2.83621 7.63075 2.97247 7.46494C3.12686 7.32549 3.2689 7.29622 3.47279 7.29427ZM3.50567 7.99815C3.50567 8.41774 3.50567 8.83733 3.50567 9.26963C3.92526 9.26963 4.34485 9.26963 4.77715 9.26963C4.77715 8.85004 4.77715 8.43045 4.77715 7.99815C4.35756 7.99815 3.93797 7.99815 3.50567 7.99815Z" fill="white"/>
<path d="M7.53924 7.28981C7.59383 7.28969 7.59383 7.28969 7.64952 7.28957C7.72619 7.28952 7.80286 7.28967 7.87952 7.29001C7.99644 7.29045 8.11334 7.29001 8.23026 7.28949C8.30497 7.28954 8.37969 7.28965 8.4544 7.28981C8.50651 7.28956 8.50651 7.28956 8.55968 7.28931C8.80984 7.29128 9.00137 7.31318 9.19909 7.48015C9.32134 7.62684 9.33471 7.74159 9.33644 7.9285C9.33683 7.963 9.33723 7.9975 9.33763 8.03305C9.33781 8.07001 9.33798 8.10697 9.33816 8.14505C9.33839 8.18338 9.33863 8.22171 9.33887 8.2612C9.33926 8.34222 9.33952 8.42324 9.33968 8.50426C9.34008 8.62785 9.34135 8.75141 9.34265 8.875C9.34291 8.95383 9.34313 9.03265 9.34329 9.11148C9.34379 9.14827 9.3443 9.18507 9.34482 9.22298C9.34389 9.48638 9.30006 9.65254 9.12474 9.8576C8.93758 9.9612 8.76133 9.94995 8.55069 9.94894C8.50696 9.94919 8.46322 9.94944 8.41816 9.94971C8.3258 9.95 8.23344 9.94987 8.14109 9.94935C8 9.94878 7.85903 9.95018 7.71796 9.95174C7.62811 9.95178 7.53825 9.9517 7.4484 9.9515C7.38533 9.95232 7.38533 9.95232 7.32098 9.95315C7.13175 9.95069 6.99391 9.94864 6.84293 9.82668C6.7172 9.68933 6.69966 9.62947 6.69692 9.4487C6.69626 9.40926 6.6956 9.36982 6.69492 9.32919C6.6931 9.14855 6.69141 8.96791 6.69047 8.78726C6.68979 8.69202 6.68867 8.59678 6.6871 8.50155C6.68486 8.36423 6.68396 8.22695 6.68336 8.08961C6.68243 8.04718 6.6815 8.00475 6.68054 7.96103C6.68151 7.63043 6.68151 7.63043 6.79333 7.48211C7.02397 7.2855 7.25006 7.28843 7.53924 7.28981ZM7.36108 7.99797C7.36108 8.41756 7.36108 8.83715 7.36108 9.26945C7.78067 9.26945 8.20026 9.26945 8.63256 9.26945C8.63256 8.84986 8.63256 8.43027 8.63256 7.99797C8.21297 7.99797 7.79338 7.99797 7.36108 7.99797Z" fill="white"/>
<path d="M15.2448 7.29255C15.2811 7.29232 15.3175 7.29208 15.355 7.29184C15.4317 7.29146 15.5084 7.29119 15.5852 7.29103C15.702 7.29063 15.8188 7.28936 15.9356 7.28806C16.0104 7.2878 16.0852 7.28758 16.16 7.28742C16.1946 7.28692 16.2293 7.28641 16.265 7.28589C16.5347 7.2869 16.7213 7.32866 16.9343 7.50597C17.0342 7.69357 17.0241 7.87051 17.023 8.08002C17.0233 8.12375 17.0235 8.16749 17.0238 8.21255C17.0241 8.30491 17.024 8.39727 17.0235 8.48962C17.0229 8.63071 17.0243 8.77168 17.0258 8.91275C17.0259 9.0026 17.0258 9.09246 17.0256 9.18231C17.0261 9.22436 17.0267 9.26641 17.0273 9.30973C17.0248 9.49896 17.0227 9.6368 16.9008 9.78778C16.7634 9.91352 16.7036 9.93105 16.5228 9.93379C16.4636 9.93478 16.4636 9.93478 16.4033 9.93579C16.2227 9.93761 16.042 9.9393 15.8614 9.94024C15.7661 9.94092 15.6709 9.94204 15.5757 9.94361C15.4383 9.94585 15.3011 9.94675 15.1637 9.94735C15.1213 9.94828 15.0789 9.94921 15.0351 9.95017C14.7045 9.9492 14.7045 9.9492 14.5562 9.83738C14.3583 9.60517 14.3622 9.37522 14.3625 9.08394C14.3623 9.04673 14.3621 9.00953 14.3619 8.97119C14.3617 8.89277 14.3617 8.81434 14.3619 8.73592C14.362 8.61647 14.361 8.49706 14.36 8.37762C14.3599 8.30117 14.3599 8.22472 14.3599 8.14827C14.3595 8.11284 14.3592 8.07742 14.3588 8.04092C14.3607 7.79069 14.3896 7.57321 14.5748 7.38804C14.7829 7.27786 15.0153 7.2937 15.2448 7.29255ZM15.0721 7.99815C15.0721 8.41774 15.0721 8.83733 15.0721 9.26963C15.4917 9.26963 15.9113 9.26963 16.3436 9.26963C16.3436 8.85004 16.3436 8.43045 16.3436 7.99815C15.924 7.99815 15.5044 7.99815 15.0721 7.99815Z" fill="white"/>
<path d="M3.64655 11.3436C3.68749 11.3433 3.72844 11.3431 3.77063 11.3429C3.85695 11.3426 3.94327 11.3427 4.02959 11.343C4.16138 11.3434 4.2931 11.3422 4.42488 11.3409C4.50894 11.3408 4.59301 11.3409 4.67707 11.341C4.73591 11.3403 4.73591 11.3403 4.79594 11.3396C5.02797 11.342 5.17159 11.3637 5.35126 11.5254C5.51395 11.7106 5.49281 11.9205 5.49209 12.1546C5.49231 12.1956 5.49252 12.2366 5.49274 12.2788C5.49301 12.3654 5.49295 12.452 5.4926 12.5385C5.49225 12.6707 5.49343 12.8028 5.49474 12.9349C5.4948 13.0192 5.49478 13.1034 5.49465 13.1877C5.49512 13.227 5.49558 13.2664 5.49605 13.3069C5.49364 13.5393 5.47229 13.6834 5.31024 13.8633C5.12489 14.0263 4.91529 14.0042 4.68107 14.0027C4.64007 14.0028 4.59906 14.0029 4.55682 14.003C4.47025 14.0031 4.38369 14.0029 4.29712 14.0024C4.16497 14.0017 4.03288 14.0024 3.90073 14.0032C3.81649 14.0031 3.73224 14.0029 3.64799 14.0027C3.60863 14.0029 3.56928 14.0032 3.52873 14.0034C3.31456 14.0012 3.15324 13.991 2.97235 13.8633C2.80308 13.6792 2.83154 13.4506 2.83297 13.2147C2.83285 13.1718 2.83273 13.1289 2.83261 13.0847C2.83252 12.9941 2.83275 12.9035 2.83327 12.8129C2.83392 12.6743 2.83327 12.5358 2.83248 12.3973C2.83257 12.3092 2.83272 12.2211 2.83297 12.1329C2.83272 12.0916 2.83247 12.0502 2.83221 12.0076C2.83596 11.6327 2.83596 11.6327 2.97235 11.4844C3.18533 11.3344 3.39587 11.3428 3.64655 11.3436ZM3.50556 12.0176C3.50556 12.4507 3.50556 12.8838 3.50556 13.3301C3.92515 13.3301 4.34474 13.3301 4.77704 13.3301C4.77704 12.897 4.77704 12.4638 4.77704 12.0176C4.35745 12.0176 3.93786 12.0176 3.50556 12.0176Z" fill="white"/>
<path d="M7.49809 11.3475C7.53909 11.3472 7.58009 11.3469 7.62234 11.3467C7.7089 11.3462 7.79547 11.3461 7.88204 11.3461C8.01419 11.3459 8.14628 11.3444 8.27842 11.3428C8.36267 11.3426 8.44692 11.3424 8.53117 11.3424C8.5902 11.3415 8.5902 11.3415 8.65043 11.3406C8.88151 11.3421 9.03168 11.3588 9.2068 11.5253C9.33923 11.7507 9.34801 11.9498 9.34619 12.2072C9.34631 12.2444 9.34643 12.2815 9.34655 12.3198C9.34663 12.398 9.34641 12.4761 9.34589 12.5543C9.34523 12.6734 9.34589 12.7924 9.34667 12.9115C9.34659 12.9878 9.34643 13.0641 9.34619 13.1403C9.34644 13.1756 9.34669 13.2109 9.34695 13.2473C9.34438 13.4694 9.32036 13.629 9.2068 13.8222C9.00105 14.0175 8.80097 14.0098 8.53261 14.0066C8.49166 14.0067 8.45072 14.0067 8.40853 14.0068C8.32221 14.0067 8.23589 14.0063 8.14957 14.0054C8.01778 14.0042 7.88606 14.0046 7.75427 14.0051C7.67021 14.0048 7.58615 14.0045 7.50209 14.0041C7.46286 14.0042 7.42364 14.0043 7.38322 14.0044C7.16961 14.0014 7.00835 13.9903 6.8279 13.8632C6.65926 13.6794 6.68638 13.4516 6.68707 13.2161C6.68685 13.1733 6.68664 13.1305 6.68641 13.0863C6.68615 12.9959 6.6862 12.9055 6.68655 12.815C6.6869 12.677 6.68572 12.5389 6.68442 12.4008C6.68436 12.3129 6.68438 12.2249 6.6845 12.1369C6.68404 12.0957 6.68358 12.0546 6.68311 12.0122C6.68544 11.777 6.70091 11.6232 6.86891 11.4433C7.05466 11.3238 7.28429 11.348 7.49809 11.3475ZM7.3611 12.0175C7.3611 12.4506 7.3611 12.8838 7.3611 13.33C7.78069 13.33 8.20028 13.33 8.63258 13.33C8.63258 12.8969 8.63258 12.4638 8.63258 12.0175C8.21299 12.0175 7.7934 12.0175 7.3611 12.0175Z" fill="white"/>
<path d="M11.3918 7.28838C11.428 7.2882 11.4642 7.28802 11.5015 7.28784C11.5778 7.28761 11.6542 7.28759 11.7305 7.28777C11.8465 7.28789 11.9625 7.28693 12.0785 7.28589C12.153 7.2858 12.2274 7.28577 12.3019 7.28581C12.3362 7.28543 12.3705 7.28506 12.4059 7.28467C12.6663 7.28669 12.9121 7.31297 13.1021 7.5058C13.1673 7.69587 13.1635 7.8802 13.1635 8.07985C13.164 8.14545 13.164 8.14545 13.1645 8.21238C13.1649 8.30474 13.165 8.3971 13.1648 8.48945C13.1648 8.63053 13.1665 8.77152 13.1683 8.91258C13.1685 9.00243 13.1686 9.09229 13.1686 9.18214C13.1696 9.24522 13.1696 9.24522 13.1707 9.30956C13.1688 9.49887 13.1674 9.63653 13.0453 9.78762C12.9079 9.9133 12.8481 9.93088 12.6673 9.93362C12.6081 9.93461 12.6081 9.93461 12.5478 9.93562C12.3671 9.93744 12.1865 9.93913 12.0058 9.94007C11.9106 9.94075 11.8154 9.94187 11.7201 9.94344C11.5828 9.94568 11.4455 9.94658 11.3082 9.94718C11.2658 9.94811 11.2233 9.94904 11.1796 9.95C10.8492 9.94903 10.8492 9.94903 10.6981 9.82696C10.5728 9.68936 10.5551 9.6294 10.5524 9.44871C10.5517 9.40927 10.5511 9.36983 10.5504 9.3292C10.5486 9.14856 10.5469 8.96792 10.5459 8.78727C10.5453 8.69203 10.5441 8.59679 10.5426 8.50156C10.5403 8.36424 10.5394 8.22696 10.5388 8.08962C10.5379 8.04719 10.537 8.00476 10.536 7.96104C10.537 7.63044 10.537 7.63044 10.6488 7.48212C10.8782 7.28653 11.104 7.28806 11.3918 7.28838ZM11.2165 7.99798C11.2165 8.41757 11.2165 8.83716 11.2165 9.26946C11.6361 9.26946 12.0557 9.26946 12.488 9.26946C12.488 8.84987 12.488 8.43028 12.488 7.99798C12.0684 7.99798 11.6489 7.99798 11.2165 7.99798Z" fill="white"/>
</g>
<defs>
<clipPath id="clip0_52_1135">
<rect width="21" height="21" fill="white" transform="translate(0.429443)"/>
</clipPath>
</defs>
</svg>
