<svg width="14" height="25" viewBox="0 0 14 25" fill="none" xmlns="http://www.w3.org/2000/svg">
<path d="M0.328176 22.8297C0.223653 22.9342 0.140741 23.0583 0.0841732 23.1949C0.0276051 23.3314 -0.00151157 23.4778 -0.00151157 23.6256C-0.00151157 23.7734 0.0276051 23.9198 0.0841732 24.0564C0.140741 24.193 0.223653 24.317 0.328176 24.4216C0.432701 24.5261 0.556789 24.609 0.693357 24.6656C0.829924 24.7221 0.976295 24.7513 1.12411 24.7513C1.27193 24.7513 1.41831 24.7221 1.55487 24.6656C1.69144 24.609 1.81553 24.5261 1.92005 24.4216L13.1701 13.1716C13.2747 13.0671 13.3576 12.943 13.4142 12.8064C13.4709 12.6699 13.5 12.5235 13.5 12.3756C13.5 12.2278 13.4709 12.0814 13.4142 11.9448C13.3576 11.8082 13.2747 11.6842 13.1701 11.5797L1.92005 0.329688C1.70896 0.118592 1.42265 -5.88483e-09 1.12411 0C0.825581 5.88483e-09 0.539272 0.118592 0.328176 0.329688C0.117081 0.540784 -0.00151157 0.827091 -0.00151157 1.12563C-0.00151157 1.42416 0.117081 1.71047 0.328176 1.92156L10.7836 12.3756L0.328176 22.8297Z" fill="white"/>
</svg>
