<svg xmlns="http://www.w3.org/2000/svg" width="25.027" height="25.016" viewBox="0 0 25.027 25.016">
  <path id="gift-box-benefits" d="M20.5,5H17.512A2.85,2.85,0,0,0,13.929.571,6.382,6.382,0,0,0,12,3.139,6.373,6.373,0,0,0,10.069.571a2.856,2.856,0,0,0-4,.572A2.832,2.832,0,0,0,6.486,5H3.5A3.5,3.5,0,0,0,0,8.5v2A1.5,1.5,0,0,0,1.5,12H2v7.5A4.505,4.505,0,0,0,6.5,24h5a.5.5,0,1,0,0-1h-5A3.5,3.5,0,0,1,3,19.5V12H15.5a.5.5,0,1,0,0-1H1.5a.5.5,0,0,1-.5-.5v-2A2.5,2.5,0,0,1,3.5,6h17A2.5,2.5,0,0,1,23,8.5v2a.5.5,0,0,1-.5.5h-2a.5.5,0,0,0,0,1h2A1.5,1.5,0,0,0,24,10.5v-2A3.5,3.5,0,0,0,20.5,5ZM8.494,5a4.781,4.781,0,0,1-1.252-.658,1.857,1.857,0,0,1,2.229-2.97A6.35,6.35,0,0,1,11.508,5H8.494Zm8.988-1.881a1.86,1.86,0,0,1-.742,1.237A4.816,4.816,0,0,1,15.507,5H12.489A6.36,6.36,0,0,1,14.53,1.371a1.858,1.858,0,0,1,2.953,1.748ZM22.611,16h-2.32l-.826-2.288a1.391,1.391,0,0,0-2.608.005L16.033,16h-2.32a1.415,1.415,0,0,0-1.3.949,1.394,1.394,0,0,0,.413,1.545L14.67,20l-.73,2.195a1.391,1.391,0,0,0,.491,1.529,1.389,1.389,0,0,0,1.607.043l2.135-1.429,2.174,1.416a1.39,1.39,0,0,0,2.075-1.61l-.755-2.152,1.84-1.5a1.4,1.4,0,0,0,.41-1.539A1.433,1.433,0,0,0,22.611,16Zm.258,1.721-2.1,1.715a.5.5,0,0,0-.156.553l.868,2.476a.388.388,0,0,1-.131.43.394.394,0,0,1-.453.019l-2.45-1.6a.5.5,0,0,0-.551,0l-2.409,1.613a.394.394,0,0,1-.45-.012.387.387,0,0,1-.141-.421l.837-2.515a.5.5,0,0,0-.159-.545l-2.107-1.715a.391.391,0,0,1-.114-.431A.433.433,0,0,1,13.714,17h2.671a.5.5,0,0,0,.471-.33l.942-2.608a.408.408,0,0,1,.729-.005l.944,2.613a.5.5,0,0,0,.471.33h2.671a.431.431,0,0,1,.366.294.39.39,0,0,1-.108.427Z" transform="translate(0.501 0.503)" fill="#090909" stroke="#090909" stroke-width="1"/>
</svg>
