<svg width="32" height="32" viewBox="0 0 32 32" fill="none" xmlns="http://www.w3.org/2000/svg">
<path d="M15.9999 6.66667C18.1556 6.66667 20.1349 7.4047 21.715 8.63208L26.5645 4.00545C23.745 1.51994 20.0541 0 15.9999 0C9.85645 0 4.52881 3.46655 1.84766 8.54647L7.24023 12.8037C8.54655 9.22583 11.9699 6.66667 15.9999 6.66667Z" fill="#F44336"/>
<path d="M31.8614 18.0024C31.9447 17.3469 32 16.6782 32 16C32 14.8562 31.8751 13.7424 31.647 12.6667H16V19.3333H24.6483C23.9486 21.1517 22.703 22.6904 21.1174 23.7593L26.5299 28.0324C29.3992 25.5139 31.3626 21.9871 31.8614 18.0024Z" fill="#2196F3"/>
<path d="M6.66667 16C6.66667 14.8754 6.87581 13.8022 7.24032 12.8037L1.84774 8.54646C0.672445 10.7734 0 13.3069 0 16C0 18.663 0.660075 21.1685 1.81095 23.3773L7.21037 19.1146C6.86458 18.1392 6.66667 17.0939 6.66667 16Z" fill="#FFC107"/>
<path d="M16.0006 25.3333C11.9399 25.3333 8.49447 22.7353 7.21094 19.1146L1.81152 23.3773C4.47957 28.498 9.82699 32 16.0006 32C20.0376 32 23.7189 30.5002 26.5305 28.0324L21.1179 23.7593C19.6555 24.7452 17.9051 25.3333 16.0006 25.3333Z" fill="#00B060"/>
<path opacity="0.1" d="M16.0001 31.6667C11.2912 31.6667 7.05705 29.7238 4.06348 26.6284C6.9939 29.9171 11.2487 32 16.0001 32C20.7075 32 24.9271 29.9582 27.8509 26.721C24.8662 29.7662 20.6642 31.6667 16.0001 31.6667Z" fill="black"/>
<path opacity="0.1" d="M16 19V19.3333H24.6483L24.7833 19H16Z" fill="black"/>
<path d="M31.9923 16.1961C31.9933 16.1304 31.9997 16.0658 31.9997 16C31.9997 15.9814 31.9967 15.9634 31.9967 15.9447C31.9958 16.0287 31.9915 16.1117 31.9923 16.1961Z" fill="#E6E6E6"/>
<path opacity="0.2" d="M16 12.6667V13H31.7141C31.6931 12.89 31.6702 12.7759 31.647 12.6667H16Z" fill="white"/>
<path d="M31.647 12.6667H16V19.3333H24.6483C23.3034 22.8288 19.9696 25.3333 16 25.3333C10.8454 25.3333 6.66667 21.1546 6.66667 16C6.66667 10.8453 10.8454 6.66667 16 6.66667C17.8691 6.66667 19.5919 7.24089 21.0514 8.18758C21.2747 8.33276 21.5052 8.46908 21.7151 8.63208L26.5646 4.00545L26.4552 3.92131C23.6493 1.48942 20.0047 0 16 0C7.16341 0 0 7.16341 0 16C0 24.8365 7.16341 32 16 32C24.1569 32 30.8739 25.8917 31.8614 18.0024C31.9447 17.3469 32 16.6782 32 16C32 14.8562 31.8751 13.7424 31.647 12.6667Z" fill="url(#paint0_linear_674_411)"/>
<path opacity="0.1" d="M21.0517 7.85424C19.5922 6.90755 17.8695 6.33333 16.0003 6.33333C10.8457 6.33333 6.66699 10.512 6.66699 15.6667C6.66699 15.7229 6.66775 15.7668 6.66873 15.8229C6.75865 10.746 10.9019 6.66666 16.0003 6.66666C17.8695 6.66666 19.5922 7.24088 21.0517 8.18758C21.2751 8.33276 21.5055 8.46907 21.7154 8.63207L26.5649 4.00545L21.7154 8.29874C21.5055 8.13574 21.2751 7.99943 21.0517 7.85424Z" fill="black"/>
<path opacity="0.2" d="M16 0.333333C19.9667 0.333333 23.5772 1.79785 26.3724 4.1888L26.5646 4.00545L26.4179 3.8777C23.6119 1.44581 20.0047 0 16 0C7.16341 0 0 7.16341 0 16C0 16.0562 0.00781253 16.1105 0.00838213 16.1667C0.0987141 7.4078 7.21964 0.333333 16 0.333333Z" fill="white"/>
<defs>
<linearGradient id="paint0_linear_674_411" x1="0" y1="16" x2="32" y2="16" gradientUnits="userSpaceOnUse">
<stop stop-color="white" stop-opacity="0.2"/>
<stop offset="1" stop-color="white" stop-opacity="0"/>
</linearGradient>
</defs>
</svg>
