<svg width="22" height="16" viewBox="0 0 22 16" fill="none" xmlns="http://www.w3.org/2000/svg">
<path d="M21.1474 8.95823C21.0738 9.01338 20.9902 9.05351 20.9011 9.07632C20.8121 9.09913 20.7194 9.10418 20.6284 9.09118C20.5374 9.07819 20.4499 9.04739 20.3708 9.00056C20.2917 8.95373 20.2226 8.89178 20.1675 8.81825C19.7456 8.25119 19.1965 7.79111 18.5644 7.47503C17.9322 7.15895 17.2347 6.99571 16.5279 6.99846C16.3903 6.99844 16.2557 6.95785 16.141 6.88175C16.0263 6.80566 15.9366 6.69744 15.8831 6.57063C15.8468 6.48452 15.828 6.392 15.828 6.29853C15.828 6.20507 15.8468 6.11255 15.8831 6.02644C15.9366 5.89963 16.0263 5.79141 16.141 5.71531C16.2557 5.63922 16.3903 5.59863 16.5279 5.59861C16.9206 5.59858 17.3055 5.48841 17.6387 5.28062C17.9719 5.07283 18.2402 4.77576 18.4131 4.42313C18.586 4.07051 18.6565 3.67647 18.6166 3.28578C18.5768 2.89509 18.4282 2.5234 18.1877 2.21294C17.9472 1.90248 17.6244 1.66569 17.2561 1.52946C16.8877 1.39324 16.4886 1.36304 16.1039 1.44229C15.7193 1.52155 15.3646 1.70708 15.0801 1.97783C14.7957 2.24857 14.5928 2.59366 14.4946 2.97391C14.4716 3.06295 14.4314 3.1466 14.376 3.22007C14.3207 3.29354 14.2515 3.3554 14.1723 3.40211C14.0931 3.44883 14.0055 3.47948 13.9144 3.49233C13.8233 3.50517 13.7306 3.49996 13.6416 3.47698C13.5526 3.454 13.4689 3.41371 13.3954 3.3584C13.322 3.3031 13.2601 3.23386 13.2134 3.15465C13.1667 3.07544 13.136 2.9878 13.1232 2.89675C13.1103 2.80569 13.1155 2.71299 13.1385 2.62395C13.2748 2.09666 13.5323 1.60845 13.8904 1.19817C14.2486 0.787885 14.6975 0.466856 15.2016 0.260622C15.7056 0.054388 16.2509 -0.0313575 16.7939 0.0102078C17.3369 0.051773 17.8628 0.219502 18.3296 0.500049C18.7964 0.780595 19.1912 1.16622 19.4828 1.62623C19.7743 2.08624 19.9545 2.60794 20.0089 3.14983C20.0633 3.69172 19.9905 4.23883 19.7963 4.74764C19.6021 5.25645 19.2918 5.7129 18.8901 6.08068C19.8419 6.49276 20.6692 7.14667 21.29 7.97747C21.3451 8.05119 21.3852 8.13506 21.4079 8.22429C21.4306 8.31351 21.4354 8.40633 21.4222 8.49744C21.4089 8.58854 21.3778 8.67614 21.3307 8.75521C21.2835 8.83428 21.2212 8.90327 21.1474 8.95823ZM16.4334 14.3476C16.484 14.4273 16.5181 14.5164 16.5334 14.6095C16.5487 14.7027 16.545 14.7979 16.5226 14.8896C16.5001 14.9813 16.4593 15.0675 16.4027 15.143C16.3461 15.2186 16.2747 15.2818 16.193 15.3291C16.1113 15.3763 16.0208 15.4065 15.9271 15.4179C15.8334 15.4293 15.7384 15.4216 15.6477 15.3953C15.5571 15.369 15.4727 15.3247 15.3996 15.2649C15.3265 15.2051 15.2663 15.1312 15.2225 15.0475C14.7816 14.301 14.1537 13.6822 13.4007 13.2524C12.6476 12.8226 11.7956 12.5965 10.9285 12.5965C10.0615 12.5965 9.2094 12.8226 8.45638 13.2524C7.70336 13.6822 7.07542 14.301 6.63451 15.0475C6.59075 15.1312 6.53053 15.2051 6.45746 15.2649C6.3844 15.3247 6.29999 15.369 6.20933 15.3953C6.11867 15.4216 6.02363 15.4293 5.92992 15.4179C5.83621 15.4065 5.74578 15.3763 5.66405 15.3291C5.58232 15.2818 5.511 15.2186 5.45436 15.143C5.39773 15.0675 5.35695 14.9813 5.3345 14.8896C5.31204 14.7979 5.30836 14.7027 5.32368 14.6095C5.339 14.5164 5.373 14.4273 5.42365 14.3476C6.10222 13.1817 7.13687 12.2642 8.37556 11.7299C7.67855 11.1963 7.1663 10.4576 6.9108 9.61776C6.65531 8.77792 6.66942 7.87912 6.95115 7.04772C7.23288 6.21631 7.76807 5.49409 8.48149 4.98257C9.1949 4.47106 10.0507 4.19597 10.9285 4.19597C11.8064 4.19597 12.6621 4.47106 13.3756 4.98257C14.089 5.49409 14.6242 6.21631 14.9059 7.04772C15.1876 7.87912 15.2017 8.77792 14.9462 9.61776C14.6908 10.4576 14.1785 11.1963 13.4815 11.7299C14.7202 12.2642 15.7548 13.1817 16.4334 14.3476ZM10.9285 11.198C11.4823 11.198 12.0235 11.0338 12.4839 10.7261C12.9444 10.4185 13.3032 9.98127 13.5151 9.46969C13.727 8.95811 13.7824 8.39519 13.6744 7.85211C13.5664 7.30902 13.2997 6.81016 12.9082 6.41862C12.5167 6.02708 12.0178 5.76043 11.4747 5.65241C10.9316 5.54438 10.3687 5.59982 9.85713 5.81173C9.34556 6.02363 8.90831 6.38247 8.60067 6.84288C8.29304 7.30328 8.12884 7.84457 8.12884 8.3983C8.12884 9.14082 8.42381 9.85293 8.94885 10.378C9.47389 10.903 10.186 11.198 10.9285 11.198ZM6.02908 6.29853C6.02908 6.1129 5.95534 5.93488 5.82408 5.80362C5.69281 5.67235 5.51479 5.59861 5.32916 5.59861C4.93644 5.59858 4.5516 5.48841 4.21835 5.28062C3.88511 5.07283 3.61681 4.77576 3.44395 4.42313C3.27108 4.07051 3.20056 3.67647 3.24042 3.28578C3.28027 2.89509 3.42888 2.5234 3.66939 2.21294C3.90989 1.90248 4.23264 1.66569 4.60098 1.52946C4.96931 1.39324 5.36847 1.36304 5.7531 1.44229C6.13774 1.52155 6.49244 1.70708 6.77692 1.97783C7.0614 2.24857 7.26425 2.59366 7.36243 2.97391C7.40883 3.15374 7.52478 3.30777 7.68475 3.40211C7.84473 3.49646 8.03563 3.52338 8.21546 3.47698C8.39529 3.43057 8.54931 3.31463 8.64366 3.15465C8.738 2.99468 8.76493 2.80378 8.71852 2.62395C8.58225 2.09666 8.3248 1.60845 7.96664 1.19817C7.60849 0.787885 7.15952 0.466856 6.65547 0.260622C6.15141 0.054388 5.60618 -0.0313575 5.06315 0.0102078C4.52012 0.051773 3.99429 0.219502 3.52749 0.500049C3.0607 0.780595 2.66582 1.16622 2.37428 1.62623C2.08274 2.08624 1.90259 2.60794 1.84816 3.14983C1.79373 3.69172 1.86652 4.23883 2.06074 4.74764C2.25496 5.25645 2.56525 5.7129 2.96692 6.08068C2.01615 6.49315 1.18975 7.14703 0.569693 7.97747C0.458199 8.12597 0.410264 8.31269 0.436434 8.49653C0.462604 8.68038 0.560735 8.8463 0.70924 8.9578C0.857744 9.06929 1.04446 9.11723 1.2283 9.09106C1.41215 9.06489 1.57807 8.96675 1.68957 8.81825C2.11143 8.25119 2.66054 7.79111 3.2927 7.47503C3.92485 7.15895 4.62239 6.99571 5.32916 6.99846C5.51479 6.99846 5.69281 6.92471 5.82408 6.79345C5.95534 6.66219 6.02908 6.48416 6.02908 6.29853Z" fill="white"/>
</svg>
