<svg xmlns="http://www.w3.org/2000/svg" width="28" height="28" viewBox="0 0 28 28">
  <path id="users-alt" d="M14,18.667A4.667,4.667,0,1,1,18.667,14,4.667,4.667,0,0,1,14,18.667Zm0-7A2.333,2.333,0,1,0,16.333,14,2.333,2.333,0,0,0,14,11.667Zm7,15.167a7,7,0,1,0-14,0,1.167,1.167,0,1,0,2.333,0,4.667,4.667,0,0,1,9.333,0,1.167,1.167,0,1,0,2.333,0Zm0-17.5a4.667,4.667,0,1,1,4.667-4.667A4.667,4.667,0,0,1,21,9.333Zm0-7a2.333,2.333,0,1,0,2.333,2.333A2.333,2.333,0,0,0,21,2.333ZM28,17.5a7.007,7.007,0,0,0-7-7,1.167,1.167,0,1,0,0,2.333A4.667,4.667,0,0,1,25.667,17.5,1.167,1.167,0,0,0,28,17.5ZM7,9.333a4.667,4.667,0,1,1,4.667-4.667A4.667,4.667,0,0,1,7,9.333Zm0-7A2.333,2.333,0,1,0,9.333,4.667,2.333,2.333,0,0,0,7,2.333ZM2.333,17.5A4.667,4.667,0,0,1,7,12.833,1.167,1.167,0,0,0,7,10.5a7.007,7.007,0,0,0-7,7,1.167,1.167,0,0,0,2.333,0Z" fill="#232323"/>
</svg>
