<svg width="24" height="24" viewBox="0 0 24 24" fill="none" xmlns="http://www.w3.org/2000/svg">
<path d="M22.4769 10.1618L12.877 0.561903C12.517 0.20211 12.0289 0 11.5199 0C11.0109 0 10.5227 0.20211 10.1627 0.561903L0.562805 10.1618C0.383652 10.3396 0.241639 10.5513 0.145022 10.7845C0.0484057 11.0177 -0.000886376 11.2677 1.2064e-05 11.5202V23.04C1.2064e-05 23.2946 0.101154 23.5388 0.281186 23.7188C0.461219 23.8989 0.705395 24 0.96 24H8.6399C8.8945 24 9.13868 23.8989 9.31871 23.7188C9.49875 23.5388 9.59989 23.2946 9.59989 23.04V16.3201H13.4398V23.04C13.4398 23.2946 13.541 23.5388 13.721 23.7188C13.901 23.8989 14.1452 24 14.3998 24H22.0797C22.3343 24 22.5785 23.8989 22.7585 23.7188C22.9386 23.5388 23.0397 23.2946 23.0397 23.04V11.5202C23.0406 11.2677 22.9913 11.0177 22.8947 10.7845C22.7981 10.5513 22.6561 10.3396 22.4769 10.1618ZM21.1197 22.08H15.3598V15.3601C15.3598 15.1055 15.2587 14.8613 15.0786 14.6813C14.8986 14.5013 14.6544 14.4001 14.3998 14.4001H8.6399C8.3853 14.4001 8.14112 14.5013 7.96109 14.6813C7.78105 14.8613 7.67991 15.1055 7.67991 15.3601V22.08H1.91999V11.5202L11.5199 1.92029L21.1197 11.5202V22.08Z" fill="white"/>
</svg>
