<svg xmlns="http://www.w3.org/2000/svg" width="28" height="28" viewBox="0 0 28 28">
  <path id="home_1_" data-name="home (1)" d="M26.975,10.583,18.125,1.728a5.84,5.84,0,0,0-8.251,0L1.026,10.583A3.477,3.477,0,0,0,0,13.059v11.46a3.5,3.5,0,0,0,3.5,3.5h21a3.5,3.5,0,0,0,3.5-3.5V13.059A3.477,3.477,0,0,0,26.975,10.583ZM17.5,25.687h-7V21.094a3.5,3.5,0,1,1,7,0Zm8.167-1.167A1.167,1.167,0,0,1,24.5,25.687H19.833V21.094a5.833,5.833,0,1,0-11.667,0v4.592H3.5a1.167,1.167,0,0,1-1.167-1.167V13.059a1.177,1.177,0,0,1,.342-.825l8.849-8.852a3.508,3.508,0,0,1,4.951,0l8.849,8.856a1.177,1.177,0,0,1,.342.822Z" transform="translate(0 -0.021)" fill="#232323"/>
</svg>
