<svg width="72" height="78" viewBox="0 0 72 78" fill="none" xmlns="http://www.w3.org/2000/svg">
<path d="M65.3246 4.97268C66.9804 6.73798 67.6055 8.67554 67.5218 11.0586C67.4322 12.5115 66.9819 13.7865 66.2485 15.0449C66.0713 15.4683 66.0939 15.6442 66.2383 16.0749C66.3399 16.2874 66.4487 16.4968 66.5632 16.7028C67.3574 18.2474 67.586 19.7721 67.1104 21.4549C66.7395 22.5435 66.1759 23.4886 65.4175 24.3571C65.4771 24.4099 65.5368 24.4628 65.5982 24.5172C67.0504 25.8713 67.6509 27.424 67.7538 29.3722C67.759 30.4418 67.48 31.4937 67.2274 32.5268C67.1884 33.0024 67.2907 33.1611 67.5635 33.5473C69.1387 35.9704 69.2577 39.5069 68.6967 42.2789C68.3334 43.715 67.5981 45.0892 66.777 46.3185C66.4839 46.7095 66.4839 46.7095 66.5317 47.0043C66.6956 47.4225 66.9284 47.7943 67.1617 48.1769C67.6911 49.0749 68.1066 49.975 68.427 50.9688C68.4708 51.1006 68.5145 51.2323 68.5596 51.3681C69.4462 54.6235 68.9023 58.2029 67.3327 61.1518C65.5147 64.2783 62.6562 66.4776 59.1777 67.511C55.5761 68.4677 51.8205 67.761 48.6319 65.9626C47.3193 65.1769 46.2405 64.0454 45.252 62.8951C45.052 62.6648 44.8442 62.4499 44.6247 62.238C44.5584 62.3712 44.4921 62.5044 44.4238 62.6416C43.9378 63.6145 43.4467 64.5849 42.9404 65.5475C42.8959 65.6338 42.8515 65.7201 42.8057 65.809C42.5781 66.2373 42.4406 66.4439 42.0256 66.7185C41.69 66.7558 41.69 66.7558 41.2866 66.7601C41.1355 66.7623 40.9844 66.7645 40.8286 66.7667C40.6653 66.7674 40.502 66.7682 40.3338 66.7689C40.166 66.7702 39.9981 66.7714 39.8252 66.7726C39.4699 66.7746 39.1146 66.7758 38.7592 66.7763C38.2155 66.7779 37.6719 66.7846 37.1282 66.7915C36.7832 66.7928 36.4382 66.7937 36.0931 66.7944C35.9304 66.797 35.7677 66.7997 35.6 66.8024C34.4707 66.7963 34.4707 66.7963 33.9324 66.4003C32.1657 63.865 31.0164 60.8623 30.9452 57.7575C30.8639 57.7786 30.7826 57.7998 30.6988 57.8216C29.2792 58.1525 28.0004 58.035 26.7045 57.3501C25.4088 56.5442 24.5691 55.4133 23.8404 54.1001C22.5739 51.8279 20.685 50.398 18.4968 49.0679C18.4585 49.1651 18.4203 49.2622 18.3808 49.3623C16.8475 53.145 16.8475 53.145 15.7609 53.6842C15.7652 53.8689 15.7652 53.8689 15.7696 54.0572C15.779 54.5218 15.7858 54.9864 15.7909 55.451C15.7937 55.6506 15.7974 55.8502 15.8022 56.0498C15.8379 57.5802 15.7567 59.0094 14.7777 60.2693C13.9416 61.1061 13.1164 61.3399 11.9392 61.364C10.7516 61.3521 9.84768 61.0359 9.00663 60.1929C8.29249 59.2242 8.04798 58.1388 8.09501 56.9529C8.09865 56.8601 8.10228 56.7673 8.10602 56.6717C8.12363 56.2883 8.14481 55.9055 8.1735 55.5227C8.21758 54.8951 8.23846 54.3035 8.10036 53.6842C7.70271 53.2336 7.2642 53.0027 6.73241 52.7338C5.34416 51.6302 4.56926 49.9653 4.31284 48.2448C4.18934 46.7003 4.33197 45.2181 4.81727 43.7388C4.93907 43.2825 4.98968 43.0523 4.82155 42.6075C4.68014 42.3802 4.53089 42.1575 4.37483 41.9398C4.12346 41.5865 3.93942 41.2375 3.75711 40.8451C3.70421 40.7329 3.65131 40.6207 3.5968 40.5052C2.85362 38.498 2.8763 35.9641 3.72291 33.997C3.96835 33.5204 4.23413 33.06 4.51696 32.6043C4.71977 32.2528 4.71977 32.2528 4.59551 31.9572C4.53327 31.8687 4.47102 31.7801 4.40689 31.6889C4.27166 31.4406 4.13785 31.1916 4.00505 30.9421C3.9361 30.8147 3.86715 30.6873 3.79612 30.556C3.26694 29.3051 3.10257 28.0819 3.11588 26.7331C3.11702 26.584 3.11815 26.435 3.11932 26.2814C3.16215 24.25 3.92536 22.6604 5.22766 21.0985C5.17952 21.0323 5.13138 20.9662 5.08178 20.898C3.22836 18.2563 2.73859 15.5979 3.26978 12.4037C3.65042 10.6068 4.45202 9.07634 5.91163 7.92842C8.26371 6.43622 11.3368 6.24759 14.0241 6.78654C15.0945 7.0244 16.1079 7.38513 17.0631 7.92152C17.1428 7.9662 17.2225 8.01087 17.3045 8.0569C17.5272 8.18459 17.7471 8.31705 17.9667 8.44977C18.3448 8.64518 18.3448 8.64518 18.6966 8.52667C18.8113 8.46367 18.9259 8.40066 19.044 8.33574C19.1868 8.26311 19.3296 8.19047 19.4768 8.11564C19.633 8.03425 19.7893 7.95287 19.9502 7.86902C21.9549 6.87069 24.1494 6.62373 26.3454 7.18166C27.7867 7.66303 29.157 8.3801 30.2708 9.41451C30.5347 9.59651 30.5347 9.59651 30.8554 9.47497C31.2679 9.2606 31.68 9.04557 32.0908 8.82792C34.2947 7.71977 36.8169 7.38923 39.2277 8.02813C40.286 8.41312 41.2945 8.9171 42.2992 9.42193C42.3332 9.32357 42.3672 9.22521 42.4023 9.12387C43.0555 7.66451 44.5571 6.74385 45.9755 6.12093C48.0271 5.37697 50.0836 5.5715 52.1286 6.19836C52.6365 6.32358 52.6365 6.32358 53.106 6.16336C53.3532 5.89165 53.3532 5.89165 53.5848 5.55238C54.8699 3.89819 56.778 2.87104 58.8428 2.5314C61.3551 2.30162 63.5298 3.26029 65.3246 4.97268Z" fill="#020101"/>
<path d="M62.7303 4.97903C64.3324 5.97588 65.5445 7.40258 66.0278 9.25791C66.3869 11.2299 65.7547 13.2029 64.6485 14.8365C64.5975 14.9066 64.5466 14.9766 64.4941 15.0487C64.2069 15.5155 64.2037 15.7249 64.2656 16.2689C64.4594 16.6219 64.6502 16.9333 64.8808 17.2592C65.7148 18.46 65.9491 19.4605 65.8125 20.9374C65.4642 22.4333 64.5029 23.3554 63.2812 24.1912C63.0781 24.5998 63.0876 24.8697 63.1406 25.3229C63.4361 25.6969 63.7599 25.9687 64.1426 26.2497C65.1938 27.0267 65.8818 27.861 66.2344 29.1426C66.3914 30.7226 66.0905 32.12 65.3906 33.5281C65.2968 33.9586 65.2968 33.9586 65.3906 34.3769C65.6182 34.6194 65.8542 34.8538 66.0937 35.0843C67.5844 37.18 67.8136 39.885 67.4088 42.3832C67.1082 43.9127 66.565 45.6147 65.3906 46.6847C65.2953 46.6027 65.1999 46.5206 65.1017 46.4361C62.6146 44.336 59.8727 43.4061 56.6719 43.0065C56.2934 42.1344 56.1818 41.4254 56.1972 40.4778C56.1985 40.3529 56.1997 40.2281 56.201 40.0994C56.2261 38.9776 56.3989 38.0667 56.9795 37.1002C57.2595 36.595 57.3445 36.358 57.2344 35.7916C56.9785 35.4797 56.9785 35.4797 56.7603 35.2921C55.9342 34.5427 55.2544 33.7231 54.8437 32.6793C54.7857 32.5334 54.7277 32.3875 54.6679 32.2372C54.2627 30.131 54.7816 28.6082 55.9138 26.8542C56.1438 26.3843 56.1852 26.1233 56.1094 25.6059C55.8875 25.2256 55.8875 25.2256 55.582 24.872C54.4735 23.3989 54.1911 21.9043 54.4219 20.0886C54.5391 19.6559 54.6829 19.2608 54.858 18.8491C55.0203 18.4422 55.0489 18.1162 54.9844 17.6836C54.7351 17.214 54.7351 17.214 54.2109 17.0912C53.7792 17.0496 53.6096 17.0973 53.2408 17.3371C53.0033 17.5372 52.7685 17.7406 52.5361 17.9466C51.997 18.3949 51.4041 18.6783 50.7656 18.9568C50.6665 19.0086 50.5673 19.0604 50.4651 19.1138C49.8438 19.3082 49.233 19.2939 48.5859 19.2928C48.4479 19.2927 48.3098 19.2926 48.1676 19.2924C46.8905 19.2716 45.8433 19.0352 44.6979 18.4462C44.2329 18.2181 43.9637 18.1713 43.4531 18.2495C43.0141 18.5573 42.8218 18.9404 42.583 19.4078C41.692 21.0692 40.0802 22.1304 38.3175 22.6787C36.791 22.9838 35.0254 23.0139 33.695 22.1283C33.1099 21.6925 32.6363 21.2471 32.2031 20.6544C31.7969 20.4501 31.5286 20.4597 31.0781 20.513C30.7265 20.8193 30.7265 20.8193 30.375 21.2203C28.8662 22.6401 27.0382 22.7519 25.0697 22.6892C23.4163 22.595 22.1291 22.0512 21.0058 20.8136C20.6964 20.4772 20.6964 20.4772 20.2752 20.4655C19.7524 20.521 19.5152 20.6678 19.0898 20.9728C16.68 22.5933 13.2586 23.0589 10.4194 22.5333C9.97861 22.4024 9.56334 22.25 9.1406 22.0691C9.0206 22.0228 8.90059 21.9765 8.77695 21.9288C6.86669 21.0982 5.47521 19.3719 4.7197 17.4626C4.37594 16.3305 4.44623 15.1744 4.49998 14.0054C4.50288 13.8796 4.50578 13.7537 4.50877 13.6241C4.58123 12.3893 5.08296 10.9968 5.94633 10.104C7.30335 8.97202 8.97922 8.68743 10.6963 8.69148C10.9254 8.692 10.9254 8.692 11.1591 8.69252C13.3469 8.74213 15.3933 9.53303 17.1299 10.8754C17.6452 11.221 17.8174 11.2514 18.4219 11.176C18.8589 10.9252 18.8589 10.9252 19.2832 10.5836C20.8845 9.39298 22.6118 8.79816 24.6094 9.054C26.4921 9.49026 28.1094 10.5 29.4219 11.9088C29.7387 12.2352 29.8855 12.2997 30.3376 12.3536C30.9308 12.2944 31.2024 12.0749 31.6758 11.7154C31.837 11.5974 31.9987 11.4801 32.1608 11.3634C32.2792 11.2781 32.2792 11.2781 32.4 11.1912C34.0535 10.0404 35.9919 9.67167 37.9599 10.0001C39.5316 10.3609 40.8147 11.1142 42.06 12.1216C42.4502 12.3926 42.709 12.3757 43.1719 12.3078C43.6698 11.8946 43.9109 11.4358 44.1914 10.8577C44.9653 9.38004 45.9702 8.51767 47.506 7.90567C49.5198 7.34319 51.7696 8.00285 53.5781 8.91253C54.0431 8.96338 54.3167 8.98303 54.7119 8.71801C54.9638 8.3747 55.1167 8.06922 55.292 7.68352C56.0702 6.08001 57.3541 5.34959 58.9219 4.66846C60.1426 4.25911 61.5856 4.4289 62.7303 4.97903Z" fill="#FE9393"/>
<path d="M44.2968 20.7959C44.781 20.8859 45.2407 21.0094 45.7108 21.1556C46.5667 21.3928 47.3685 21.4201 48.2519 21.406C48.3953 21.4064 48.5387 21.4069 48.6864 21.4074C49.5558 21.4012 50.3493 21.311 51.1874 21.0788C51.2848 21.0521 51.3822 21.0253 51.4825 20.9977C51.7129 20.9326 51.9425 20.8646 52.1718 20.7959C52.1803 20.9257 52.1889 21.0556 52.1976 21.1894C52.2594 22.1 52.3273 23.0041 52.4531 23.9082C52.2187 23.8878 51.9843 23.8671 51.7499 23.8463C51.6194 23.8348 51.4889 23.8233 51.3544 23.8115C51.0296 23.7791 50.7055 23.7386 50.3821 23.6932C49.6958 23.6059 49.0133 23.5939 48.3222 23.5899C48.1982 23.587 48.0742 23.5841 47.9465 23.5811C47.0678 23.5759 46.2266 23.6707 45.4218 24.0497C45.0945 24.5436 45.0698 24.7418 45.1406 25.3229C45.3218 25.694 45.3218 25.694 45.7031 25.8888C45.9699 25.8863 45.9699 25.8863 46.2634 25.8352C48.497 25.5421 51.4813 25.4257 53.4374 26.7376C53.3899 26.8454 53.3425 26.9531 53.2935 27.0642C52.4864 28.944 51.979 31.1032 52.7343 33.1037C52.9035 33.4976 53.0841 33.8849 53.2705 34.2708C53.317 34.3679 53.3636 34.465 53.4116 34.565C53.7199 35.1752 54.0662 35.5971 54.5624 36.0745C54.5624 36.1679 54.5624 36.2613 54.5624 36.3575C54.3832 36.5315 54.3832 36.5315 54.1285 36.7277C54.0337 36.8011 53.9389 36.8744 53.8412 36.95C53.737 37.0287 53.6327 37.1075 53.5253 37.1886C53.4177 37.2704 53.3101 37.3521 53.1993 37.4364C50.4707 39.4888 47.6254 41.215 44.4374 42.4406C44.3338 42.4808 44.2302 42.5209 44.1234 42.5622C39.7513 44.2233 34.4947 44.6589 30.0096 43.248C29.4671 43.1346 29.0832 43.1541 28.5468 43.2895C28.2195 43.7834 28.1948 43.9816 28.2656 44.5627C28.7251 45.1875 29.2917 45.3151 30.0058 45.4999C30.1075 45.5287 30.2092 45.5575 30.314 45.5872C32.0036 46.0436 33.7026 46.1705 35.4462 46.163C35.5405 46.1629 35.6347 46.1627 35.7318 46.1625C37.2883 46.1572 38.8019 46.0401 40.3334 45.7518C40.6183 45.6986 40.9043 45.6523 41.1904 45.6066C45.4214 44.8736 49.5753 42.6592 53.0475 40.1989C53.3095 40.0274 53.5774 39.8882 53.8593 39.7527C53.9999 40.8845 54.1406 42.0162 54.2812 43.148C54.1144 43.1859 53.9476 43.2239 53.7758 43.2629C50.7047 43.9963 48.1081 45.4312 45.9843 47.8165C45.9379 47.9098 45.8915 48.0032 45.8437 48.0994C45.6102 48.095 45.6102 48.095 45.372 48.0904C41.3407 47.936 41.3407 47.936 37.4062 48.6653C37.3096 48.6963 37.2129 48.7274 37.1133 48.7594C35.916 49.1594 34.8786 49.7128 33.8906 50.5044C33.7751 50.5888 33.6596 50.6732 33.5407 50.7602C32.2104 51.9278 31.5238 53.7432 31.2725 55.4569C31.0593 56.8725 31.0593 56.8725 30.7106 57.2717C30.0135 57.668 29.1842 57.6989 28.4062 57.5778C27.1519 57.1936 26.345 56.1961 25.7461 55.0722C25.6576 54.9032 25.6576 54.9032 25.5673 54.7308C24.8777 53.4771 24.0862 52.4835 23.0624 51.4947C22.8917 51.3237 22.8917 51.3237 22.7175 51.1493C21.4169 49.9037 19.8652 48.9391 18.2779 48.1077C17.9999 47.9579 17.9999 47.9579 17.8593 47.8165C17.8206 47.4956 17.7862 47.1743 17.7538 46.8527C17.5996 45.5583 17.2569 44.4055 16.3828 43.4132C16.1297 43.0947 16.0247 42.9621 16.0521 42.5512C16.1654 42.1736 16.3042 41.8152 16.4531 41.4504C17.2612 39.2767 17.3221 36.8682 16.5937 34.6599C17.8641 34.514 19.1309 34.4844 20.4081 34.483C20.5125 34.4828 20.6169 34.4826 20.7244 34.4824C24.4142 34.4839 27.9413 35.0904 31.4527 36.221C32.6516 36.5698 33.7378 36.6883 34.9892 36.6846C35.1437 36.6869 35.2983 36.6892 35.4575 36.6915C36.9503 36.6924 38.3228 36.4045 39.6562 35.7209C39.75 35.6734 39.8438 35.626 39.9405 35.5771C40.8982 35.0656 42.1117 34.2464 42.6093 33.2452C42.6457 32.672 42.6521 32.4609 42.3281 31.9719C41.8783 31.8315 41.6543 31.7639 41.2031 31.8305C40.7749 32.1057 40.4382 32.4627 40.0781 32.8208C38.0536 34.5152 35.9023 34.7438 33.3281 34.5184C32.6029 34.3925 31.916 34.1579 31.2238 33.9115C28.2094 32.8541 24.9167 32.3638 21.7293 32.3825C21.5972 32.3827 21.4652 32.3829 21.3292 32.3831C20.9138 32.3839 20.4984 32.3857 20.083 32.3875C19.7987 32.3882 19.5144 32.3889 19.2301 32.3894C18.5388 32.391 17.8475 32.3934 17.1562 32.3964C17.3589 31.7729 17.589 31.176 17.8505 30.5749C18.1557 29.8685 18.4437 29.16 18.7031 28.4352C19.309 28.6597 19.8621 28.9619 20.4257 29.2752C21.195 29.6945 21.933 30.0466 22.7812 30.2743C22.8724 30.2993 22.9636 30.3242 23.0575 30.3499C23.9324 30.5679 24.7737 30.6117 25.6728 30.6103C25.8257 30.6102 25.9785 30.6101 26.136 30.6099C27.6354 30.5885 29.0684 30.347 30.5378 30.0658C41.0947 28.1005 41.0947 28.1005 44.9999 30.6987C45.8455 31.4623 46.1727 32.4943 46.3101 33.6049C46.3643 34.7395 45.9813 35.6071 45.3164 36.5078C43.665 38.2941 40.7352 38.7933 38.4402 38.9358C37.8959 38.952 37.353 38.9577 36.8085 38.957C36.663 38.9569 36.663 38.9569 36.5146 38.9569C33.8674 38.9488 31.3046 38.5991 28.8281 37.6307C28.5382 37.5241 28.2482 37.418 27.958 37.3124C27.8399 37.2679 27.7219 37.2234 27.6003 37.1776C26.025 36.6211 24.1083 36.7359 22.6027 37.4213C20.9417 38.3272 19.9047 39.6244 19.32 41.4343C19.0432 42.9559 19.2269 44.4453 20.045 45.7602C21.1634 47.3074 22.7673 48.1814 24.6335 48.479C25.0562 48.5266 25.4765 48.5471 25.9013 48.568C26.6997 48.6284 27.2466 48.8313 27.8437 49.3726C28.5236 50.2319 28.6291 50.99 28.5468 52.0605C28.4588 52.2985 28.3658 52.5348 28.2656 52.7679C28.2025 53.2859 28.1987 53.5183 28.4941 53.9527C28.9282 54.2515 29.1555 54.2691 29.6718 54.1826C30.2523 53.8155 30.4109 53.2516 30.5798 52.6131C30.8787 51.0041 30.6291 49.5616 29.7246 48.1967C28.9305 47.2168 27.8102 46.6862 26.5781 46.5432C26.2793 46.5245 25.9805 46.5069 25.6816 46.4902C24.0332 46.3705 22.9036 45.8105 21.7968 44.5627C21.2956 43.7619 21.2588 42.939 21.3749 42.0162C21.692 40.9206 22.2868 40.074 23.2734 39.4963C24.3252 38.9207 25.7175 38.7898 26.8691 39.1318C27.2853 39.2858 27.6925 39.4581 28.1008 39.6321C28.9216 39.9767 29.7381 40.2275 30.6035 40.4336C30.7717 40.4748 30.7717 40.4748 30.9432 40.5168C32.8667 40.9585 34.7897 41.0803 36.7558 41.0702C36.8635 41.0699 36.9712 41.0696 37.0821 41.0692C40.507 41.0537 44.2321 40.5264 46.8369 38.0651C48.0562 36.7543 48.4246 35.1626 48.4052 33.4082C48.297 31.812 47.6431 30.2286 46.4787 29.1265C42.7909 26.3441 37.4751 26.9184 33.1834 27.5232C31.5986 27.7531 30.014 27.9989 28.4435 28.3131C25.7108 28.8173 23.0647 28.4365 20.6718 27.0205C20.519 26.9304 20.3662 26.8404 20.2087 26.7475C19.2192 26.065 19.2192 26.065 19.0465 25.4831C18.9436 24.8628 18.949 24.2529 18.9843 23.6253C19.3406 23.3305 19.6518 23.1418 20.1093 23.0594C20.5303 23.2502 20.8695 23.4998 21.2431 23.7723C23.2107 25.0936 26.1543 24.9914 28.4062 24.6067C29.3171 24.399 30.047 24.0275 30.838 23.544C31.2187 23.3423 31.2187 23.3423 31.7812 23.3423C32.0685 23.5081 32.0685 23.5081 32.3701 23.7314C34.1811 25.0031 36.2823 25.2183 38.4444 24.8399C39.0625 24.6851 39.6373 24.4532 40.2187 24.1912C40.3478 24.1368 40.4768 24.0825 40.6098 24.0265C42.1275 23.3337 43.3765 22.1846 44.2968 20.7959Z" fill="#FBC6C6"/>
<path d="M6.68705 23.0594C7.17527 23.2464 7.64088 23.4642 8.10858 23.698C10.6859 24.9647 13.4895 25.0844 16.2976 24.5345C16.6637 24.4754 17.0045 24.4636 17.3746 24.4741C17.5697 27.7155 16.3071 30.7204 14.328 33.2629C14.1128 33.5289 14.1128 33.5289 14.0611 33.9172C14.1585 34.4835 14.3873 34.7549 14.7582 35.1805C15.3428 36.0305 15.484 36.906 15.4761 37.9225C15.4756 38.039 15.4751 38.1555 15.4746 38.2755C15.4378 39.6637 15.0195 40.8689 14.3775 42.0959C14.1194 42.6248 14.0093 42.8565 14.1402 43.431C14.3627 43.7298 14.6052 43.9971 14.8598 44.2687C15.7519 45.2593 16.1541 46.3481 16.2496 47.675C16.2659 47.8764 16.2659 47.8764 16.2825 48.0818C16.3629 49.9142 15.7437 51.5595 14.7027 53.0509C14.2772 53.4789 12.6931 53.2512 12.0898 53.2574C11.812 53.2612 11.5341 53.2669 11.2564 53.2748C10.8551 53.2861 10.4541 53.2907 10.0527 53.294C9.92977 53.2987 9.80682 53.3033 9.68015 53.3082C8.80624 53.3053 8.38016 53.0622 7.75868 52.4488C6.45306 51.0352 6.18525 49.6577 6.21409 47.764C6.26812 46.6707 6.62307 45.5403 7.10893 44.5627C7.19964 43.8033 6.95736 43.4013 6.51127 42.8209C5.25802 41.0985 4.86734 39.4759 4.99955 37.3478C5.21277 36.0211 5.91017 34.8027 6.73979 33.7669C7.01508 33.4088 7.10795 33.2497 7.20561 32.7943C7.07398 32.2526 6.81381 32.0638 6.4058 31.6891C5.22479 30.4189 4.91487 28.8683 4.94328 27.1764C5.00719 25.5978 5.55894 24.1943 6.68705 23.0594Z" fill="#FE9393"/>
<path d="M42.3809 49.6953C42.5684 49.6975 42.7559 49.6994 42.9434 49.7011C43.3947 49.706 43.8458 49.713 44.2969 49.7218C44.2409 49.8553 44.1849 49.9888 44.1272 50.1264C42.8649 53.1832 42.2916 56.7011 43.414 59.9152C43.7375 60.9456 43.3675 61.6222 42.8995 62.5513C42.8327 62.6909 42.7659 62.8305 42.697 62.9743C42.4844 63.4161 42.2663 63.8547 42.0469 64.2931C41.9558 64.4765 41.8648 64.6599 41.7739 64.8433C41.5372 65.3204 41.3 65.7971 41.0626 66.2737C40.277 66.3088 39.4918 66.3344 38.7056 66.3514C38.4385 66.3585 38.1714 66.3682 37.9045 66.3804C35.688 66.4797 35.688 66.4797 35.0857 65.9842C34.8621 65.6139 34.7226 65.2715 34.5938 64.859C34.5122 64.7033 34.4307 64.5475 34.3466 64.3871C32.9758 61.3218 32.5754 57.3323 33.6094 54.1074C34.276 52.3595 35.3923 51.3174 37.0778 50.5392C38.8125 49.8622 40.5317 49.6584 42.3809 49.6953Z" fill="#FD9393"/>
<path d="M10.3433 54.4568C11.2714 54.4568 12.1996 54.4568 13.1558 54.4568C13.4778 56.1166 13.7781 57.9653 13.0152 59.5497C12.7055 59.9235 12.5163 60.0764 12.0413 60.1675C11.5479 60.1993 11.239 60.1411 10.7916 59.921C9.91616 58.8642 9.9751 57.4625 10.0621 56.1544C10.1351 55.5816 10.2333 55.0241 10.3433 54.4568Z" fill="#FC9292"/>
<path d="M55.1978 42.7265C55.3362 42.7256 55.4745 42.7246 55.617 42.7236C58.5166 42.7303 61.2762 43.8421 63.4127 45.8151C63.5253 45.9183 63.6378 46.0216 63.7537 46.128C65.5713 47.8729 66.6581 50.0054 67.3036 52.4203C67.3337 52.53 67.3638 52.6398 67.3948 52.7528C68.0979 55.8572 67.2293 59.1821 65.6013 61.8389C63.6804 64.7358 60.9097 66.5484 57.5764 67.3432C54.3446 67.9629 51.0889 67.2614 48.3304 65.5194C47.9961 65.283 47.6785 65.0356 47.3629 64.7745C47.2444 64.6767 47.1259 64.579 47.0039 64.4783C44.7718 62.5658 43.2054 59.6853 42.884 56.7356C42.8413 56.1361 42.8417 55.5363 42.8413 54.9355C42.8391 54.7372 42.8391 54.7372 42.8368 54.5348C42.8354 53.7528 42.9025 53.0519 43.1073 52.298C43.133 52.1852 43.1587 52.0725 43.1852 51.9563C43.714 49.8659 44.75 48.162 46.147 46.549C46.2127 46.4725 46.2784 46.396 46.346 46.3172C48.5975 43.8811 51.962 42.7044 55.1978 42.7265Z" fill="#56B9D8"/>
<path d="M55.7646 46.7549C56.3504 47.0204 56.6996 47.2884 56.9686 47.8945C57.0413 48.3834 57.0743 48.8685 57.0902 49.3623C57.4435 49.5161 57.6733 49.607 58.0629 49.607C58.2141 49.4275 58.3651 49.2473 58.5032 49.0575C58.7689 48.7652 59.0303 48.6463 59.4184 48.5916C60.0308 48.5884 60.4579 48.6405 60.981 48.9954C61.4959 49.5694 61.626 49.9131 61.6151 50.6692C61.561 51.2566 61.3283 51.5939 60.8975 51.9769C60.8047 52.0425 60.7119 52.1081 60.6163 52.1757C60.6426 52.3081 60.6426 52.3081 60.6695 52.4433C60.7645 52.9211 60.7645 52.9211 60.8595 53.3989C60.9397 53.3585 61.02 53.3181 61.1026 53.2766C61.7937 53.2043 62.3365 53.2432 62.9265 53.6435C63.4142 54.1739 63.5869 54.6012 63.5762 55.3321C63.4986 55.8305 63.2514 56.2031 62.9265 56.5792C62.356 56.9966 61.7857 57.0176 61.1026 56.9461C61.0224 56.9058 60.9421 56.8654 60.8595 56.8238C60.7391 57.2275 60.6187 57.6311 60.4947 58.047C60.7354 58.1681 60.7354 58.1681 60.981 58.2916C61.3469 58.6262 61.5544 58.8269 61.6403 59.3199C61.6643 60.1207 61.5116 60.6586 60.9734 61.2655C60.4596 61.5625 59.9887 61.6165 59.4004 61.5943C58.6833 61.3932 58.3666 61.0768 57.9413 60.4934C57.6604 60.6145 57.3796 60.7356 57.0902 60.8603C57.0871 60.9475 57.0839 61.0347 57.0807 61.1246C57.0348 61.9046 56.9717 62.4435 56.4822 63.0621C55.914 63.4796 55.3645 63.6566 54.6584 63.5514C54.0166 63.2095 53.5533 62.7849 53.3209 62.0835C53.3049 61.6329 53.3003 61.2896 53.4425 60.8603C53.0413 60.7392 52.64 60.6181 52.2266 60.4934C52.1464 60.6548 52.0661 60.8163 51.9834 60.9827C51.4369 61.476 51.0312 61.6396 50.2883 61.6287C49.7309 61.552 49.3895 61.1953 49.0273 60.7915C48.6785 60.2847 48.6597 59.8756 48.7005 59.2702C48.9118 58.6997 49.1701 58.3845 49.6732 58.047C49.7535 58.047 49.8337 58.047 49.9164 58.047C49.7559 57.6837 49.5954 57.3204 49.4301 56.9461C49.342 56.9518 49.2539 56.9575 49.1631 56.9633C48.6073 56.9842 48.1962 56.9924 47.6822 56.7626C47.2106 56.3108 46.8132 55.8724 46.7147 55.2045C46.7404 54.4927 47.0449 54.0913 47.5222 53.5862C47.8968 53.2449 48.1614 53.2631 48.6549 53.2689C48.8378 53.2706 48.8378 53.2706 49.0244 53.2723C49.1182 53.2737 49.2119 53.2751 49.3085 53.2766C49.5091 52.9133 49.7097 52.55 49.9164 52.1757C49.8286 52.1555 49.7409 52.1353 49.6504 52.1145C49.1481 51.845 48.9231 51.4727 48.7005 50.9525C48.5874 50.4353 48.6617 49.9858 48.8981 49.5152C49.1739 49.0928 49.4562 48.8468 49.9164 48.6284C50.6085 48.5184 51.1459 48.606 51.7403 48.9954C52.029 49.2477 52.029 49.2477 52.2266 49.4847C52.2266 49.5654 52.2266 49.6461 52.2266 49.7293C52.6279 49.6082 53.0291 49.4871 53.4425 49.3623C53.3823 49.1807 53.3823 49.1807 53.3209 48.9954C53.2599 48.2462 53.3088 47.8792 53.8073 47.2829C54.4314 46.7298 54.9202 46.4781 55.7646 46.7549Z" fill="#202F44"/>
<path d="M60.9961 46.8013C61.1956 46.9595 61.3934 47.1198 61.5889 47.2829C61.6727 47.3475 61.7566 47.4122 61.843 47.4788C63.6954 48.977 64.9242 51.4112 65.2366 53.7658C65.4945 56.5519 64.7936 59.2709 63.048 61.4719C61.0994 63.7552 58.5788 64.9769 55.6087 65.3068C52.7558 65.3944 50.1869 64.3044 48.1214 62.3525C47.9867 62.2194 47.9867 62.2194 47.8493 62.0835C47.7733 62.0086 47.6973 61.9337 47.6189 61.8565C46.6708 60.8467 45.9621 59.485 45.5391 58.1693C45.5029 58.0633 45.4667 57.9574 45.4294 57.8482C44.7118 55.3466 45.0644 52.5305 46.2715 50.2568C47.8248 47.638 50.0072 45.962 52.918 45.1652C55.6832 44.4764 58.6897 45.154 60.9961 46.8013ZM53.6476 47.4817C53.2939 47.9824 53.2805 48.3925 53.3208 48.9954C53.381 49.177 53.381 49.177 53.4424 49.3623C52.8405 49.544 52.8405 49.544 52.2265 49.7293C52.1463 49.5678 52.066 49.4064 51.9833 49.24C51.4095 48.7219 50.9587 48.5764 50.2022 48.5864C49.7168 48.6578 49.4025 48.8915 49.0652 49.24C48.7457 49.7066 48.6266 50.1246 48.6496 50.6964C48.7455 51.1797 48.9862 51.5648 49.3084 51.931C49.6275 52.1215 49.6275 52.1215 49.9163 52.1757C49.7157 52.5389 49.5151 52.9022 49.3084 53.2765C49.1077 53.2589 48.9071 53.2412 48.7004 53.223C48.1391 53.2216 47.8453 53.2991 47.4161 53.6664C46.9751 54.1183 46.7983 54.4642 46.7018 55.0884C46.7982 55.795 47.1773 56.279 47.6821 56.7626C48.2659 57.0236 48.8008 56.9866 49.4299 56.9461C49.5904 57.3094 49.7509 57.6727 49.9163 58.047C49.826 58.0747 49.7357 58.1025 49.6427 58.1311C49.2406 58.3242 49.0714 58.5358 48.822 58.9032C48.633 59.4735 48.6342 59.9414 48.8372 60.5086C49.1495 60.9903 49.5202 61.3338 50.0379 61.5942C50.8703 61.6501 51.3796 61.5422 52.0289 60.975C52.2525 60.7583 52.2525 60.7583 52.2265 60.4934C52.6277 60.6145 53.029 60.7355 53.4424 60.8603C53.3822 61.042 53.3822 61.042 53.3208 61.2273C53.2726 61.8704 53.3336 62.2744 53.6856 62.8174C54.095 63.2249 54.4544 63.5308 55.0383 63.5896C55.6155 63.5427 56.0146 63.4056 56.4821 63.0621C57.0219 62.3799 57.0594 61.7151 57.0901 60.8603C57.371 60.7392 57.6518 60.6181 57.9412 60.4934C58.024 60.6069 58.1067 60.7204 58.192 60.8374C58.547 61.2584 58.8632 61.4436 59.4003 61.5942C60.0101 61.6264 60.5477 61.5807 61.0417 61.1967C61.5624 60.6205 61.6633 60.1084 61.653 59.3414C61.5394 58.7816 61.1708 58.3998 60.7378 58.047C60.6575 58.047 60.5773 58.047 60.4946 58.047C60.615 57.6433 60.7353 57.2397 60.8593 56.8238C60.9396 56.8642 61.0198 56.9045 61.1025 56.9461C61.7568 57.0279 62.3075 56.9903 62.8646 56.6188C63.2609 56.2687 63.4815 55.8789 63.5804 55.3579C63.6197 54.7002 63.4215 54.2981 63.048 53.7658C62.6109 53.3661 62.225 53.2593 61.6421 53.2612C61.5466 53.2609 61.4512 53.2606 61.3528 53.2603C61.0947 53.2607 61.0947 53.2607 60.8593 53.3989C60.7783 52.9911 60.6972 52.5834 60.6162 52.1757C60.7315 52.0874 60.8469 51.9991 60.9657 51.9081C61.3914 51.5455 61.5526 51.2603 61.6193 50.6949C61.655 50.0239 61.5502 49.6431 61.1025 49.1177C60.5836 48.6589 60.1064 48.5858 59.4349 48.5935C58.8832 48.6628 58.5441 48.9771 58.1996 49.3929C58.1319 49.4989 58.1319 49.4989 58.0628 49.607C57.7269 49.543 57.4152 49.4713 57.0901 49.3623C57.0869 49.2649 57.0838 49.1674 57.0806 49.067C57.0354 48.0192 57.0354 48.0192 56.4821 47.1606C55.4313 46.4298 54.5119 46.4946 53.6476 47.4817Z" fill="#A1D0E7"/>
<path d="M57.2116 50.4631C57.3109 50.5123 57.4103 50.5615 57.5127 50.6122C58.841 51.3389 59.6556 52.457 60.1297 53.8881C60.3017 55.5872 60.1026 57.0778 59.0012 58.4373C58.1021 59.3891 56.9391 60.0642 55.6186 60.1512C53.9868 60.173 52.8851 59.8273 51.6565 58.735C50.5247 57.4426 50.0907 56.3466 50.1261 54.6043C50.2165 53.3222 50.8417 52.2142 51.7438 51.3189C53.2335 50.0619 55.4066 49.5448 57.2116 50.4631Z" fill="#E98C4E"/>
<path d="M54.7652 43.9607C57.8 43.8728 60.5668 44.9753 62.8048 47.0383C64.8514 49.0451 66.1873 51.7905 66.2449 54.6878C66.2543 56.0154 66.1394 57.1504 65.723 58.4139C65.6775 58.5532 65.6321 58.6924 65.5852 58.8358C64.6026 61.6017 62.6223 63.83 60.0083 65.1415C58.4346 65.8535 56.8914 66.1889 55.1675 66.1735C55.0182 66.1724 54.869 66.1713 54.7152 66.1702C51.6895 66.1123 49.1561 64.8139 47.0351 62.6702C44.7833 60.2838 44.1314 57.2888 44.1689 54.0955C44.234 51.7678 45.3034 49.6639 46.755 47.8945C46.8503 47.7658 46.9456 47.6372 47.0438 47.5046C49.0845 45.305 51.8149 44.1258 54.7652 43.9607ZM48.4573 47.5275C48.3668 47.6073 48.2764 47.6871 48.1832 47.7693C46.4028 49.4327 45.2411 51.7791 45.1292 54.2278C45.07 57.2061 45.7115 59.708 47.7277 61.9612C47.8333 62.0844 47.8333 62.0844 47.941 62.2101C49.8354 64.2806 52.5288 65.1992 55.2663 65.3173C57.977 65.2341 60.3847 64.0643 62.3185 62.2058C62.4327 62.1046 62.4327 62.1046 62.5493 62.0013C64.419 60.2821 65.1789 57.6235 65.2918 55.1556C65.3467 52.4771 64.2495 49.9724 62.451 48.0273C60.482 46.0012 57.7929 44.9684 55.0079 44.9053C52.6129 44.9067 50.2136 45.9066 48.4573 47.5275Z" fill="#1E2F47"/>
<path d="M44.3402 66.4717C44.816 66.7613 45.1703 67.2131 45.4174 67.7102C45.4355 67.9645 45.4443 68.2196 45.4478 68.4747C45.4509 68.6115 45.454 68.7484 45.4573 68.8894C45.3667 69.8223 44.7822 70.3698 44.1635 71.0128C44.0775 71.1034 43.9916 71.1941 43.903 71.2875C43.269 71.9532 42.6225 72.6058 41.9711 73.2542C41.561 73.6638 41.175 74.0835 40.8022 74.528C40.3518 75.0296 39.868 75.4992 39.3885 75.9724C39.0403 76.318 38.7042 76.6614 38.397 77.0446C37.9412 77.5895 37.494 77.8085 36.7964 77.9181C36.156 77.9538 35.6782 77.9239 35.1431 77.5492C34.6083 77.0662 34.2858 76.6519 34.1813 75.9261C34.1324 74.9227 34.3868 74.3372 35.0463 73.592C35.2717 73.3592 35.5022 73.1332 35.7358 72.9087C35.9004 72.7471 36.0647 72.5853 36.2288 72.4233C36.3018 72.3521 36.3749 72.2809 36.4501 72.2075C36.7399 71.9132 37.0058 71.6009 37.2709 71.2842C37.7173 70.786 38.1988 70.3217 38.6724 69.8499C39.0544 69.4678 39.4303 69.0873 39.7787 68.6734C40.1627 68.2189 40.5718 67.7917 40.987 67.3661C41.053 67.2971 41.119 67.2281 41.187 67.157C42.111 66.2196 43.1105 65.9571 44.3402 66.4717Z" fill="#4596AF"/>
<path d="M63.2912 49.24C64.512 50.3036 65.1154 52.4562 65.2613 54.0319C65.4317 56.8187 64.7081 59.5267 62.878 61.6711C60.9479 63.8392 58.4792 64.9879 55.6088 65.3068C53.6096 65.3682 51.4245 64.8635 49.7948 63.6736C49.7948 63.6333 49.7948 63.5929 49.7948 63.5513C49.8645 63.5489 49.9342 63.5465 50.006 63.544C51.7835 63.484 51.7835 63.484 53.5422 63.2336C53.868 63.1731 54.0907 63.1376 54.3848 63.3067C54.8534 63.5162 55.2813 63.5033 55.7679 63.3449C56.1876 63.1586 56.4386 62.9978 56.7178 62.6263C56.8969 62.0432 56.9374 61.4677 56.9686 60.8603C57.3297 60.6988 57.6908 60.5374 58.0629 60.371C58.1256 60.4846 58.1883 60.5981 58.2529 60.715C58.5467 61.1497 58.8877 61.3703 59.4004 61.4719C59.9951 61.4943 60.4635 61.4392 60.981 61.1355C61.4659 60.5868 61.5341 60.0509 61.5234 59.3327C61.4295 58.8181 61.1264 58.5004 60.7378 58.1693C60.6576 58.1289 60.5773 58.0885 60.4947 58.047C60.569 57.6109 60.6917 57.232 60.8594 56.8238C60.9461 56.8294 61.0328 56.8351 61.1221 56.841C61.9226 56.8713 62.4117 56.8413 63.048 56.3345C63.3831 55.8561 63.4542 55.4505 63.4613 54.882C63.4215 54.5949 63.4215 54.5949 63.2214 54.2694C63.0167 53.8192 63.0437 53.6463 63.1468 53.1695C63.3738 51.8697 63.3122 50.5552 63.2912 49.24Z" fill="#80A7B9"/>
<path d="M43.0693 66.2118C43.2054 66.2146 43.2054 66.2146 43.3443 66.2175C43.5936 66.2424 43.5936 66.2424 43.9584 66.3647C44.0127 67.1289 43.9324 67.6897 43.472 68.3218C43.1156 68.7069 42.7469 69.0746 42.3701 69.4394C42.101 69.7003 41.8502 69.9673 41.6102 70.256C41.1148 70.8429 40.564 71.3757 40.018 71.9144C39.6397 72.2898 39.2747 72.6696 38.9276 73.0746C38.4192 73.6671 37.8786 74.2252 37.3318 74.7818C37.2326 74.8851 37.1333 74.9885 37.0311 75.095C36.407 75.7294 35.9142 76.2071 35.0031 76.3084C34.9114 76.3041 34.8197 76.2999 34.7252 76.2955C34.6313 76.2922 34.5374 76.2888 34.4407 76.2854C34.3716 76.2812 34.3025 76.2769 34.2312 76.2725C34.2145 76.0486 34.2029 75.8242 34.1932 75.5998C34.1862 75.4749 34.1791 75.35 34.1719 75.2214C34.3124 74.2355 35.0481 73.5696 35.7359 72.9088C35.9005 72.7472 36.0648 72.5854 36.2289 72.4233C36.3019 72.3521 36.375 72.2809 36.4502 72.2076C36.74 71.9132 37.0058 71.601 37.271 71.2842C37.7174 70.786 38.1989 70.3217 38.6725 69.8499C39.0545 69.4679 39.4304 69.0873 39.7788 68.6735C40.1627 68.2189 40.5719 67.7917 40.9871 67.3662C41.0531 67.2972 41.1191 67.2282 41.1871 67.1571C41.7297 66.6066 42.2615 66.1834 43.0693 66.2118Z" fill="#58BBDA"/>
<path d="M57.2116 50.4631C57.3109 50.5123 57.4103 50.5615 57.5127 50.6122C58.841 51.3389 59.6556 52.457 60.1297 53.8881C60.3017 55.5872 60.1026 57.0778 59.0012 58.4373C58.1021 59.3891 56.9391 60.0642 55.6186 60.1512C53.9868 60.173 52.8851 59.8273 51.6565 58.735C50.5247 57.4426 50.0907 56.3466 50.1261 54.6043C50.2165 53.3222 50.8417 52.2142 51.7438 51.3189C53.2335 50.0619 55.4066 49.5448 57.2116 50.4631ZM52.7128 51.6863C52.6291 51.7407 52.5454 51.7951 52.4591 51.8512C51.7291 52.4012 51.1671 53.3496 51.0105 54.255C50.8949 55.6446 51.1235 56.8524 52.0122 57.9514C52.8598 58.8135 53.8659 59.2796 55.061 59.3236C56.2512 59.2917 57.3307 58.8983 58.1843 58.0469C59.1816 56.8295 59.3822 55.8208 59.2786 54.255C59.0933 53.1742 58.421 52.2788 57.5787 51.6032C56.0297 50.5844 54.2279 50.6894 52.7128 51.6863Z" fill="#F4E140"/>
<path d="M57.3333 51.4418C58.2151 52.0781 58.9513 52.8474 59.2303 53.9264C59.3985 55.0674 59.4185 56.194 58.7924 57.1908C58.7408 57.2759 58.6893 57.3611 58.6361 57.4488C58.0469 58.3272 57.1899 58.9162 56.1797 59.2124C54.8193 59.4699 53.6964 59.2274 52.5609 58.4522C51.754 57.7994 51.2021 56.8687 51.0107 55.8453C50.871 54.4659 51.148 53.3619 52.0119 52.2755C52.3988 51.8752 52.841 51.5947 53.3209 51.3195C53.4463 51.2438 53.5717 51.1681 53.7008 51.0901C54.8249 50.6509 56.3034 50.8551 57.3333 51.4418ZM52.4698 53.2766C51.9508 54.0773 51.8458 54.9067 51.9834 55.8453C52.3174 56.9324 53.0086 57.5915 53.9592 58.1617C54.9273 58.4376 55.8381 58.4081 56.7377 57.9409C57.4527 57.5118 57.857 57.014 58.2149 56.2581C58.4565 55.1642 58.3978 54.1234 57.7974 53.1705C57.3261 52.5447 56.7412 52.1582 55.9958 51.931C54.4854 51.7364 53.4141 52.0644 52.4698 53.2766Z" fill="#222F42"/>
<path d="M57.2117 52.6649C57.8612 53.283 58.2558 53.8048 58.335 54.7075C58.3606 55.7477 58.1486 56.4068 57.6145 57.2825C56.8151 58.0649 55.8986 58.3426 54.8065 58.3346C54.0989 58.2568 53.4393 57.9751 52.9831 57.4143C52.9341 57.3405 52.885 57.2668 52.8345 57.1907C52.9257 57.1964 53.0169 57.2021 53.1109 57.2079C54.2756 57.2492 55.1307 57.0468 56.0414 56.2963C56.7697 55.6034 57.1876 54.7749 57.2259 53.7524C57.2268 53.3895 57.2223 53.0276 57.2117 52.6649Z" fill="#BA703E"/>
<path d="M53.8452 52.6802C54.0504 52.7872 54.0504 52.7872 54.172 52.9095C54.2807 53.9121 53.914 54.6342 53.3284 55.4324C52.9911 55.6586 52.7445 55.6368 52.3481 55.6005C52.164 55.23 52.1624 54.9001 52.2265 54.4997C52.4791 53.7965 52.9549 52.6318 53.8452 52.6802Z" fill="#FEFBF9"/>
<path d="M50.5242 46.549C50.6045 46.5893 50.6847 46.6297 50.7674 46.6713C50.6733 46.7542 50.5793 46.8371 50.4824 46.9226C48.5283 48.6684 47.2017 50.8249 46.0254 53.1542C45.9853 53.1542 45.9451 53.1542 45.9038 53.1542C46.031 50.9359 47.5363 49.013 49.1132 47.5742C49.5554 47.1911 50.0289 46.8583 50.5242 46.549Z" fill="#F7FBFD"/>
<path d="M42.8318 66.5254C42.9226 66.5531 43.0135 66.5808 43.1071 66.6093C43.1908 66.8846 43.1908 66.8846 43.2287 67.2209C43.0847 67.47 43.0847 67.47 42.863 67.7088C42.7431 67.8382 42.7431 67.8382 42.6208 67.9704C42.5355 68.0586 42.4502 68.1468 42.3624 68.2377C42.2799 68.3283 42.1975 68.4189 42.1126 68.5122C41.4913 69.1692 41.4913 69.1692 41.0796 69.2111C40.7969 69.178 40.7969 69.178 40.6753 69.0557C40.6131 68.7418 40.6131 68.7418 40.6753 68.3218C40.9271 67.9572 41.2327 67.6587 41.5493 67.3509C41.6311 67.2657 41.713 67.1804 41.7974 67.0926C41.9179 66.9728 41.9179 66.9728 42.0408 66.8506C42.1141 66.7778 42.1873 66.7049 42.2627 66.6299C42.4992 66.487 42.4992 66.487 42.8318 66.5254Z" fill="#F9FCFD"/>
<path d="M45.4175 64.4075C45.8404 64.5928 46.1417 64.845 46.4814 65.1567C46.5786 65.2453 46.6758 65.3339 46.7759 65.4252C46.8493 65.493 46.9226 65.5608 46.9982 65.6307C46.8848 65.7688 46.7707 65.9062 46.6562 66.0435C46.5927 66.1201 46.5293 66.1967 46.4639 66.2757C46.2687 66.4869 46.2687 66.4869 45.9039 66.7315C45.8277 66.6623 45.7515 66.5931 45.6731 66.5218C45.5737 66.4321 45.4743 66.3423 45.3719 66.2499C45.2238 66.1158 45.2238 66.1158 45.0727 65.979C44.8267 65.7493 44.8267 65.7493 44.5664 65.6307C44.7692 65.1486 45.0804 64.8002 45.4175 64.4075Z" fill="#9ECDE4"/>
<path d="M61.6269 54.2168C62.0753 54.255 62.0753 54.255 62.3717 54.4538C62.619 54.832 62.6353 55.0334 62.5616 55.4782C62.3717 55.7687 62.3717 55.7687 62.0753 55.9675C61.6269 56.0057 61.6269 56.0057 61.2242 55.9675C61.1026 55.8452 61.1026 55.8452 61.0864 55.5164C61.0867 55.3827 61.0871 55.249 61.0874 55.1113C61.0871 54.9775 61.0867 54.8438 61.0864 54.7061C61.1102 54.2228 61.136 54.2634 61.6269 54.2168Z" fill="#F2DF40"/>
<path d="M55.5094 47.6499C55.7982 47.841 55.7982 47.841 55.9958 48.1392C56.0337 48.5902 56.0337 48.5902 55.9958 48.9954C55.8742 49.1177 55.8742 49.1177 55.5431 49.1297C55.3421 49.1275 55.3421 49.1275 55.137 49.1254C54.9355 49.1237 54.9355 49.1237 54.73 49.122C54.6261 49.1206 54.5222 49.1192 54.4151 49.1177C54.2424 48.7702 54.2553 48.5239 54.2935 48.1392C54.6316 47.642 54.9242 47.5518 55.5094 47.6499Z" fill="#F3E040"/>
<path d="M60.0993 58.9032C60.3729 59.0255 60.3729 59.0255 60.6161 59.2702C60.6687 59.7462 60.6864 60.0203 60.4185 60.4245C60.0426 60.6734 59.8423 60.6898 59.4002 60.6157C59.1038 60.4016 59.1038 60.4016 58.9138 60.1264C58.9725 59.6314 59.2204 59.3753 59.5674 59.0422C59.7649 58.9032 59.7649 58.9032 60.0993 58.9032Z" fill="#F5E140"/>
<path d="M60.13 49.6069C60.4188 49.8057 60.4188 49.8057 60.6163 50.0962C60.6798 50.5342 60.6702 50.7444 60.434 51.1206C60.3738 51.1862 60.3136 51.2518 60.2516 51.3194C59.6983 51.2867 59.4133 51.0544 59.0485 50.6619C58.9141 50.4632 58.9141 50.4632 58.9065 50.1268C59.1695 49.5665 59.5697 49.5379 60.13 49.6069Z" fill="#F5E140"/>
<path d="M54.7419 61.0886C54.8748 61.0889 55.0077 61.0893 55.1447 61.0896C55.2776 61.0893 55.4105 61.0889 55.5474 61.0886C55.8742 61.1049 55.8742 61.1049 55.9958 61.2272C56.0399 61.6975 56.0583 61.9829 55.8058 62.3892C55.5095 62.5727 55.5095 62.5727 55.0763 62.5727C54.6583 62.4504 54.6583 62.4504 54.4227 62.244C54.259 61.8855 54.2591 61.6173 54.2936 61.2272C54.4151 61.1049 54.4151 61.1049 54.7419 61.0886Z" fill="#F5E240"/>
<path d="M50.4004 58.928C50.8235 59.096 51.1159 59.3874 51.3755 59.7594C51.3831 60.0958 51.3831 60.0958 51.2539 60.371C50.8288 60.6561 50.6597 60.6875 50.1596 60.6157C49.8632 60.3634 49.8632 60.3634 49.6732 60.0041C49.6808 59.553 49.6808 59.553 49.7948 59.1478C50.1596 58.9032 50.1596 58.9032 50.4004 58.928Z" fill="#F6E240"/>
<path d="M50.8889 49.6068C51.1777 49.7903 51.1777 49.7903 51.3753 49.9738C51.3427 50.5304 51.1119 50.8171 50.7217 51.1841C50.5242 51.3193 50.5242 51.3193 50.1898 51.327C49.9162 51.197 49.9162 51.197 49.673 50.83C49.6169 50.3878 49.6178 50.1773 49.8706 49.8056C50.2439 49.5487 50.4446 49.5417 50.8889 49.6068Z" fill="#F6E240"/>
<path d="M49.0651 54.2551C49.1867 54.3775 49.1867 54.3775 49.2028 54.7062C49.2025 54.8399 49.2022 54.9736 49.2019 55.1114C49.2022 55.2451 49.2025 55.3788 49.2028 55.5165C49.1867 55.8453 49.1867 55.8453 49.0651 55.9676C48.3208 56.0231 48.3208 56.0231 47.9784 55.8453C47.7691 55.4489 47.7848 55.06 47.8492 54.6221C48.1135 54.1215 48.5542 54.2171 49.0651 54.2551Z" fill="#F8E440"/>
<path d="M57.9412 60.3711C58.0616 60.5326 58.182 60.694 58.306 60.8604C58.1362 61.2883 57.9762 61.4364 57.5613 61.6249C57.4732 61.6659 57.3851 61.7069 57.2943 61.7491C57.1932 61.7936 57.1932 61.7936 57.0901 61.8389C57.05 61.516 57.0098 61.1931 56.9685 60.8604C57.2895 60.6989 57.6105 60.5374 57.9412 60.3711Z" fill="#9ECDE4"/>
<path d="M60.8594 56.8237C61.1403 56.9045 61.4211 56.9852 61.7105 57.0684C61.5586 57.4915 61.3852 57.8203 61.1026 58.1692C60.902 58.1289 60.7013 58.0885 60.4946 58.0469C60.5688 57.6117 60.6865 57.2295 60.8594 56.8237Z" fill="#9ECCE3"/>
<path d="M52.5912 53.1542C52.6714 53.1542 52.7517 53.1542 52.8343 53.1542C52.7225 53.4996 52.6114 53.8405 52.4696 54.1748C52.3403 54.5202 52.2722 54.847 52.2112 55.2107C52.1908 55.33 52.1705 55.4494 52.1495 55.5724C52.1347 55.6624 52.12 55.7524 52.1048 55.8452C52.0647 55.8452 52.0246 55.8452 51.9832 55.8452C51.9014 54.7809 52.0303 54.065 52.5912 53.1542Z" fill="#D8854E"/>
</svg>
