<svg id="icons" xmlns="http://www.w3.org/2000/svg" width="15" height="12" viewBox="0 0 15 12">
  <path id="email" d="M12.5,3H2.5A2.6,2.6,0,0,0,0,5.667v6.667A2.6,2.6,0,0,0,2.5,15h10A2.6,2.6,0,0,0,15,12.333V5.667A2.6,2.6,0,0,0,12.5,3Zm1,3.867L8.563,10.4a2.012,2.012,0,0,1-1.062.333A2.012,2.012,0,0,1,6.438,10.4L1.5,6.867a.738.738,0,0,1-.125-.933A.633.633,0,0,1,2.25,5.8L7.187,9.333a.641.641,0,0,0,.688,0L12.812,5.8a.593.593,0,0,1,.875.2A.76.76,0,0,1,13.5,6.867Z" transform="translate(0 -3)" fill="#1acd81"/>
</svg>
