<svg width="22" height="19" viewBox="0 0 22 19" fill="none" xmlns="http://www.w3.org/2000/svg">
<path d="M21.3498 17.6644L16.0998 7.16437C16.0375 7.03982 15.9417 6.93506 15.8232 6.86185C15.7048 6.78864 15.5682 6.74986 15.429 6.74986C15.2897 6.74986 15.1532 6.78864 15.0347 6.86185C14.9162 6.93506 14.8205 7.03982 14.7582 7.16437L12.7229 11.2359C11.1275 11.1462 9.59257 10.5952 8.30444 9.64969C9.81577 8.03575 10.7315 5.95463 10.9004 3.75H13.1794C13.3784 3.75 13.5691 3.67098 13.7098 3.53033C13.8504 3.38968 13.9294 3.19891 13.9294 3C13.9294 2.80109 13.8504 2.61032 13.7098 2.46967C13.5691 2.32902 13.3784 2.25 13.1794 2.25H7.92944V0.75C7.92944 0.551088 7.85043 0.360322 7.70977 0.21967C7.56912 0.0790176 7.37836 0 7.17944 0C6.98053 0 6.78977 0.0790176 6.64911 0.21967C6.50846 0.360322 6.42944 0.551088 6.42944 0.75V2.25H1.17944C0.980531 2.25 0.789766 2.32902 0.649113 2.46967C0.508461 2.61032 0.429443 2.80109 0.429443 3C0.429443 3.19891 0.508461 3.38968 0.649113 3.53033C0.789766 3.67098 0.980531 3.75 1.17944 3.75H9.39476C9.22771 5.58811 8.44746 7.31667 7.17944 8.65781C6.38928 7.82406 5.7825 6.83406 5.39819 5.75156C5.36659 5.65712 5.3165 5.56991 5.25083 5.49503C5.18517 5.42015 5.10525 5.3591 5.01573 5.31544C4.92622 5.27178 4.82891 5.24639 4.72947 5.24074C4.63004 5.23509 4.53048 5.24931 4.4366 5.28255C4.34272 5.3158 4.2564 5.36741 4.18268 5.43437C4.10896 5.50133 4.04931 5.58231 4.00722 5.67257C3.96513 5.76283 3.94144 5.86057 3.93753 5.96009C3.93362 6.0596 3.94957 6.1589 3.98444 6.25219C4.43188 7.51769 5.1367 8.67674 6.05444 9.65625C4.64141 10.6946 2.93297 11.2531 1.17944 11.25C0.980531 11.25 0.789766 11.329 0.649113 11.4697C0.508461 11.6103 0.429443 11.8011 0.429443 12C0.429443 12.1989 0.508461 12.3897 0.649113 12.5303C0.789766 12.671 0.980531 12.75 1.17944 12.75C3.35499 12.7524 5.46819 12.0234 7.17944 10.68C8.57592 11.7711 10.243 12.4617 12.0019 12.6778L9.50819 17.6644C9.46412 17.7525 9.43783 17.8484 9.43081 17.9466C9.42381 18.0449 9.43622 18.1435 9.46734 18.237C9.53019 18.4257 9.66545 18.5818 9.84335 18.6708C10.0213 18.7598 10.2272 18.7745 10.416 18.7116C10.6047 18.6488 10.7607 18.5135 10.8498 18.3356L12.1426 15.75H18.7154L20.0082 18.3356C20.0705 18.4602 20.1664 18.565 20.2849 18.6382C20.4035 18.7114 20.5401 18.7501 20.6794 18.75C20.8073 18.7499 20.933 18.7172 21.0446 18.6549C21.1562 18.5926 21.25 18.5028 21.3172 18.394C21.3844 18.2853 21.4226 18.1611 21.4283 18.0334C21.434 17.9057 21.407 17.7787 21.3498 17.6644ZM12.8926 14.25L15.4294 9.17719L17.9654 14.25H12.8926Z" fill="white"/>
</svg>
