<svg width="22" height="21" viewBox="0 0 22 21" fill="none" xmlns="http://www.w3.org/2000/svg">
<path d="M11.0567 21.0048H0.429443C0.429443 15.0157 0.429443 9.02495 0.429443 3.03588C0.543537 2.84572 0.715504 2.79115 0.932115 2.79115C2.54596 2.79611 4.1598 2.79446 5.77364 2.79446H6.02332C6.02332 2.69029 6.02332 2.61588 6.02332 2.53982C6.02332 1.84864 6.02167 1.15912 6.02332 0.467948C6.02498 0.122361 6.15065 0 6.49458 0C7.91661 0 9.33865 0 10.7607 0C11.1856 0 11.2915 0.105826 11.2915 0.530782C11.2915 1.73455 11.2915 2.93666 11.2915 4.14043C11.2915 4.21153 11.2981 4.28264 11.2997 4.33059C11.4419 4.27106 11.5676 4.20327 11.6999 4.16854C13.3584 3.72209 15.0185 3.27894 16.6787 2.83745C17.0226 2.74651 17.1631 2.83249 17.2557 3.18635C18.6348 8.4611 20.0122 13.7375 21.3896 19.0123C21.4904 19.3992 21.411 19.5331 21.0241 19.6373C19.8253 19.9564 18.6249 20.2722 17.4277 20.593C16.9432 20.7237 16.462 20.8659 15.9792 21.0031H15.7328C15.5675 20.9188 15.4964 20.7733 15.4517 20.6013C14.205 15.8127 12.9582 11.0241 11.7098 6.2371C11.5858 5.75923 11.4585 5.28302 11.3311 4.80515C11.3179 4.8068 11.3047 4.80846 11.2915 4.81176V5.05318C11.2915 10.1874 11.2915 15.3216 11.2931 20.4558C11.2931 20.6807 11.2584 20.8741 11.055 21.0031L11.0567 21.0048ZM10.5606 16.7833V4.56208H6.75418V16.7833H10.5606ZM1.14211 5.25656V15.7399H6.00844V5.25656H1.14211ZM19.5624 14.8123C18.8828 12.203 18.2115 9.62683 17.5335 7.03245C16.0024 7.44087 14.491 7.84433 12.9665 8.24945C13.6461 10.8554 14.3191 13.4366 14.9954 16.0293C16.5298 15.6192 18.0362 15.2191 19.5624 14.8123ZM1.14211 18.2202V20.2937H6.0101V18.2202H1.14211ZM20.2767 17.5489C18.7489 17.9557 17.2392 18.3591 15.7113 18.7659C15.8403 19.2603 15.9627 19.7315 16.09 20.2193C17.6228 19.8109 19.1341 19.4074 20.657 19.0007C20.5264 18.5046 20.404 18.0317 20.2767 17.5489ZM12.0653 4.80184C12.1827 5.24995 12.2985 5.66168 12.3977 6.08002C12.4307 6.22222 12.4754 6.24868 12.6192 6.21065C13.8941 5.86506 15.1723 5.52774 16.4488 5.18877C16.6357 5.13916 16.8225 5.08625 17.016 5.03499C16.8853 4.53893 16.7597 4.06933 16.6324 3.5865C15.0995 3.99492 13.5932 4.39673 12.067 4.80515L12.0653 4.80184ZM15.5311 18.0813C17.0672 17.6712 18.5769 17.2694 20.0998 16.8627C19.9758 16.3898 19.8584 15.9466 19.7393 15.4969C18.2082 15.9053 16.7018 16.3071 15.1772 16.7155C15.2963 17.1735 15.4104 17.6134 15.5311 18.0813ZM10.5656 0.711017H6.75749V2.08014H10.5656V0.711017ZM6.74922 20.2921H10.5573V18.9213H6.74922V20.2921ZM6.0134 3.52201H1.14211V4.53893H6.0134V3.52201ZM1.13881 16.4609V17.4811H6.0101V16.4609H1.13881ZM10.5639 2.81596H6.75749V3.83784H10.5639V2.81596ZM12.7896 7.56489C14.3273 7.15316 15.8337 6.75135 17.3533 6.34458C17.2971 6.12962 17.2442 5.93451 17.1879 5.72286C15.6568 6.13128 14.1438 6.53474 12.6242 6.94151C12.6804 7.15647 12.7333 7.35158 12.7896 7.56489ZM6.74922 18.1871H10.5623V17.5257H6.74922V18.1871Z" fill="white"/>
<path d="M3.58113 9.80371C3.14294 9.80371 2.70641 9.80371 2.26823 9.80371C1.95902 9.80371 1.82839 9.67473 1.82839 9.37048C1.82674 8.48915 1.82674 7.60617 1.82839 6.72484C1.82839 6.44209 1.95406 6.30154 2.23846 6.29988C3.13467 6.29327 4.03089 6.29327 4.92544 6.29988C5.20489 6.30154 5.33717 6.44209 5.33883 6.72649C5.34379 7.60782 5.34379 8.49081 5.33883 9.37214C5.33717 9.67804 5.19993 9.80371 4.89403 9.80536C4.45584 9.80701 4.01931 9.80536 3.58113 9.80536V9.80371ZM2.53941 9.08938H4.60466V7.02247H2.53941V9.08938Z" fill="white"/>
</svg>
