<svg width="135" height="57" viewBox="0 0 135 57" fill="none" xmlns="http://www.w3.org/2000/svg">
<path d="M17.4434 42.7513C17.4434 48.7494 22.3051 53.6137 28.3032 53.6137C34.3013 53.6137 39.1656 48.7519 39.1656 42.7513V39.1679H17.4434V42.7513Z" stroke="#A057A2" stroke-width="5" stroke-miterlimit="10"/>
<path d="M13.8599 39.168C7.86177 39.168 3 34.3063 3 28.3082C3 22.3101 7.86177 17.4483 13.8599 17.4483H17.4433V39.1705H13.8599V39.168Z" stroke="#A057A2" stroke-width="5" stroke-miterlimit="10"/>
<path d="M42.749 17.4458H39.1656V13.8624C39.1656 7.86426 34.3038 3 28.3057 3C22.3076 3 17.4434 7.86177 17.4434 13.8624V39.168H42.749C48.7471 39.168 53.6089 34.3062 53.6089 28.3081C53.6089 22.31 48.7471 17.4458 42.749 17.4458Z" stroke="#EE2D6C" stroke-width="5" stroke-miterlimit="10"/>
<path d="M65.0865 37.9565V38.6542H62.8279V40.1933H64.5883V40.8937H62.8279V43.1739H61.9561V37.9565H65.0865Z" fill="#30495E"/>
<path d="M65.8618 39.9887C66.0325 39.676 66.2618 39.4322 66.5552 39.2599C66.8486 39.0876 67.1713 39.0002 67.526 39.0002C67.846 39.0002 68.1261 39.0638 68.3634 39.1883C68.6008 39.3129 68.7928 39.4693 68.9342 39.6548V39.0691H69.7823V43.1078H68.9342V42.5063C68.7928 42.6971 68.5981 42.8561 68.3528 42.9833C68.1074 43.1105 67.8274 43.1741 67.5127 43.1741C67.1633 43.1741 66.8432 43.084 66.5525 42.9064C66.2618 42.7289 66.0325 42.4798 65.8618 42.1591C65.6911 41.8384 65.6084 41.4754 65.6084 41.0699C65.6084 40.6644 65.6937 40.304 65.8618 39.9913M68.7608 40.3544C68.6462 40.1503 68.4941 39.994 68.3074 39.8853C68.1207 39.7793 67.9181 39.7237 67.702 39.7237C67.486 39.7237 67.2833 39.7767 67.0966 39.8827C66.9099 39.9887 66.7579 40.1424 66.6432 40.3438C66.5285 40.5478 66.4699 40.7864 66.4699 41.0673C66.4699 41.3482 66.5285 41.5893 66.6432 41.7987C66.7579 42.008 66.9099 42.1697 67.0993 42.2784C67.2886 42.3897 67.4887 42.4427 67.6994 42.4427C67.9101 42.4427 68.1181 42.3897 68.3048 42.281C68.4915 42.175 68.6435 42.016 68.7582 41.8093C68.8729 41.6026 68.9315 41.3588 68.9315 41.0805C68.9315 40.8023 68.8729 40.5611 68.7582 40.3544" fill="#30495E"/>
<path d="M77.2903 39.2048C77.5511 39.3395 77.757 39.5388 77.9052 39.8C78.0534 40.0639 78.1303 40.3816 78.1303 40.7532V43.1741H77.2739V40.8798C77.2739 40.5109 77.1805 40.2308 76.9939 40.0342C76.8072 39.8377 76.552 39.7407 76.2281 39.7407C75.9042 39.7407 75.6461 39.8377 75.4567 40.0342C75.2674 40.2308 75.1713 40.5109 75.1713 40.8798V43.1741H74.3149V40.8798C74.3149 40.5109 74.2216 40.2308 74.0349 40.0342C73.8482 39.8377 73.593 39.7407 73.2691 39.7407C72.9452 39.7407 72.6872 39.8377 72.4978 40.0342C72.3084 40.2308 72.2123 40.5109 72.2123 40.8798V43.1741H71.3477V39.0702H72.2123V39.5388C72.355 39.3691 72.5334 39.2398 72.7503 39.1429C72.9671 39.0487 73.2005 39.0029 73.4475 39.0029C73.7824 39.0029 74.0816 39.0729 74.3423 39.2102C74.6058 39.3503 74.809 39.5495 74.9489 39.8134C75.0752 39.5657 75.2728 39.3664 75.5418 39.221C75.8108 39.0756 76.0991 39.0002 76.4065 39.0002C76.7359 39.0002 77.0296 39.0675 77.2903 39.2021" fill="#30495E"/>
<path d="M79.3248 38.3671C79.2233 38.2621 79.1738 38.1327 79.1738 37.9791C79.1738 37.8256 79.2233 37.6962 79.3248 37.5911C79.4262 37.4861 79.5511 37.4349 79.6995 37.4349C79.8478 37.4349 79.9649 37.4861 80.0664 37.5911C80.1679 37.6962 80.2173 37.8256 80.2173 37.9791C80.2173 38.1327 80.1679 38.2621 80.0664 38.3671C79.9649 38.4722 79.8426 38.5234 79.6995 38.5234C79.5563 38.5234 79.4262 38.4722 79.3248 38.3671ZM80.1028 43.174H79.2831V39.0677H80.1028V43.174Z" fill="#30495E"/>
<path d="M81.7825 37.4349H81.2607V43.174H81.7825V37.4349Z" fill="#30495E"/>
<path d="M86.9991 39.0002L84.4856 45.2611H83.6056L84.4399 43.1881L82.8252 39.0002H83.7698L84.9243 42.2466L86.1218 39.0002H86.9991Z" fill="#30495E"/>
<path d="M93.7823 37.9565V43.1739H92.9258V40.8937H90.4677V43.1739H89.6084V37.9565H90.4677V40.1933H92.9258V37.9565H93.7823Z" fill="#30495E"/>
<path d="M98.963 41.4H95.7262C95.7512 41.7236 95.8763 41.9808 96.1043 42.177C96.3296 42.3733 96.6077 42.4714 96.9358 42.4714C97.4085 42.4714 97.7394 42.2831 97.9369 41.9065H98.8823C98.7544 42.2778 98.5236 42.5827 98.1871 42.8188C97.8507 43.0548 97.4335 43.1741 96.9386 43.1741C96.5326 43.1741 96.1711 43.0866 95.8513 42.9142C95.5315 42.7419 95.2785 42.4952 95.0977 42.1797C94.917 41.8641 94.8252 41.4982 94.8252 41.0818C94.8252 40.6655 94.9142 40.2996 95.0894 39.9866C95.2673 39.6711 95.5148 39.4271 95.8346 39.2574C96.1544 39.085 96.5242 39.0002 96.9386 39.0002C97.3529 39.0002 97.6949 39.0824 98.0064 39.2495C98.3178 39.4165 98.5625 39.6499 98.7377 39.9495C98.9129 40.2492 98.9991 40.5966 98.9991 40.9864C98.9991 41.1375 98.988 41.2754 98.9685 41.3974M98.0787 40.7238C98.0731 40.4162 97.9591 40.1696 97.7311 39.984C97.5058 39.7984 97.225 39.7056 96.8941 39.7056C96.591 39.7056 96.3324 39.7984 96.1182 39.9813C95.9041 40.1643 95.7734 40.4136 95.7345 40.7265H98.0815L98.0787 40.7238Z" fill="#30495E"/>
<path d="M99.7749 39.9887C99.9455 39.676 100.175 39.4322 100.468 39.2599C100.762 39.0876 101.084 39.0002 101.439 39.0002C101.759 39.0002 102.039 39.0638 102.277 39.1883C102.514 39.3129 102.706 39.4693 102.847 39.6548V39.0691H103.695V43.1078H102.847V42.5063C102.703 42.6971 102.511 42.8561 102.266 42.9833C102.02 43.1105 101.74 43.1741 101.426 43.1741C101.076 43.1741 100.756 43.084 100.466 42.9064C100.175 42.7289 99.9455 42.4798 99.7749 42.1591C99.6042 41.8384 99.5215 41.4754 99.5215 41.0699C99.5215 40.6644 99.6068 40.304 99.7749 39.9913M102.674 40.3544C102.559 40.1503 102.407 39.994 102.221 39.8853C102.034 39.7793 101.831 39.7237 101.615 39.7237C101.399 39.7237 101.196 39.7767 101.01 39.8827C100.823 39.9887 100.671 40.1424 100.556 40.3438C100.442 40.5478 100.383 40.7864 100.383 41.0673C100.383 41.3482 100.442 41.5893 100.556 41.7987C100.671 42.008 100.823 42.1697 101.012 42.2784C101.202 42.3897 101.402 42.4427 101.612 42.4427C101.823 42.4427 102.031 42.3897 102.218 42.281C102.405 42.175 102.557 42.016 102.671 41.8093C102.786 41.6026 102.845 41.3588 102.845 41.0805C102.845 40.8023 102.786 40.5611 102.671 40.3544" fill="#30495E"/>
<path d="M105.782 37.4349H104.738V43.174H105.782V37.4349Z" fill="#30495E"/>
<path d="M107.796 39.7021V42.0148C107.796 42.171 107.835 42.2834 107.916 42.3519C107.997 42.4204 108.132 42.4533 108.327 42.4533H108.909V43.1739H108.162C107.736 43.1739 107.408 43.0835 107.183 42.8999C106.955 42.7191 106.844 42.4231 106.844 42.0121V39.6993H106.304V38.9951H106.844V37.9565H107.799V38.9951H108.912V39.6993H107.799L107.796 39.7021Z" fill="#30495E"/>
<path d="M112.835 39.0414C113.073 39.1816 113.262 39.389 113.401 39.661C113.54 39.9358 113.608 40.2666 113.608 40.6535V43.174H112.79V40.7853C112.79 40.4012 112.701 40.1096 112.523 39.9049C112.345 39.7002 112.101 39.5993 111.791 39.5993C111.482 39.5993 111.235 39.7002 111.055 39.9049C110.874 40.1096 110.782 40.4012 110.782 40.7853V43.174H109.956V37.4349H110.782V39.3975C110.921 39.218 111.099 39.0778 111.314 38.9797C111.529 38.8816 111.765 38.8339 112.022 38.8339C112.326 38.8339 112.599 38.904 112.837 39.0442" fill="#30495E"/>
<path d="M116.579 39.2223C116.824 38.8261 117.152 38.515 117.573 38.2916C117.99 38.0682 118.45 37.9565 118.948 37.9565C119.519 37.9565 120.025 38.0895 120.468 38.3581C120.914 38.6267 121.234 39.0043 121.434 39.4936H120.379C120.24 39.225 120.048 39.0229 119.803 38.8899C119.555 38.757 119.271 38.6905 118.948 38.6905C118.594 38.6905 118.277 38.7676 118.001 38.9192C117.723 39.0708 117.506 39.2888 117.35 39.5733C117.194 39.8579 117.116 40.1903 117.116 40.5652C117.116 40.9402 117.194 41.2726 117.35 41.5571C117.506 41.8417 117.723 42.0597 118.001 42.2166C118.28 42.3708 118.594 42.448 118.948 42.448C119.271 42.448 119.555 42.3815 119.803 42.2485C120.05 42.1156 120.243 41.9161 120.379 41.6449H121.434C121.234 42.1342 120.911 42.5118 120.468 42.7777C120.025 43.041 119.516 43.1739 118.948 43.1739C118.444 43.1739 117.985 43.0622 117.57 42.8389C117.155 42.6155 116.824 42.307 116.582 41.9081C116.337 41.5119 116.217 41.0625 116.217 40.5626C116.217 40.0626 116.339 39.6132 116.582 39.217" fill="#30495E"/>
<path d="M122.731 39.9887C122.902 39.676 123.131 39.4322 123.424 39.2599C123.718 39.0876 124.04 39.0002 124.395 39.0002C124.715 39.0002 124.995 39.0638 125.233 39.1883C125.47 39.3129 125.662 39.4693 125.803 39.6548V39.0691H126.651V43.1078H125.803V42.5063C125.659 42.6971 125.467 42.8561 125.222 42.9833C124.977 43.1105 124.697 43.1741 124.382 43.1741C124.032 43.1741 123.712 43.084 123.422 42.9064C123.131 42.7289 122.902 42.4798 122.731 42.1591C122.56 41.8384 122.478 41.4754 122.478 41.0699C122.478 40.6644 122.563 40.304 122.731 39.9913M125.63 40.3544C125.515 40.1503 125.363 39.994 125.177 39.8853C124.99 39.7793 124.787 39.7237 124.571 39.7237C124.355 39.7237 124.152 39.7767 123.966 39.8827C123.779 39.9887 123.627 40.1424 123.512 40.3438C123.398 40.5478 123.339 40.7864 123.339 41.0673C123.339 41.3482 123.398 41.5893 123.512 41.7987C123.627 42.008 123.782 42.1697 123.968 42.2784C124.158 42.3897 124.358 42.4427 124.568 42.4427C124.779 42.4427 124.987 42.3897 125.174 42.281C125.361 42.175 125.513 42.016 125.627 41.8093C125.742 41.6026 125.801 41.3588 125.801 41.0805C125.801 40.8023 125.742 40.5611 125.627 40.3544" fill="#30495E"/>
<path d="M129.046 39.1754C129.252 39.0595 129.498 39.0002 129.782 39.0002V39.8792H129.566C129.23 39.8792 128.978 39.9628 128.805 40.1326C128.632 40.3025 128.548 40.5937 128.548 41.0116V43.1741H127.695V39.0649H128.548V39.6608C128.672 39.4532 128.838 39.2887 129.046 39.1727" fill="#30495E"/>
<path d="M134.441 41.4H131.205C131.23 41.7236 131.355 41.9808 131.583 42.177C131.808 42.3733 132.086 42.4714 132.414 42.4714C132.887 42.4714 133.218 42.2831 133.415 41.9065H134.361C134.233 42.2778 134.002 42.5827 133.666 42.8188C133.329 43.0548 132.912 43.1741 132.417 43.1741C132.011 43.1741 131.65 43.0866 131.33 42.9142C131.01 42.7419 130.757 42.4952 130.576 42.1797C130.395 41.8641 130.304 41.4982 130.304 41.0818C130.304 40.6655 130.393 40.2996 130.568 39.9866C130.746 39.6711 130.993 39.4271 131.313 39.2574C131.633 39.085 132.003 39.0002 132.417 39.0002C132.831 39.0002 133.173 39.0824 133.485 39.2495C133.796 39.4165 134.041 39.6499 134.216 39.9495C134.391 40.2492 134.478 40.5966 134.478 40.9864C134.478 41.1375 134.466 41.2754 134.447 41.3974M133.557 40.7238C133.552 40.4162 133.438 40.1696 133.21 39.984C132.984 39.7984 132.704 39.7056 132.373 39.7056C132.069 39.7056 131.811 39.7984 131.597 39.9813C131.383 40.1643 131.252 40.4136 131.213 40.7265H133.56L133.557 40.7238Z" fill="#30495E"/>
<path d="M62.4775 11.3478L72.1489 21.2126L81.7819 11.3478V33.7826H77.7709V20.2175L72.1489 26.1048L66.4885 20.2175V33.7826H62.4775V11.3478Z" fill="#30495E"/>
<path d="M91.1729 11.8697H86.999V33.7827H91.1729V11.8697Z" fill="#30495E"/>
<path d="M100.449 20.3307V33.8648H96.3906V11.3478L110.593 25.3215V11.7874H114.651V34.3044L100.449 20.3307Z" fill="#30495E"/>
<path d="M124.653 15.6993H118.304V11.8697H134.999V15.6993H128.65V33.7827H124.653V15.6993Z" fill="#30495E"/>
</svg>
