<svg width="124" height="54" viewBox="0 0 124 54" fill="none" xmlns="http://www.w3.org/2000/svg">
<path d="M16.4072 40.6986C16.4072 46.387 20.8395 51.0001 26.3077 51.0001C31.776 51.0001 36.2105 46.3894 36.2105 40.6986V37.3003H16.4072V40.6986Z" stroke="#A057A2" stroke-width="5" stroke-miterlimit="10"/>
<path d="M13.1403 37.3003C7.67203 37.3003 3.23975 32.6895 3.23975 27.0012C3.23975 21.3129 7.67203 16.7021 13.1403 16.7021H16.4071V37.3026H13.1403V37.3003Z" stroke="#A057A2" stroke-width="5" stroke-miterlimit="10"/>
<path d="M39.4774 16.6998H36.2105V13.3014C36.2105 7.61307 31.7782 3 26.31 3C20.8418 3 16.4072 7.6107 16.4072 13.3014V37.3002H39.4774C44.9456 37.3002 49.3779 32.6895 49.3779 27.0012C49.3779 21.3128 44.9456 16.6998 39.4774 16.6998Z" stroke="#EE2D6C" stroke-width="5" stroke-miterlimit="10"/>
<path d="M60.1659 36.1538V36.8154H58.1069V38.2751H59.7117V38.9393H58.1069V41.1018H57.312V36.1538H60.1659Z" fill="#86CD4B"/>
<path d="M60.8726 38.0808C61.0282 37.7842 61.2373 37.553 61.5048 37.3896C61.7722 37.2263 62.0664 37.1433 62.3898 37.1433C62.6816 37.1433 62.9369 37.2036 63.1533 37.3218C63.3697 37.4399 63.5447 37.5882 63.6736 37.7641V37.2087H64.4468V41.0388H63.6736V40.4683C63.5447 40.6493 63.3672 40.8001 63.1435 40.9207C62.9199 41.0414 62.6646 41.1017 62.3776 41.1017C62.0591 41.1017 61.7674 41.0162 61.5023 40.8478C61.2373 40.6795 61.0282 40.4432 60.8726 40.1391C60.717 39.835 60.6416 39.4907 60.6416 39.1062C60.6416 38.7216 60.7194 38.3798 60.8726 38.0833M63.5156 38.4276C63.411 38.2341 63.2724 38.0858 63.1022 37.9827C62.932 37.8822 62.7472 37.8294 62.5503 37.8294C62.3533 37.8294 62.1685 37.8797 61.9983 37.9802C61.8281 38.0808 61.6895 38.2265 61.585 38.4175C61.4804 38.611 61.427 38.8372 61.427 39.1036C61.427 39.3701 61.4804 39.5988 61.585 39.7973C61.6895 39.9958 61.8281 40.1492 62.0008 40.2522C62.1734 40.3578 62.3558 40.408 62.5478 40.408C62.7399 40.408 62.9296 40.3578 63.0998 40.2547C63.27 40.1542 63.4086 40.0034 63.5131 39.8074C63.6177 39.6113 63.6712 39.3801 63.6712 39.1162C63.6712 38.8523 63.6177 38.6236 63.5131 38.4276" fill="#86CD4B"/>
<path d="M71.2912 37.3374C71.529 37.4651 71.7166 37.6541 71.8518 37.9018C71.9869 38.1521 72.057 38.4534 72.057 38.8058V41.1017H71.2762V38.9259C71.2762 38.576 71.1911 38.3104 71.021 38.124C70.8508 37.9375 70.6181 37.8456 70.3228 37.8456C70.0275 37.8456 69.7923 37.9375 69.6196 38.124C69.447 38.3104 69.3594 38.576 69.3594 38.9259V41.1017H68.5786V38.9259C68.5786 38.576 68.4936 38.3104 68.3234 38.124C68.1532 37.9375 67.9205 37.8456 67.6252 37.8456C67.3299 37.8456 67.0947 37.9375 66.922 38.124C66.7494 38.3104 66.6618 38.576 66.6618 38.9259V41.1017H65.8735V37.2097H66.6618V37.6541C66.7919 37.4932 66.9546 37.3706 67.1523 37.2787C67.35 37.1893 67.5627 37.1459 67.7879 37.1459C68.0932 37.1459 68.3659 37.2123 68.6037 37.3425C68.8439 37.4753 69.0291 37.6643 69.1567 37.9146C69.2718 37.6796 69.452 37.4906 69.6972 37.3527C69.9424 37.2148 70.2052 37.1433 70.4855 37.1433C70.7858 37.1433 71.0535 37.2072 71.2912 37.3348" fill="#86CD4B"/>
<path d="M73.1459 36.5431C73.0534 36.4434 73.0083 36.3208 73.0083 36.1751C73.0083 36.0294 73.0534 35.9068 73.1459 35.8071C73.2384 35.7075 73.3523 35.6589 73.4875 35.6589C73.6227 35.6589 73.7295 35.7075 73.822 35.8071C73.9145 35.9068 73.9596 36.0294 73.9596 36.1751C73.9596 36.3208 73.9145 36.4434 73.822 36.5431C73.7295 36.6427 73.618 36.6913 73.4875 36.6913C73.357 36.6913 73.2384 36.6427 73.1459 36.5431ZM73.8552 41.1017H73.1079V37.2074H73.8552V41.1017Z" fill="#86CD4B"/>
<path d="M75.3868 35.6589H74.9111V41.1017H75.3868V35.6589Z" fill="#86CD4B"/>
<path d="M80.1431 37.1433L77.8516 43.0809H77.0494L77.8099 41.1149L76.3379 37.1433H77.199L78.2515 40.222L79.3433 37.1433H80.1431Z" fill="#86CD4B"/>
<path d="M86.3267 36.1538V41.1018H85.5458V38.9393H83.3048V41.1018H82.5215V36.1538H83.3048V38.2751H85.5458V36.1538H86.3267Z" fill="#86CD4B"/>
<path d="M91.0501 39.4192H88.0992C88.122 39.7261 88.2361 39.97 88.444 40.1561C88.6493 40.3422 88.9028 40.4352 89.202 40.4352C89.6329 40.4352 89.9346 40.2567 90.1146 39.8996H90.9766C90.8599 40.2517 90.6495 40.5409 90.3428 40.7647C90.036 40.9885 89.6558 41.1017 89.2045 41.1017C88.8344 41.1017 88.5048 41.0187 88.2133 40.8552C87.9217 40.6918 87.6911 40.4579 87.5263 40.1586C87.3615 39.8593 87.2778 39.5123 87.2778 39.1175C87.2778 38.7226 87.359 38.3756 87.5187 38.0788C87.6809 37.7796 87.9065 37.5482 88.1981 37.3873C88.4896 37.2238 88.8268 37.1433 89.2045 37.1433C89.5822 37.1433 89.8941 37.2213 90.178 37.3797C90.4619 37.5381 90.685 37.7594 90.8447 38.0436C91.0044 38.3278 91.083 38.6572 91.083 39.0269C91.083 39.1703 91.0729 39.301 91.0551 39.4167M90.2439 38.778C90.2388 38.4862 90.1349 38.2524 89.927 38.0763C89.7217 37.9003 89.4656 37.8123 89.164 37.8123C88.8876 37.8123 88.6519 37.9003 88.4567 38.0738C88.2615 38.2473 88.1423 38.4837 88.1068 38.7805H90.2464L90.2439 38.778Z" fill="#86CD4B"/>
<path d="M91.7896 38.0808C91.9452 37.7842 92.1543 37.553 92.4218 37.3896C92.6892 37.2263 92.9834 37.1433 93.3068 37.1433C93.5986 37.1433 93.8539 37.2036 94.0703 37.3218C94.2867 37.4399 94.4617 37.5882 94.5906 37.7641V37.2087H95.3638V41.0388H94.5906V40.4683C94.4593 40.6493 94.2842 40.8001 94.0605 40.9207C93.8368 41.0414 93.5815 41.1017 93.2946 41.1017C92.9761 41.1017 92.6843 41.0162 92.4193 40.8478C92.1543 40.6795 91.9452 40.4432 91.7896 40.1391C91.634 39.835 91.5586 39.4907 91.5586 39.1062C91.5586 38.7216 91.6364 38.3798 91.7896 38.0833M94.4326 38.4276C94.328 38.2341 94.1894 38.0858 94.0192 37.9827C93.849 37.8822 93.6642 37.8294 93.4673 37.8294C93.2703 37.8294 93.0855 37.8797 92.9153 37.9802C92.7451 38.0808 92.6065 38.2265 92.502 38.4175C92.3974 38.6111 92.3439 38.8372 92.3439 39.1036C92.3439 39.3701 92.3974 39.5988 92.502 39.7973C92.6065 39.9958 92.7451 40.1492 92.9178 40.2522C93.0904 40.3578 93.2728 40.408 93.4648 40.408C93.6569 40.408 93.8466 40.3578 94.0168 40.2547C94.187 40.1542 94.3256 40.0034 94.4301 39.8074C94.5347 39.6113 94.5882 39.3801 94.5882 39.1162C94.5882 38.8523 94.5347 38.6236 94.4301 38.4276" fill="#86CD4B"/>
<path d="M97.2667 35.6589H96.3154V41.1017H97.2667V35.6589Z" fill="#86CD4B"/>
<path d="M99.1024 37.8092V40.0025C99.1024 40.1506 99.1379 40.2572 99.2118 40.3222C99.2857 40.3871 99.4089 40.4183 99.5868 40.4183H100.118V41.1018H99.4362C99.0476 41.1018 98.7493 41.016 98.5441 40.8419C98.3361 40.6704 98.2348 40.3897 98.2348 39.9999V37.8066H97.7422V37.1387H98.2348V36.1538H99.1051V37.1387H100.12V37.8066H99.1051L99.1024 37.8092Z" fill="#86CD4B"/>
<path d="M103.696 37.1825C103.914 37.3154 104.086 37.5122 104.212 37.7701C104.339 38.0307 104.401 38.3444 104.401 38.7113V41.1017H103.656V38.8363C103.656 38.472 103.574 38.1955 103.412 38.0014C103.249 37.8073 103.027 37.7116 102.745 37.7116C102.463 37.7116 102.238 37.8073 102.073 38.0014C101.908 38.1955 101.825 38.472 101.825 38.8363V41.1017H101.072V35.6589H101.825V37.5202C101.951 37.35 102.114 37.217 102.31 37.124C102.506 37.0309 102.721 36.9857 102.955 36.9857C103.233 36.9857 103.481 37.0522 103.699 37.1851" fill="#86CD4B"/>
<path d="M107.109 37.3542C107.333 36.9785 107.632 36.6834 108.015 36.4716C108.396 36.2597 108.815 36.1538 109.269 36.1538C109.79 36.1538 110.251 36.2799 110.655 36.5346C111.061 36.7893 111.353 37.1474 111.536 37.6115H110.574C110.447 37.3568 110.272 37.1651 110.048 37.039C109.823 36.9129 109.564 36.8499 109.269 36.8499C108.947 36.8499 108.658 36.923 108.406 37.0667C108.152 37.2105 107.954 37.4173 107.812 37.6871C107.67 37.957 107.599 38.2722 107.599 38.6278C107.599 38.9834 107.67 39.2986 107.812 39.5685C107.954 39.8383 108.152 40.0451 108.406 40.1939C108.66 40.3402 108.947 40.4133 109.269 40.4133C109.564 40.4133 109.823 40.3502 110.048 40.2241C110.274 40.0981 110.449 39.9089 110.574 39.6517H111.536C111.353 40.1157 111.059 40.4738 110.655 40.726C110.251 40.9757 109.787 41.1018 109.269 41.1018C108.81 41.1018 108.391 40.9958 108.013 40.784C107.635 40.5722 107.333 40.2796 107.112 39.9013C106.888 39.5256 106.779 39.0994 106.779 38.6253C106.779 38.1511 106.891 37.7249 107.112 37.3492" fill="#86CD4B"/>
<path d="M112.718 38.0808C112.874 37.7842 113.083 37.553 113.35 37.3896C113.618 37.2263 113.912 37.1433 114.236 37.1433C114.527 37.1433 114.783 37.2036 114.999 37.3218C115.215 37.4399 115.39 37.5882 115.519 37.7641V37.2087H116.292V41.0388H115.519V40.4683C115.388 40.6493 115.213 40.8001 114.989 40.9207C114.766 41.0414 114.51 41.1017 114.223 41.1017C113.905 41.1017 113.613 41.0162 113.348 40.8478C113.083 40.6795 112.874 40.4432 112.718 40.1391C112.563 39.835 112.487 39.4907 112.487 39.1062C112.487 38.7216 112.565 38.3798 112.718 38.0833M115.361 38.4276C115.257 38.2341 115.118 38.0858 114.948 37.9827C114.778 37.8822 114.593 37.8294 114.396 37.8294C114.199 37.8294 114.014 37.8797 113.844 37.9802C113.674 38.0808 113.535 38.2265 113.431 38.4175C113.326 38.611 113.273 38.8372 113.273 39.1036C113.273 39.3701 113.326 39.5988 113.431 39.7973C113.535 39.9958 113.676 40.1492 113.846 40.2522C114.019 40.3578 114.201 40.408 114.394 40.408C114.586 40.408 114.775 40.3578 114.945 40.2547C115.116 40.1542 115.254 40.0034 115.359 39.8074C115.463 39.6113 115.517 39.3801 115.517 39.1162C115.517 38.8523 115.463 38.6236 115.359 38.4276" fill="#86CD4B"/>
<path d="M118.475 37.3095C118.663 37.1996 118.887 37.1433 119.146 37.1433V37.9769H118.949C118.643 37.9769 118.413 38.0562 118.255 38.2173C118.097 38.3784 118.021 38.6545 118.021 39.0509V41.1017H117.244V37.2047H118.021V37.7698C118.134 37.5729 118.285 37.4169 118.475 37.307" fill="#86CD4B"/>
<path d="M123.394 39.4192H120.443C120.466 39.7261 120.58 39.97 120.788 40.1561C120.994 40.3422 121.247 40.4352 121.546 40.4352C121.977 40.4352 122.279 40.2567 122.459 39.8996H123.321C123.204 40.2517 122.994 40.5409 122.687 40.7647C122.38 40.9885 122 41.1017 121.549 41.1017C121.179 41.1017 120.849 41.0187 120.558 40.8552C120.266 40.6918 120.035 40.4579 119.871 40.1586C119.706 39.8593 119.622 39.5123 119.622 39.1175C119.622 38.7226 119.703 38.3756 119.863 38.0788C120.025 37.7796 120.251 37.5482 120.542 37.3873C120.834 37.2238 121.171 37.1433 121.549 37.1433C121.926 37.1433 122.238 37.2213 122.522 37.3797C122.806 37.5381 123.029 37.7594 123.189 38.0436C123.349 38.3278 123.427 38.6572 123.427 39.0269C123.427 39.1703 123.417 39.301 123.399 39.4167M122.588 38.778C122.583 38.4862 122.479 38.2524 122.271 38.0763C122.066 37.9003 121.81 37.8123 121.508 37.8123C121.232 37.8123 120.996 37.9003 120.801 38.0738C120.606 38.2473 120.487 38.4837 120.451 38.7805H122.591L122.588 38.778Z" fill="#86CD4B"/>
<path d="M57.7876 10.9192L66.6046 20.2745L75.3866 10.9192V32.1954H71.7299V19.3308L66.6046 24.9141L61.4443 19.3308V32.1954H57.7876V10.9192Z" fill="#86CD4B"/>
<path d="M83.9483 11.4141H80.1431V32.1955H83.9483V11.4141Z" fill="#86CD4B"/>
<path d="M92.4051 19.4382V32.2734H88.7051V10.9192L101.653 24.1712V11.336H105.353V32.6902L92.4051 19.4382Z" fill="#86CD4B"/>
<path d="M114.47 15.0459H108.682V11.4141H123.903V15.0459H118.115V32.1955H114.47V15.0459Z" fill="#86CD4B"/>
</svg>
