<svg xmlns="http://www.w3.org/2000/svg" width="24" height="24" viewBox="0 0 24 24">
  <path id="memo-circle-check" d="M10,23a1,1,0,0,1-1,1H5a5.006,5.006,0,0,1-5-5V5A5.006,5.006,0,0,1,5,0h8a5.006,5.006,0,0,1,5,5V7a1,1,0,0,1-2,0V5a3,3,0,0,0-3-3H5A3,3,0,0,0,2,5V19a3,3,0,0,0,3,3H9A1,1,0,0,1,10,23ZM14,6a1,1,0,0,0-1-1H5A1,1,0,0,0,5,7h8A1,1,0,0,0,14,6Zm-4,5a1,1,0,0,0-1-1H5a1,1,0,0,0,0,2H9A1,1,0,0,0,10,11ZM5,15a1,1,0,0,0,0,2H7a1,1,0,0,0,0-2Zm19,2a7,7,0,1,1-7-7A7.009,7.009,0,0,1,24,17Zm-2,0a5,5,0,1,0-5,5A5.006,5.006,0,0,0,22,17Zm-3.192-1.241-2.223,2.134a.374.374,0,0,1-.522,0l-1.131-1.108a1,1,0,1,0-1.4,1.428l1.132,1.109A2.375,2.375,0,0,0,16.327,20a2.348,2.348,0,0,0,1.653-.671L20.193,17.2a1,1,0,0,0-1.385-1.443Z" fill="#e61e1e"/>
</svg>
