<svg width="19" height="22" viewBox="0 0 19 22" fill="none" xmlns="http://www.w3.org/2000/svg">
<path d="M17.7378 14.9729L16.6205 13.0299C16.1972 12.2941 15.9739 11.4521 15.9739 10.5963V7.8312C15.9739 4.06402 13.03 1 9.41229 1C5.79456 1 2.85066 4.06405 2.85066 7.8312V10.5963C2.85066 11.4531 2.6274 12.2941 2.20409 13.0299L1.08674 14.9729C0.745277 15.5655 0.7372 16.2781 1.06451 16.8802C1.39184 17.4823 1.98385 17.8423 2.64759 17.8423H6.95433C6.91998 18.016 6.88766 18.1907 6.88766 18.3686C6.88766 19.819 8.02116 21 9.41331 21C10.8054 21 11.939 19.819 11.939 18.3686C11.939 18.1907 11.9066 18.016 11.8723 17.8423H16.179C16.8438 17.8423 17.4358 17.4833 17.7631 16.8802C18.0874 16.2782 18.0793 15.5656 17.7378 14.9729ZM10.9267 18.3675C10.9267 19.238 10.2468 19.9464 9.41127 19.9464C8.57579 19.9464 7.89588 19.238 7.89588 18.3675C7.89588 18.1865 7.93628 18.0107 7.99388 17.8412H10.8287C10.8863 18.0107 10.9267 18.1854 10.9267 18.3675ZM16.8811 16.3613C16.7357 16.6286 16.472 16.7886 16.177 16.7886H2.64556C2.35055 16.7886 2.08689 16.6286 1.9414 16.3613C1.79592 16.0939 1.79996 15.7782 1.9515 15.515L3.06885 13.572C3.58609 12.6731 3.85988 11.6447 3.85988 10.5974V7.83229C3.85988 4.64614 6.35017 2.05367 9.41125 2.05367C12.4723 2.05367 14.9626 4.64617 14.9626 7.83229V10.5974C14.9626 11.6447 15.2364 12.6731 15.7537 13.572L16.871 15.515C17.0226 15.7771 17.0266 16.0939 16.8811 16.3613Z" fill="#30495E" stroke="#30495E"/>
</svg>
