<svg width="22" height="23" viewBox="0 0 22 23" fill="none" xmlns="http://www.w3.org/2000/svg">
<path d="M21.1911 16.6213C20.584 15.5755 19.6815 12.6164 19.6815 8.75151C19.6815 6.43047 18.7595 4.20449 17.1182 2.56326C15.477 0.922032 13.251 0 10.93 0C8.60894 0 6.38296 0.922032 4.74174 2.56326C3.10051 4.20449 2.17848 6.43047 2.17848 8.75151C2.17848 12.6175 1.27488 15.5755 0.667748 16.6213C0.512705 16.8872 0.43051 17.1892 0.429454 17.497C0.428397 17.8048 0.508516 18.1074 0.66173 18.3743C0.814944 18.6413 1.03584 18.8631 1.30213 19.0174C1.56842 19.1717 1.8707 19.2531 2.17848 19.2533H6.64284C6.84475 20.2413 7.38172 21.1293 8.16291 21.767C8.9441 22.4046 9.92157 22.7529 10.93 22.7529C11.9384 22.7529 12.9159 22.4046 13.6971 21.767C14.4783 21.1293 15.0152 20.2413 15.2171 19.2533H19.6815C19.9892 19.2529 20.2913 19.1714 20.5575 19.017C20.8236 18.8626 21.0443 18.6408 21.1974 18.3739C21.3505 18.107 21.4305 17.8044 21.4294 17.4967C21.4283 17.1891 21.3461 16.8871 21.1911 16.6213ZM10.93 21.0036C10.3872 21.0035 9.8578 20.8351 9.41466 20.5216C8.97153 20.2082 8.63643 19.7651 8.4555 19.2533H13.4045C13.2235 19.7651 12.8885 20.2082 12.4453 20.5216C12.0022 20.8351 11.4728 21.0035 10.93 21.0036ZM2.17848 17.503C3.02081 16.0546 3.92878 12.6984 3.92878 8.75151C3.92878 6.89468 4.66641 5.11389 5.97939 3.80091C7.29237 2.48793 9.07315 1.7503 10.93 1.7503C12.7868 1.7503 14.5676 2.48793 15.8806 3.80091C17.1936 5.11389 17.9312 6.89468 17.9312 8.75151C17.9312 12.6952 18.837 16.0514 19.6815 17.503H2.17848Z" fill="white"/>
</svg>
