<svg xmlns="http://www.w3.org/2000/svg" width="430" height="405.159" viewBox="0 0 430 405.159">
  <g id="Online_connection-amico" data-name="Online connection-amico" transform="translate(-20.209 -42.864)">
    <g id="freepik--Floor--inject-175" transform="translate(20.209 198.896)">
      <path id="Path_1" data-name="Path 1" d="M386.781,246.12c-84.254-48.653-220.4-48.653-304.081,0S-.57,373.628,83.636,422.271s220.4,48.653,304.081,0S470.988,294.763,386.781,246.12Z" transform="translate(-20.209 -209.63)" fill="#f5f5f5"/>
    </g>
    <g id="freepik--Shadows--inject-175" transform="translate(58.964 247.542)">
      <path id="Path_2" data-name="Path 2" d="M293.753,298.989c14.792,8.533,38.7,8.533,53.387,0,7.354-4.266,11-9.88,10.975-15.494s-3.743-11.228-11.143-15.466c-14.792-8.542-38.7-8.542-53.4,0-7.345,4.276-11,9.871-10.966,15.466S286.353,294.723,293.753,298.989Z" transform="translate(-75.854 -261.622)" fill="#e0e0e0"/>
      <path id="Path_3" data-name="Path 3" d="M80.577,331.471c25.14-14.512,65.784-14.512,90.756,0,22.081,12.828,24.532,32.691,7.485,47.156,13.773-.851,28.069,1.778,38.567,7.887,18.469,10.732,18.366,28.125-.215,38.857s-48.653,10.732-67.075,0c-14.689-8.542-17.618-21.3-8.851-31.55-21.164,3.06-44.461-.2-60.947-9.777C55.3,369.533,55.427,345.992,80.577,331.471Z" transform="translate(-61.63 -265.418)" fill="#e0e0e0"/>
    </g>
    <g id="freepik--Clouds--inject-175" transform="translate(59.432 46.537)">
      <path id="Path_4" data-name="Path 4" d="M79.046,49.962c4-2.3,7.382-1.179,8.421,2.414a11.836,11.836,0,0,1,4.313-4.809c3.134-1.806,5.689-.356,5.7,3.247V52.46l4.2-2.423c2.2-1.272,3.976-.253,3.986,2.274a8.692,8.692,0,0,1-3.911,6.839L66.116,79.734c-2.189,1.272-3.976.253-3.986-2.264A8.739,8.739,0,0,1,66.088,70.6l4.21-2.433V65.138C70.27,59.561,74.172,52.769,79.046,49.962Z" transform="translate(-62.13 -46.79)" fill="#e6e6e6"/>
      <path id="Path_5" data-name="Path 5" d="M116.7,64.433c2.872-1.656,5.3-.842,6.063,1.731a8.608,8.608,0,0,1,3.106-3.452c2.246-1.3,4.079-.253,4.079,2.33V66.23l3.022-1.75c1.572-.936,2.854-.178,2.854,1.637a6.241,6.241,0,0,1-2.807,4.921L107.423,85.8c-1.581.936-2.863.187-2.863-1.628a6.241,6.241,0,0,1,2.807-4.921l3.013-1.75v-2.18A13.866,13.866,0,0,1,116.7,64.433Z" transform="translate(-64.861 -47.779)" fill="#e6e6e6"/>
    </g>
    <g id="freepik--Globe--inject-175" transform="translate(226.521 124.767)">
      <path id="Path_6" data-name="Path 6" d="M347.515,276.32c0,3.743-2.433,7.485-7.363,10.376-9.852,5.726-25.889,5.726-35.816,0-4.959-2.863-7.485-6.615-7.485-10.376h0v7.485h0c0,3.743,2.517,7.485,7.485,10.376,9.927,5.726,25.964,5.726,35.816,0,4.931-2.872,7.382-6.624,7.363-10.376h0Z" transform="translate(-244.328 -139.794)" fill="#1acd81"/>
      <path id="Path_7" data-name="Path 7" d="M304.345,285.687c9.927,5.726,25.964,5.726,35.816,0,4.931-2.863,7.382-6.615,7.363-10.376s-2.517-7.485-7.485-10.367c-9.927-5.735-25.964-5.735-35.816,0-4.931,2.863-7.382,6.615-7.363,10.367S299.386,282.824,304.345,285.687Z" transform="translate(-244.329 -138.785)" fill="#1acd81"/>
      <path id="Path_8" data-name="Path 8" d="M347.515,276.32c0,3.743-2.433,7.485-7.363,10.376-9.852,5.726-25.889,5.726-35.816,0-4.959-2.863-7.485-6.615-7.485-10.376h0v7.485h0c0,3.743,2.517,7.485,7.485,10.376,9.927,5.726,25.964,5.726,35.816,0,4.931-2.872,7.382-6.624,7.363-10.376h0Z" transform="translate(-244.328 -139.794)" opacity="0.1"/>
      <path id="Path_9" data-name="Path 9" d="M304.345,285.687c9.927,5.726,25.964,5.726,35.816,0,4.931-2.863,7.382-6.615,7.363-10.376s-2.517-7.485-7.485-10.367c-9.927-5.735-25.964-5.735-35.816,0-4.931,2.863-7.382,6.615-7.363,10.367S299.386,282.824,304.345,285.687Z" transform="translate(-244.329 -138.785)" opacity="0.3"/>
      <path id="Path_10" data-name="Path 10" d="M309.994,278.973c7.064,4.079,18.479,4.079,25.5,0,3.509-2.04,5.258-4.678,5.24-7.391s-1.787-5.342-5.324-7.382c-7.064-4.079-18.479-4.079-25.5,0-3.509,2.04-5.258,4.678-5.24,7.382S306.457,276.915,309.994,278.973Z" transform="translate(-244.832 -138.817)" opacity="0.2"/>
      <circle id="Ellipse_1" data-name="Ellipse 1" cx="55.642" cy="55.642" r="55.642" transform="translate(0 78.69) rotate(-45)" fill="#455a64"/>
      <path id="Path_11" data-name="Path 11" d="M269.826,197.515a33.829,33.829,0,0,0,1.469,5.371c.533,1.787,1.291,4.154.458,5.82a7.972,7.972,0,0,0-.833,2.058,2.676,2.676,0,0,0,.365,2.086c.477.646,1.3.936,1.871,1.553,1.039,1.132.814,2.9,1.235,4.379a4.94,4.94,0,0,0,3.078,3.209c.627.225,1.544.168,1.684-.487s-.412-.936-.861-1.3a10.89,10.89,0,0,1-2.741-2.929,1.562,1.562,0,0,1-.3-.758.571.571,0,0,1,.449-.6c.739.234.936,1.17,1.357,1.8a2.208,2.208,0,0,0,2.592.767,2.227,2.227,0,0,1,.524-.2,1.731,1.731,0,0,1,.655.056,9.356,9.356,0,0,1,4.079,1.628,13.875,13.875,0,0,1,2.217,2.854,4.678,4.678,0,0,0,2.807,2.133,10.581,10.581,0,0,0,3-.309,6.278,6.278,0,0,1,3.583.692,5.483,5.483,0,0,0-1.4,5.034c.131.561.365,1.095.449,1.665a14.445,14.445,0,0,1-.122,2.695,2.807,2.807,0,0,0,.936,2.433c.814.589,2.152.505,2.592,1.413.159.318.15.692.281,1.02a2.32,2.32,0,0,0,2.2,1.16,6,6,0,0,1,2.592.337c1.207.646,1.5,2.2,2.086,3.434a6.025,6.025,0,0,0,1.413,1.871c.711.636,1.609,1.17,1.918,2.068a5.978,5.978,0,0,0,.43,1.544c.4.627,1.319.814,1.637,1.488a4.931,4.931,0,0,1,.187.982,2.732,2.732,0,0,0,1.806,1.871,8.065,8.065,0,0,0,2.676.337H319c.533,0,1.179-.056,1.413-.543a1.039,1.039,0,0,0-.608-1.263,7.361,7.361,0,0,0-1.5-.4,3.331,3.331,0,0,1-2.3-2.433,10.929,10.929,0,0,0-.206-1.1,7.18,7.18,0,0,0-.711-1.385,6.391,6.391,0,0,1-.683-4.21c.131-.748.412-1.478.477-2.245a8.206,8.206,0,0,0-.571-3.228,1.46,1.46,0,0,1-.094-.767,1.722,1.722,0,0,1,.608-.739c1.46-1.3.758-3.509.075-5.342-.262-.711.206-1.469.6-2.124s.72-1.544.225-2.124a1.778,1.778,0,0,0-1.45-.449,7.644,7.644,0,0,0-2.2.384c-.936.3-1.871.767-2.751.449a4.678,4.678,0,0,1-1.7-1.572,1.965,1.965,0,0,0-2.086-.8c-.309.122-.571.384-.936.412a1.188,1.188,0,0,1-.936-.58,2.4,2.4,0,0,0-.823-.823c-.786-.356-1.75.421-2.536.066a3.743,3.743,0,0,1-.879-.8,4.678,4.678,0,0,0-2.872-.842,3.406,3.406,0,0,1-2.676-1.562,7.665,7.665,0,0,0,.215-1.441,1.45,1.45,0,0,0-1.871-1.2.72.72,0,0,0-.356.234c-.346.44.159,1.067.075,1.619s-.936.87-1.581.936a2.442,2.442,0,0,1-1.1-.15,2.545,2.545,0,0,1-.936-.833,8.8,8.8,0,0,1-1.282-2.021,2.882,2.882,0,0,1,0-2.33,1.759,1.759,0,0,1,1.984-.936c.318.094.664.3.936.131s.206-.823.328-1.254c.187-.674,1.151-.8,1.768-.477a14.429,14.429,0,0,1,1.6,1.338,7.13,7.13,0,0,1,1.207.88c.271.309.477.739.879.814s.842-.393.861-.851a2.536,2.536,0,0,0-.458-1.282c-1.039-1.871-1.937-3.948-1.478-6.016a9.245,9.245,0,0,1,.571-1.619,7.391,7.391,0,0,1,2.33-3.378,9.142,9.142,0,0,0,1.272-.851,2.414,2.414,0,0,0,.543-1.553,5.614,5.614,0,0,0,2.807,0,1.871,1.871,0,0,0,1.029-.58,1.4,1.4,0,0,0,.262-.777,2.105,2.105,0,0,0-1.544-2.115c-.487-.122-1.1-.1-1.385-.524a.879.879,0,0,1,0-.936,1.787,1.787,0,0,1,.777-.636,3.144,3.144,0,0,1,2.105-.243,2.414,2.414,0,0,1,1.619,1.329c.281.627.29,1.432.823,1.871a1.394,1.394,0,0,0,1.338.159,3.228,3.228,0,0,0,1.141-.8,1.956,1.956,0,0,0,.73-1.469,1.478,1.478,0,0,0-.7-1.029,6.551,6.551,0,0,0-1.151-.561,8.421,8.421,0,0,1-2.975-2.208c-.524-.608-.936-1.282-1.5-1.871a5.108,5.108,0,0,0-2.489-1.534,3.481,3.481,0,0,0-2.807.487,1.618,1.618,0,0,1-.533.309c-.5.122-.936-.346-1.31-.664-.936-.73-2.957-1.048-3.424,0-.271.618.122,1.31.262,1.974a3.471,3.471,0,0,1-1.141,3.078,1.358,1.358,0,0,0-.309.384c-.2.505.4.936.655,1.413a1.17,1.17,0,0,1-1.75,1.478c-.8-.617-.58-2-1.338-2.667-.524-.449-1.3-.4-1.871-.72a2.751,2.751,0,0,1-1.179-2.339,4.678,4.678,0,0,1,.571-2.741,2.882,2.882,0,0,1,2.32-1.441c.477,0,.936.122,1.441.094a1.113,1.113,0,0,0,1.1-.767,1.348,1.348,0,0,0-.047-.608,3.743,3.743,0,0,1,0-1.871,1.4,1.4,0,0,1,1.432-1.01,1.329,1.329,0,0,1,1.01,1.16,2.751,2.751,0,0,1-.355,1.591,1.487,1.487,0,0,0-.187.515.861.861,0,0,0,.43.739,2.274,2.274,0,0,0,.851.271,4.379,4.379,0,0,0,3.359-.44,1.245,1.245,0,0,0,.449-.552,3.033,3.033,0,0,0,.065-.936c.047-.861.711-1.572.936-2.4a2.648,2.648,0,0,0-2.489-3.415c-1.141,0-2.2.7-3.34.627a1.366,1.366,0,0,1-.842-.309,3.116,3.116,0,0,1-.552-.936c-.168-.309-.487-.618-.833-.552s-.524.4-.664.711a5.025,5.025,0,0,0-.449,1.235c-.15.842.14,1.722,0,2.564-.084.384-.384.814-.767.72a.692.692,0,0,1-.384-.29,1.665,1.665,0,0,1-.337-1.123c0-.618.384-1.319,0-1.8a.992.992,0,0,0-1.432.094,3.2,3.2,0,0,0-.683,1.553,1.282,1.282,0,0,0-.7-.608.636.636,0,0,1-.29-.131.73.73,0,0,1-.122-.43,1.272,1.272,0,0,0-1.1-1.01,2.246,2.246,0,0,0-2.311,2.741c.243.636.936,1.16.786,1.824a1.076,1.076,0,0,0-1.46.936,2.854,2.854,0,0,1-2.348-1.31,4.679,4.679,0,0,0-2.124-1.787c-.608-.168-1.282,0-1.871-.178a55.951,55.951,0,0,0-4.079,7.485c-.1.636-.2,1.272-.29,1.871a22.811,22.811,0,0,0-.393,6.185Z" transform="translate(-242.585 -133.482)" fill="#1acd81"/>
      <path id="Path_12" data-name="Path 12" d="M312.638,172.279a1.712,1.712,0,0,1-.608-1.347,11.847,11.847,0,0,1,.15-1.525,6.119,6.119,0,0,0-.7-3.537,2.807,2.807,0,0,0-1.029-1.151,3.5,3.5,0,0,0-1.7-.3c-2.947,0-5.913.524-8.823.056a17.066,17.066,0,0,0-2.564-.356c-1.946,0-4.566,1.216-5.146,3.256a1.731,1.731,0,0,0,.758,2.058c1.347.861,2.03-.15,3.134-.749s2.479-.047,3.658-.43a2.657,2.657,0,0,1,.786-.215c.674,0,1.076.823.982,1.5a8.516,8.516,0,0,1-.758,1.871,1.665,1.665,0,0,0,.215,1.871c.122.112.281.206.327.356.094.318-.309.515-.6.674a1.759,1.759,0,0,0-.767,2.171c.29.674.936,1.095,1.3,1.75a19.211,19.211,0,0,0,.627,1.871,3.284,3.284,0,0,0,2.554,1.113,2.5,2.5,0,0,0,1.076,1.75,1.871,1.871,0,0,0,2.115-.43,3.938,3.938,0,0,0,.936-2.058,9.589,9.589,0,0,1,.4-1.7,4.762,4.762,0,0,1,2.807-2.33,6.306,6.306,0,0,0,2.292-1.188,1.6,1.6,0,0,0,.112-2.292C313.752,172.6,313.1,172.616,312.638,172.279Z" transform="translate(-244.024 -132.572)" fill="#1acd81"/>
      <path id="Path_13" data-name="Path 13" d="M367.768,198.663a2.189,2.189,0,0,0-.393-.58c-.346-.412-.833-.861-1.347-.7s-.664,1.048-.7,1.7a4.725,4.725,0,0,1-.851,2.4l-1.375-.234c-.674-1.244-.187-2.807.3-4.135l2.049-5.539a6.859,6.859,0,0,0,.468-1.768,6.4,6.4,0,0,0-.421-2.358,29.869,29.869,0,0,0,1.375-7.279,7.019,7.019,0,0,0-.1-1.871,8.42,8.42,0,0,0-.87-2.077l-1.132-2.115a2.087,2.087,0,0,0-.543-.749,2.554,2.554,0,0,0-.664-.318,6.465,6.465,0,0,1-2.713-2.021c-1.385-1.75-2.217-3.855-4.033-5.155A16.774,16.774,0,0,0,352,163.754a5.09,5.09,0,0,0-2.161-.365,6.25,6.25,0,0,0-1.918.711,11.6,11.6,0,0,1-4.678,1.029,1.067,1.067,0,0,0-.851.262.758.758,0,0,0,.243,1c.3.234.683.346,1,.571-.3.711-1.722.477-2.03,1.179-.094.206-.075.468-.234.636a.552.552,0,0,1-.384.131c-.692,0-1.179-.674-1.478-1.3a3.032,3.032,0,0,0-1.2-1.637,1.338,1.338,0,0,0-1.272.094c-.168.112-.309.262-.477.365a2.031,2.031,0,0,1-.786.2,18.28,18.28,0,0,1-2.414.14.4.4,0,0,0-.215,0,.384.384,0,0,0-.112.187,14.039,14.039,0,0,0-.561,2.47,3.388,3.388,0,0,1-.636,1.918,1.021,1.021,0,0,0-.215.271.646.646,0,0,0,0,.3,1.619,1.619,0,0,0,.936,1.2c.833.356,1.825,0,2.695.234.365.112.748.346,1.1.2a.814.814,0,0,0,.4-.861,5.372,5.372,0,0,0-.318-.936,3.574,3.574,0,0,1,.356-2.657,1.684,1.684,0,0,0,.777,1.179c.487.2,1.067-.084,1.534.131s.646,1.067,1.076,1.553a2.491,2.491,0,0,1,.365.4.936.936,0,0,1-.075.936,3.151,3.151,0,0,1-.683.683c-.384.327-.758.664-1.1,1.02a3.3,3.3,0,0,1-.664.589.936.936,0,0,1-.842.14,5.848,5.848,0,0,1-.617-.356.936.936,0,0,0-1.142.327,2.386,2.386,0,0,0-3.275.936c-.337.7-.337,1.628-.936,2.077-.786.561-1.965,0-2.807.44a1.254,1.254,0,0,0,.627,2.348c.608,0,1.151-.458,1.768-.458a1.563,1.563,0,0,1,.056.777.393.393,0,0,1-.075.2.487.487,0,0,1-.271.15c-1.422.44-2.985.477-4.285,1.207a9.056,9.056,0,0,0-1.6,1.263,1.151,1.151,0,0,0-.5.786,1.094,1.094,0,0,0,.29.674l1.74,2.461a2.5,2.5,0,0,0,.543.627,2.625,2.625,0,0,0,2.5-.14.852.852,0,0,0,.346-.225,1.029,1.029,0,0,0,.084-.655c-.094-1.329.861-2.461,1.759-3.434a19.236,19.236,0,0,1,2.348-2.274,1.638,1.638,0,0,1,.7-.365,1.759,1.759,0,0,1,.758.112,21.245,21.245,0,0,1,2.554,1,2.863,2.863,0,0,1,.823.543.936.936,0,0,1,.271.936c-.084.327-.384.674-.187.936a.655.655,0,0,0,.458.187,2.1,2.1,0,0,0,.87,0,1.076,1.076,0,0,0,.636-1.385c-.412-.936-1.946-.861-2.536-1.722-.178-.262-.206-.692.065-.842a.6.6,0,0,1,.309-.065,3.481,3.481,0,0,1,1.665.543,1.722,1.722,0,0,1,.365.262,1.873,1.873,0,0,1,.29.468,10.619,10.619,0,0,0,2.414,3.228,3.125,3.125,0,0,0,1.675.936c.384,0,.617-.589.487-.936-.075-.215-.234-.515,0-.627a.262.262,0,0,1,.187,0c.487.066.739.608,1.179.842s1.17,0,1.768.075a.384.384,0,0,1,.206.066.394.394,0,0,1,.094.159l.533,1.235a.935.935,0,0,0,.2.356,1.019,1.019,0,0,0,.449.225c.58.159,1.2.15,1.75.356a3.911,3.911,0,0,1,2,2.4,2.376,2.376,0,0,0-1.113,2.03,3.125,3.125,0,0,0,.851,2.04.936.936,0,0,0,.365.281,1.048,1.048,0,0,0,.561,0l1.338-.3a.571.571,0,0,1,.374,0,.552.552,0,0,1,.234.346,4.443,4.443,0,0,1,.187,1.609,1.133,1.133,0,0,1-.178.608,1.366,1.366,0,0,1-.936.4q-5.137.608-10.292.992c-.936-.58-1.694-1.216-2.667-1.806a2.264,2.264,0,0,0-.72-.318,2.507,2.507,0,0,0-1.039.15c-2.133.561-4.407.178-6.549.552a1.946,1.946,0,0,0-.936.337c-.73.608-.374,1.815-.777,2.676-.664,1.422-2.994,1.254-3.743,2.61a3.4,3.4,0,0,0,0,2.536c.168.6.327,1.207.486,1.806-.43,1.2-1.039,2.573-1.385,3.8a1.142,1.142,0,0,0-.056.608,1.029,1.029,0,0,0,.4.515,4.678,4.678,0,0,0,1.8.842,3.565,3.565,0,0,1,.992.29c.683.374.87,1.263,1.347,1.871a3.125,3.125,0,0,0,2.133,1.076,9.357,9.357,0,0,0,2.442-.15l4.061-.608a2.4,2.4,0,0,1,1.431.075,1.778,1.778,0,0,1,.739.767c.627,1.151.487,2.545.683,3.845.243,1.665,1.048,3.209,1.319,4.875s-1.385,3.471-1.974,5.034a4.033,4.033,0,0,0-.356,1.394,4.331,4.331,0,0,0,.4,1.553c.552,1.366,1.1,2.741,1.647,4.107a1.376,1.376,0,0,0,.309.533,1.348,1.348,0,0,0,.6.271,11.678,11.678,0,0,0,1.984.309.935.935,0,0,0,.515-.075,1.029,1.029,0,0,0,.356-.44A32.256,32.256,0,0,1,354,231.055a5.9,5.9,0,0,0,1.45-1.871,5.782,5.782,0,0,0,.281-1.441c.168-1.684.337-3.359.515-5.043s2.161-3.172,3.275-4.575c.88-1.1,1.871-2.246,1.984-3.649s-.936-2.957-.786-4.482l-2.255-1.871c-.936-.814-1.993-1.74-2.161-2.994a5.164,5.164,0,0,1,.159-1.647l.618-3.088a2.012,2.012,0,0,1,1.057.618l2.348,2.133a.935.935,0,0,1,.281.356.814.814,0,0,1,0,.5c-.3,1.067-1.095,2.086-.8,3.144a3.387,3.387,0,0,0,1.591,1.7,1.759,1.759,0,0,0,.879.356,1.647,1.647,0,0,0,.833-.327,11.7,11.7,0,0,0,3.181-3.144,3.443,3.443,0,0,0,.533-1c.337-1.132-.243-2.4.14-3.518C367.281,200.225,368.058,199.514,367.768,198.663Z" transform="translate(-246.084 -132.525)" fill="#1acd81"/>
      <path id="Path_14" data-name="Path 14" d="M364.722,227.94a1.478,1.478,0,0,0-.936.674,1.871,1.871,0,0,1-1.45.861l-1.431.215a1.281,1.281,0,0,0-.421.122.936.936,0,0,0-.44.749v.936c-.094,1.534-1.581,2.6-2.068,4.051a.655.655,0,0,0-.047.327.72.72,0,0,0,.224.365.716.716,0,0,0,.954.3l1.16-.4a5.765,5.765,0,0,0,1.5-.7,2.807,2.807,0,0,0,1.1-1.871,9.188,9.188,0,0,1,.168-2.105,4.136,4.136,0,0,1,1.039-1.319C364.311,229.867,366.042,227.8,364.722,227.94Z" transform="translate(-248.259 -136.68)" fill="#1acd81"/>
      <path id="Path_15" data-name="Path 15" d="M310.509,190.179a1.458,1.458,0,0,0-.374-.206,4.1,4.1,0,0,0-.571-.2,1.151,1.151,0,0,1-.627-.458,1.16,1.16,0,0,0-.384-.356.982.982,0,0,0-1.207.281,1.011,1.011,0,0,0-.1.281,3.2,3.2,0,0,0-.084.589.5.5,0,0,0,0,.234.477.477,0,0,0,.159.206,1.45,1.45,0,0,0,.936.262,7.626,7.626,0,0,1,1.029,0,.514.514,0,0,1,.206.056,1.141,1.141,0,0,1,.159.14.571.571,0,0,0,.505.075,1.8,1.8,0,0,0,.458-.243.3.3,0,0,0,.112-.131.187.187,0,0,0,0-.1.841.841,0,0,0-.215-.43Z" transform="translate(-244.991 -134.165)" fill="#1acd81"/>
      <g id="Group_" data-name="Group " transform="translate(27.181 30.858)" opacity="0.2">
        <path id="Path_16" data-name="Path 16" d="M269.826,197.515a33.829,33.829,0,0,0,1.469,5.371c.533,1.787,1.291,4.154.458,5.82a7.972,7.972,0,0,0-.833,2.058,2.676,2.676,0,0,0,.365,2.086c.477.646,1.3.936,1.871,1.553,1.039,1.132.814,2.9,1.235,4.379a4.94,4.94,0,0,0,3.078,3.209c.627.225,1.544.168,1.684-.487s-.412-.936-.861-1.3a10.89,10.89,0,0,1-2.741-2.929,1.562,1.562,0,0,1-.3-.758.571.571,0,0,1,.449-.6c.739.234.936,1.17,1.357,1.8a2.208,2.208,0,0,0,2.592.767,2.227,2.227,0,0,1,.524-.2,1.731,1.731,0,0,1,.655.056,9.356,9.356,0,0,1,4.079,1.628,13.875,13.875,0,0,1,2.217,2.854,4.678,4.678,0,0,0,2.807,2.133,10.581,10.581,0,0,0,3-.309,6.278,6.278,0,0,1,3.583.692,5.483,5.483,0,0,0-1.4,5.034c.131.561.365,1.095.449,1.665a14.445,14.445,0,0,1-.122,2.695,2.807,2.807,0,0,0,.936,2.433c.814.589,2.152.505,2.592,1.413.159.318.15.692.281,1.02a2.32,2.32,0,0,0,2.2,1.16,6,6,0,0,1,2.592.337c1.207.646,1.5,2.2,2.086,3.434a6.025,6.025,0,0,0,1.413,1.871c.711.636,1.609,1.17,1.918,2.068a5.978,5.978,0,0,0,.43,1.544c.4.627,1.319.814,1.637,1.488a4.931,4.931,0,0,1,.187.982,2.732,2.732,0,0,0,1.806,1.871,8.065,8.065,0,0,0,2.676.337H319c.533,0,1.179-.056,1.413-.543a1.039,1.039,0,0,0-.608-1.263,7.361,7.361,0,0,0-1.5-.4,3.331,3.331,0,0,1-2.3-2.433,10.929,10.929,0,0,0-.206-1.1,7.18,7.18,0,0,0-.711-1.385,6.391,6.391,0,0,1-.683-4.21c.131-.748.412-1.478.477-2.245a8.206,8.206,0,0,0-.571-3.228,1.46,1.46,0,0,1-.094-.767,1.722,1.722,0,0,1,.608-.739c1.46-1.3.758-3.509.075-5.342-.262-.711.206-1.469.6-2.124s.72-1.544.225-2.124a1.778,1.778,0,0,0-1.45-.449,7.644,7.644,0,0,0-2.2.384c-.936.3-1.871.767-2.751.449a4.678,4.678,0,0,1-1.7-1.572,1.965,1.965,0,0,0-2.086-.8c-.309.122-.571.384-.936.412a1.188,1.188,0,0,1-.936-.58,2.4,2.4,0,0,0-.823-.823c-.786-.356-1.75.421-2.536.066a3.743,3.743,0,0,1-.879-.8,4.678,4.678,0,0,0-2.872-.842,3.406,3.406,0,0,1-2.676-1.562,7.665,7.665,0,0,0,.215-1.441,1.45,1.45,0,0,0-1.871-1.2.72.72,0,0,0-.356.234c-.346.44.159,1.067.075,1.619s-.936.87-1.581.936a2.442,2.442,0,0,1-1.1-.15,2.545,2.545,0,0,1-.936-.833,8.8,8.8,0,0,1-1.282-2.021,2.882,2.882,0,0,1,0-2.33,1.759,1.759,0,0,1,1.984-.936c.318.094.664.3.936.131s.206-.823.328-1.254c.187-.674,1.151-.8,1.768-.477a14.429,14.429,0,0,1,1.6,1.338,7.13,7.13,0,0,1,1.207.88c.271.309.477.739.879.814s.842-.393.861-.851a2.536,2.536,0,0,0-.458-1.282c-1.039-1.871-1.937-3.948-1.478-6.016a9.245,9.245,0,0,1,.571-1.619,7.391,7.391,0,0,1,2.33-3.378,9.142,9.142,0,0,0,1.272-.851,2.414,2.414,0,0,0,.543-1.553,5.614,5.614,0,0,0,2.807,0,1.871,1.871,0,0,0,1.029-.58,1.4,1.4,0,0,0,.262-.777,2.105,2.105,0,0,0-1.544-2.115c-.487-.122-1.1-.1-1.385-.524a.879.879,0,0,1,0-.936,1.787,1.787,0,0,1,.777-.636,3.144,3.144,0,0,1,2.105-.243,2.414,2.414,0,0,1,1.619,1.329c.281.627.29,1.432.823,1.871a1.394,1.394,0,0,0,1.338.159,3.228,3.228,0,0,0,1.141-.8,1.956,1.956,0,0,0,.73-1.469,1.478,1.478,0,0,0-.7-1.029,6.551,6.551,0,0,0-1.151-.561,8.421,8.421,0,0,1-2.975-2.208c-.524-.608-.936-1.282-1.5-1.871a5.108,5.108,0,0,0-2.489-1.534,3.481,3.481,0,0,0-2.807.487,1.618,1.618,0,0,1-.533.309c-.5.122-.936-.346-1.31-.664-.936-.73-2.957-1.048-3.424,0-.271.618.122,1.31.262,1.974a3.471,3.471,0,0,1-1.141,3.078,1.358,1.358,0,0,0-.309.384c-.2.505.4.936.655,1.413a1.17,1.17,0,0,1-1.75,1.478c-.8-.617-.58-2-1.338-2.667-.524-.449-1.3-.4-1.871-.72a2.751,2.751,0,0,1-1.179-2.339,4.678,4.678,0,0,1,.571-2.741,2.882,2.882,0,0,1,2.32-1.441c.477,0,.936.122,1.441.094a1.113,1.113,0,0,0,1.1-.767,1.348,1.348,0,0,0-.047-.608,3.743,3.743,0,0,1,0-1.871,1.4,1.4,0,0,1,1.432-1.01,1.329,1.329,0,0,1,1.01,1.16,2.751,2.751,0,0,1-.355,1.591,1.487,1.487,0,0,0-.187.515.861.861,0,0,0,.43.739,2.274,2.274,0,0,0,.851.271,4.379,4.379,0,0,0,3.359-.44,1.245,1.245,0,0,0,.449-.552,3.033,3.033,0,0,0,.065-.936c.047-.861.711-1.572.936-2.4a2.648,2.648,0,0,0-2.489-3.415c-1.141,0-2.2.7-3.34.627a1.366,1.366,0,0,1-.842-.309,3.116,3.116,0,0,1-.552-.936c-.168-.309-.487-.618-.833-.552s-.524.4-.664.711a5.025,5.025,0,0,0-.449,1.235c-.15.842.14,1.722,0,2.564-.084.384-.384.814-.767.72a.692.692,0,0,1-.384-.29,1.665,1.665,0,0,1-.337-1.123c0-.618.384-1.319,0-1.8a.992.992,0,0,0-1.432.094,3.2,3.2,0,0,0-.683,1.553,1.282,1.282,0,0,0-.7-.608.636.636,0,0,1-.29-.131.73.73,0,0,1-.122-.43,1.272,1.272,0,0,0-1.1-1.01,2.246,2.246,0,0,0-2.311,2.741c.243.636.936,1.16.786,1.824a1.076,1.076,0,0,0-1.46.936,2.854,2.854,0,0,1-2.348-1.31,4.679,4.679,0,0,0-2.124-1.787c-.608-.168-1.282,0-1.871-.178a55.951,55.951,0,0,0-4.079,7.485c-.1.636-.2,1.272-.29,1.871a22.811,22.811,0,0,0-.393,6.185Z" transform="translate(-269.765 -164.34)" fill="#fff"/>
        <path id="Path_17" data-name="Path 17" d="M312.638,172.279a1.712,1.712,0,0,1-.608-1.347,11.847,11.847,0,0,1,.15-1.525,6.119,6.119,0,0,0-.7-3.537,2.807,2.807,0,0,0-1.029-1.151,3.5,3.5,0,0,0-1.7-.3c-2.947,0-5.913.524-8.823.056a17.066,17.066,0,0,0-2.564-.356c-1.946,0-4.566,1.216-5.146,3.256a1.731,1.731,0,0,0,.758,2.058c1.347.861,2.03-.15,3.134-.749s2.479-.047,3.658-.43a2.657,2.657,0,0,1,.786-.215c.674,0,1.076.823.982,1.5a8.516,8.516,0,0,1-.758,1.871,1.665,1.665,0,0,0,.215,1.871c.122.112.281.206.327.356.094.318-.309.515-.6.674a1.759,1.759,0,0,0-.767,2.171c.29.674.936,1.095,1.3,1.75a19.211,19.211,0,0,0,.627,1.871,3.284,3.284,0,0,0,2.554,1.113,2.5,2.5,0,0,0,1.076,1.75,1.871,1.871,0,0,0,2.115-.43,3.938,3.938,0,0,0,.936-2.058,9.589,9.589,0,0,1,.4-1.7,4.762,4.762,0,0,1,2.807-2.33,6.306,6.306,0,0,0,2.292-1.188,1.6,1.6,0,0,0,.112-2.292C313.752,172.6,313.1,172.616,312.638,172.279Z" transform="translate(-271.204 -163.431)" fill="#fff"/>
        <path id="Path_18" data-name="Path 18" d="M367.768,198.663a2.189,2.189,0,0,0-.393-.58c-.346-.412-.833-.861-1.347-.7s-.664,1.048-.7,1.7a4.725,4.725,0,0,1-.851,2.4l-1.375-.234c-.674-1.244-.187-2.807.3-4.135l2.049-5.539a6.859,6.859,0,0,0,.468-1.768,6.4,6.4,0,0,0-.421-2.358,29.869,29.869,0,0,0,1.375-7.279,7.019,7.019,0,0,0-.1-1.871,8.42,8.42,0,0,0-.87-2.077l-1.132-2.115a2.087,2.087,0,0,0-.543-.749,2.554,2.554,0,0,0-.664-.318,6.465,6.465,0,0,1-2.713-2.021c-1.385-1.75-2.217-3.855-4.033-5.155A16.774,16.774,0,0,0,352,163.754a5.09,5.09,0,0,0-2.161-.365,6.25,6.25,0,0,0-1.918.711,11.6,11.6,0,0,1-4.678,1.029,1.067,1.067,0,0,0-.851.262.758.758,0,0,0,.243,1c.3.234.683.346,1,.571-.3.711-1.722.477-2.03,1.179-.094.206-.075.468-.234.636a.552.552,0,0,1-.384.131c-.692,0-1.179-.674-1.478-1.3a3.032,3.032,0,0,0-1.2-1.637,1.338,1.338,0,0,0-1.272.094c-.168.112-.309.262-.477.365a2.031,2.031,0,0,1-.786.2,18.28,18.28,0,0,1-2.414.14.4.4,0,0,0-.215,0,.384.384,0,0,0-.112.187,14.039,14.039,0,0,0-.561,2.47,3.388,3.388,0,0,1-.636,1.918,1.021,1.021,0,0,0-.215.271.646.646,0,0,0,0,.3,1.619,1.619,0,0,0,.936,1.2c.833.356,1.825,0,2.695.234.365.112.748.346,1.1.2a.814.814,0,0,0,.4-.861,5.372,5.372,0,0,0-.318-.936,3.574,3.574,0,0,1,.356-2.657,1.684,1.684,0,0,0,.777,1.179c.487.2,1.067-.084,1.534.131s.646,1.067,1.076,1.553a2.491,2.491,0,0,1,.365.4.936.936,0,0,1-.075.936,3.151,3.151,0,0,1-.683.683c-.384.327-.758.664-1.1,1.02a3.3,3.3,0,0,1-.664.589.936.936,0,0,1-.842.14,5.848,5.848,0,0,1-.617-.356.936.936,0,0,0-1.142.327,2.386,2.386,0,0,0-3.275.936c-.337.7-.337,1.628-.936,2.077-.786.561-1.965,0-2.807.44a1.254,1.254,0,0,0,.627,2.348c.608,0,1.151-.458,1.768-.458a1.563,1.563,0,0,1,.056.777.393.393,0,0,1-.075.2.487.487,0,0,1-.271.15c-1.422.44-2.985.477-4.285,1.207a9.056,9.056,0,0,0-1.6,1.263,1.151,1.151,0,0,0-.5.786,1.094,1.094,0,0,0,.29.674l1.74,2.461a2.5,2.5,0,0,0,.543.627,2.625,2.625,0,0,0,2.5-.14.852.852,0,0,0,.346-.225,1.029,1.029,0,0,0,.084-.655c-.094-1.329.861-2.461,1.759-3.434a19.236,19.236,0,0,1,2.348-2.274,1.638,1.638,0,0,1,.7-.365,1.759,1.759,0,0,1,.758.112,21.245,21.245,0,0,1,2.554,1,2.863,2.863,0,0,1,.823.543.936.936,0,0,1,.271.936c-.084.327-.384.674-.187.936a.655.655,0,0,0,.458.187,2.1,2.1,0,0,0,.87,0,1.076,1.076,0,0,0,.636-1.385c-.412-.936-1.946-.861-2.536-1.722-.178-.262-.206-.692.065-.842a.6.6,0,0,1,.309-.065,3.481,3.481,0,0,1,1.665.543,1.722,1.722,0,0,1,.365.262,1.873,1.873,0,0,1,.29.468,10.619,10.619,0,0,0,2.414,3.228,3.125,3.125,0,0,0,1.675.936c.384,0,.617-.589.487-.936-.075-.215-.234-.515,0-.627a.262.262,0,0,1,.187,0c.487.066.739.608,1.179.842s1.17,0,1.768.075a.384.384,0,0,1,.206.066.394.394,0,0,1,.094.159l.533,1.235a.935.935,0,0,0,.2.356,1.019,1.019,0,0,0,.449.225c.58.159,1.2.15,1.75.356a3.911,3.911,0,0,1,2,2.4,2.376,2.376,0,0,0-1.113,2.03,3.125,3.125,0,0,0,.851,2.04.936.936,0,0,0,.365.281,1.048,1.048,0,0,0,.561,0l1.338-.3a.571.571,0,0,1,.374,0,.552.552,0,0,1,.234.346,4.443,4.443,0,0,1,.187,1.609,1.133,1.133,0,0,1-.178.608,1.366,1.366,0,0,1-.936.4q-5.137.608-10.292.992c-.936-.58-1.694-1.216-2.667-1.806a2.264,2.264,0,0,0-.72-.318,2.507,2.507,0,0,0-1.039.15c-2.133.561-4.407.178-6.549.552a1.946,1.946,0,0,0-.936.337c-.73.608-.374,1.815-.777,2.676-.664,1.422-2.994,1.254-3.743,2.61a3.4,3.4,0,0,0,0,2.536c.168.6.327,1.207.486,1.806-.43,1.2-1.039,2.573-1.385,3.8a1.142,1.142,0,0,0-.056.608,1.029,1.029,0,0,0,.4.515,4.678,4.678,0,0,0,1.8.842,3.565,3.565,0,0,1,.992.29c.683.374.87,1.263,1.347,1.871a3.125,3.125,0,0,0,2.133,1.076,9.357,9.357,0,0,0,2.442-.15l4.061-.608a2.4,2.4,0,0,1,1.431.075,1.778,1.778,0,0,1,.739.767c.627,1.151.487,2.545.683,3.845.243,1.665,1.048,3.209,1.319,4.875s-1.385,3.471-1.974,5.034a4.033,4.033,0,0,0-.356,1.394,4.331,4.331,0,0,0,.4,1.553c.552,1.366,1.1,2.741,1.647,4.107a1.376,1.376,0,0,0,.309.533,1.348,1.348,0,0,0,.6.271,11.678,11.678,0,0,0,1.984.309.935.935,0,0,0,.515-.075,1.029,1.029,0,0,0,.356-.44A32.256,32.256,0,0,1,354,231.055a5.9,5.9,0,0,0,1.45-1.871,5.782,5.782,0,0,0,.281-1.441c.168-1.684.337-3.359.515-5.043s2.161-3.172,3.275-4.575c.88-1.1,1.871-2.246,1.984-3.649s-.936-2.957-.786-4.482l-2.255-1.871c-.936-.814-1.993-1.74-2.161-2.994a5.164,5.164,0,0,1,.159-1.647l.618-3.088a2.012,2.012,0,0,1,1.057.618l2.348,2.133a.935.935,0,0,1,.281.356.814.814,0,0,1,0,.5c-.3,1.067-1.095,2.086-.8,3.144a3.387,3.387,0,0,0,1.591,1.7,1.759,1.759,0,0,0,.879.356,1.647,1.647,0,0,0,.833-.327,11.7,11.7,0,0,0,3.181-3.144,3.443,3.443,0,0,0,.533-1c.337-1.132-.243-2.4.14-3.518C367.281,200.225,368.058,199.514,367.768,198.663Z" transform="translate(-273.265 -163.383)" fill="#fff"/>
        <path id="Path_19" data-name="Path 19" d="M364.722,227.94a1.478,1.478,0,0,0-.936.674,1.871,1.871,0,0,1-1.45.861l-1.431.215a1.281,1.281,0,0,0-.421.122.936.936,0,0,0-.44.749v.936c-.094,1.534-1.581,2.6-2.068,4.051a.655.655,0,0,0-.047.327.72.72,0,0,0,.224.365.716.716,0,0,0,.954.3l1.16-.4a5.765,5.765,0,0,0,1.5-.7,2.807,2.807,0,0,0,1.1-1.871,9.188,9.188,0,0,1,.168-2.105,4.136,4.136,0,0,1,1.039-1.319C364.311,229.867,366.042,227.8,364.722,227.94Z" transform="translate(-275.44 -167.538)" fill="#fff"/>
        <path id="Path_20" data-name="Path 20" d="M310.509,190.179a1.458,1.458,0,0,0-.374-.206,4.1,4.1,0,0,0-.571-.2,1.151,1.151,0,0,1-.627-.458,1.16,1.16,0,0,0-.384-.356.982.982,0,0,0-1.207.281,1.011,1.011,0,0,0-.1.281,3.2,3.2,0,0,0-.084.589.5.5,0,0,0,0,.234.477.477,0,0,0,.159.206,1.45,1.45,0,0,0,.936.262,7.626,7.626,0,0,1,1.029,0,.514.514,0,0,1,.206.056,1.141,1.141,0,0,1,.159.14.571.571,0,0,0,.505.075,1.8,1.8,0,0,0,.458-.243.3.3,0,0,0,.112-.131.187.187,0,0,0,0-.1.841.841,0,0,0-.215-.43Z" transform="translate(-272.171 -165.023)" fill="#fff"/>
      </g>
      <path id="Path_21" data-name="Path 21" d="M275.309,194.567a60.694,60.694,0,0,1,2.648-17.777,55.633,55.633,0,0,0,83.936,72.979,60.882,60.882,0,0,1-86.583-55.2Z" transform="translate(-242.295 -133.388)" opacity="0.22"/>
    </g>
    <g id="freepik--Connection--inject-175" transform="translate(183.085 78.607)">
      <path id="Path_22" data-name="Path 22" d="M245.614,122.088c0-13.969-9.777-30.988-21.941-38.005C217.18,80.34,211.342,80.2,207.29,83h0l-4.79,2.882c3.967-2.1,9.356-1.693,15.288,1.731,12.163,7.027,21.987,24.036,21.941,38.005,0,6.914-2.442,11.78-6.362,14.091h0l5.427-3.293a9.619,9.619,0,0,0,1.151-.692h0C243.471,133.231,245.6,128.553,245.614,122.088Z" transform="translate(-194.818 -81.066)" fill="#e0e0e0"/>
      <path id="Path_23" data-name="Path 23" d="M245.614,122.088c0-13.969-9.777-30.988-21.941-38.005C217.18,80.34,211.342,80.2,207.29,83h0l-4.79,2.882c3.967-2.1,9.356-1.693,15.288,1.731,12.163,7.027,21.987,24.036,21.941,38.005,0,6.914-2.442,11.78-6.362,14.091h0l5.427-3.293a9.619,9.619,0,0,0,1.151-.692h0C243.471,133.231,245.6,128.553,245.614,122.088Z" transform="translate(-194.818 -81.066)" opacity="0.1"/>
      <path id="Path_24" data-name="Path 24" d="M239.262,125.858c.047-13.969-9.777-30.979-21.941-38.005-5.932-3.424-11.321-3.827-15.288-1.731a9.626,9.626,0,0,0-1.076.646h0c-3.537,2.451-5.7,7.148-5.717,13.66,0,13.969,9.787,31,21.95,38.015,6.147,3.555,11.7,3.864,15.719,1.5S239.243,132.772,239.262,125.858Z" transform="translate(-194.351 -81.309)" fill="#e0e0e0"/>
      <path id="Path_25" data-name="Path 25" d="M220.439,135.388c-11.49-6.634-20.808-22.773-20.771-35.975,0-5.024,1.432-8.926,4-11.153-.122.056-.243.094-.365.159a7.655,7.655,0,0,0-.8.487l-.122.075c-2.966,2.115-4.6,6.259-4.622,11.686,0,13.2,9.281,29.332,20.78,35.975a17.964,17.964,0,0,0,8.692,2.695,9.1,9.1,0,0,0,4.678-1.188,8.823,8.823,0,0,0,1.263-.936,9.207,9.207,0,0,1-4,.879A17.889,17.889,0,0,1,220.439,135.388Z" transform="translate(-194.513 -81.529)" fill="#e0e0e0"/>
      <path id="Path_26" data-name="Path 26" d="M220.439,135.388c-11.49-6.634-20.808-22.773-20.771-35.975,0-5.024,1.432-8.926,4-11.153-.122.056-.243.094-.365.159a7.655,7.655,0,0,0-.8.487l-.122.075c-2.966,2.115-4.6,6.259-4.622,11.686,0,13.2,9.281,29.332,20.78,35.975a17.964,17.964,0,0,0,8.692,2.695,9.1,9.1,0,0,0,4.678-1.188,8.823,8.823,0,0,0,1.263-.936,9.207,9.207,0,0,1-4,.879A17.889,17.889,0,0,1,220.439,135.388Z" transform="translate(-194.513 -81.529)" opacity="0.2"/>
      <path id="Path_27" data-name="Path 27" d="M216.444,90.054a17.945,17.945,0,0,0-8.7-2.7,9.291,9.291,0,0,0-3.958.851c-2.564,2.227-3.986,6.128-4,11.153,0,13.2,9.281,29.341,20.771,35.975a17.889,17.889,0,0,0,8.692,2.7,9.207,9.207,0,0,0,4-.88c2.536-2.227,3.93-6.11,3.948-11.134C237.243,112.818,227.924,96.688,216.444,90.054Z" transform="translate(-194.644 -81.47)" fill="#455a64"/>
      <path id="Path_28" data-name="Path 28" d="M226.94,122.654l-4.978-4.519a3.8,3.8,0,0,1-1.235-2.592v-.767c3.134.458,5.38-1.7,5.4-5.763,0-5.23-3.668-11.611-8.224-14.24s-8.262-.515-8.271,4.678c0,4.061,2.208,8.8,5.333,11.967v.758c0,.87-.515,1.357-1.244,1.17l-4.987-1.244c-2.479-.608-4.36.664-4.847,3.293l-.056.309c3.743,8.318,9.964,15.906,16.991,19.994a17.889,17.889,0,0,0,8.692,2.7,9.459,9.459,0,0,0,3.181-.543l-.936-6.372a15.737,15.737,0,0,0-4.819-8.832Z" transform="translate(-194.904 -81.875)" fill="#1acd81"/>
      <path id="Path_29" data-name="Path 29" d="M372.493,359.118c.037-13.978-9.787-30.979-21.95-38.005-6.493-3.743-12.341-3.883-16.383-1.076h0l-4.79,2.882c3.967-2.1,9.356-1.693,15.288,1.731,12.163,7.027,21.978,24.036,21.941,38.005,0,6.914-2.451,11.78-6.372,14.091h0l5.427-3.284a12.156,12.156,0,0,0,1.151-.7h0C370.341,370.261,372.475,365.583,372.493,359.118Z" transform="translate(-202.985 -96.323)" fill="#e0e0e0"/>
      <path id="Path_30" data-name="Path 30" d="M372.493,359.118c.037-13.978-9.787-30.979-21.95-38.005-6.493-3.743-12.341-3.883-16.383-1.076h0l-4.79,2.882c3.967-2.1,9.356-1.693,15.288,1.731,12.163,7.027,21.978,24.036,21.941,38.005,0,6.914-2.451,11.78-6.372,14.091h0l5.427-3.284a12.156,12.156,0,0,0,1.151-.7h0C370.341,370.261,372.475,365.583,372.493,359.118Z" transform="translate(-202.985 -96.323)" opacity="0.1"/>
      <path id="Path_31" data-name="Path 31" d="M366.142,362.888c0-13.969-9.777-30.979-21.941-38.005-5.932-3.424-11.321-3.827-15.288-1.731a9.747,9.747,0,0,0-1.085.646h0c-3.527,2.451-5.689,7.148-5.707,13.66,0,13.969,9.787,31,21.95,38.015,6.147,3.555,11.7,3.864,15.709,1.5S366.123,369.8,366.142,362.888Z" transform="translate(-202.518 -96.566)" fill="#e0e0e0"/>
      <path id="Path_32" data-name="Path 32" d="M347.309,372.418c-11.49-6.634-20.808-22.773-20.771-35.975,0-5.024,1.432-8.926,4-11.153l-.365.159a8.921,8.921,0,0,0-.814.487l-.112.075c-2.966,2.115-4.6,6.259-4.622,11.686,0,13.2,9.281,29.341,20.771,35.975a18.03,18.03,0,0,0,8.692,2.695,9.1,9.1,0,0,0,4.678-1.188,8.644,8.644,0,0,0,1.263-.936,9.207,9.207,0,0,1-4,.879,17.889,17.889,0,0,1-8.711-2.7Z" transform="translate(-202.679 -96.786)" fill="#e0e0e0"/>
      <path id="Path_33" data-name="Path 33" d="M347.309,372.418c-11.49-6.634-20.808-22.773-20.771-35.975,0-5.024,1.432-8.926,4-11.153l-.365.159a8.921,8.921,0,0,0-.814.487l-.112.075c-2.966,2.115-4.6,6.259-4.622,11.686,0,13.2,9.281,29.341,20.771,35.975a18.03,18.03,0,0,0,8.692,2.695,9.1,9.1,0,0,0,4.678-1.188,8.644,8.644,0,0,0,1.263-.936,9.207,9.207,0,0,1-4,.879,17.889,17.889,0,0,1-8.711-2.7Z" transform="translate(-202.679 -96.786)" opacity="0.2"/>
      <path id="Path_34" data-name="Path 34" d="M343.315,327.084a17.889,17.889,0,0,0-8.692-2.7,9.263,9.263,0,0,0-3.958.852c-2.564,2.227-3.986,6.128-4,11.153,0,13.2,9.281,29.341,20.771,35.975a17.889,17.889,0,0,0,8.692,2.7,9.206,9.206,0,0,0,4-.879c2.536-2.227,3.93-6.11,3.948-11.134C364.123,349.848,354.8,333.718,343.315,327.084Z" transform="translate(-202.811 -96.727)" fill="#455a64"/>
      <path id="Path_35" data-name="Path 35" d="M353.82,359.684l-4.987-4.519a3.827,3.827,0,0,1-1.226-2.592v-.758c3.134.449,5.38-1.712,5.389-5.773,0-5.23-3.668-11.611-8.215-14.24s-8.262-.515-8.271,4.678c0,4.061,2.208,8.8,5.333,11.967v.758c0,.87-.515,1.357-1.244,1.17l-5-1.244c-2.47-.608-4.351.664-4.837,3.3l-.056.3c3.743,8.318,9.955,15.906,16.991,19.994a17.889,17.889,0,0,0,8.692,2.7,9.458,9.458,0,0,0,3.181-.543l-.936-6.372A15.793,15.793,0,0,0,353.82,359.684Z" transform="translate(-203.071 -97.132)" fill="#1acd81"/>
      <path id="Path_36" data-name="Path 36" d="M442.94,319.616c0-12.294-8.608-27.274-19.311-33.449-5.717-3.3-10.863-3.424-14.418-.936h0L405,287.711c3.49-1.871,8.234-1.488,13.454,1.525,10.7,6.175,19.349,21.155,19.321,33.449,0,6.082-2.161,10.367-5.614,12.406h0l4.772-2.891a8.506,8.506,0,0,0,1.01-.608h.047C441.05,329.421,442.921,325.3,442.94,319.616Z" transform="translate(-207.853 -94.096)" fill="#e0e0e0"/>
      <path id="Path_37" data-name="Path 37" d="M442.94,319.616c0-12.294-8.608-27.274-19.311-33.449-5.717-3.3-10.863-3.424-14.418-.936h0L405,287.711c3.49-1.871,8.234-1.488,13.454,1.525,10.7,6.175,19.349,21.155,19.321,33.449,0,6.082-2.161,10.367-5.614,12.406h0l4.772-2.891a8.506,8.506,0,0,0,1.01-.608h.047C441.05,329.421,442.921,325.3,442.94,319.616Z" transform="translate(-207.853 -94.096)" opacity="0.1"/>
      <path id="Path_38" data-name="Path 38" d="M437.335,322.936c0-12.294-8.617-27.274-19.321-33.449-5.221-3.013-9.965-3.378-13.454-1.525a9.8,9.8,0,0,0-.936.561h0c-3.106,2.161-5.006,6.3-5.024,12.023,0,12.3,8.617,27.292,19.321,33.468,5.408,3.125,10.292,3.4,13.829,1.319S437.335,329.018,437.335,322.936Z" transform="translate(-207.441 -94.31)" fill="#e0e0e0"/>
      <path id="Path_39" data-name="Path 39" d="M420.766,331.326c-10.114-5.838-18.31-20.041-18.282-31.662,0-4.426,1.263-7.859,3.518-9.824-.1.047-.215.084-.318.14a6.846,6.846,0,0,0-.711.43l-.1.066c-2.61,1.871-4.051,5.511-4.07,10.292,0,11.621,8.168,25.823,18.292,31.671a15.737,15.737,0,0,0,7.644,2.377,7.907,7.907,0,0,0,4.1-1.057,7.226,7.226,0,0,0,1.113-.814,8.168,8.168,0,0,1-3.527.767,15.793,15.793,0,0,1-7.654-2.386Z" transform="translate(-207.583 -94.504)" fill="#e0e0e0"/>
      <path id="Path_40" data-name="Path 40" d="M420.766,331.326c-10.114-5.838-18.31-20.041-18.282-31.662,0-4.426,1.263-7.859,3.518-9.824-.1.047-.215.084-.318.14a6.846,6.846,0,0,0-.711.43l-.1.066c-2.61,1.871-4.051,5.511-4.07,10.292,0,11.621,8.168,25.823,18.292,31.671a15.737,15.737,0,0,0,7.644,2.377,7.907,7.907,0,0,0,4.1-1.057,7.226,7.226,0,0,0,1.113-.814,8.168,8.168,0,0,1-3.527.767,15.793,15.793,0,0,1-7.654-2.386Z" transform="translate(-207.583 -94.504)" opacity="0.2"/>
      <path id="Path_41" data-name="Path 41" d="M417.261,291.426a15.719,15.719,0,0,0-7.653-2.386,8.187,8.187,0,0,0-3.49.749c-2.255,1.965-3.509,5.4-3.518,9.824,0,11.621,8.168,25.823,18.282,31.662a15.793,15.793,0,0,0,7.654,2.376,8.168,8.168,0,0,0,3.527-.767c2.236-1.965,3.462-5.38,3.471-9.805C435.572,311.458,427.366,297.264,417.261,291.426Z" transform="translate(-207.698 -94.452)" fill="#455a64"/>
      <path id="Path_42" data-name="Path 42" d="M426.5,320.123l-4.388-3.986a3.3,3.3,0,0,1-1.076-2.283v-.664c2.76.4,4.734-1.506,4.744-5.08a16,16,0,0,0-7.232-12.537c-4-2.311-7.27-.449-7.289,4.154a16.2,16.2,0,0,0,4.678,10.526v.674c0,.767-.449,1.188-1.095,1.029l-4.369-1.076c-2.18-.533-3.836.58-4.267,2.9v.262c3.3,7.326,8.767,14.034,14.97,17.609a15.794,15.794,0,0,0,7.653,2.377,8.261,8.261,0,0,0,2.807-.477l-.833-5.614a13.894,13.894,0,0,0-4.3-7.813Z" transform="translate(-207.931 -94.809)" fill="#1acd81"/>
      <path id="Path_43" data-name="Path 43" d="M337.7,134.5c0-10.825-7.579-24-16.991-29.435-5.034-2.9-9.553-3.013-12.687-.842h0l-3.743,2.227c3.078-1.619,7.251-1.3,11.845,1.347,9.412,5.436,17.019,18.61,16.991,29.435,0,5.352-1.871,9.122-4.931,10.91h0l4.2-2.545c.309-.168.608-.346.936-.543h0C336.054,143.131,337.7,139.472,337.7,134.5Z" transform="translate(-201.37 -82.46)" fill="#e0e0e0"/>
      <path id="Path_44" data-name="Path 44" d="M337.7,134.5c0-10.825-7.579-24-16.991-29.435-5.034-2.9-9.553-3.013-12.687-.842h0l-3.743,2.227c3.078-1.619,7.251-1.3,11.845,1.347,9.412,5.436,17.019,18.61,16.991,29.435,0,5.352-1.871,9.122-4.931,10.91h0l4.2-2.545c.309-.168.608-.346.936-.543h0C336.054,143.131,337.7,139.472,337.7,134.5Z" transform="translate(-201.37 -82.46)" opacity="0.1"/>
      <path id="Path_45" data-name="Path 45" d="M332.8,137.424c0-10.825-7.579-24-16.991-29.435-4.594-2.648-8.767-2.966-11.845-1.347a8.2,8.2,0,0,0-.833.505h0c-2.741,1.871-4.416,5.53-4.426,10.573,0,10.825,7.579,24.008,17,29.454,4.762,2.741,9.066,2.985,12.163,1.151S332.786,142.776,332.8,137.424Z" transform="translate(-201.011 -82.648)" fill="#e0e0e0"/>
      <path id="Path_46" data-name="Path 46" d="M318.221,144.8c-8.907-5.137-16.121-17.637-16.093-27.854,0-3.892,1.113-6.924,3.1-8.645a.636.636,0,0,0-.281.131,6.86,6.86,0,0,0-.627.365l-.094.065c-2.292,1.637-3.565,4.847-3.574,9.048,0,10.226,7.186,22.727,16.083,27.863a13.9,13.9,0,0,0,6.737,2.086,7.036,7.036,0,0,0,3.6-.936,6.09,6.09,0,0,0,.936-.72,7.092,7.092,0,0,1-3.1.674,13.791,13.791,0,0,1-6.69-2.077Z" transform="translate(-201.136 -82.819)" fill="#e0e0e0"/>
      <path id="Path_47" data-name="Path 47" d="M318.221,144.8c-8.907-5.137-16.121-17.637-16.093-27.854,0-3.892,1.113-6.924,3.1-8.645a.636.636,0,0,0-.281.131,6.86,6.86,0,0,0-.627.365l-.094.065c-2.292,1.637-3.565,4.847-3.574,9.048,0,10.226,7.186,22.727,16.083,27.863a13.9,13.9,0,0,0,6.737,2.086,7.036,7.036,0,0,0,3.6-.936,6.09,6.09,0,0,0,.936-.72,7.092,7.092,0,0,1-3.1.674,13.791,13.791,0,0,1-6.69-2.077Z" transform="translate(-201.136 -82.819)" opacity="0.2"/>
      <path id="Path_48" data-name="Path 48" d="M315.113,109.7a13.791,13.791,0,0,0-6.727-2.1,7.158,7.158,0,0,0-3.069.655c-1.984,1.722-3.088,4.753-3.1,8.645,0,10.217,7.186,22.717,16.093,27.854a13.791,13.791,0,0,0,6.727,2.1,7.092,7.092,0,0,0,3.1-.674c1.974-1.731,3.05-4.734,3.06-8.636C331.234,127.323,324.02,114.832,315.113,109.7Z" transform="translate(-201.237 -82.774)" fill="#455a64"/>
      <path id="Path_49" data-name="Path 49" d="M323.262,134.946l-3.855-3.5a2.975,2.975,0,0,1-.936-2.012v-.561c2.423.356,4.164-1.329,4.173-4.472a14.034,14.034,0,0,0-6.362-11.022c-3.527-2.04-6.4-.4-6.409,3.649a14.137,14.137,0,0,0,4.136,9.263v.6c0,.664-.4,1.039-.936.936l-3.874-.936a2.877,2.877,0,0,0-3.743,2.554l-.047.234c2.91,6.447,7.719,12.341,13.164,15.485a13.791,13.791,0,0,0,6.727,2.1,7.28,7.28,0,0,0,2.47-.421l-.739-4.931A12.163,12.163,0,0,0,323.262,134.946Z" transform="translate(-201.443 -83.089)" fill="#1acd81"/>
      <path id="Path_50" data-name="Path 50" d="M433.04,237.414c0-10.825-7.579-24-17-29.435-5.024-2.91-9.553-3.013-12.687-.842h0l-3.743,2.227c3.069-1.619,7.242-1.31,11.836,1.347,9.422,5.436,17.029,18.61,17,29.435,0,5.352-1.871,9.122-4.94,10.909h0l4.2-2.545a7.7,7.7,0,0,0,.889-.533h0C431.375,246.04,433.021,242.466,433.04,237.414Z" transform="translate(-207.506 -89.084)" fill="#e0e0e0"/>
      <path id="Path_51" data-name="Path 51" d="M433.04,237.414c0-10.825-7.579-24-17-29.435-5.024-2.91-9.553-3.013-12.687-.842h0l-3.743,2.227c3.069-1.619,7.242-1.31,11.836,1.347,9.422,5.436,17.029,18.61,17,29.435,0,5.352-1.871,9.122-4.94,10.909h0l4.2-2.545a7.7,7.7,0,0,0,.889-.533h0C431.375,246.04,433.021,242.466,433.04,237.414Z" transform="translate(-207.506 -89.084)" opacity="0.1"/>
      <path id="Path_52" data-name="Path 52" d="M428.124,240.334c0-10.825-7.579-24-17-29.435-4.594-2.657-8.767-2.966-11.836-1.347a7.718,7.718,0,0,0-.842.505h0c-2.732,1.871-4.407,5.539-4.416,10.582,0,10.825,7.579,24.008,17,29.444,4.753,2.751,9.066,2.994,12.163,1.16S428.106,245.686,428.124,240.334Z" transform="translate(-207.147 -89.272)" fill="#e0e0e0"/>
      <path id="Path_53" data-name="Path 53" d="M413.531,247.709c-8.9-5.137-16.112-17.637-16.084-27.863,0-3.892,1.113-6.914,3.1-8.636l-.29.122a6.16,6.16,0,0,0-.627.374l-.084.066c-2.3,1.637-3.565,4.847-3.583,9.048,0,10.226,7.195,22.717,16.093,27.863a13.866,13.866,0,0,0,6.727,2.086,6.989,6.989,0,0,0,3.611-.936,6.549,6.549,0,0,0,.936-.72,7.129,7.129,0,0,1-3.1.683,13.922,13.922,0,0,1-6.7-2.086Z" transform="translate(-207.271 -89.443)" fill="#e0e0e0"/>
      <path id="Path_54" data-name="Path 54" d="M413.531,247.709c-8.9-5.137-16.112-17.637-16.084-27.863,0-3.892,1.113-6.914,3.1-8.636l-.29.122a6.16,6.16,0,0,0-.627.374l-.084.066c-2.3,1.637-3.565,4.847-3.583,9.048,0,10.226,7.195,22.717,16.093,27.863a13.866,13.866,0,0,0,6.727,2.086,6.989,6.989,0,0,0,3.611-.936,6.549,6.549,0,0,0,.936-.72,7.129,7.129,0,0,1-3.1.683,13.922,13.922,0,0,1-6.7-2.086Z" transform="translate(-207.271 -89.443)" opacity="0.2"/>
      <path id="Path_55" data-name="Path 55" d="M410.443,212.6a13.876,13.876,0,0,0-6.737-2.086,7.12,7.12,0,0,0-3.06.655c-1.983,1.722-3.088,4.744-3.1,8.636,0,10.226,7.186,22.727,16.084,27.863a13.923,13.923,0,0,0,6.737,2.1,7.129,7.129,0,0,0,3.1-.683c1.965-1.722,3.05-4.734,3.059-8.627C426.555,230.233,419.341,217.733,410.443,212.6Z" transform="translate(-207.373 -89.398)" fill="#455a64"/>
      <path id="Path_56" data-name="Path 56" d="M418.585,237.854l-3.864-3.509a2.938,2.938,0,0,1-.936-2v-.589c2.423.346,4.164-1.329,4.173-4.472A14.035,14.035,0,0,0,411.6,216.25c-3.537-2.04-6.4-.393-6.409,3.658a14.128,14.128,0,0,0,4.126,9.263v.589c0,.674-.393,1.048-.936.936l-3.864-.936a2.873,2.873,0,0,0-3.743,2.554v.234c2.91,6.447,7.71,12.341,13.155,15.485a13.923,13.923,0,0,0,6.737,2.1,7.223,7.223,0,0,0,2.461-.421l-.73-4.931a12.163,12.163,0,0,0-3.808-6.924Z" transform="translate(-207.581 -89.711)" fill="#1acd81"/>
      <path id="Path_57" data-name="Path 57" d="M282.031,313.314c0-10.816-7.579-24-16.991-29.435-5.024-2.9-9.553-3.013-12.687-.833h0l-3.743,2.227c3.078-1.628,7.251-1.31,11.845,1.338,9.422,5.445,17.029,18.619,16.991,29.435,0,5.352-1.871,9.122-4.931,10.919h0l4.2-2.545a7.4,7.4,0,0,0,.936-.543h0C280.365,321.941,282.021,318.32,282.031,313.314Z" transform="translate(-197.786 -93.97)" fill="#e0e0e0"/>
      <path id="Path_58" data-name="Path 58" d="M282.031,313.314c0-10.816-7.579-24-16.991-29.435-5.024-2.9-9.553-3.013-12.687-.833h0l-3.743,2.227c3.078-1.628,7.251-1.31,11.845,1.338,9.422,5.445,17.029,18.619,16.991,29.435,0,5.352-1.871,9.122-4.931,10.919h0l4.2-2.545a7.4,7.4,0,0,0,.936-.543h0C280.365,321.941,282.021,318.32,282.031,313.314Z" transform="translate(-197.786 -93.97)" opacity="0.1"/>
      <path id="Path_59" data-name="Path 59" d="M277.114,316.235c0-10.816-7.569-23.99-16.991-29.435-4.594-2.648-8.767-2.966-11.845-1.338a6.734,6.734,0,0,0-.833.5h0c-2.732,1.871-4.407,5.539-4.426,10.582,0,10.816,7.588,24.008,17,29.444,4.762,2.751,9.066,2.985,12.163,1.16S277.105,321.586,277.114,316.235Z" transform="translate(-197.427 -94.158)" fill="#e0e0e0"/>
      <path id="Path_60" data-name="Path 60" d="M262.531,323.618c-8.907-5.137-16.121-17.637-16.093-27.863,0-3.892,1.113-6.914,3.1-8.645l-.281.131a5.273,5.273,0,0,0-.627.374l-.094.066c-2.292,1.628-3.565,4.837-3.574,9.038,0,10.226,7.186,22.727,16.084,27.863a13.848,13.848,0,0,0,6.737,2.1,6.952,6.952,0,0,0,3.6-.936,6.615,6.615,0,0,0,.982-.72,7.167,7.167,0,0,1-3.106.674,13.867,13.867,0,0,1-6.727-2.077Z" transform="translate(-197.552 -94.328)" fill="#e0e0e0"/>
      <path id="Path_61" data-name="Path 61" d="M262.531,323.618c-8.907-5.137-16.121-17.637-16.093-27.863,0-3.892,1.113-6.914,3.1-8.645l-.281.131a5.273,5.273,0,0,0-.627.374l-.094.066c-2.292,1.628-3.565,4.837-3.574,9.038,0,10.226,7.186,22.727,16.084,27.863a13.848,13.848,0,0,0,6.737,2.1,6.952,6.952,0,0,0,3.6-.936,6.615,6.615,0,0,0,.982-.72,7.167,7.167,0,0,1-3.106.674,13.867,13.867,0,0,1-6.727-2.077Z" transform="translate(-197.552 -94.328)" opacity="0.2"/>
      <path id="Path_62" data-name="Path 62" d="M259.442,288.506a13.95,13.95,0,0,0-6.737-2.1,7.3,7.3,0,0,0-3.069.655c-1.984,1.731-3.088,4.753-3.1,8.645,0,10.226,7.186,22.727,16.093,27.863a13.866,13.866,0,0,0,6.727,2.086,7.167,7.167,0,0,0,3.106-.674c1.965-1.731,3.041-4.734,3.06-8.626C275.554,306.133,268.34,293.642,259.442,288.506Z" transform="translate(-197.653 -94.283)" fill="#455a64"/>
      <path id="Path_63" data-name="Path 63" d="M267.573,313.754l-3.855-3.5a2.956,2.956,0,0,1-.936-2.012v-.589c2.433.356,4.173-1.319,4.182-4.472a14.034,14.034,0,0,0-6.372-11.022c-3.527-2.04-6.4-.4-6.409,3.649a14.184,14.184,0,0,0,4.135,9.272v.589c0,.674-.393,1.048-.936.936l-3.864-.936a2.88,2.88,0,0,0-3.743,2.545l-.047.234c2.91,6.447,7.719,12.35,13.164,15.494a13.866,13.866,0,0,0,6.727,2.086,7.279,7.279,0,0,0,2.47-.412l-.739-4.94A12.164,12.164,0,0,0,267.573,313.754Z" transform="translate(-197.859 -94.597)" fill="#1acd81"/>
      <path id="Path_64" data-name="Path 64" d="M233.3,227.574c0-10.816-7.569-23.99-16.991-29.435-5.024-2.9-9.553-3-12.687-.833h0l-3.743,2.227c3.078-1.628,7.251-1.31,11.845,1.347,9.422,5.436,17.029,18.61,17,29.435,0,5.352-1.871,9.122-4.94,10.909h0L228,238.68a8.593,8.593,0,0,0,.889-.533h0C231.645,236.22,233.291,232.589,233.3,227.574Z" transform="translate(-194.65 -88.451)" fill="#e0e0e0"/>
      <path id="Path_65" data-name="Path 65" d="M233.3,227.574c0-10.816-7.569-23.99-16.991-29.435-5.024-2.9-9.553-3-12.687-.833h0l-3.743,2.227c3.078-1.628,7.251-1.31,11.845,1.347,9.422,5.436,17.029,18.61,17,29.435,0,5.352-1.871,9.122-4.94,10.909h0L228,238.68a8.593,8.593,0,0,0,.889-.533h0C231.645,236.22,233.291,232.589,233.3,227.574Z" transform="translate(-194.65 -88.451)" opacity="0.1"/>
      <path id="Path_66" data-name="Path 66" d="M228.394,230.5c0-10.825-7.579-24-17-29.435-4.594-2.657-8.767-2.975-11.845-1.347-.281.15-.561.318-.833.5h0c-2.732,1.871-4.407,5.539-4.426,10.582,0,10.825,7.588,24.008,17,29.444,4.762,2.751,9.076,2.985,12.163,1.16S228.375,235.856,228.394,230.5Z" transform="translate(-194.29 -88.639)" fill="#e0e0e0"/>
      <path id="Path_67" data-name="Path 67" d="M213.791,237.879c-8.9-5.137-16.121-17.637-16.093-27.863,0-3.892,1.113-6.914,3.106-8.636l-.29.122a6.155,6.155,0,0,0-.627.374l-.084.066c-2.3,1.637-3.574,4.837-3.583,9.048,0,10.217,7.186,22.717,16.093,27.863a13.866,13.866,0,0,0,6.727,2.086,6.952,6.952,0,0,0,3.6-.936,6.165,6.165,0,0,0,.982-.72,7.176,7.176,0,0,1-3.106.683,13.894,13.894,0,0,1-6.727-2.086Z" transform="translate(-194.414 -88.81)" fill="#e0e0e0"/>
      <path id="Path_68" data-name="Path 68" d="M213.791,237.879c-8.9-5.137-16.121-17.637-16.093-27.863,0-3.892,1.113-6.914,3.106-8.636l-.29.122a6.155,6.155,0,0,0-.627.374l-.084.066c-2.3,1.637-3.574,4.837-3.583,9.048,0,10.217,7.186,22.717,16.093,27.863a13.866,13.866,0,0,0,6.727,2.086,6.952,6.952,0,0,0,3.6-.936,6.165,6.165,0,0,0,.982-.72,7.176,7.176,0,0,1-3.106.683,13.894,13.894,0,0,1-6.727-2.086Z" transform="translate(-194.414 -88.81)" opacity="0.2"/>
      <path id="Path_69" data-name="Path 69" d="M210.712,202.766a13.9,13.9,0,0,0-6.737-2.086,7.083,7.083,0,0,0-3.06.655c-1.993,1.722-3.088,4.744-3.106,8.636,0,10.226,7.2,22.727,16.093,27.863a13.894,13.894,0,0,0,6.727,2.1,7.177,7.177,0,0,0,3.106-.683c1.965-1.731,3.05-4.734,3.06-8.627C226.824,220.4,219.61,207.9,210.712,202.766Z" transform="translate(-194.517 -88.765)" fill="#455a64"/>
      <path id="Path_70" data-name="Path 70" d="M218.855,228.014l-3.817-3.5a2.938,2.938,0,0,1-.936-2v-.589c2.433.346,4.173-1.329,4.182-4.472a14.034,14.034,0,0,0-6.372-11.031c-3.527-2.04-6.39-.393-6.409,3.649a14.212,14.212,0,0,0,4.135,9.272v.589c0,.674-.393,1.048-.936.936l-3.864-.936a2.873,2.873,0,0,0-3.743,2.554l-.047.234c2.919,6.447,7.719,12.341,13.164,15.485a13.894,13.894,0,0,0,6.727,2.1,7.28,7.28,0,0,0,2.47-.421l-.73-4.94A12.229,12.229,0,0,0,218.855,228.014Z" transform="translate(-194.725 -89.078)" fill="#1acd81"/>
      <path id="Path_71" data-name="Path 71" d="M441.728,152.132c0-13.211-9.253-29.295-20.752-35.928-6.138-3.546-11.658-3.677-15.485-1.029h0L401,117.9c3.743-1.984,8.851-1.6,14.465,1.637,11.5,6.643,20.78,22.727,20.743,35.938,0,6.549-2.311,11.134-6.025,13.323h0l5.127-3.106a9.826,9.826,0,0,0,1.085-.655h0C439.7,162.667,441.709,158.251,441.728,152.132Z" transform="translate(-207.595 -83.143)" fill="#e0e0e0"/>
      <path id="Path_72" data-name="Path 72" d="M441.728,152.132c0-13.211-9.253-29.295-20.752-35.928-6.138-3.546-11.658-3.677-15.485-1.029h0L401,117.9c3.743-1.984,8.851-1.6,14.465,1.637,11.5,6.643,20.78,22.727,20.743,35.938,0,6.549-2.311,11.134-6.025,13.323h0l5.127-3.106a9.826,9.826,0,0,0,1.085-.655h0C439.7,162.667,441.709,158.251,441.728,152.132Z" transform="translate(-207.595 -83.143)" opacity="0.1"/>
      <path id="Path_73" data-name="Path 73" d="M435.716,155.7c0-13.211-9.244-29.295-20.743-35.938-5.614-3.237-10.7-3.621-14.465-1.637a11.231,11.231,0,0,0-1.02.608h0c-3.34,2.32-5.38,6.765-5.4,12.921-.084,13.22,9.272,29.313,20.743,35.956,5.81,3.35,11.069,3.649,14.858,1.413S435.7,162.232,435.716,155.7Z" transform="translate(-207.151 -83.373)" fill="#e0e0e0"/>
      <path id="Path_74" data-name="Path 74" d="M417.9,164.714c-10.863-6.278-19.648-21.52-19.648-34.02,0-4.753,1.357-8.421,3.743-10.545l-.346.15c-.262.14-.515.29-.767.458l-.1.075c-2.807,1.993-4.36,5.913-4.369,11.04,0,12.491,8.776,27.742,19.648,34.02a16.981,16.981,0,0,0,8.215,2.554,8.561,8.561,0,0,0,4.407-1.132,8.3,8.3,0,0,0,1.188-.88,8.589,8.589,0,0,1-3.743.833,17.01,17.01,0,0,1-8.224-2.554Z" transform="translate(-207.3 -83.581)" fill="#e0e0e0"/>
      <path id="Path_75" data-name="Path 75" d="M417.9,164.714c-10.863-6.278-19.648-21.52-19.648-34.02,0-4.753,1.357-8.421,3.743-10.545l-.346.15c-.262.14-.515.29-.767.458l-.1.075c-2.807,1.993-4.36,5.913-4.369,11.04,0,12.491,8.776,27.742,19.648,34.02a16.981,16.981,0,0,0,8.215,2.554,8.561,8.561,0,0,0,4.407-1.132,8.3,8.3,0,0,0,1.188-.88,8.589,8.589,0,0,1-3.743.833,17.01,17.01,0,0,1-8.224-2.554Z" transform="translate(-207.3 -83.581)" opacity="0.2"/>
      <path id="Path_76" data-name="Path 76" d="M414.139,121.824a17.01,17.01,0,0,0-8.224-2.554,8.739,8.739,0,0,0-3.743.8c-2.423,2.105-3.743,5.792-3.743,10.545,0,12.481,8.776,27.742,19.648,34.02a17.01,17.01,0,0,0,8.224,2.554,8.589,8.589,0,0,0,3.743-.833c2.4-2.105,3.743-5.773,3.743-10.535C433.806,143.344,425,128.112,414.139,121.824Z" transform="translate(-207.43 -83.525)" fill="#455a64"/>
      <path id="Path_77" data-name="Path 77" d="M424.072,152.673l-4.678-4.276a3.6,3.6,0,0,1-1.16-2.451v-.72c2.966.43,5.09-1.619,5.1-5.455a17.168,17.168,0,0,0-7.775-13.464c-4.3-2.479-7.8-.487-7.822,4.454,0,3.845,2.086,8.327,5.043,11.321v.711c0,.823-.477,1.272-1.17,1.095l-4.678-1.17c-2.339-.58-4.117.627-4.575,3.116l-.056.29c3.555,7.869,9.422,15.064,16.065,18.909a17.01,17.01,0,0,0,8.224,2.554,8.917,8.917,0,0,0,3-.515l-.889-6.025a14.97,14.97,0,0,0-4.631-8.374Z" transform="translate(-207.679 -83.909)" fill="#1acd81"/>
      <path id="Path_78" data-name="Path 78" d="M367.727,320.8a.924.924,0,0,1-.814-1.357l34.806-64.372a.936.936,0,1,1,1.619.879l-34.8,64.362a.936.936,0,0,1-.814.487Z" transform="translate(-205.395 -92.225)" fill="#1acd81"/>
      <path id="Path_79" data-name="Path 79" d="M374.389,338.738a.936.936,0,0,1-.393-1.759l24.916-11.621a.936.936,0,1,1,.777,1.675l-24.916,11.621A.936.936,0,0,1,374.389,338.738Z" transform="translate(-205.826 -96.78)" fill="#1acd81"/>
      <path id="Path_80" data-name="Path 80" d="M426.328,279.763a.936.936,0,0,1-.936-.87l-1.132-18.8a.923.923,0,0,1,1.843-.075l1.132,18.8a.936.936,0,0,1-.861.982Z" transform="translate(-209.093 -92.529)" fill="#1acd81"/>
      <path id="Path_81" data-name="Path 81" d="M416.267,202.936h-.159a.936.936,0,0,1-.749-1.076l4.416-24.822a.936.936,0,0,1,1.815.327l-4.416,24.86a.936.936,0,0,1-.908.711Z" transform="translate(-208.519 -87.203)" fill="#1acd81"/>
      <path id="Path_82" data-name="Path 82" d="M385.869,125.966h-.047L343.27,124.1a.908.908,0,1,1,.056-1.815l42.553,1.871a.936.936,0,1,1,0,1.871Z" transform="translate(-203.823 -83.719)" fill="#1acd81"/>
      <path id="Path_83" data-name="Path 83" d="M291.648,114.521a.936.936,0,0,1-.225,0l-41.523-10.1a.936.936,0,0,1,.44-1.8l41.523,10.1a.942.942,0,1,1-.215,1.871Z" transform="translate(-197.832 -82.453)" fill="#1acd81"/>
      <path id="Path_84" data-name="Path 84" d="M213.236,187.117h-.122a.936.936,0,0,1-.8-1.048l5.118-36.7a.945.945,0,0,1,1.871.262l-5.109,36.7A.936.936,0,0,1,213.236,187.117Z" transform="translate(-195.45 -85.409)" fill="#1acd81"/>
      <path id="Path_85" data-name="Path 85" d="M241.773,280.979a.936.936,0,0,1-.814-.477L224,249.224a.936.936,0,0,1,1.628-.879l17,31.269a.936.936,0,0,1-.814,1.366Z" transform="translate(-196.199 -91.809)" fill="#1acd81"/>
      <path id="Path_86" data-name="Path 86" d="M316.224,335.612a.936.936,0,0,1-.309-.047l-29.529-10.376a.936.936,0,0,1,.618-1.74l29.529,10.376a.936.936,0,0,1-.309,1.787Z" transform="translate(-200.187 -96.666)" fill="#1acd81"/>
      <path id="Path_87" data-name="Path 87" d="M320.042,314.7a.935.935,0,0,1-.655-.271l-80.305-79.922a.923.923,0,0,1,1.3-1.31l80.305,79.922a.936.936,0,0,1-.646,1.581Z" transform="translate(-197.156 -90.841)" fill="#1acd81"/>
      <path id="Path_88" data-name="Path 88" d="M228.727,199.286a.925.925,0,0,1-.561-1.656l67.843-52.04a.936.936,0,1,1,1.123,1.469L229.288,199.09A.936.936,0,0,1,228.727,199.286Z" transform="translate(-196.448 -85.2)" fill="#1acd81"/>
      <path id="Path_89" data-name="Path 89" d="M394.825,200.208a.936.936,0,0,1-.72-.346l-50.973-64.418a.936.936,0,0,1,1.45-1.151l50.964,64.418a.921.921,0,0,1-.72,1.5Z" transform="translate(-203.862 -84.475)" fill="#1acd81"/>
      <g id="Group_2" data-name="Group " transform="translate(16.861 20.163)" opacity="0.5">
        <path id="Path_90" data-name="Path 90" d="M367.727,320.8a.924.924,0,0,1-.814-1.357l34.806-64.372a.936.936,0,1,1,1.619.879l-34.8,64.362a.936.936,0,0,1-.814.487Z" transform="translate(-222.256 -112.388)" fill="#fff"/>
        <path id="Path_91" data-name="Path 91" d="M374.389,338.738a.936.936,0,0,1-.393-1.759l24.916-11.621a.936.936,0,1,1,.777,1.675l-24.916,11.621A.936.936,0,0,1,374.389,338.738Z" transform="translate(-222.687 -116.943)" fill="#fff"/>
        <path id="Path_92" data-name="Path 92" d="M426.328,279.763a.936.936,0,0,1-.936-.87l-1.132-18.8a.923.923,0,0,1,1.843-.075l1.132,18.8a.936.936,0,0,1-.861.982Z" transform="translate(-225.954 -112.692)" fill="#fff"/>
        <path id="Path_93" data-name="Path 93" d="M416.267,202.936h-.159a.936.936,0,0,1-.749-1.076l4.416-24.822a.936.936,0,0,1,1.815.327l-4.416,24.86a.936.936,0,0,1-.908.711Z" transform="translate(-225.38 -107.367)" fill="#fff"/>
        <path id="Path_94" data-name="Path 94" d="M385.869,125.966h-.047L343.27,124.1a.908.908,0,1,1,.056-1.815l42.553,1.871a.936.936,0,1,1,0,1.871Z" transform="translate(-220.684 -103.882)" fill="#fff"/>
        <path id="Path_95" data-name="Path 95" d="M291.648,114.521a.936.936,0,0,1-.225,0l-41.523-10.1a.936.936,0,0,1,.44-1.8l41.523,10.1a.942.942,0,1,1-.215,1.871Z" transform="translate(-214.694 -102.616)" fill="#fff"/>
        <path id="Path_96" data-name="Path 96" d="M213.236,187.117h-.122a.936.936,0,0,1-.8-1.048l5.118-36.7a.945.945,0,0,1,1.871.262l-5.109,36.7A.936.936,0,0,1,213.236,187.117Z" transform="translate(-212.311 -105.573)" fill="#fff"/>
        <path id="Path_97" data-name="Path 97" d="M241.773,280.979a.936.936,0,0,1-.814-.477L224,249.224a.936.936,0,0,1,1.628-.879l17,31.269a.936.936,0,0,1-.814,1.366Z" transform="translate(-213.06 -111.972)" fill="#fff"/>
        <path id="Path_98" data-name="Path 98" d="M316.224,335.612a.936.936,0,0,1-.309-.047l-29.529-10.376a.936.936,0,0,1,.618-1.74l29.529,10.376a.936.936,0,0,1-.309,1.787Z" transform="translate(-217.048 -116.83)" fill="#fff"/>
        <path id="Path_99" data-name="Path 99" d="M320.042,314.7a.935.935,0,0,1-.655-.271l-80.305-79.922a.923.923,0,0,1,1.3-1.31l80.305,79.922a.936.936,0,0,1-.646,1.581Z" transform="translate(-214.017 -111.005)" fill="#fff"/>
        <path id="Path_100" data-name="Path 100" d="M228.727,199.286a.925.925,0,0,1-.561-1.656l67.843-52.04a.936.936,0,1,1,1.123,1.469L229.288,199.09A.936.936,0,0,1,228.727,199.286Z" transform="translate(-213.309 -105.364)" fill="#fff"/>
        <path id="Path_101" data-name="Path 101" d="M394.825,200.208a.936.936,0,0,1-.72-.346l-50.973-64.418a.936.936,0,0,1,1.45-1.151l50.964,64.418a.921.921,0,0,1-.72,1.5Z" transform="translate(-220.724 -104.639)" fill="#fff"/>
      </g>
    </g>
    <g id="freepik--Character--inject-175" transform="translate(49.551 174.333)">
      <path id="Path_102" data-name="Path 102" d="M158.878,276.308c8.58,5.96,18.235,10.077,25.4,18.067,13.38,14.9,13.688,38.9,3.181,55.96S157.418,377.647,137.517,380c-20.874,2.461-42.777-3.312-59.16-16.486s-26.8-33.767-26.787-54.819,10.778-41.916,28.378-53.4c16.065-10.479,39.147-13.464,55.268-1.478,8.14,6.063,13.576,14.97,21.707,21.08C157.568,275.382,158.223,275.85,158.878,276.308Z" transform="translate(-51.57 -187.411)" fill="#1acd81"/>
      <path id="Path_103" data-name="Path 103" d="M158.878,276.308c8.58,5.96,18.235,10.077,25.4,18.067,13.38,14.9,13.688,38.9,3.181,55.96S157.418,377.647,137.517,380c-20.874,2.461-42.777-3.312-59.16-16.486s-26.8-33.767-26.787-54.819,10.778-41.916,28.378-53.4c16.065-10.479,39.147-13.464,55.268-1.478,8.14,6.063,13.576,14.97,21.707,21.08C157.568,275.382,158.223,275.85,158.878,276.308Z" transform="translate(-51.57 -187.411)" opacity="0.2"/>
      <path id="Path_104" data-name="Path 104" d="M158.878,276.308c8.58,5.96,18.235,10.077,25.4,18.067,13.38,14.9,13.688,38.9,3.181,55.96S157.418,377.647,137.517,380c-20.874,2.461-42.777-3.312-59.16-16.486s-26.8-33.767-26.787-54.819,10.778-41.916,28.378-53.4c16.065-10.479,39.147-13.464,55.268-1.478,8.14,6.063,13.576,14.97,21.707,21.08C157.568,275.382,158.223,275.85,158.878,276.308Z" transform="translate(-51.57 -187.411)" fill="#fff" opacity="0.1"/>
      <path id="Path_105" data-name="Path 105" d="M157.414,365.089l-.056-.43a22.567,22.567,0,0,0-18.292-18.806,71.5,71.5,0,0,1-23.391-8.973c-5.118-3.1-9.955-6.9-15.7-8.57a25.58,25.58,0,0,0-16.926.936c4.828-5.071,13.1-7.3,19.723-5.015-4.585-7-8.608-14.549-10.189-22.773s-.505-17.188,4.454-23.934a24.139,24.139,0,0,1,37.257-1.993c4.912,5.371,7.672,12.921,10.9,19.452,2.311,4.678,4.678,9.478,8.524,13.043,5.764,5.389,14.034,7.326,20.013,12.481,6.774,5.848,9.693,15.185,9.721,24.13a70.988,70.988,0,0,1-2.62,17.843,67.919,67.919,0,0,1-24.485,14.97A26.441,26.441,0,0,0,157.414,365.089Z" transform="translate(-53.596 -188.804)" opacity="0.1"/>
      <path id="Path_106" data-name="Path 106" d="M63.549,305.9a61.331,61.331,0,0,1,52.33-59.562,43.459,43.459,0,0,1,5.923.992A59.815,59.815,0,0,0,65.168,305.9c-.384,19.564,9.188,39.5,25.6,53.331,12.856,10.844,29.94,18.03,48.728,20.584l-1.207.159q-2.526.3-5.08.421c-16.682-3.228-31.812-10.1-43.488-19.966C72.943,346.322,63.156,325.906,63.549,305.9Z" transform="translate(-52.34 -187.43)" fill="#fff"/>
      <path id="Path_107" data-name="Path 107" d="M184.92,364.736a59.252,59.252,0,0,0-1.048,9.759l-2.311-.87a5.979,5.979,0,0,0-6.437,1.46l-.112.122a2.33,2.33,0,0,1-3.219.15h0a2.349,2.349,0,0,1-.8-1.684l-.309-9.862Z" transform="translate(-59.237 -194.991)" fill="#ffa8a7"/>
      <path id="Path_108" data-name="Path 108" d="M175.62,402.689c4.809,5.146,13.66,9.637,20.088,5.249l-.72,1.637c-6.428,4.388-15.279-.112-20.088-5.249s-1.684-8.7-6.007-13.258a15.728,15.728,0,0,1-3.743-5.558c.2-.5.374-1.132.6-1.871a19.789,19.789,0,0,0,3.864,5.782C173.936,393.941,170.82,397.506,175.62,402.689Z" transform="translate(-58.881 -196.267)" fill="#fff"/>
      <path id="Path_109" data-name="Path 109" d="M168.162,377.52a9.356,9.356,0,0,0,1.506-3.509,2.021,2.021,0,0,1,.936-1.431v1.656a2.339,2.339,0,0,0,4.023,1.534l.112-.122a5.979,5.979,0,0,1,6.437-1.46l2.348.889a1.806,1.806,0,0,1,1.17,1.731c-.15,6.737,3,15.691,6.3,20.584,3.4,1.4,6.334,6.025,4.837,9.422l-.15.337c-6.428,4.388-15.279-.1-20.088-5.249s-1.684-8.7-6.007-13.258a19.79,19.79,0,0,1-3.864-5.782,20.938,20.938,0,0,1,2.442-5.342Z" transform="translate(-58.918 -195.556)" fill="#37474f"/>
      <path id="Path_110" data-name="Path 110" d="M178.292,388.076a.823.823,0,0,1-.749-1.46,9.356,9.356,0,0,1,9.225,0c.15.533.3,1.067.458,1.591a9.029,9.029,0,0,0-8.935-.131Z" transform="translate(-59.654 -196.381)" fill="#fff"/>
      <path id="Path_111" data-name="Path 111" d="M177.03,384.176a.823.823,0,0,1-.758-1.46,9.88,9.88,0,0,1,9.609.075c.094.552.206,1.1.327,1.656C183.411,382.969,180.585,382.38,177.03,384.176Z" transform="translate(-59.571 -196.13)" fill="#fff"/>
      <path id="Path_112" data-name="Path 112" d="M179.68,391.947a.823.823,0,0,1-.758-1.46,9.356,9.356,0,0,1,9.038-.084c.206.571.421,1.132.646,1.675A9.057,9.057,0,0,0,179.68,391.947Z" transform="translate(-59.741 -196.631)" fill="#fff"/>
      <path id="Path_113" data-name="Path 113" d="M191.756,399.051c3.4,1.4,6.334,6.025,4.837,9.422l-.15.337c-6.334,4.323-14.97,0-19.863-5.024C180.631,395.851,189.136,397.835,191.756,399.051Z" transform="translate(-59.617 -197.186)" fill="#fff"/>
      <path id="Path_114" data-name="Path 114" d="M181.2,395.736a.814.814,0,0,1-1.085-.374.8.8,0,0,1,.327-1.085,9.357,9.357,0,0,1,9.057-.084c.29.627.58,1.235.88,1.815C187.58,394.529,184.754,393.94,181.2,395.736Z" transform="translate(-59.838 -196.874)" fill="#fff"/>
      <path id="Path_115" data-name="Path 115" d="M195.768,385.74a59.884,59.884,0,0,0,2.985,9.356l-2.47.14a5.969,5.969,0,0,0-5.3,3.93l-.056.159a2.33,2.33,0,0,1-2.882,1.432h0a2.367,2.367,0,0,1-1.413-1.216l-4.266-8.879Z" transform="translate(-59.989 -196.403)" fill="#ffa8a7"/>
      <path id="Path_116" data-name="Path 116" d="M202.6,424.5c6.475,2.807,16.383,3.3,20.5-3.3v1.787c-4.117,6.606-14.034,6.072-20.5,3.3s-5.052-7.279-10.844-9.7a15.652,15.652,0,0,1-5.67-3.574c0-.524-.112-1.188-.2-1.946a19.826,19.826,0,0,0,5.866,3.743C197.548,417.216,196.135,421.736,202.6,424.5Z" transform="translate(-60.216 -198.032)" fill="#fff"/>
      <path id="Path_117" data-name="Path 117" d="M185.877,404.2a9.422,9.422,0,0,0,0-3.817,2.021,2.021,0,0,1,.3-1.694l.711,1.5A2.367,2.367,0,0,0,188.3,401.4a2.33,2.33,0,0,0,2.882-1.431l.056-.159a5.969,5.969,0,0,1,5.3-3.93l2.517-.14a1.806,1.806,0,0,1,1.768,1.113c2.582,6.222,9.076,13.146,14.081,16.308,3.668-.084,8.224,2.966,8.224,6.68v.365c-4.117,6.606-14.034,6.072-20.5,3.3s-5.052-7.279-10.844-9.7a19.824,19.824,0,0,1-5.866-3.743,21.069,21.069,0,0,1-.037-5.866Z" transform="translate(-60.203 -197.046)" fill="#37474f"/>
      <path id="Path_118" data-name="Path 118" d="M199.181,409.909a.823.823,0,0,1-1.282-1.029,9.356,9.356,0,0,1,8.421-3.742q.524.636,1.067,1.263a9.048,9.048,0,0,0-8.206,3.509Z" transform="translate(-60.979 -197.648)" fill="#fff"/>
      <path id="Path_119" data-name="Path 119" d="M196.45,406.854a.823.823,0,0,1-1.151.1.814.814,0,0,1-.131-1.132,9.862,9.862,0,0,1,8.823-3.808c.309.468.636.936.936,1.375A9.123,9.123,0,0,0,196.45,406.854Z" transform="translate(-60.802 -197.447)" fill="#fff"/>
      <path id="Path_120" data-name="Path 120" d="M202.011,412.9a.823.823,0,0,1-1.282-1.029,9.356,9.356,0,0,1,8.234-3.743c.421.44.842.87,1.263,1.282A9.057,9.057,0,0,0,202.011,412.9Z" transform="translate(-61.161 -197.842)" fill="#fff"/>
      <path id="Path_121" data-name="Path 121" d="M216.046,414.36c3.668-.084,8.224,2.966,8.224,6.68v.365c-4.051,6.549-13.726,6.082-20.2,3.424C204.575,415.894,213.108,414.332,216.046,414.36Z" transform="translate(-61.386 -198.245)" fill="#fff"/>
      <path id="Path_122" data-name="Path 122" d="M204.9,415.75a.823.823,0,0,1-1.282-1.029,9.356,9.356,0,0,1,8.252-3.743,17.27,17.27,0,0,0,1.544,1.3A9.231,9.231,0,0,0,204.9,415.75Z" transform="translate(-61.347 -198.025)" fill="#fff"/>
      <path id="Path_123" data-name="Path 123" d="M152.988,295.77l32.392,18.048a16.055,16.055,0,0,1,7.972,16.954l-6.287,33.861,6.549,20.032c-6.25,7.813-18.226,6.662-18.226,6.662-5.7-11.424-7.719-20.322-10.956-29.893s-5.4-16.177-5.4-16.177l-26.9-7.354a31.877,31.877,0,0,1-23.307-27.133c-.458-4.07-.487-6.849-.487-6.849Z" transform="translate(-55.224 -190.611)" fill="#455a64"/>
      <path id="Path_124" data-name="Path 124" d="M155.55,305.5a15.26,15.26,0,0,1-3.63,9.871l22.867,14.306a16.448,16.448,0,0,1,6.989,9.122l8.093,26.46-7.3-29.463a13.38,13.38,0,0,0-5.941-8.149L155.522,314.6C157.684,309.205,155.55,305.5,155.55,305.5Z" transform="translate(-58.029 -191.238)" opacity="0.2"/>
      <path id="Path_125" data-name="Path 125" d="M176.36,262.678c-3.3,8.851-14.521,6.549-14.521,6.549C161.268,257.364,176.36,262.678,176.36,262.678Z" transform="translate(-58.667 -188.405)" fill="#263238"/>
      <path id="Path_126" data-name="Path 126" d="M152.31,236.29h.833c5.614.056,12.678,3.864,16.14,13.632l13.445,26.039L167.374,282.8l-8.421-24.57Z" transform="translate(-58.054 -186.783)" fill="#ffa8a7"/>
      <path id="Path_127" data-name="Path 127" d="M163.262,254.146c1.076,3.069,1.141,6.39,1.31,9.637s.543,7.186,2.03,10.077a9.244,9.244,0,0,1,11.059.4,8.421,8.421,0,0,1,2.489,3.5l-12.6,5.614-8.421-24.57L155,245.22A15.7,15.7,0,0,1,163.262,254.146Z" transform="translate(-58.228 -187.358)" opacity="0.2"/>
      <path id="Path_128" data-name="Path 128" d="M168.234,280.61A9.188,9.188,0,0,1,175.176,275a9.806,9.806,0,0,1,8.552,3.509c1.675,2.021,1.413,4.753.356,7.158a8.945,8.945,0,0,1-10.236,4.856C169.862,289.358,166.746,284.4,168.234,280.61Z" transform="translate(-59.055 -189.271)" fill="#ffa8a7"/>
      <path id="Path_129" data-name="Path 129" d="M152.207,236.283c6.69-.749,15.11,2.339,23.438,24.766-10.844.271-14.521,6.549-14.521,6.549-4.9-12.444-10.414-29.716-10.414-29.716Z" transform="translate(-57.951 -186.776)" fill="#455a64"/>
      <path id="Path_130" data-name="Path 130" d="M152.207,236.283c6.69-.749,15.11,2.339,23.438,24.766-10.844.271-14.521,6.549-14.521,6.549-4.9-12.444-10.414-29.716-10.414-29.716Z" transform="translate(-57.951 -186.776)" fill="#fff" opacity="0.2"/>
      <path id="Path_131" data-name="Path 131" d="M107.767,302.556c5.745,5.52,33.346,6.549,47.427-6.868-1.347-9.469-.936-19.648,0-29.632s6.765-27.564-4.426-29.6c-14.97-2.919-22.5-.234-34.7,2.938C105.4,257.159,106.869,283.741,107.767,302.556Z" transform="translate(-55.147 -186.713)" fill="#1acd81"/>
      <path id="Path_132" data-name="Path 132" d="M107.767,302.556c5.745,5.52,33.346,6.549,47.427-6.868-1.347-9.469-.936-19.648,0-29.632s6.765-27.564-4.426-29.6c-14.97-2.919-22.5-.234-34.7,2.938C105.4,257.159,106.869,283.741,107.767,302.556Z" transform="translate(-55.147 -186.713)" fill="#fff" opacity="0.2"/>
      <path id="Path_133" data-name="Path 133" d="M130.922,226.69a8.2,8.2,0,0,1-4.5-5.127,24.326,24.326,0,0,1-.982-6.942q-.337-8.131-.692-16.252c-.094-2.189-.159-4.5.936-6.418a5.979,5.979,0,0,1,8.9-1.806c2.18-4.341,7.27-7.382,12.079-6.662,2.807.412,5.38,1.871,7.869,3.256l8.131,4.6A11.308,11.308,0,0,1,167.14,195a7.691,7.691,0,0,1,.842,5.1,22.893,22.893,0,0,1-1.534,5.024,26.629,26.629,0,0,1-2.657,5.53,9.076,9.076,0,0,1-4.734,3.743c-6.418,1.871-11.387,7.13-17.188,10.479a23.392,23.392,0,0,1-4.987,2.376,10.292,10.292,0,0,1-5.96-.561Z" transform="translate(-56.277 -183.377)" fill="#263238"/>
      <path id="Path_134" data-name="Path 134" d="M145.751,230.4l-.58,6.484a2.432,2.432,0,0,0,.365,1.432,3.649,3.649,0,0,1-.571,4.229,4.856,4.856,0,0,1-2.891.936,14.035,14.035,0,0,1-10.713-4.126,3.05,3.05,0,0,1-.851-2.217l.43-16.439Z" transform="translate(-56.651 -185.779)" fill="#ffa8a7"/>
      <path id="Path_135" data-name="Path 135" d="M131,220.75l14.811,9.656-.515,5.754c-3.144-.739-6.3-1.647-8.786-3.668C133.317,229.919,130.538,227.374,131,220.75Z" transform="translate(-56.679 -185.783)" opacity="0.3"/>
      <path id="Path_136" data-name="Path 136" d="M162.052,205.674a58.009,58.009,0,0,1-5.314,21.894,17.872,17.872,0,0,1-2.554,4.238,7.485,7.485,0,0,1-4.154,2.564c-2,.374-4.033-.337-5.941-1.029-3.5-1.272-7.092-2.592-9.9-5.043s-4.678-6.316-3.743-9.918a6.381,6.381,0,0,1-6.063-.72,6.465,6.465,0,0,1-2.4-5.661c.215-2.068,1.806-4.145,3.883-4.2a4.482,4.482,0,0,1,3.321,1.637,13.556,13.556,0,0,1,1.937,3.275,4.284,4.284,0,0,0,.982,1.506,1.5,1.5,0,0,0,1.684.281,2.236,2.236,0,0,0,.8-1.75l.6-4.678a1.871,1.871,0,0,1,1.338-1.544,4.678,4.678,0,0,0,2.489-2.021,9.553,9.553,0,0,0,1.076-2.685,1.151,1.151,0,0,1,1.731-.7C147.606,204.739,155.343,206.2,162.052,205.674Z" transform="translate(-56.101 -184.508)" fill="#ffa8a7"/>
      <path id="Path_137" data-name="Path 137" d="M151.649,216.1l2.938,7.747-5.127.065Z" transform="translate(-57.871 -185.483)" fill="#f28f8f"/>
      <path id="Path_138" data-name="Path 138" d="M143.869,226.14l3.452,2.489a2.5,2.5,0,0,1-3,.318,2.245,2.245,0,0,1-.449-2.807Z" transform="translate(-57.491 -186.13)" fill="#f28f8f"/>
      <path id="Path_139" data-name="Path 139" d="M143.869,226.14l3.452,2.489a2.5,2.5,0,0,1-3,.318,2.245,2.245,0,0,1-.449-2.807Z" transform="translate(-57.491 -186.13)" opacity="0.3"/>
      <path id="Path_140" data-name="Path 140" d="M145.6,229.346a2.283,2.283,0,0,1-1.282-.356,2.04,2.04,0,0,1-.664-2.171,2.452,2.452,0,0,1,1.394.777A2.414,2.414,0,0,1,145.6,229.346Z" transform="translate(-57.492 -186.173)" fill="#f28f8f"/>
      <path id="Path_141" data-name="Path 141" d="M144.056,214.978a1.45,1.45,0,1,0,.7-.871,1.45,1.45,0,0,0-.7.871Z" transform="translate(-57.519 -185.344)" fill="#263238"/>
      <path id="Path_142" data-name="Path 142" d="M156.706,218.017a1.45,1.45,0,1,0,1.787-1A1.45,1.45,0,0,0,156.706,218.017Z" transform="translate(-58.334 -185.539)" fill="#263238"/>
      <path id="Path_143" data-name="Path 143" d="M158.32,213.969l3.293,2.1a2.058,2.058,0,0,0-.711-2.245A2.442,2.442,0,0,0,158.32,213.969Z" transform="translate(-58.441 -185.317)" fill="#263238"/>
      <path id="Path_144" data-name="Path 144" d="M147.354,210.914l-3.874.468a2.068,2.068,0,0,1,1.619-1.722,2.442,2.442,0,0,1,2.255,1.254Z" transform="translate(-57.486 -185.069)" fill="#263238"/>
      <path id="Path_145" data-name="Path 145" d="M163.593,204.232a5.82,5.82,0,0,1-3.986,4.8l1.151-2.377a12.678,12.678,0,0,1-6.877,2.461,7.111,7.111,0,0,0,2.479-2.807,19.386,19.386,0,0,1-8.963,3.35,12.921,12.921,0,0,0,5.024-3.527,12.163,12.163,0,0,1-8.149,2.152l2.236-2.62a12.706,12.706,0,0,1-7.27,1.329l2.667-2.6-4,.7a31.809,31.809,0,0,0,1.768-6.231,36.592,36.592,0,0,1,12.014,1.029C155.659,200.855,159.757,202.782,163.593,204.232Z" transform="translate(-57.127 -184.366)" fill="#263238"/>
      <path id="Path_146" data-name="Path 146" d="M151.331,305.171h0v-.309h0L161.38,286.15l1.375,1.572-10.049,18.713a.936.936,0,0,0-.122.346h0a.271.271,0,0,0,0,.215h0l-1.375-1.581a.188.188,0,0,1,0-.075.141.141,0,0,1,0-.066Z" transform="translate(-57.983 -189.992)" fill="#fff" opacity="0.15"/>
      <path id="Path_147" data-name="Path 147" d="M162.133,285.5v-.225a.4.4,0,0,1,0-.066l.047-.056.047-.065v-.15h0l.14-.122h.234l.066-.047h0l11.546-6.493H175a.234.234,0,0,1,.168.065l1.375,1.581c-.056-.075-.178-.094-.337-.056h0a2.573,2.573,0,0,0-.627.262l-11.555,6.5a4.9,4.9,0,0,0-.655.43h0c-.215.168-.43.356-.636.543h0c-.2.2-.384.393-.543.58h0a3.443,3.443,0,0,0-.384.543l-1.375-1.572Z" transform="translate(-58.577 -189.486)" fill="#fff" opacity="0.2"/>
      <path id="Path_148" data-name="Path 148" d="M108.523,244.714a9.356,9.356,0,0,1,7.392-5.034l1.946,2.966a24.645,24.645,0,0,1,3.031,12.079l-.346,31.2h0l2.292.936a92.763,92.763,0,0,0,20.069,6.063,19.91,19.91,0,0,1,12.6-4.295l-1.7,3.172c3.228,2.068,10.516-1.656,10.516-1.656.543,4.547-2.4,9.272-6.315,11.658s-41.168-1.113-49.121-6.241c-5.2-3.368-3.976-35.554-3.976-35.554A26.881,26.881,0,0,1,108.523,244.714Z" transform="translate(-54.995 -187.001)" fill="#ffa8a7"/>
      <path id="Path_149" data-name="Path 149" d="M176.386,283.58a21.042,21.042,0,0,1,.43,3.743,13.613,13.613,0,0,1-3.6,7.981,4.06,4.06,0,0,1-1.544,1.095,1.815,1.815,0,0,1-1.8-.281,2.713,2.713,0,0,1-.627-1.871,10.218,10.218,0,0,1,.159-3.022,4.239,4.239,0,0,1,1.6-2.508,9.355,9.355,0,0,1,2.021-.936,4.884,4.884,0,0,0,1.8-1.3Z" transform="translate(-59.142 -189.827)" fill="#ffa8a7"/>
      <path id="Path_150" data-name="Path 150" d="M115.837,239.68c-8.973.851-13.941,7.064-11.742,34.544,6.372,4.126,17.627.608,17.627.608C123.621,244.742,118.756,241.439,115.837,239.68Z" transform="translate(-54.918 -187.001)" fill="#455a64"/>
      <path id="Path_151" data-name="Path 151" d="M115.837,239.68c-8.973.851-13.941,7.064-11.742,34.544,6.372,4.126,17.627.608,17.627.608C123.621,244.742,118.756,241.439,115.837,239.68Z" transform="translate(-54.918 -187.001)" fill="#fff" opacity="0.2"/>
      <path id="Path_152" data-name="Path 152" d="M151.34,304.6a.14.14,0,0,0,0,.066.187.187,0,0,0,0,.075l1.375,1.581h0v-.112c0,.243.4.234,1-.094l11.555-6.5a6.455,6.455,0,0,0,2.208-2.1l10.049-18.713c.168-.309.159-.5,0-.58h0l-1.244-1.562a.234.234,0,0,0-.168-.065h-.786l-11.546,6.493h0l-.066.047h-.234l-.14.122h0v.15l-.047.066-.047.056a.4.4,0,0,0,0,.065v.281L153.2,302.592h0v.309h0v.065Zm25.88-26.394Zm-13.436,7.719h0l.318-.271Zm-.543.58h0l.14-.15Zm-10.554,19.6h0a.936.936,0,0,1,.122-.346.936.936,0,0,0-.122.374.374.374,0,0,0,.037-.028Z" transform="translate(-57.992 -189.378)" fill="#263238"/>
    </g>
    <g id="freepik--speech-bubble--inject-175" transform="translate(93.236 42.864)">
      <path id="Path_153" data-name="Path 153" d="M337.4,61.64Z" transform="translate(-113.653 -44.072)" fill="none"/>
      <path id="Path_154" data-name="Path 154" d="M341.592,59.321a4.968,4.968,0,0,0-1.806-1.871L315.058,43.312c-2.171-1.244-7.3.44-7.3,3.92V61.5a4.828,4.828,0,0,0,2.432,4.192L329.28,76.6h0l-3.293-1.871,1.581,4.491a.262.262,0,0,0,.327.159h0c.281-.14,1.525-.814,2.236-1.282h.047l.056-.056.393-.627,4.295,2.451a4.772,4.772,0,0,0,7.3-3.92V61.706a4.912,4.912,0,0,0-.627-2.386Z" transform="translate(-111.745 -42.866)" fill="#1acd81"/>
      <path id="Path_155" data-name="Path 155" d="M331.619,80.312l-.056.056h-.047c-.711.468-1.956,1.141-2.236,1.282h0a.252.252,0,0,0,.15-.112l1.534-2.479-.3-.168h0l1.347.767Z" transform="translate(-113.13 -45.183)" fill="#fff" opacity="0.2"/>
      <path id="Path_156" data-name="Path 156" d="M336.783,62.05a4.8,4.8,0,0,0-1.291-1.619h0a3.641,3.641,0,0,0-.589-.4L310.174,45.8a1.609,1.609,0,0,0-2.414,1.394c0-3.481,5.127-5.165,7.3-3.92L339.8,57.494a4.968,4.968,0,0,1,1.806,1.871Z" transform="translate(-111.745 -42.864)" fill="#fff" opacity="0.4"/>
      <path id="Path_157" data-name="Path 157" d="M339.2,79.556V65.343a3.92,3.92,0,0,0-.047-.571,4.678,4.678,0,0,0-.505-1.591l4.809-2.732a4.913,4.913,0,0,1,.627,2.367V77.029a4.772,4.772,0,0,1-7.3,3.92,1.609,1.609,0,0,0,2.414-1.394Z" transform="translate(-113.614 -43.996)" fill="#fff" opacity="0.2"/>
      <path id="Path_158" data-name="Path 158" d="M316.778,59.3a3.743,3.743,0,0,1,1.8,3.078c0,1.2-.786,1.6-1.806,1.01a3.8,3.8,0,0,1-1.768-3.1C315,59.067,315.758,58.711,316.778,59.3Z" transform="translate(-112.211 -43.904)" fill="#fff"/>
      <path id="Path_159" data-name="Path 159" d="M322.875,62.861a3.743,3.743,0,0,1,1.8,3.069c0,1.207-.8,1.609-1.815,1.02a3.817,3.817,0,0,1-1.8-3.1C321.06,62.627,321.846,62.271,322.875,62.861Z" transform="translate(-112.601 -44.133)" fill="#fff"/>
      <path id="Path_160" data-name="Path 160" d="M328.946,66.421a3.743,3.743,0,0,1,1.806,3.069c0,1.2-.786,1.609-1.806,1.02a3.817,3.817,0,0,1-1.8-3.1C327.141,66.187,327.945,65.831,328.946,66.421Z" transform="translate(-112.993 -44.362)" fill="#fff"/>
      <path id="Path_161" data-name="Path 161" d="M438.65,261Z" transform="translate(-120.17 -56.905)" fill="none"/>
      <path id="Path_162" data-name="Path 162" d="M441.775,259.258a3.583,3.583,0,0,0-1.338-1.357L422,247.319c-1.619-.936-5.436.327-5.436,2.929v10.638a3.6,3.6,0,0,0,1.815,3.125l14.222,8.131h0l-2.451-1.4,1.179,3.34a.187.187,0,0,0,.243.122h0c.215-.112,1.141-.608,1.665-.936h.047l.29-.468,3.2,1.871a3.555,3.555,0,0,0,5.436-2.928v-10.7A3.593,3.593,0,0,0,441.775,259.258Z" transform="translate(-118.748 -56.004)" fill="#1acd81"/>
      <path id="Path_163" data-name="Path 163" d="M434.352,274.921h-.047a17.212,17.212,0,0,1-1.665.936h0a.168.168,0,0,0,.112-.084l1.141-1.871-.225-.131h0l1.01.571Z" transform="translate(-119.783 -57.727)" fill="#fff" opacity="0.2"/>
      <path id="Path_164" data-name="Path 164" d="M438.2,261.3a3.668,3.668,0,0,0-.936-1.207h0a5,5,0,0,0-.43-.3L418.4,249.219a1.2,1.2,0,0,0-1.8,1.039c0-2.6,3.817-3.855,5.436-2.928l18.441,10.582a3.584,3.584,0,0,1,1.338,1.357Z" transform="translate(-118.751 -56.005)" fill="#fff" opacity="0.4"/>
      <path id="Path_165" data-name="Path 165" d="M440,274.35v-10.6a3.178,3.178,0,0,0,0-.421,3.677,3.677,0,0,0-.374-1.188l3.574-2.04a3.593,3.593,0,0,1,.43,1.778v10.591a3.555,3.555,0,0,1-5.436,2.929A1.2,1.2,0,0,0,440,274.35Z" transform="translate(-120.14 -56.847)" fill="#fff" opacity="0.2"/>
      <path id="Path_166" data-name="Path 166" d="M423.277,259.246a2.807,2.807,0,0,1,1.338,2.292c0,.936-.589,1.2-1.347.758a2.863,2.863,0,0,1-1.338-2.311C421.93,259.068,422.52,258.806,423.277,259.246Z" transform="translate(-119.094 -56.778)" fill="#fff"/>
      <path id="Path_167" data-name="Path 167" d="M427.817,261.9a2.807,2.807,0,0,1,1.338,2.292c0,.936-.589,1.2-1.347.758a2.807,2.807,0,0,1-1.338-2.311C426.47,261.718,427.059,261.456,427.817,261.9Z" transform="translate(-119.386 -56.949)" fill="#fff"/>
      <path id="Path_168" data-name="Path 168" d="M432.357,264.556a2.807,2.807,0,0,1,1.338,2.283c0,.936-.589,1.2-1.347.758a2.807,2.807,0,0,1-1.338-2.311C431,264.378,431.59,264.116,432.357,264.556Z" transform="translate(-119.678 -57.12)" fill="#fff"/>
      <path id="Path_169" data-name="Path 169" d="M224.68,176.06Z" transform="translate(-106.397 -51.437)" fill="none"/>
      <path id="Path_170" data-name="Path 170" d="M228.286,174.03a4.079,4.079,0,0,0-1.544-1.572l-21.295-12.182c-1.871-1.067-6.287.384-6.287,3.387V175.9a4.164,4.164,0,0,0,2.1,3.612l16.43,9.356h0l-2.807-1.628,1.366,3.864a.215.215,0,0,0,.281.14h0c.243-.122,1.319-.7,1.927-1.1h0l.056-.047.327-.543,3.743,2.115a4.107,4.107,0,0,0,6.278-3.387V176.107A4.126,4.126,0,0,0,228.286,174.03Z" transform="translate(-104.755 -50.399)" fill="#1acd81"/>
      <path id="Path_171" data-name="Path 171" d="M219.714,192.146l-.056.047h0c-.608.4-1.684.982-1.927,1.1h0a.187.187,0,0,0,.131-.094l1.319-2.133-.262-.15h0l1.16.664Z" transform="translate(-105.95 -52.394)" fill="#fff" opacity="0.2"/>
      <path id="Path_172" data-name="Path 172" d="M224.151,176.416a4.108,4.108,0,0,0-1.113-1.394h0a3.741,3.741,0,0,0-.505-.346l-21.295-12.219a1.385,1.385,0,0,0-2.077,1.207c0-3,4.416-4.454,6.287-3.387L226.742,172.5a4.079,4.079,0,0,1,1.544,1.572Z" transform="translate(-104.755 -50.399)" fill="#fff" opacity="0.4"/>
      <path id="Path_173" data-name="Path 173" d="M226.23,191.488V179.25a4.235,4.235,0,0,0,0-.487,4.154,4.154,0,0,0-.44-1.375l4.136-2.348a4.126,4.126,0,0,1,.543,2.04v12.229a4.107,4.107,0,0,1-6.278,3.387,1.385,1.385,0,0,0,2.04-1.207Z" transform="translate(-106.366 -51.372)" fill="#fff" opacity="0.2"/>
      <path id="Path_174" data-name="Path 174" d="M206.893,174.054a3.172,3.172,0,0,1,1.544,2.638c0,1.039-.674,1.385-1.553.88a3.256,3.256,0,0,1-1.544-2.667C205.368,173.848,206.042,173.548,206.893,174.054Z" transform="translate(-105.152 -51.293)" fill="#fff"/>
      <path id="Path_175" data-name="Path 175" d="M212.163,177.114a3.219,3.219,0,0,1,1.553,2.648c0,1.029-.683,1.385-1.562.87a3.247,3.247,0,0,1-1.544-2.667C210.61,176.908,211.284,176.608,212.163,177.114Z" transform="translate(-105.492 -51.49)" fill="#fff"/>
      <path id="Path_176" data-name="Path 176" d="M217.4,180.184a3.209,3.209,0,0,1,1.553,2.638c0,1.029-.683,1.385-1.563.88a3.284,3.284,0,0,1-1.544-2.667C215.85,180,216.533,179.669,217.4,180.184Z" transform="translate(-105.829 -51.687)" fill="#fff"/>
      <path id="Path_177" data-name="Path 177" d="M340.541,271.555,363,284.438a4.388,4.388,0,0,1,1.628,1.656,4.341,4.341,0,0,1,.571,2.143v16.336a4.332,4.332,0,0,1-6.624,3.565l-3.9-2.227-.346.571a.187.187,0,0,1-.066.056h-.047c-.646.43-1.768,1.029-2.021,1.16h0a.234.234,0,0,1-.3-.14l-1.431-4.079h0l-14.381-8.14a4.369,4.369,0,0,1-2.208-3.8v-16.42C333.87,271.948,338.529,270.432,340.541,271.555Z" transform="translate(-113.426 -57.56)" fill="#1acd81"/>
      <path id="Path_178" data-name="Path 178" d="M360.77,288.19Z" transform="translate(-115.157 -58.655)" fill="none"/>
      <path id="Path_179" data-name="Path 179" d="M355.533,308.821a.188.188,0,0,1-.065.056h-.047c-.646.43-1.768,1.029-2.021,1.16h0a.187.187,0,0,0,.14-.094l1.394-2.255-.271-.159h0l1.216.7Z" transform="translate(-114.683 -59.9)" fill="#fff" opacity="0.2"/>
      <path id="Path_180" data-name="Path 180" d="M360.188,288.565a4.445,4.445,0,0,0-1.17-1.469h0a4.338,4.338,0,0,0-.524-.365l-22.455-12.884a1.469,1.469,0,0,0-2.189,1.272c0-3.162,4.678-4.678,6.624-3.565l22.455,12.884a4.388,4.388,0,0,1,1.628,1.656Z" transform="translate(-113.424 -57.561)" fill="#fff" opacity="0.4"/>
      <path id="Path_181" data-name="Path 181" d="M362.412,307.9V291.555a3.174,3.174,0,0,0,0-.515,4.443,4.443,0,0,0-.458-1.45l4.36-2.47a4.342,4.342,0,0,1,.571,2.143V305.6a4.332,4.332,0,0,1-6.624,3.565,1.46,1.46,0,0,0,2.152-1.263Z" transform="translate(-115.124 -58.586)" fill="#fff" opacity="0.2"/>
      <path id="Path_182" data-name="Path 182" d="M343.984,282.5a2.807,2.807,0,0,0-2.732-.271c-1.506.851-1.516,3.658,0,6.25l.87,1.525,5.427,9.4,5.464-3.116.879-.505c1.516-.861,1.525-3.658,0-6.259a7.887,7.887,0,0,0-2.657-2.844,2.732,2.732,0,0,0-2.723-.281l-.936.505-.88-1.516A7.84,7.84,0,0,0,343.984,282.5Z" transform="translate(-113.828 -58.256)" fill="#fff"/>
      <path id="Path_183" data-name="Path 183" d="M230.225,53.119l18.161,10.432A3.48,3.48,0,0,1,249.7,64.89a3.565,3.565,0,0,1,.458,1.731V79.85a3.509,3.509,0,0,1-5.361,2.891l-3.153-1.806-.29.458h0a18.662,18.662,0,0,1-1.647.936h0a.2.2,0,0,1-.243-.112l-1.16-3.3h0l-11.6-6.624A3.565,3.565,0,0,1,224.92,69.2V56C224.864,53.447,228.634,52.2,230.225,53.119Z" transform="translate(-106.413 -43.505)" fill="#1acd81"/>
      <path id="Path_184" data-name="Path 184" d="M246.64,66.59Z" transform="translate(-107.811 -44.391)" fill="none"/>
      <path id="Path_185" data-name="Path 185" d="M242.4,83.289h0a18.661,18.661,0,0,1-1.647.936h0a.15.15,0,0,0,.112-.075l1.057-1.759-.225-.131h0l.992.571Z" transform="translate(-107.432 -45.4)" fill="#fff" opacity="0.2"/>
      <path id="Path_186" data-name="Path 186" d="M246.192,66.892a3.668,3.668,0,0,0-.936-1.188h0a3.52,3.52,0,0,0-.43-.3l-18.2-10.423A1.179,1.179,0,0,0,224.86,56c0-2.554,3.743-3.8,5.361-2.882l18.161,10.432A3.48,3.48,0,0,1,249.7,64.89Z" transform="translate(-106.409 -43.505)" fill="#fff" opacity="0.4"/>
      <path id="Path_187" data-name="Path 187" d="M247.96,82.543V69.313a3.183,3.183,0,0,0,0-.421,3.629,3.629,0,0,0-.365-1.17l3.527-2a3.564,3.564,0,0,1,.458,1.731v13.23a3.509,3.509,0,0,1-5.361,2.891,1.179,1.179,0,0,0,1.74-1.029Z" transform="translate(-107.784 -44.335)" fill="#fff" opacity="0.2"/>
      <path id="Path_188" data-name="Path 188" d="M233.045,61.971a2.208,2.208,0,0,0-2.208-.225c-1.226.692-1.235,2.957,0,5.062l.711,1.235,4.4,7.607,4.426-2.517.711-.412c1.226-.692,1.235-2.966,0-5.062a6.231,6.231,0,0,0-2.208-2.32,2.208,2.208,0,0,0-2.208-.225l-.711.4-.711-1.226a6.288,6.288,0,0,0-2.2-2.32Z" transform="translate(-106.734 -44.067)" fill="#fff"/>
      <path id="Path_189" data-name="Path 189" d="M418.712,81.389l18.245,10.47a3.527,3.527,0,0,1,1.329,1.31,3.6,3.6,0,0,1,.458,1.74v13.277a3.518,3.518,0,0,1-5.38,2.9l-3.162-1.815-.29.468a.094.094,0,0,1-.047,0h0c-.524.346-1.441.833-1.647.936h0a.187.187,0,0,1-.243-.122l-1.16-3.3h0L415.166,100.6a3.565,3.565,0,0,1-1.8-3.1V84.29C413.333,81.717,417.113,80.472,418.712,81.389Z" transform="translate(-118.543 -45.324)" fill="#1acd81"/>
      <path id="Path_190" data-name="Path 190" d="M435.19,94.91Z" transform="translate(-119.947 -46.214)" fill="none"/>
      <path id="Path_191" data-name="Path 191" d="M430.934,111.671a.094.094,0,0,1-.047,0h0c-.524.346-1.441.833-1.647.936h0a.187.187,0,0,0,.112-.075l1.132-1.871-.225-.131h0l1,.571Z" transform="translate(-119.564 -47.219)" fill="#fff" opacity="0.2"/>
      <path id="Path_192" data-name="Path 192" d="M434.739,95.218a3.556,3.556,0,0,0-.936-1.2h0a3.519,3.519,0,0,0-.43-.3l-18.245-10.46a1.188,1.188,0,0,0-1.778,1.029c0-2.573,3.743-3.817,5.38-2.9l18.245,10.47a3.527,3.527,0,0,1,1.31,1.31Z" transform="translate(-118.542 -45.324)" fill="#fff" opacity="0.4"/>
      <path id="Path_193" data-name="Path 193" d="M436.518,110.916V97.649a2.983,2.983,0,0,0,0-.421,3.62,3.62,0,0,0-.374-1.179L439.661,94a3.6,3.6,0,0,1,.458,1.74v13.277a3.518,3.518,0,0,1-5.38,2.9,1.188,1.188,0,0,0,1.778-1Z" transform="translate(-119.918 -46.155)" fill="#fff" opacity="0.2"/>
      <path id="Path_194" data-name="Path 194" d="M429.075,99.337a1.1,1.1,0,0,1,.505.861v4.959c0,.318-.225.449-.5.29l-2.479-1.432a1.1,1.1,0,0,1-.505-.861V98.2c0-.318.225-.449.5-.29Zm-1.544,4.547a.324.324,0,0,0,.524-.3,1.151,1.151,0,0,0-.524-.936.324.324,0,0,0-.524.3,1.151,1.151,0,0,0,.524.936" transform="translate(-119.362 -46.402)" fill="#1acd81"/>
      <g id="Group_3" data-name="Group " transform="translate(306.738 51.435)" opacity="0.5">
        <path id="Path_195" data-name="Path 195" d="M429.075,99.337a1.1,1.1,0,0,1,.505.861v4.959c0,.318-.225.449-.5.29l-2.479-1.432a1.1,1.1,0,0,1-.505-.861V98.2c0-.318.225-.449.5-.29Zm-1.544,4.547a.324.324,0,0,0,.524-.3,1.151,1.151,0,0,0-.524-.936.324.324,0,0,0-.524.3,1.151,1.151,0,0,0,.524.936" transform="translate(-426.1 -97.838)" fill="#fff"/>
      </g>
      <path id="Path_196" data-name="Path 196" d="M423.547,90.492c-1.076-.627-1.946-.075-1.871,1.207l.065,2.058-2.807-1.693c-.992-.561-1.2.749-.533,1.675-.674.2-.477,1.347.131,2.077-.561.253-.065,1.544.618,2.086-.449.178-.065,1.572.73,2.021l2.807,1.637,1.787,1.039c.608.356,1.1.065,1.113-.636V97.846L424.455,95.1a11.1,11.1,0,0,1-.936-4.154Z" transform="translate(-118.839 -45.913)" fill="#fff"/>
      <path id="Path_197" data-name="Path 197" d="M261.9,260.306l12.332,7.073a2.329,2.329,0,0,1,.936.936,2.432,2.432,0,0,1,.309,1.179v8.973a2.377,2.377,0,0,1-3.63,1.955L269.7,279.2l-.2.318h0a11.2,11.2,0,0,1-1.113.646h0a.131.131,0,0,1-.159-.084l-.786-2.236h0l-7.878-4.5a2.4,2.4,0,0,1-1.207-2.086v-9C258.266,260.521,260.83,259.689,261.9,260.306Z" transform="translate(-108.565 -56.847)" fill="#1acd81"/>
      <path id="Path_198" data-name="Path 198" d="M273,269.44Z" transform="translate(-109.508 -57.448)" fill="none"/>
      <path id="Path_199" data-name="Path 199" d="M270.153,280.769h0a11.2,11.2,0,0,1-1.113.646h0a.141.141,0,0,0,.084-.056l.758-1.244-.15-.084h0l.674.384Z" transform="translate(-109.253 -58.13)" fill="#fff" opacity="0.2"/>
      <path id="Path_200" data-name="Path 200" d="M272.725,269.644a2.32,2.32,0,0,0-.646-.8h0a1.976,1.976,0,0,0-.29-.2l-12.332-7.073a.8.8,0,0,0-1.2.692c0-1.74,2.554-2.573,3.63-1.955l12.332,7.073a2.329,2.329,0,0,1,.936.936Z" transform="translate(-108.559 -56.847)" fill="#fff" opacity="0.4"/>
      <path id="Path_201" data-name="Path 201" d="M273.919,280.265v-8.973a1.517,1.517,0,0,0,0-.29,2.461,2.461,0,0,0-.253-.8l2.4-1.357a2.432,2.432,0,0,1,.309,1.179V279a2.377,2.377,0,0,1-3.63,1.955.8.8,0,0,0,1.179-.692Z" transform="translate(-109.491 -57.41)" fill="#fff" opacity="0.2"/>
      <path id="Path_202" data-name="Path 202" d="M268.862,272.432a.758.758,0,0,1,.337.589v3.35c0,.215-.15.3-.337.187l-1.675-.936a.739.739,0,0,1-.337-.58v-3.35c0-.215.15-.309.337-.2Zm-1.048,3.078a.221.221,0,0,0,.356-.206.777.777,0,0,0-.355-.608.219.219,0,0,0-.356.2.8.8,0,0,0,.356.617" transform="translate(-109.112 -57.577)" fill="#1acd81"/>
      <g id="Group_4" data-name="Group " transform="translate(157.738 213.872)" opacity="0.5">
        <path id="Path_203" data-name="Path 203" d="M268.862,272.432a.758.758,0,0,1,.337.589v3.35c0,.215-.15.3-.337.187l-1.675-.936a.739.739,0,0,1-.337-.58v-3.35c0-.215.15-.309.337-.2Zm-1.048,3.078a.221.221,0,0,0,.356-.206.777.777,0,0,0-.355-.608.219.219,0,0,0-.356.2.8.8,0,0,0,.356.617" transform="translate(-266.85 -271.449)" fill="#fff"/>
      </g>
      <path id="Path_204" data-name="Path 204" d="M265.159,266.449c-.73-.421-1.31,0-1.272.823l.075,1.375-1.955-1.132c-.664-.384-.8.505-.356,1.132-.458.131-.328.936.084,1.4-.374.168,0,1.048.421,1.413-.3.122,0,1.057.5,1.366l1.871,1.1,1.216.7c.412.243.749.047.749-.43V271.4l-.767-1.871a7.419,7.419,0,0,1-.608-2.807Z" transform="translate(-108.758 -57.245)" fill="#fff"/>
      <path id="Path_205" data-name="Path 205" d="M106.18,144.27Z" transform="translate(-98.77 -49.391)" fill="none"/>
      <path id="Path_206" data-name="Path 206" d="M98.953,141.532a5.38,5.38,0,0,1,1.984-2.012l32.335-18.872c2.386-1.375,8.046.487,8.046,4.323v35.086a5.314,5.314,0,0,1-2.685,4.622l-21.042,12.032h0l3.63-2.077-1.74,4.95a.3.3,0,0,1-.365.178h0c-.309-.159-1.684-.936-2.461-1.413h-.047l-.065-.056-.43-.7-9.8,5.941a5.258,5.258,0,0,1-8.046-4.323v-35.1a5.333,5.333,0,0,1,.683-2.573Z" transform="translate(-98.261 -47.842)" fill="#1acd81"/>
      <path id="Path_207" data-name="Path 207" d="M117.75,182.1l.065.056h.047c.777.515,2.152,1.254,2.461,1.413h0a.271.271,0,0,1-.168-.122l-1.694-2.741.337-.187h0l-1.488.851Z" transform="translate(-99.486 -51.724)" fill="#fff" opacity="0.2"/>
      <path id="Path_208" data-name="Path 208" d="M104.286,144.505a5.492,5.492,0,0,1,1.422-1.787h0a3.966,3.966,0,0,1,.646-.449L138.69,123.4a1.768,1.768,0,0,1,2.657,1.534c0-3.836-5.661-5.7-8.046-4.323l-32.335,18.872A5.38,5.38,0,0,0,99,141.53Z" transform="translate(-98.308 -47.839)" fill="#fff" opacity="0.4"/>
      <path id="Path_209" data-name="Path 209" d="M103.631,183.391V147.734a5.53,5.53,0,0,1,.561-1.759L98.952,143a5.333,5.333,0,0,0-.692,2.61v35.03a5.258,5.258,0,0,0,8.046,4.323,1.778,1.778,0,0,1-2.676-1.572Z" transform="translate(-98.26 -49.309)" fill="#fff" opacity="0.2"/>
      <path id="Path_210" data-name="Path 210" d="M124.653,161.552c1.675-.936,3.031-.2,3.041,1.731a6.671,6.671,0,0,1-3.022,5.23c-1.665.936-3.022.178-3.031-1.74A6.624,6.624,0,0,1,124.653,161.552Z" transform="translate(-99.765 -50.477)" fill="#fff"/>
      <path id="Path_211" data-name="Path 211" d="M124.424,154.386a7.739,7.739,0,0,1,6.063-1.141l-1.984,4.164a5.333,5.333,0,0,0-4.07.8,12.9,12.9,0,0,0-4.051,3.892l-2-1.871a19.255,19.255,0,0,1,6.044-5.838Z" transform="translate(-99.555 -49.954)" fill="#fff"/>
      <path id="Path_212" data-name="Path 212" d="M124.208,148.23c3.265-1.871,6.409-2.489,9.048-1.7l-1.984,4.164c-2.068-.6-4.5-.14-7.055,1.329a22.754,22.754,0,0,0-7.055,6.811l-2-1.871a28.911,28.911,0,0,1,9.048-8.729Z" transform="translate(-99.348 -49.515)" fill="#fff"/>
      <path id="Path_213" data-name="Path 213" d="M123.982,142.073c4.369-2.526,8.533-3.312,12.051-2.283l-1.974,4.164c-2.947-.851-6.418-.2-10.067,1.871a32.26,32.26,0,0,0-10.049,9.7l-1.993-1.871a38.361,38.361,0,0,1,12.032-11.583Z" transform="translate(-99.141 -49.074)" fill="#fff"/>
    </g>
  </g>
</svg>
