<svg width="22" height="19" viewBox="0 0 22 19" fill="none" xmlns="http://www.w3.org/2000/svg">
<path d="M15.9107 0C13.8826 0 12.1069 0.872143 11 2.34634C9.89312 0.872143 8.11741 0 6.08929 0C4.47487 0.00181965 2.92709 0.643952 1.78552 1.78552C0.643952 2.92709 0.00181965 4.47487 0 6.08929C0 12.9643 10.1937 18.5291 10.6278 18.7589C10.7422 18.8205 10.8701 18.8527 11 18.8527C11.1299 18.8527 11.2578 18.8205 11.3722 18.7589C11.8063 18.5291 22 12.9643 22 6.08929C21.9982 4.47487 21.356 2.92709 20.2145 1.78552C19.0729 0.643952 17.5251 0.00181965 15.9107 0ZM11 17.1679C9.20661 16.1229 1.57143 11.3624 1.57143 6.08929C1.57299 4.89155 2.04948 3.74333 2.8964 2.8964C3.74333 2.04948 4.89155 1.57299 6.08929 1.57143C7.99955 1.57143 9.60339 2.58893 10.2732 4.22321C10.3324 4.36732 10.4331 4.49058 10.5625 4.57732C10.6919 4.66407 10.8442 4.71038 11 4.71038C11.1558 4.71038 11.3081 4.66407 11.4375 4.57732C11.5669 4.49058 11.6676 4.36732 11.7268 4.22321C12.3966 2.58598 14.0004 1.57143 15.9107 1.57143C17.1084 1.57299 18.2567 2.04948 19.1036 2.8964C19.9505 3.74333 20.427 4.89155 20.4286 6.08929C20.4286 11.3546 12.7914 16.1219 11 17.1679Z" fill="#B9E974"/>
</svg>
