<svg xmlns="http://www.w3.org/2000/svg" width="23.746" height="15.103" viewBox="0 0 23.746 15.103">
  <g id="الشريك" transform="translate(-333.35 21.72)">
    <path id="Path_" data-name="Path " d="M6.877,11.041A3.989,3.989,0,0,1,4.135,9.879,3.862,3.862,0,0,1,3.02,7.137a3.753,3.753,0,0,1,1.115-2.7A3.989,3.989,0,0,1,6.877,3.28,3.9,3.9,0,0,1,9.619,4.442h0a3.753,3.753,0,0,1,1.115,2.7A3.862,3.862,0,0,1,9.619,9.879h0a3.9,3.9,0,0,1-2.742,1.162ZM5.2,8.856a2.391,2.391,0,0,0,1.673.7,2.594,2.594,0,0,0,1.719-.7h0a2.5,2.5,0,0,0,.7-1.719,2.391,2.391,0,0,0-.7-1.673h0a2.594,2.594,0,0,0-1.719-.7,2.38,2.38,0,0,0-2.37,2.37A2.5,2.5,0,0,0,5.2,8.856Z" transform="translate(333.444 -25)" fill="#1cbb77"/>
    <path id="Path_2" data-name="Path " d="M9.321,11.563H3.094a.734.734,0,0,1-.744-.744V8.682c0-1.766,1.905-2.881,4.275-3.3a17.589,17.589,0,0,1,2.7-.232,16.628,16.628,0,0,1,2.7.232c2.416.418,4.322,1.534,4.322,3.3v2.138a.764.764,0,0,1-.744.744ZM3.837,10.076H14.851V8.682c0-.883-1.348-1.534-3.114-1.859a13.418,13.418,0,0,0-2.416-.186A13.418,13.418,0,0,0,6.9,6.823c-1.719.325-3.067.976-3.067,1.859v1.394Z" transform="translate(331 -18.18)" fill="#1cbb77"/>
    <path id="Path_3" data-name="Path " d="M8.987,11.041A3.9,3.9,0,0,1,6.245,9.879h0A3.862,3.862,0,0,1,5.13,7.137a3.753,3.753,0,0,1,1.115-2.7h0a3.816,3.816,0,0,1,5.484,0h0a3.753,3.753,0,0,1,1.115,2.7,3.862,3.862,0,0,1-1.115,2.742h0A3.9,3.9,0,0,1,8.987,11.041ZM7.314,8.856a2.356,2.356,0,0,0,3.346,0h0a2.312,2.312,0,0,0,.7-1.719,2.209,2.209,0,0,0-.7-1.673h0a2.356,2.356,0,0,0-3.346,0h0a2.209,2.209,0,0,0-.7,1.673,2.312,2.312,0,0,0,.7,1.719Z" transform="translate(341.139 -25)" fill="#1acd81"/>
    <path id="Path_4" data-name="Path " d="M11.431,11.563H5.2a.734.734,0,0,1-.744-.744V8.682c0-1.766,1.859-2.881,4.275-3.3a17.589,17.589,0,0,1,2.7-.232,17.1,17.1,0,0,1,2.7.232c2.416.418,4.275,1.534,4.275,3.3v2.138a.734.734,0,0,1-.744.744ZM5.947,10.076H16.914V8.682c0-.883-1.348-1.534-3.067-1.859a13.418,13.418,0,0,0-2.416-.186,13.418,13.418,0,0,0-2.416.186c-1.719.325-3.067.976-3.067,1.859v1.394Z" transform="translate(338.695 -18.18)" fill="#1acd81"/>
  </g>
</svg>
