<svg xmlns="http://www.w3.org/2000/svg" width="42.595" height="42.595" viewBox="0 0 42.595 42.595">
  <path id="password-alt" d="M26.1,19,23.807,21.3,26.1,23.592a1.775,1.775,0,1,1-2.51,2.51L21.3,23.807,19,26.1a1.775,1.775,0,0,1-2.51-2.51L18.788,21.3,16.493,19A1.775,1.775,0,1,1,19,16.493L21.3,18.788l2.295-2.295A1.775,1.775,0,1,1,26.1,19Zm4.59,7.1a1.774,1.774,0,0,0,2.51,0L35.5,23.807,37.791,26.1a1.775,1.775,0,0,0,2.51-2.51L38.005,21.3,40.3,19a1.775,1.775,0,0,0-2.51-2.51L35.5,18.788,33.2,16.493A1.775,1.775,0,0,0,30.691,19L32.986,21.3l-2.295,2.295a1.773,1.773,0,0,0,0,2.51Zm-28.4,0a1.774,1.774,0,0,0,2.51,0L7.1,23.807,9.394,26.1a1.775,1.775,0,0,0,2.51-2.51L9.609,21.3,11.9,19a1.775,1.775,0,0,0-2.51-2.51L7.1,18.788,4.8,16.493A1.775,1.775,0,1,0,2.295,19L4.59,21.3,2.295,23.592a1.773,1.773,0,0,0,0,2.51ZM12.424,39.045H8.874A5.331,5.331,0,0,1,3.55,33.721v-3.55a1.775,1.775,0,1,0-3.55,0v3.55a8.884,8.884,0,0,0,8.874,8.874h3.55a1.775,1.775,0,1,0,0-3.55ZM40.82,28.4a1.774,1.774,0,0,0-1.775,1.775v3.55a5.331,5.331,0,0,1-5.324,5.324h-3.55a1.775,1.775,0,1,0,0,3.55h3.55a8.884,8.884,0,0,0,8.874-8.874v-3.55A1.774,1.774,0,0,0,40.82,28.4ZM33.721,0h-3.55a1.775,1.775,0,1,0,0,3.55h3.55a5.331,5.331,0,0,1,5.324,5.324v3.55a1.775,1.775,0,1,0,3.55,0V8.874A8.884,8.884,0,0,0,33.721,0Zm-21.3,0H8.874A8.884,8.884,0,0,0,0,8.874v3.55a1.775,1.775,0,1,0,3.55,0V8.874A5.331,5.331,0,0,1,8.874,3.55h3.55a1.775,1.775,0,1,0,0-3.55Z" fill="#232323"/>
</svg>
