<svg xmlns="http://www.w3.org/2000/svg" width="13.492" height="17.345" viewBox="0 0 13.492 17.345">
  <path id="password" d="M35.769,17.69a6.834,6.834,0,0,0,.1-1.135,6.2,6.2,0,0,0-5.978-6.388,6.2,6.2,0,0,0-5.978,6.388,6.821,6.821,0,0,0,.1,1.135,1.952,1.952,0,0,0-.864,1.632v6.253a1.9,1.9,0,0,0,1.866,1.937h9.759a1.9,1.9,0,0,0,1.866-1.937h0V19.322A1.951,1.951,0,0,0,35.769,17.69ZM30.71,23.15v1.359a.824.824,0,1,1-1.648,0v-1.36a1.786,1.786,0,0,1-.887-1.556,1.712,1.712,0,1,1,3.422,0A1.786,1.786,0,0,1,30.71,23.15Zm2.88-5.765H26.183a4.46,4.46,0,0,1-.078-.83,3.959,3.959,0,0,1,3.781-4.108,3.959,3.959,0,0,1,3.781,4.108A4.448,4.448,0,0,1,33.59,17.385Z" transform="translate(-23.141 -10.167)" fill="#1acd81"/>
</svg>
