<svg xmlns="http://www.w3.org/2000/svg" width="24.398" height="19.719" viewBox="0 0 24.398 19.719">
  <path id="pass" d="M12.2,15.352a5.507,5.507,0,0,0,5.5-6.058l3.588-2.606a14.243,14.243,0,0,1,1.763,2.606,1.257,1.257,0,0,1,0,1.124A12.216,12.216,0,0,1,12.2,17.25a15.99,15.99,0,0,1-3.461-.563l1.706-1.616a17.335,17.335,0,0,0,1.756.28ZM.237,17.639l4.214-3.291a12.736,12.736,0,0,1-3.1-3.931,1.257,1.257,0,0,1,0-1.124A12.216,12.216,0,0,1,12.2,2.462a11.653,11.653,0,0,1,5.616,1.452L22.666.127a.606.606,0,0,1,.856.108l.748.973a.62.62,0,0,1-.107.865L1.735,19.585a.606.606,0,0,1-.856-.108L.13,18.5A.62.62,0,0,1,.237,17.639Zm7-5.469L8.739,11A3.675,3.675,0,0,1,9.967,6.9a3.583,3.583,0,0,1,3.2-.6,1.848,1.848,0,0,0-.355,1.086,1.813,1.813,0,0,0,.059.385l2.806-2.191A5.392,5.392,0,0,0,12.2,4.31,5.458,5.458,0,0,0,8.318,5.934,5.572,5.572,0,0,0,6.711,9.856a5.46,5.46,0,0,0,.53,2.315Z" transform="translate(-0.001 0.003)" fill="#1acd81"/>
</svg>
