<svg width="25" height="24" viewBox="0 0 25 24" fill="none" xmlns="http://www.w3.org/2000/svg">
<path d="M24.8164 22.5396C22.9907 19.3834 20.1773 17.1201 16.8939 16.0472C18.518 15.0804 19.7799 13.6072 20.4856 11.8538C21.1914 10.1004 21.3021 8.16383 20.8007 6.34145C20.2993 4.51906 19.2136 2.91164 17.7103 1.76604C16.2069 0.620441 14.3691 0 12.479 0C10.5889 0 8.75103 0.620441 7.24768 1.76604C5.74433 2.91164 4.6586 4.51906 4.15722 6.34145C3.65583 8.16383 3.76653 10.1004 4.4723 11.8538C5.17807 13.6072 6.4399 15.0804 8.06399 16.0472C4.78063 17.1189 1.96718 19.3822 0.141495 22.5396C0.0745442 22.6488 0.030136 22.7703 0.0108908 22.8969C-0.00835435 23.0235 -0.00204658 23.1527 0.0294419 23.2768C0.0609304 23.4009 0.116962 23.5175 0.19423 23.6196C0.271499 23.7218 0.368439 23.8074 0.479331 23.8714C0.590224 23.9355 0.712822 23.9767 0.839893 23.9926C0.966964 24.0085 1.09593 23.9988 1.21919 23.964C1.34245 23.9293 1.4575 23.8702 1.55756 23.7903C1.65761 23.7103 1.74064 23.6112 1.80176 23.4986C4.06019 19.5955 8.052 17.2652 12.479 17.2652C16.9059 17.2652 20.8977 19.5955 23.1562 23.4986C23.2173 23.6112 23.3003 23.7103 23.4004 23.7903C23.5004 23.8702 23.6155 23.9293 23.7387 23.964C23.862 23.9988 23.991 24.0085 24.118 23.9926C24.2451 23.9767 24.3677 23.9355 24.4786 23.8714C24.5895 23.8074 24.6864 23.7218 24.7637 23.6196C24.841 23.5175 24.897 23.4009 24.9285 23.2768C24.96 23.1527 24.9663 23.0235 24.947 22.8969C24.9278 22.7703 24.8834 22.6488 24.8164 22.5396ZM5.766 8.63422C5.766 7.30652 6.15971 6.00863 6.89734 4.90469C7.63497 3.80075 8.68339 2.94033 9.91002 2.43224C11.1367 1.92416 12.4864 1.79122 13.7886 2.05024C15.0908 2.30926 16.2869 2.94861 17.2257 3.88743C18.1646 4.82626 18.8039 6.02239 19.0629 7.32458C19.322 8.62677 19.189 9.97652 18.6809 11.2032C18.1728 12.4298 17.3124 13.4782 16.2085 14.2158C15.1045 14.9535 13.8067 15.3472 12.479 15.3472C10.6992 15.3453 8.9928 14.6374 7.73429 13.3789C6.47577 12.1204 5.7679 10.414 5.766 8.63422Z" fill="white"/>
</svg>
