<svg width="22" height="22" viewBox="0 0 22 22" fill="none" xmlns="http://www.w3.org/2000/svg">
<path d="M13.2299 1.53235C13.2598 1.42066 13.3114 1.31596 13.3817 1.22422C13.4521 1.13248 13.5398 1.0555 13.6399 0.997685C13.7401 0.939865 13.8506 0.902338 13.9652 0.887248C14.0798 0.872157 14.1963 0.879799 14.308 0.909737C15.9394 1.33539 17.4278 2.18823 18.62 3.38042C19.8122 4.57261 20.665 6.06105 21.0907 7.69245C21.1206 7.80412 21.1283 7.92059 21.1132 8.03521C21.0981 8.14983 21.0605 8.26035 21.0027 8.36046C20.9449 8.46058 20.8679 8.54831 20.7762 8.61866C20.6844 8.68902 20.5797 8.7406 20.4681 8.77047C20.3937 8.79 20.3172 8.79998 20.2404 8.80017C20.0464 8.80017 19.8579 8.73611 19.7042 8.61795C19.5504 8.49979 19.44 8.33414 19.39 8.14676C19.0429 6.81499 18.3469 5.5999 17.3737 4.62673C16.4005 3.65355 15.1854 2.95752 13.8536 2.61037C13.7419 2.58061 13.637 2.52911 13.5452 2.45881C13.4533 2.38851 13.3762 2.30079 13.3183 2.20067C13.2604 2.10054 13.2227 1.98998 13.2076 1.8753C13.1924 1.76063 13.2 1.64409 13.2299 1.53235ZM12.9736 6.13043C14.4906 6.53523 15.4652 7.50985 15.87 9.02678C15.9199 9.21416 16.0303 9.3798 16.1841 9.49796C16.3379 9.61612 16.5264 9.68018 16.7203 9.68019C16.7972 9.67999 16.8737 9.67001 16.948 9.65049C17.0597 9.62062 17.1644 9.56903 17.2561 9.49868C17.3479 9.42833 17.4248 9.34059 17.4827 9.24048C17.5405 9.14037 17.578 9.02984 17.5931 8.91522C17.6082 8.8006 17.6005 8.68413 17.5706 8.57247C17.0074 6.46483 15.5356 4.99301 13.4279 4.4298C13.2024 4.36955 12.9622 4.40136 12.7601 4.51823C12.5581 4.63509 12.4107 4.82744 12.3505 5.05296C12.2902 5.27848 12.322 5.51869 12.4389 5.72075C12.5558 5.92282 12.7481 6.07018 12.9736 6.13043ZM21.9872 16.6191C21.791 18.1097 21.059 19.4779 19.9278 20.4681C18.7967 21.4584 17.3437 22.0031 15.8403 22.0004C7.10613 22.0004 9.95368e-06 14.8943 9.95368e-06 6.16013C-0.00268507 4.65672 0.541975 3.20374 1.53226 2.07256C2.52255 0.941383 3.89074 0.209363 5.3813 0.0132217C5.75823 -0.032802 6.13993 0.0443106 6.46943 0.233048C6.79892 0.421785 7.05855 0.712025 7.20953 1.06044L9.53277 6.24703V6.26023C9.64837 6.52693 9.69611 6.81811 9.67174 7.10777C9.64736 7.39742 9.55162 7.67653 9.39307 7.92016C9.37327 7.94986 9.35237 7.97736 9.33037 8.00486L7.04013 10.7197C7.86405 12.3939 9.61528 14.1298 11.3115 14.9559L13.989 12.6777C14.0152 12.6556 14.0428 12.6351 14.0715 12.6161C14.3149 12.4538 14.5949 12.3547 14.8863 12.3278C15.1777 12.3009 15.4712 12.3471 15.7402 12.4621L15.7545 12.4687L20.9367 14.7909C21.2857 14.9413 21.5766 15.2007 21.766 15.5303C21.9554 15.8598 22.033 16.2418 21.9872 16.6191ZM20.2404 16.3991C20.2404 16.3991 20.2327 16.3991 20.2283 16.3991L15.0582 14.0836L12.3796 16.3617C12.3536 16.3837 12.3265 16.4043 12.2982 16.4233C12.0449 16.5923 11.7522 16.6927 11.4485 16.7146C11.1448 16.7366 10.8407 16.6794 10.5657 16.5487C8.50536 15.5532 6.45162 13.5149 5.455 11.4765C5.32303 11.2036 5.26381 10.9011 5.28309 10.5985C5.30236 10.296 5.39947 10.0035 5.56501 9.74949C5.58366 9.71966 5.60463 9.69134 5.62771 9.66479L7.92015 6.94664L5.61011 1.77655C5.60967 1.77216 5.60967 1.76774 5.61011 1.76335C4.54337 1.9025 3.56394 2.42574 2.85523 3.23508C2.14653 4.04442 1.75716 5.08436 1.76004 6.16013C1.76412 9.89319 3.24888 13.4722 5.88855 16.1119C8.52822 18.7515 12.1072 20.2363 15.8403 20.2404C16.9154 20.2441 17.955 19.8561 18.7649 19.1489C19.5747 18.4417 20.0992 17.4638 20.2404 16.398V16.3991Z" fill="white"/>
</svg>
