<svg width="16" height="18" viewBox="0 0 16 18" fill="none" xmlns="http://www.w3.org/2000/svg">
<path d="M15.3472 7.83484L1.90888 0.164577C1.6822 0.036972 1.42203 -0.0185338 1.16301 0.0054549C0.903998 0.0294436 0.658442 0.131788 0.459059 0.298853C0.259676 0.465917 0.115933 0.68977 0.0469807 0.940588C-0.021972 1.19141 -0.0128605 1.45728 0.0731014 1.70279L2.5232 8.95471L0.0731014 16.2074C0.00491576 16.4004 -0.0159865 16.6069 0.0121485 16.8097C0.0402834 17.0124 0.116635 17.2055 0.234796 17.3726C0.352958 17.5397 0.509482 17.6761 0.691236 17.7702C0.872989 17.8644 1.07467 17.9135 1.27935 17.9136C1.50173 17.9132 1.72022 17.8553 1.91368 17.7456L15.3456 10.0626C15.5438 9.95159 15.7088 9.78989 15.8238 9.59407C15.9388 9.39825 15.9996 9.17536 16 8.94828C16.0004 8.72119 15.9404 8.49808 15.8261 8.30185C15.7118 8.10562 15.5474 7.94333 15.3496 7.83164L15.3472 7.83484ZM1.27935 16.6338C1.2797 16.6306 1.2797 16.6274 1.27935 16.6242L3.65826 9.59463H8.3185C8.48821 9.59463 8.65098 9.52721 8.77099 9.4072C8.891 9.28719 8.95842 9.12442 8.95842 8.95471C8.95842 8.78499 8.891 8.62222 8.77099 8.50221C8.65098 8.3822 8.48821 8.31478 8.3185 8.31478H3.65826L1.28415 1.28844C1.28337 1.28391 1.28174 1.27957 1.27935 1.27564L14.7177 8.94111L1.27935 16.6338Z" fill="#EE2D6C"/>
</svg>
