<svg width="22" height="21" viewBox="0 0 22 21" fill="none" xmlns="http://www.w3.org/2000/svg">
<g clip-path="url(#clip0_260_343)">
<g clip-path="url(#clip1_260_343)">
<path d="M15.5642 0.492281C15.608 0.511737 15.6519 0.531194 15.6971 0.55124C16.3744 0.882704 16.8195 1.42857 17.0817 2.13291C17.2888 2.80554 17.2119 3.5825 16.8972 4.20419C16.66 4.64301 16.3296 5.00389 15.8923 5.25009C15.9369 5.27246 15.9815 5.29482 16.0275 5.31786C16.6009 5.61002 17.2772 5.98827 17.64 6.54003C17.7878 6.7612 17.7878 6.7612 18.0141 6.88634C18.1457 6.8983 18.272 6.898 18.4042 6.89296C18.4519 6.8929 18.4996 6.89284 18.5488 6.89278C18.7007 6.89231 18.8524 6.88911 19.0043 6.88559C19.1559 6.88337 19.3074 6.88176 19.459 6.88104C19.5531 6.88046 19.6471 6.87896 19.7412 6.8764C20.1314 6.87175 20.461 6.95987 20.7514 7.23102C21.0546 7.5683 21.1249 7.92561 21.1142 8.3676C21.096 8.69135 20.9665 8.96343 20.7321 9.18759C20.4516 9.38017 20.2012 9.52498 19.8555 9.52829C19.8035 9.52894 19.7514 9.5296 19.6978 9.53027C19.6411 9.53053 19.5844 9.53076 19.5278 9.53094C19.4689 9.53131 19.4101 9.53168 19.3513 9.53206C19.2278 9.53274 19.1044 9.53305 18.9809 9.53317C18.8246 9.53339 18.6683 9.53493 18.512 9.53681C18.3903 9.53805 18.2685 9.53833 18.1468 9.53837C18.0893 9.53854 18.0318 9.53904 17.9743 9.53991C17.4724 9.54688 16.9759 9.46678 16.5485 9.18759C16.5424 9.37868 16.538 9.56971 16.535 9.76087C16.5338 9.82572 16.5321 9.89055 16.53 9.95537C16.5269 10.0493 16.5256 10.1431 16.5245 10.237C16.5226 10.2796 16.5226 10.2796 16.5207 10.323C16.5205 10.5526 16.6041 10.6872 16.7267 10.8771C16.856 11.0965 16.934 11.338 17.0202 11.5768C17.0413 11.6341 17.0624 11.6914 17.0836 11.7488C17.1284 11.8707 17.1731 11.9927 17.2175 12.1147C17.323 12.4044 17.4297 12.6936 17.5363 12.9828C17.5726 13.0815 17.6089 13.1803 17.6452 13.279C17.8046 13.7123 17.9663 14.1447 18.1304 14.5763C18.1409 14.6042 18.1515 14.632 18.1624 14.6606C18.2532 14.8995 18.3443 15.1383 18.4355 15.377C18.4729 15.475 18.5103 15.573 18.5477 15.671C18.5812 15.7588 18.6147 15.8466 18.6484 15.9343C18.663 15.9728 18.6777 16.0112 18.6928 16.0508C18.7055 16.0841 18.7183 16.1173 18.7314 16.1516C18.8483 16.4829 18.876 16.9402 18.7377 17.2677C18.6919 17.3516 18.6919 17.3516 18.6403 17.4317C18.6225 17.4607 18.6046 17.4897 18.5862 17.5195C18.3942 17.8027 18.1481 17.9567 17.82 18.047C17.352 18.0887 16.9918 18.0525 16.6203 17.747C16.2903 17.4559 16.163 17.0817 16.0153 16.6803C15.9922 16.6185 15.9691 16.5568 15.946 16.495C15.8852 16.3329 15.825 16.1705 15.765 16.0081C15.7043 15.8445 15.6432 15.681 15.5821 15.5175C15.5131 15.3327 15.4442 15.148 15.3756 14.9631C15.2493 14.623 15.1211 14.2837 14.9899 13.9454C14.9868 13.9748 14.9836 14.0041 14.9803 14.0344C14.9671 14.1543 14.9529 14.2742 14.9387 14.394C14.9342 14.4359 14.9297 14.4778 14.9251 14.521C14.864 15.0242 14.6567 15.4708 14.2517 15.7911C13.9744 15.9513 13.7238 16.0836 13.4003 16.0829C13.3519 16.0829 13.3034 16.0829 13.2535 16.0829C13.2012 16.0827 13.1489 16.0824 13.0951 16.0822C13.0415 16.0822 12.988 16.0821 12.9328 16.082C12.7906 16.0819 12.6484 16.0815 12.5062 16.081C12.361 16.0806 12.2159 16.0804 12.0707 16.0802C11.786 16.0798 11.5012 16.0791 11.2165 16.0782C11.2127 16.124 11.2127 16.124 11.2087 16.1707C11.2035 16.2312 11.2035 16.2312 11.1981 16.2928C11.1947 16.3327 11.1913 16.3725 11.1878 16.4136C11.0535 17.6748 10.2049 18.8251 9.24775 19.6056C8.30819 20.3265 7.20865 20.6908 6.02803 20.6873C5.99929 20.6873 5.97054 20.6873 5.94093 20.6873C4.55145 20.6823 3.31936 20.1559 2.31611 19.1954C2.2855 19.1674 2.25489 19.1394 2.22335 19.1105C1.9518 18.8536 1.74273 18.562 1.53682 18.252C1.51102 18.2138 1.48521 18.1755 1.45863 18.136C0.747839 17.0052 0.554162 15.5124 0.84615 14.217C1.09207 13.2431 1.58118 12.4094 2.2751 11.6895C2.31539 11.6454 2.31539 11.6454 2.35649 11.6003C2.63073 11.3079 2.96851 11.0906 3.30049 10.8692C3.27809 10.8691 3.2557 10.8689 3.23263 10.8688C2.99838 10.8671 2.76417 10.8642 2.52994 10.8607C2.44267 10.8596 2.35539 10.8587 2.26811 10.8581C2.14224 10.8572 2.01643 10.8553 1.89058 10.8532C1.8519 10.8532 1.81322 10.8531 1.77337 10.8531C1.47877 10.8466 1.25839 10.7796 1.0347 10.5836C1.00155 10.5435 1.00155 10.5435 0.967725 10.5027C0.94499 10.4761 0.922255 10.4495 0.898831 10.4221C0.715105 10.1554 0.729849 9.86963 0.75752 9.55673C0.826461 9.28359 1.02264 9.09795 1.24971 8.9415C1.42446 8.85371 1.58517 8.84807 1.77686 8.8496C1.80902 8.84953 1.84119 8.84946 1.87433 8.84939C1.98196 8.84926 2.08957 8.84971 2.1972 8.85016C2.27441 8.85018 2.35162 8.85017 2.42884 8.85012C2.63839 8.8501 2.84794 8.85058 3.05749 8.85115C3.2765 8.85166 3.49552 8.85171 3.71454 8.85181C4.12925 8.85206 4.54396 8.85274 4.95867 8.85356C5.43082 8.85448 5.90297 8.85493 6.37512 8.85534C7.34633 8.8562 8.31755 8.85764 9.28877 8.85947C9.28801 8.80122 9.28801 8.80122 9.28724 8.74179C9.28684 8.69053 9.28645 8.63927 9.28605 8.58646C9.28529 8.51044 9.28529 8.51044 9.28451 8.43289C9.3111 7.51041 10.0279 6.82038 10.649 6.22349C11.282 5.62661 12.0315 5.25576 12.8571 5.004C12.8368 4.98803 12.8164 4.97206 12.7954 4.95561C12.3421 4.58229 12.0101 4.02923 11.9138 3.44541C11.8717 2.93183 11.8602 2.40321 12.0778 1.92783C12.107 1.862 12.107 1.862 12.1368 1.79485C12.4683 1.11758 13.0141 0.672534 13.7185 0.410249C14.2892 0.233834 15.018 0.24228 15.5642 0.492281ZM13.0455 1.6843C12.6418 2.17507 12.5509 2.7041 12.611 3.32236C12.707 3.8309 13.0256 4.27995 13.4442 4.57974C13.9397 4.89567 14.476 4.96247 15.0505 4.85404C15.5846 4.69393 16.0206 4.32112 16.2906 3.8381C16.5214 3.3772 16.5506 2.81185 16.4024 2.31748C16.1996 1.80105 15.8163 1.3887 15.3181 1.14853C15.0659 1.0447 14.839 1.00399 14.567 1.00754C14.516 1.00805 14.516 1.00805 14.464 1.00857C13.8914 1.02425 13.437 1.27071 13.0455 1.6843ZM12.083 6.06015C12.0523 6.0758 12.0216 6.09145 11.99 6.10758C11.5533 6.34375 11.1971 6.69052 10.8492 7.03997C10.7905 7.09883 10.7312 7.15712 10.6719 7.2154C10.3995 7.48759 10.1808 7.7419 10.0578 8.11093C10.0449 8.14794 10.032 8.18495 10.0187 8.22309C9.97151 8.43135 9.96275 8.64666 9.94502 8.85947C10.3781 8.85947 10.8113 8.85947 11.2575 8.85947C11.2711 8.71058 11.2846 8.5617 11.2985 8.4083C11.3773 8.28098 11.446 8.18887 11.5446 8.08017C11.5721 8.04666 11.5995 8.01314 11.6278 7.97861C11.7208 7.86653 11.8179 7.75942 11.9163 7.65207C11.9471 7.61477 11.9779 7.57747 12.0097 7.53904C12.2283 7.30538 12.3776 7.24094 12.6935 7.23017C12.7519 7.2294 12.7519 7.2294 12.8115 7.22861C12.8515 7.22743 12.8914 7.22624 12.9325 7.22503C13.0305 7.22224 13.1283 7.2202 13.2263 7.21884C13.2261 7.26203 13.2259 7.30522 13.2257 7.34972C13.224 7.75821 13.2228 8.1667 13.222 8.57519C13.2216 8.78517 13.221 8.99514 13.2201 9.20511C13.2192 9.40802 13.2187 9.61093 13.2185 9.81385C13.2183 9.89098 13.218 9.96811 13.2176 10.0452C13.2059 10.9756 13.2059 10.9756 13.6518 11.7665C13.9302 12.0237 14.1811 12.1056 14.5567 12.1048C14.6366 12.105 14.6366 12.105 14.7181 12.1052C14.843 12.1006 14.9506 12.0849 15.072 12.0587C15.0781 12.081 15.0843 12.1032 15.0907 12.1262C15.186 12.4577 15.3073 12.779 15.4291 13.1015C15.4522 13.1631 15.4753 13.2247 15.4984 13.2862C15.5597 13.4494 15.6211 13.6125 15.6826 13.7756C15.7459 13.9436 15.8091 14.1116 15.8723 14.2796C15.9472 14.4785 16.0221 14.6774 16.0971 14.8763C16.2313 15.2325 16.3649 15.5889 16.4976 15.9457C16.5363 16.0495 16.5751 16.1532 16.6138 16.2569C16.6367 16.3183 16.6594 16.3796 16.6821 16.441C16.7124 16.5232 16.7431 16.6053 16.774 16.6874C16.7901 16.7309 16.8063 16.7744 16.8229 16.8192C16.9296 17.0581 17.0478 17.2346 17.2868 17.3497C17.4917 17.3824 17.6476 17.3735 17.8354 17.2831C17.9755 17.1563 18.0888 17.0508 18.1207 16.8569C18.1318 16.5263 18.0229 16.2493 17.9056 15.9449C17.8841 15.8876 17.8626 15.8303 17.8412 15.7729C17.7836 15.6191 17.7252 15.4657 17.6667 15.3123C17.6057 15.1523 17.5455 14.9921 17.4852 14.8319C17.3864 14.5695 17.287 14.3072 17.1874 14.0451C17.0594 13.7082 16.9328 13.3708 16.8066 13.0332C16.7351 12.8421 16.6632 12.651 16.5914 12.46C16.5527 12.357 16.5141 12.2539 16.4756 12.1509C16.4221 12.0081 16.3683 11.8655 16.3143 11.7229C16.2988 11.6812 16.2833 11.6396 16.2673 11.5967C16.1735 11.3505 16.081 11.14 15.8923 10.9513C15.8834 10.8327 15.8795 10.718 15.8792 10.5993C15.8786 10.5447 15.8786 10.5447 15.878 10.489C15.8767 10.3682 15.876 10.2475 15.8753 10.1268C15.8745 10.0432 15.8737 9.95966 15.8729 9.87609C15.8708 9.65587 15.8692 9.43565 15.8676 9.21542C15.866 8.99081 15.8639 8.7662 15.8618 8.5416C15.8579 8.10068 15.8544 7.65976 15.8513 7.21884C16.0678 7.21884 16.2844 7.21884 16.5075 7.21884C16.4997 7.3286 16.4997 7.3286 16.4917 7.44058C16.4463 7.94982 16.4463 7.94982 16.5892 8.42192C16.7095 8.51031 16.8186 8.56221 16.9587 8.61337C17.003 8.63378 17.0473 8.65419 17.093 8.67522C17.4989 8.85167 17.8972 8.86582 18.3343 8.86636C18.3739 8.86649 18.4135 8.86663 18.4543 8.86677C18.5374 8.86698 18.6205 8.86707 18.7035 8.86707C18.83 8.86716 18.9564 8.86791 19.0829 8.86868C19.164 8.8688 19.2452 8.86888 19.3264 8.86892C19.3638 8.86922 19.4012 8.86951 19.4397 8.86981C19.7922 8.86856 20.0661 8.82824 20.322 8.57236C20.4341 8.38954 20.4304 8.20658 20.404 7.99814C20.3077 7.79813 20.1871 7.69449 19.9938 7.58798C19.8521 7.5522 19.7195 7.54172 19.5736 7.54115C19.5317 7.54086 19.4898 7.54057 19.4467 7.54028C19.4018 7.54011 19.357 7.53993 19.3108 7.53976C19.2154 7.53881 19.12 7.53782 19.0246 7.53679C18.8746 7.53535 18.7245 7.53415 18.5745 7.5336C18.4294 7.53297 18.2844 7.53132 18.1393 7.5295C18.0946 7.52958 18.0499 7.52966 18.0038 7.52974C17.7018 7.52488 17.5638 7.4834 17.3413 7.27887C17.315 7.2494 17.315 7.2494 17.2883 7.21932C17.2584 7.18623 17.2584 7.18623 17.2279 7.15247C17.2076 7.12954 17.1873 7.10661 17.1663 7.08298C17.1228 7.03505 17.0792 6.98714 17.0356 6.93926C16.9705 6.8673 16.9056 6.7952 16.8408 6.72297C16.1351 5.97324 15.076 5.62943 14.0737 5.58064C13.3684 5.56498 12.707 5.73947 12.083 6.06015ZM12.1353 8.41296C11.8579 8.70873 11.8439 8.97928 11.8531 9.37096C11.857 9.45084 11.8609 9.53071 11.8651 9.61057C11.8688 9.73094 11.8717 9.85127 11.8738 9.97169C11.8753 10.0459 11.8779 10.1201 11.8818 10.1943C11.8926 10.5082 11.8076 10.7933 11.6164 11.0461C11.3282 11.3277 11.0166 11.4598 10.6115 11.4588C10.5827 11.4588 10.554 11.4587 10.5243 11.4586C10.2307 11.4517 9.98246 11.3869 9.76045 11.1871C9.74015 11.1634 9.71984 11.1397 9.69893 11.1153C9.67186 11.1153 9.64479 11.1153 9.61689 11.1153C9.60553 11.0919 9.59416 11.0684 9.58245 11.0442C9.53703 10.9518 9.53703 10.9518 9.48343 10.8712C9.31931 10.5831 9.31121 10.3169 9.30303 9.9906C9.30152 9.9449 9.30002 9.8992 9.29847 9.85211C9.29483 9.73999 9.29161 9.62787 9.28877 9.51572C8.30903 9.51284 7.32929 9.51067 6.34955 9.50934C5.89464 9.50871 5.43974 9.50784 4.98483 9.50644C4.58836 9.50521 4.19188 9.50442 3.79541 9.50414C3.58546 9.50398 3.37551 9.5036 3.16556 9.50271C2.96795 9.50187 2.77034 9.50162 2.57273 9.5018C2.50021 9.50177 2.42769 9.50152 2.35517 9.50105C2.2561 9.50044 2.15707 9.50059 2.058 9.50092C2.01503 9.50038 2.01503 9.50038 1.97119 9.49984C1.78368 9.50155 1.65498 9.53993 1.4958 9.63877C1.43754 9.75528 1.44188 9.83789 1.45479 9.96689C1.54633 10.0837 1.60039 10.1248 1.74189 10.172C1.80719 10.1758 1.87262 10.1773 1.93802 10.1774C1.99862 10.1776 1.99862 10.1776 2.06044 10.1779C2.10473 10.1778 2.14902 10.1778 2.19466 10.1778C2.24136 10.1779 2.28807 10.1781 2.33619 10.1782C2.43791 10.1785 2.53963 10.1787 2.64134 10.1789C2.80302 10.1792 2.96468 10.1798 3.12636 10.1806C3.18187 10.1808 3.23739 10.1811 3.29291 10.1814C3.32073 10.1815 3.34854 10.1816 3.3772 10.1818C3.7534 10.1835 4.12959 10.1848 4.50579 10.1853C4.75968 10.1857 5.01356 10.1866 5.26745 10.1882C5.4014 10.189 5.53533 10.1894 5.66929 10.1893C7.24093 10.1883 8.53899 10.5957 9.69893 11.6895C9.72668 11.7147 9.75444 11.7398 9.78304 11.7656C10.2863 12.2386 10.5804 12.8452 10.8884 13.4532C11.3621 13.4532 11.8358 13.4532 12.3239 13.4532C12.3733 13.3545 12.378 13.2777 12.3884 13.1676C12.3946 13.103 12.3946 13.103 12.4009 13.0371C12.4051 12.9896 12.4094 12.942 12.4138 12.8931C12.4183 12.8431 12.4228 12.7932 12.4275 12.7417C12.4421 12.5756 12.4562 12.4094 12.47 12.2433C12.4724 12.215 12.4748 12.1867 12.4773 12.1576C12.5911 10.7982 12.5921 9.44335 12.57 8.08017C12.4238 8.08017 12.2344 8.3187 12.1353 8.41296ZM9.94502 9.51572C9.91073 10.0939 9.91073 10.0939 10.1245 10.5975C10.2751 10.7482 10.3832 10.7993 10.5961 10.8026C10.7934 10.7979 10.9029 10.7584 11.0524 10.6231C11.3295 10.2712 11.2575 9.98634 11.2575 9.51572C10.8244 9.51572 10.3913 9.51572 9.94502 9.51572ZM2.84932 12.0997C2.82415 12.1214 2.79898 12.1431 2.77305 12.1654C2.18659 12.71 1.79021 13.4707 1.57783 14.2325C1.56472 14.2771 1.55161 14.3217 1.5381 14.3676C1.36322 15.0711 1.37324 15.916 1.57783 16.6114C1.59179 16.6615 1.60575 16.7116 1.62013 16.7631C1.97646 17.9345 2.81209 18.8992 3.88088 19.4832C4.93564 20.0445 6.18347 20.1603 7.32883 19.8238C8.52903 19.4208 9.54976 18.5957 10.1201 17.4562C10.3222 17.0311 10.5192 16.555 10.5192 16.0782C10.3162 16.0782 10.1132 16.0782 9.904 16.0782C9.89301 16.1239 9.88201 16.1696 9.87068 16.2166C9.59826 17.2968 9.00055 18.2262 8.02893 18.8089C7.12356 19.3308 5.99046 19.504 4.97224 19.2326C3.91359 18.9151 3.05331 18.2403 2.52119 17.2677C2.0685 16.3738 1.92925 15.2774 2.22078 14.307C2.5836 13.2253 3.27511 12.3847 4.29912 11.8661C5.25133 11.431 6.37433 11.3611 7.36346 11.7202C8.26684 12.0622 8.95405 12.6733 9.45283 13.4942C9.77768 13.4739 9.77768 13.4739 10.1091 13.4532C9.79821 12.5206 8.90561 11.7421 8.04212 11.3097C6.25447 10.4573 4.3206 10.8181 2.84932 12.0997ZM3.62861 13.1661C2.96493 13.8568 2.74393 14.731 2.75623 15.6639C2.77705 16.3331 3.06944 17.0059 3.50557 17.5138C3.52592 17.5399 3.54628 17.5661 3.56725 17.5931C4.1078 18.2613 4.9389 18.6033 5.77424 18.6955C6.62462 18.7436 7.47796 18.4677 8.11726 17.9009C8.18001 17.8406 8.24242 17.7799 8.30439 17.7188C8.32993 17.6963 8.35547 17.6737 8.38178 17.6504C8.88323 17.1941 9.11939 16.5202 9.24775 15.8731C9.20546 15.8478 9.16316 15.8224 9.11958 15.7962C8.91058 15.648 8.77289 15.4234 8.68812 15.1829C8.63156 14.8374 8.62156 14.4561 8.7977 14.1462C8.84827 14.0477 8.87112 13.9744 8.87861 13.8634C8.6323 13.316 8.08641 12.8278 7.56611 12.5509C7.5309 12.5321 7.49569 12.5133 7.45941 12.494C6.1356 11.8438 4.66413 12.1645 3.62861 13.1661ZM13.1442 12.2638C13.1036 12.3858 13.0928 12.4824 13.0842 12.6102C13.0794 12.6765 13.0794 12.6765 13.0745 12.7441C13.0681 12.8365 13.0618 12.9289 13.0556 13.0213C13.0059 13.7009 13.0059 13.7009 12.8392 13.9018C12.6664 14.0409 12.5814 14.0788 12.3613 14.0802C12.2841 14.0811 12.2841 14.0811 12.2053 14.0819C12.1778 14.082 12.1503 14.0821 12.1219 14.0822C12.0355 14.0826 11.9491 14.0834 11.8627 14.0844C11.6789 14.0863 11.4951 14.0877 11.3114 14.089C11.099 14.0904 10.8867 14.0922 10.6744 14.0945C10.5897 14.0954 10.505 14.0957 10.4203 14.096C10.0212 14.1002 9.70428 14.1041 9.41182 14.3966C9.29967 14.5794 9.3034 14.7624 9.32979 14.9708C9.42609 15.1708 9.54666 15.2745 9.73994 15.381C9.91453 15.4283 10.0878 15.428 10.2674 15.4279C10.3152 15.4281 10.3152 15.4281 10.3639 15.4283C10.4689 15.4287 10.5738 15.4288 10.6788 15.4289C10.7521 15.429 10.8254 15.4291 10.8987 15.4293C11.0524 15.4295 11.206 15.4296 11.3596 15.4296C11.5558 15.4296 11.7519 15.4301 11.9481 15.4308C12.0995 15.4313 12.251 15.4314 12.4024 15.4313C12.4747 15.4314 12.547 15.4316 12.6193 15.4319C13.3511 15.4489 13.3511 15.4489 13.9646 15.0938C14.2132 14.8282 14.2211 14.4975 14.2517 14.1505C14.2593 14.0721 14.2669 13.9937 14.2746 13.9153C14.3098 13.5414 14.3401 13.1728 14.3337 12.797C14.3034 12.7909 14.2731 12.7849 14.2419 12.7787C13.8269 12.6869 13.4898 12.5066 13.1442 12.2638Z" fill="white"/>
<path d="M1.74819 0.317146C1.77727 0.31696 1.80636 0.316774 1.83633 0.316583C1.93355 0.316064 2.03077 0.31613 2.128 0.316198C2.19781 0.315953 2.26762 0.315674 2.33743 0.315363C2.52692 0.314639 2.7164 0.314446 2.90589 0.314394C3.02434 0.314336 3.14278 0.314161 3.26123 0.313943C3.67461 0.313184 4.08799 0.312849 4.50138 0.312914C4.88643 0.312963 5.27148 0.312098 5.65653 0.310802C5.98734 0.309729 6.31815 0.309289 6.64897 0.309342C6.84645 0.309363 7.04392 0.30913 7.2414 0.308261C7.4272 0.307465 7.61299 0.307461 7.7988 0.308057C7.86685 0.308143 7.9349 0.30795 8.00295 0.307453C8.70339 0.302673 8.70339 0.302673 9.01161 0.572766C9.0337 0.599466 9.05581 0.626167 9.07858 0.653676C9.10131 0.68027 9.12405 0.706865 9.14747 0.734265C9.26096 0.898984 9.29902 1.04537 9.29975 1.24403C9.30027 1.30897 9.30027 1.30897 9.30081 1.37522C9.30075 1.44582 9.30075 1.44582 9.3007 1.51786C9.30097 1.56777 9.30125 1.61768 9.30153 1.6691C9.30218 1.80571 9.30245 1.94232 9.3025 2.07893C9.30256 2.1644 9.30273 2.24986 9.30295 2.33533C9.30371 2.63383 9.30405 2.93232 9.30398 3.23082C9.30393 3.50852 9.3048 3.7862 9.30609 4.0639C9.30717 4.30275 9.30761 4.5416 9.30755 4.78046C9.30753 4.92293 9.30776 5.06538 9.30863 5.20784C9.30958 5.36688 9.3092 5.5259 9.30871 5.68495C9.30917 5.73177 9.30963 5.77859 9.3101 5.82684C9.30759 6.14596 9.26028 6.36677 9.04413 6.61344C9.01743 6.63554 8.99073 6.65764 8.96322 6.68041C8.93662 6.70314 8.91003 6.72588 8.88263 6.7493C8.68928 6.88252 8.52603 6.90054 8.29335 6.89862C8.26542 6.89851 8.23749 6.89839 8.20871 6.89827C8.12012 6.89782 8.03154 6.89679 7.94296 6.89574C7.88263 6.89533 7.82231 6.89496 7.76199 6.89462C7.61466 6.89372 7.46735 6.8923 7.32003 6.89061C7.32074 6.93289 7.32146 6.97516 7.32219 7.01871C7.32277 7.0747 7.32333 7.1307 7.32388 7.1867C7.32465 7.22839 7.32465 7.22839 7.32544 7.27093C7.32748 7.55065 7.2698 7.70982 7.08355 7.91296C6.85769 8.12771 6.64744 8.23006 6.33822 8.25951C5.99628 8.24395 5.73643 8.09349 5.47689 7.88268C5.44762 7.85961 5.41835 7.83654 5.38819 7.81277C5.326 7.76374 5.26397 7.7145 5.2021 7.66506C5.06856 7.55871 4.93376 7.45399 4.79892 7.34929C4.73414 7.29897 4.66945 7.24855 4.60484 7.19802C4.57549 7.17509 4.54614 7.15216 4.51591 7.12854C4.49006 7.1083 4.46421 7.08807 4.43758 7.06722C4.27156 6.9414 4.18606 6.92138 3.97907 6.92116C3.95238 6.92101 3.92568 6.92086 3.89818 6.92071C3.84024 6.92042 3.7823 6.92032 3.72435 6.92037C3.63242 6.92041 3.5405 6.91988 3.44856 6.91919C3.18718 6.91729 2.9258 6.91628 2.66441 6.91601C2.50442 6.9158 2.34446 6.9148 2.18449 6.91333C2.12374 6.91293 2.063 6.91283 2.00225 6.91305C1.62389 6.91434 1.33199 6.90648 1.03471 6.64596C1.00156 6.60591 1.00156 6.60591 0.967735 6.56505C0.945 6.53846 0.922265 6.51186 0.898842 6.48446C0.785348 6.31974 0.74729 6.17336 0.746561 5.9747C0.746211 5.93141 0.745862 5.88812 0.745501 5.84351C0.745538 5.79644 0.745576 5.74937 0.745614 5.70087C0.745338 5.65096 0.745063 5.60105 0.744779 5.54963C0.744134 5.41302 0.743862 5.27641 0.74381 5.1398C0.743751 5.05433 0.743576 4.96887 0.743359 4.8834C0.7426 4.5849 0.742265 4.28641 0.742329 3.98791C0.742379 3.71021 0.741514 3.43253 0.740218 3.15483C0.739143 2.91598 0.738705 2.67712 0.738757 2.43827C0.738778 2.2958 0.738548 2.15335 0.737676 2.01089C0.73673 1.85185 0.737109 1.69282 0.737603 1.53378C0.737142 1.48696 0.736681 1.44013 0.736206 1.39189C0.738722 1.07277 0.786028 0.851955 1.00218 0.60529C1.02888 0.58319 1.05558 0.56109 1.08309 0.538319C1.10969 0.515585 1.13628 0.49285 1.16368 0.469426C1.35481 0.337737 1.51826 0.317753 1.74819 0.317146ZM1.49581 1.10741C1.37079 1.29298 1.40199 1.53795 1.40251 1.75356C1.40231 1.798 1.4021 1.84244 1.40188 1.88822C1.40131 2.03507 1.40135 2.1819 1.40144 2.32875C1.40128 2.43086 1.40111 2.53297 1.40091 2.63508C1.4006 2.84909 1.40062 3.06309 1.40083 3.2771C1.40105 3.49683 1.40076 3.71655 1.39999 3.93628C1.39907 4.20166 1.39875 4.46703 1.39891 4.73241C1.39889 4.83353 1.39868 4.93464 1.39826 5.03574C1.39776 5.17712 1.39803 5.31848 1.39851 5.45986C1.3982 5.50161 1.39788 5.54336 1.39756 5.58637C1.39917 5.8025 1.40441 5.9714 1.53683 6.15233C1.69166 6.24527 1.83125 6.24283 2.00885 6.23833C2.06216 6.23729 2.11546 6.23625 2.17039 6.23518C2.19874 6.23449 2.22708 6.2338 2.25629 6.23308C2.40861 6.22977 2.56095 6.22917 2.7133 6.22812C2.90621 6.22666 3.09899 6.22446 3.29183 6.21904C4.59991 6.18398 4.59991 6.18398 5.16144 6.70362C5.19989 6.74156 5.19989 6.74156 5.23911 6.78027C5.33302 6.87177 5.4354 6.94901 5.54066 7.02696C5.59896 7.07283 5.65718 7.1188 5.71529 7.16491C6.01601 7.43528 6.01601 7.43528 6.3818 7.5443C6.51767 7.49999 6.55403 7.46478 6.62277 7.34179C6.6654 7.21388 6.6685 7.12544 6.66779 6.99139C6.66765 6.94737 6.66752 6.90336 6.66739 6.85801C6.66704 6.81209 6.6667 6.76617 6.66634 6.71886C6.66607 6.64927 6.66607 6.64927 6.66578 6.57827C6.6653 6.46363 6.66462 6.349 6.66378 6.23436C6.71219 6.23501 6.7606 6.23565 6.81048 6.23632C6.99072 6.23855 7.17096 6.23996 7.35121 6.24112C7.42911 6.24174 7.507 6.24258 7.58489 6.24365C7.69709 6.24515 7.80928 6.24584 7.92149 6.24638C7.9561 6.24702 7.99072 6.24765 8.02638 6.2483C8.22991 6.24836 8.37856 6.2327 8.5505 6.11132C8.66733 5.91279 8.64434 5.68812 8.6438 5.46517C8.64401 5.42073 8.64422 5.37629 8.64443 5.3305C8.645 5.18366 8.64496 5.03683 8.64487 4.88998C8.64503 4.78787 8.6452 4.68576 8.6454 4.58365C8.64571 4.36964 8.64569 4.15563 8.64548 3.94162C8.64526 3.7219 8.64555 3.50218 8.64632 3.28245C8.64724 3.01707 8.64756 2.7517 8.6474 2.48631C8.64742 2.3852 8.64764 2.28409 8.64805 2.18298C8.64855 2.0416 8.64828 1.90025 8.6478 1.75886C8.64811 1.71712 8.64843 1.67537 8.64875 1.63236C8.64714 1.41623 8.6419 1.24733 8.50948 1.0664C8.34842 0.98308 8.212 0.973988 8.03226 0.973672C8.00546 0.973515 7.97866 0.973358 7.95105 0.973196C7.86157 0.972774 7.7721 0.972936 7.68261 0.973099C7.61833 0.972921 7.55404 0.972708 7.48976 0.972464C7.31536 0.971915 7.14096 0.971891 6.96656 0.971995C6.8209 0.972039 6.67525 0.971838 6.52959 0.971642C6.18594 0.971187 5.8423 0.971169 5.49865 0.971417C5.14426 0.971665 4.78987 0.971159 4.43548 0.970286C4.13107 0.969563 3.82666 0.969317 3.52225 0.969451C3.3405 0.969525 3.15875 0.969417 2.977 0.968847C2.80608 0.968331 2.63517 0.968411 2.46425 0.968946C2.40158 0.969043 2.33892 0.968931 2.27626 0.968593C2.19058 0.968163 2.10493 0.968496 2.01926 0.969015C1.97136 0.969009 1.92345 0.969002 1.8741 0.968995C1.72386 0.986462 1.62487 1.02972 1.49581 1.10741Z" fill="white"/>
<path d="M4.19778 1.62278C4.2301 1.62286 4.26242 1.62293 4.29571 1.623C4.52314 1.62811 4.69586 1.67341 4.90145 1.77339C4.98911 1.81572 4.98911 1.81572 5.1155 1.77916C5.17134 1.75124 5.17134 1.75124 5.2283 1.72276C5.58578 1.57806 6.08108 1.57194 6.44339 1.70738C6.53663 1.75336 6.53663 1.75336 6.62283 1.80479C6.66677 1.83088 6.66677 1.83088 6.71159 1.8575C6.98605 2.04202 7.19524 2.32886 7.30071 2.64337C7.37449 3.04216 7.37967 3.50519 7.15603 3.85557C6.81356 4.31848 6.32039 4.67247 5.87654 5.03269C5.71916 5.16179 5.5641 5.29357 5.40933 5.42579C5.29691 5.52153 5.18365 5.61438 5.06424 5.70128C4.92369 5.63863 4.81575 5.55594 4.69766 5.45775C4.6381 5.40834 4.6381 5.40834 4.57733 5.35793C4.42254 5.22816 4.26839 5.09763 4.11451 4.96679C3.97196 4.84575 3.82787 4.72691 3.68252 4.60923C2.85647 3.9325 2.85647 3.9325 2.72634 3.44542C2.68231 2.9272 2.72911 2.50223 3.06424 2.08437C3.37382 1.76518 3.75967 1.61724 4.19778 1.62278ZM3.66362 2.49725C3.45708 2.72571 3.4046 2.89933 3.41063 3.20621C3.45418 3.59601 3.80765 3.81771 4.09312 4.04645C4.19556 4.1287 4.29648 4.21278 4.39773 4.29649C4.434 4.32573 4.47027 4.35497 4.50764 4.38509C4.57805 4.44233 4.64749 4.50078 4.71592 4.56037C4.74796 4.58749 4.78 4.61461 4.81301 4.64256C4.84083 4.66683 4.86864 4.6911 4.89729 4.7161C4.98116 4.76801 4.98116 4.76801 5.07705 4.73965C5.22778 4.65246 5.35048 4.54348 5.47952 4.42723C5.53422 4.37885 5.58896 4.33051 5.64374 4.28223C5.67061 4.25848 5.69747 4.23474 5.72515 4.21027C5.83197 4.11695 5.94114 4.02711 6.05117 3.9376C6.10455 3.89406 6.10455 3.89406 6.159 3.84964C6.21604 3.8038 6.2735 3.75845 6.33171 3.7141C6.48046 3.59881 6.563 3.50186 6.62283 3.32237C6.65024 3.06727 6.65454 2.83977 6.49978 2.6251C6.33251 2.43227 6.1632 2.3365 5.90986 2.29954C5.68308 2.29413 5.48098 2.34191 5.30857 2.49389C5.23335 2.57193 5.23335 2.57193 5.16966 2.65266C5.10525 2.70713 5.10525 2.70713 5.02578 2.70377C4.92378 2.65837 4.85547 2.5992 4.772 2.52513C4.43933 2.26107 4.00215 2.20057 3.66362 2.49725Z" fill="white"/>
<path d="M5.43335 13.4121C5.53073 13.5315 5.58869 13.6425 5.6419 13.7868C5.66529 13.8496 5.66529 13.8496 5.68915 13.9137C5.71377 13.9811 5.71377 13.9811 5.73888 14.0498C5.75601 14.096 5.77313 14.1422 5.79077 14.1898C5.84535 14.3372 5.89955 14.4848 5.95374 14.6323C5.99069 14.7324 6.02768 14.8324 6.06469 14.9324C6.15531 15.1775 6.24562 15.4227 6.33569 15.668C6.36187 15.6164 6.38796 15.5648 6.41401 15.5131C6.42855 15.4844 6.44308 15.4556 6.45806 15.426C6.51653 15.3052 6.56345 15.1811 6.60999 15.0553C6.70064 14.8108 6.70064 14.8108 6.74585 14.7656C6.86117 14.762 6.97548 14.7609 7.0908 14.7616C7.12533 14.7617 7.15987 14.7617 7.19545 14.7618C7.30621 14.762 7.41696 14.7625 7.52771 14.7631C7.60261 14.7633 7.67751 14.7635 7.75241 14.7636C7.93643 14.7641 8.12043 14.7648 8.30444 14.7656C8.30444 14.9822 8.30444 15.1988 8.30444 15.4219C7.95253 15.4354 7.60062 15.4489 7.23804 15.4629C7.1462 15.6976 7.1462 15.6976 7.05251 15.937C7.00362 16.0614 6.95467 16.1859 6.90568 16.3103C6.85394 16.4418 6.8023 16.5733 6.7509 16.7049C6.69196 16.8558 6.63256 17.0065 6.57314 17.1572C6.55472 17.2045 6.5363 17.2519 6.51733 17.3006C6.50009 17.3442 6.48285 17.3877 6.46509 17.4325C6.44997 17.471 6.43485 17.5096 6.41927 17.5493C6.37671 17.6367 6.37671 17.6367 6.29468 17.6777C5.9563 16.7709 5.61792 15.864 5.26929 14.9297C5.24222 14.9297 5.21515 14.9297 5.18726 14.9297C5.12182 15.0031 5.12182 15.0031 5.05508 15.0987C5.01689 15.1512 5.01689 15.1512 4.97793 15.2047C4.95142 15.2417 4.9249 15.2787 4.89758 15.3168C4.845 15.3894 4.7924 15.4619 4.73977 15.5345C4.71645 15.5669 4.69313 15.5994 4.6691 15.6328C4.61304 15.709 4.61304 15.709 4.57202 15.75C4.48402 15.7536 4.3959 15.7544 4.30782 15.754C4.25429 15.7539 4.20076 15.7537 4.1456 15.7536C4.08865 15.7533 4.03169 15.7529 3.97473 15.7526C3.91761 15.7524 3.8605 15.7522 3.80338 15.752C3.66311 15.7515 3.52284 15.7508 3.38257 15.75C3.38257 15.5334 3.38257 15.3169 3.38257 15.0938C3.65327 15.0938 3.92397 15.0938 4.20288 15.0938C4.22995 15.0396 4.25702 14.9855 4.28491 14.9297C4.32203 14.8749 4.36042 14.8209 4.39979 14.7677C4.42272 14.7366 4.44566 14.7055 4.46929 14.6735C4.50619 14.6239 4.50619 14.6239 4.54382 14.5734C4.56908 14.5393 4.59434 14.5052 4.62036 14.47C5.3276 13.5179 5.3276 13.5179 5.43335 13.4121Z" fill="white"/>
</g>
</g>
<defs>
<clipPath id="clip0_260_343">
<rect width="21" height="21" fill="white" transform="translate(0.429443)"/>
</clipPath>
<clipPath id="clip1_260_343">
<rect width="21" height="21" fill="white" transform="translate(0.429443)"/>
</clipPath>
</defs>
</svg>
