<svg width="13" height="14" viewBox="0 0 13 14" fill="none" xmlns="http://www.w3.org/2000/svg">
<path d="M11.8705 11.9945L9.10225 9.2263C9.80639 8.38236 10.231 7.29782 10.231 6.11538C10.231 3.43263 8.0484 1.25 5.36569 1.25C2.68297 1.25 0.500366 3.43263 0.500366 6.11538C0.500366 8.79817 2.68297 10.9808 5.36569 10.9808C6.54811 10.9808 7.63263 10.5562 8.47654 9.85204L11.2448 12.6203C11.3309 12.7064 11.4441 12.75 11.5573 12.75C11.6705 12.75 11.7838 12.707 11.8699 12.6203C12.0433 12.4475 12.0433 12.1673 11.8705 11.9945ZM1.38497 6.11538C1.38497 3.92037 3.1707 2.13462 5.36569 2.13462C7.56067 2.13462 9.3464 3.92037 9.3464 6.11538C9.3464 8.31037 7.56067 10.0962 5.36569 10.0962C3.1707 10.0962 1.38497 8.31044 1.38497 6.11538Z" stroke="#30495E"/>
</svg>
