<svg xmlns="http://www.w3.org/2000/svg" width="28" height="28" viewBox="0 0 28 28">
  <g id="home" transform="translate(0 -0.32)">
    <path id="Path_" data-name="Path " d="M12,14a3,3,0,0,0-3,3v7.026h6V17A3,3,0,0,0,12,14Z" transform="translate(2 4.291)" fill="#0fa968"/>
    <path id="Path_2" data-name="Path " d="M15.561.926a2.312,2.312,0,0,0-3.122,0L0,12.258V24.54A3.756,3.756,0,0,0,3.733,28.32H8.167v-8.3a5.834,5.834,0,1,1,11.667,0v8.3h4.433A3.756,3.756,0,0,0,28,24.537V12.255Z" transform="translate(0 0)" fill="#0fa968"/>
  </g>
</svg>
