<svg xmlns="http://www.w3.org/2000/svg" width="28" height="28" viewBox="0 0 28 28">
  <path id="users-alt_1_" data-name="users-alt (1)" d="M14,18.667A4.667,4.667,0,1,1,18.667,14,4.667,4.667,0,0,1,14,18.667Zm-7.37,0H1.167A1.167,1.167,0,0,1,0,17.5a7.026,7.026,0,0,1,5.986-6.9,1.167,1.167,0,0,1,1.283,1.477A7.01,7.01,0,0,0,7,14a6.926,6.926,0,0,0,.684,3,1.167,1.167,0,0,1-1.05,1.668ZM19.833,28H8.167A1.167,1.167,0,0,1,7,26.833a7,7,0,1,1,14,0A1.167,1.167,0,0,1,19.833,28ZM21,9.333a4.667,4.667,0,1,1,4.667-4.667A4.667,4.667,0,0,1,21,9.333Zm-14,0a4.667,4.667,0,1,1,4.667-4.667A4.667,4.667,0,0,1,7,9.333Zm19.833,9.333H21.37A1.167,1.167,0,0,1,20.32,17,6.927,6.927,0,0,0,21,14a7.01,7.01,0,0,0-.275-1.925A1.167,1.167,0,0,1,22.014,10.6,7.026,7.026,0,0,1,28,17.5,1.167,1.167,0,0,1,26.833,18.667Z" fill="#0fa968"/>
</svg>
