<svg width="46" height="46" viewBox="0 0 46 46" fill="none" xmlns="http://www.w3.org/2000/svg">
<rect width="46" height="46" rx="23" fill="#86CD4B"/>
<path d="M32.1023 15.6859L10.3642 17.2165C9.99893 17.2444 9.65082 17.3829 9.36626 17.6136C9.0817 17.8444 8.87419 18.1563 8.7714 18.5079C8.6686 18.8596 8.67539 19.2342 8.79086 19.5818C8.90633 19.9295 9.125 20.2338 9.41774 20.454L17.9604 27.0299L20.765 37.4402C20.8362 37.7196 20.9733 37.9778 21.1648 38.1932C21.3564 38.4086 21.5968 38.575 21.8659 38.6782C22.1351 38.7815 22.425 38.8188 22.7115 38.7868C22.998 38.7549 23.2727 38.6547 23.5124 38.4946C23.7725 38.3201 23.9831 38.0814 24.1239 37.8017L33.8433 18.296C33.9884 18.0111 34.0552 17.6926 34.0367 17.3733C34.0182 17.054 33.915 16.7454 33.7378 16.4792C33.5607 16.2129 33.3158 15.9986 33.0285 15.8582C32.7411 15.7178 32.4216 15.6564 32.1026 15.6803L32.1023 15.6859ZM22.5112 36.9958C22.5091 36.9918 22.5066 36.9881 22.5037 36.9846L19.7902 26.8913L25.2478 23.2455C25.4465 23.1127 25.5844 22.9064 25.6311 22.672C25.6777 22.4376 25.6293 22.1942 25.4966 21.9955C25.3638 21.7967 25.1575 21.6588 24.9231 21.6122C24.6886 21.5655 24.4453 21.6139 24.2465 21.7467L18.789 25.3925L10.5118 19.0213C10.5074 19.0167 10.5021 19.0128 10.4962 19.0101L32.2306 17.4739L22.5112 36.9958Z" fill="white"/>
</svg>
