<svg width="22" height="20" viewBox="0 0 22 20" fill="none" xmlns="http://www.w3.org/2000/svg">
<path d="M10.9303 5.25156C10.0404 5.25156 9.17041 5.51546 8.43044 6.00989C7.69048 6.50432 7.11374 7.20707 6.77317 8.02928C6.4326 8.85149 6.34349 9.75622 6.51712 10.6291C6.69074 11.5019 7.11929 12.3037 7.74858 12.933C8.37787 13.5623 9.17964 13.9908 10.0525 14.1644C10.9253 14.3381 11.8301 14.249 12.6523 13.9084C13.4745 13.5678 14.1772 12.9911 14.6717 12.2511C15.1661 11.5112 15.43 10.6412 15.43 9.75123C15.4288 8.55823 14.9543 7.41444 14.1107 6.57085C13.2671 5.72727 12.1233 5.2528 10.9303 5.25156ZM10.9303 12.751C10.337 12.751 9.75705 12.5751 9.26374 12.2455C8.77043 11.9158 8.38594 11.4473 8.15889 10.8992C7.93184 10.3511 7.87244 9.74791 7.98819 9.166C8.10393 8.5841 8.38964 8.04959 8.80916 7.63007C9.22869 7.21054 9.7632 6.92484 10.3451 6.80909C10.927 6.69334 11.5302 6.75275 12.0783 6.97979C12.6264 7.20684 13.0949 7.59133 13.4246 8.08464C13.7542 8.57796 13.9301 9.15793 13.9301 9.75123C13.9301 10.5468 13.6141 11.3098 13.0515 11.8724C12.4889 12.435 11.7259 12.751 10.9303 12.751ZM21.2365 7.80231C21.2156 7.6967 21.1722 7.59683 21.1093 7.50948C21.0464 7.42214 20.9654 7.34936 20.8718 7.2961L18.0754 5.70246L18.0642 2.55081C18.0639 2.44227 18.04 2.3351 17.9942 2.23669C17.9484 2.13829 17.8817 2.051 17.7989 1.98085C16.7845 1.12282 15.6164 0.465276 14.3566 0.0431821C14.2574 0.00960312 14.1523 -0.00282357 14.048 0.0067024C13.9437 0.0162284 13.8425 0.0474958 13.7511 0.0984906L10.9303 1.67525L8.10678 0.0956783C8.01525 0.0443963 7.91397 0.0128927 7.80949 0.00320415C7.70502 -0.00648441 7.59967 0.00585756 7.50027 0.0394323C6.24143 0.464612 5.07465 1.12466 4.06176 1.9846C3.97905 2.05465 3.9125 2.14179 3.86671 2.24002C3.82091 2.33825 3.79694 2.44524 3.79647 2.55363L3.78241 5.70809L0.986047 7.30172C0.892492 7.35498 0.811501 7.42776 0.748578 7.51511C0.685654 7.60246 0.642274 7.70233 0.621385 7.80794C0.365463 9.09398 0.365463 10.4179 0.621385 11.7039C0.642274 11.8095 0.685654 11.9094 0.748578 11.9967C0.811501 12.0841 0.892492 12.1569 0.986047 12.2101L3.78241 13.8038L3.79366 16.9554C3.794 17.0639 3.81789 17.1711 3.8637 17.2695C3.9095 17.3679 3.97612 17.4552 4.05895 17.5254C5.07332 18.3834 6.24144 19.0409 7.5012 19.463C7.60041 19.4966 7.70555 19.509 7.80985 19.4995C7.91415 19.49 8.0153 19.4587 8.10678 19.4077L10.9303 17.8272L13.7539 19.4068C13.8656 19.469 13.9916 19.5013 14.1195 19.5005C14.2014 19.5005 14.2827 19.4872 14.3604 19.4612C15.6191 19.0365 16.7859 18.3771 17.7989 17.5179C17.8816 17.4478 17.9482 17.3607 17.994 17.2624C18.0398 17.1642 18.0637 17.0572 18.0642 16.9488L18.0783 13.7944L20.8746 12.2007C20.9682 12.1475 21.0492 12.0747 21.1121 11.9874C21.175 11.9 21.2184 11.8001 21.2393 11.6945C21.4938 10.4095 21.4928 9.08696 21.2365 7.80231ZM19.8303 11.0749L17.1521 12.5982C17.0347 12.6649 16.9376 12.7621 16.8708 12.8794C16.8165 12.9732 16.7593 13.0726 16.7012 13.1663C16.6268 13.2845 16.5871 13.4213 16.5868 13.561L16.5727 16.5842C15.8529 17.1495 15.0509 17.6016 14.1945 17.9247L11.4928 16.4192C11.3806 16.3571 11.2544 16.3249 11.1263 16.3254H11.1084C10.995 16.3254 10.8806 16.3254 10.7672 16.3254C10.6331 16.3221 10.5004 16.3544 10.3829 16.4192L7.67931 17.9285C6.82111 17.6078 6.01689 17.1579 5.29449 16.5945L5.28417 13.576C5.28371 13.436 5.2441 13.299 5.16981 13.1804C5.11169 13.0866 5.0545 12.9929 5.00107 12.8935C4.93482 12.7743 4.83766 12.6753 4.71984 12.6067L2.03878 11.0796C1.90004 10.202 1.90004 9.308 2.03878 8.43039L4.71234 6.90425C4.82969 6.83753 4.92685 6.74037 4.99357 6.62302C5.04794 6.52928 5.10513 6.42991 5.16325 6.33617C5.23764 6.21795 5.27728 6.08119 5.27761 5.94151L5.29167 2.91829C6.01156 2.35297 6.81356 1.90091 7.66994 1.57776L10.3679 3.08328C10.4853 3.14836 10.618 3.18074 10.7522 3.17702C10.8656 3.17702 10.98 3.17702 11.0934 3.17702C11.2276 3.18037 11.3602 3.14802 11.4778 3.08328L14.1813 1.57401C15.0396 1.89468 15.8438 2.34452 16.5662 2.90798L16.5765 5.92651C16.577 6.06646 16.6166 6.20349 16.6909 6.3221C16.749 6.41585 16.8062 6.50959 16.8596 6.60896C16.9258 6.72812 17.023 6.82721 17.1408 6.89581L19.8219 8.42289C19.9625 9.30118 19.9641 10.1961 19.8266 11.0749H19.8303Z" fill="white"/>
</svg>
