<svg xmlns="http://www.w3.org/2000/svg" width="200" height="200.003" viewBox="0 0 200 200.003">
  <g id="Group_" data-name="Group " transform="translate(-0.003 0.001)">
    <path id="Path_" data-name="Path " d="M192.965,100A29.142,29.142,0,0,0,180.51,53.516,29.142,29.142,0,0,0,146.48,19.49,29.133,29.133,0,0,0,100,7.039,29.142,29.142,0,0,0,53.515,19.495a29.142,29.142,0,0,0-34.022,34.03A29.142,29.142,0,0,0,7.038,100.007,29.138,29.138,0,0,0,19.5,146.489a29.134,29.134,0,0,0,34.026,34.022,29.14,29.14,0,0,0,46.482,12.455,29.136,29.136,0,0,0,46.482-12.46,29.136,29.136,0,0,0,34.026-34.026A29.136,29.136,0,0,0,192.965,100Z" transform="translate(0 0)" fill="#0fa968"/>
    <path id="Path_2" data-name="Path " d="M61.537,103.626,40.7,82.8a4.226,4.226,0,0,1,0-5.971l2.532-2.535a4.226,4.226,0,0,1,5.971,0l15.15,15.14,35.679-37.916A4.226,4.226,0,0,1,106,51.334l2.6,2.454a4.226,4.226,0,0,1,.182,5.971L67.609,103.532a4.223,4.223,0,0,1-6.072.094Z" transform="translate(24.808 26.329)" fill="#fff"/>
  </g>
</svg>
