<svg width="22" height="23" viewBox="0 0 22 23" fill="none" xmlns="http://www.w3.org/2000/svg">
<path d="M18.3894 3.09547C17.4232 2.11956 16.274 1.34381 15.0076 0.812643C13.7412 0.281476 12.3824 0.00532503 11.0092 0H10.9294C8.14464 0 5.47394 1.10624 3.50481 3.07537C1.53569 5.04449 0.429443 7.7152 0.429443 10.5V16.1538C0.429443 16.7964 0.68473 17.4127 1.13914 17.8672C1.59356 18.3216 2.20987 18.5769 2.85251 18.5769H4.46789C5.11053 18.5769 5.72684 18.3216 6.18126 17.8672C6.63567 17.4127 6.89096 16.7964 6.89096 16.1538V12.1153C6.89096 11.4727 6.63567 10.8564 6.18126 10.402C5.72684 9.94756 5.11053 9.69227 4.46789 9.69227H2.08117C2.23693 8.00817 2.86951 6.40336 3.90475 5.06593C4.94 3.7285 6.33502 2.71387 7.92631 2.14095C9.51761 1.56803 11.2392 1.46056 12.8894 1.83114C14.5396 2.20172 16.05 3.035 17.2435 4.2333C18.7023 5.69956 19.5996 7.63172 19.7787 9.69227H17.3909C16.7483 9.69227 16.132 9.94756 15.6776 10.402C15.2231 10.8564 14.9679 11.4727 14.9679 12.1153V16.1538C14.9679 16.7964 15.2231 17.4127 15.6776 17.8672C16.132 18.3216 16.7483 18.5769 17.3909 18.5769H19.814C19.814 19.2195 19.5587 19.8358 19.1043 20.2902C18.6499 20.7446 18.0336 20.9999 17.3909 20.9999H11.7371C11.5229 20.9999 11.3174 21.085 11.166 21.2365C11.0145 21.388 10.9294 21.5934 10.9294 21.8076C10.9294 22.0218 11.0145 22.2273 11.166 22.3787C11.3174 22.5302 11.5229 22.6153 11.7371 22.6153H17.3909C18.462 22.6153 19.4892 22.1898 20.2465 21.4325C21.0039 20.6751 21.4294 19.6479 21.4294 18.5769V10.5C21.4346 9.12646 21.1688 7.76542 20.6472 6.49482C20.1255 5.22422 19.3583 4.06904 18.3894 3.09547ZM4.46789 11.3077C4.6821 11.3077 4.88754 11.3927 5.03901 11.5442C5.19048 11.6957 5.27558 11.9011 5.27558 12.1153V16.1538C5.27558 16.368 5.19048 16.5734 5.03901 16.7249C4.88754 16.8764 4.6821 16.9615 4.46789 16.9615H2.85251C2.6383 16.9615 2.43286 16.8764 2.28139 16.7249C2.12992 16.5734 2.04482 16.368 2.04482 16.1538V11.3077H4.46789ZM17.3909 16.9615C17.1767 16.9615 16.9713 16.8764 16.8198 16.7249C16.6683 16.5734 16.5832 16.368 16.5832 16.1538V12.1153C16.5832 11.9011 16.6683 11.6957 16.8198 11.5442C16.9713 11.3927 17.1767 11.3077 17.3909 11.3077H19.814V16.9615H17.3909Z" fill="white"/>
</svg>
