<svg xmlns="http://www.w3.org/2000/svg" width="18.667" height="28" viewBox="0 0 18.667 28">
  <g id="user_2_" data-name="user (2)" transform="translate(-85.325)">
    <path id="Path_" data-name="Path " d="M94.02,298.684a9.555,9.555,0,0,0-8.694,9.643v.253a1.75,1.75,0,0,0,1.75,1.75h0a1.75,1.75,0,0,0,1.75-1.75v-.323a6.012,6.012,0,0,1,5.25-6.067,5.84,5.84,0,0,1,6.388,5.236q.028.285.028.571v.583a1.75,1.75,0,0,0,1.75,1.75h0a1.75,1.75,0,0,0,1.75-1.75V308a9.344,9.344,0,0,0-9.354-9.334Q94.329,298.663,94.02,298.684Z" transform="translate(0 -282.33)" fill="#232323"/>
    <path id="Path_2" data-name="Path " d="M135.008,14a7,7,0,1,0-7-7A7,7,0,0,0,135.008,14Zm0-10.5a3.5,3.5,0,1,1-3.5,3.5A3.5,3.5,0,0,1,135.008,3.5Z" transform="translate(-40.348)" fill="#232323"/>
  </g>
</svg>
