<svg width="16" height="12" viewBox="0 0 16 12" fill="none" xmlns="http://www.w3.org/2000/svg">
<path d="M15.7855 4.47429C15.6795 4.32724 15.5399 4.20754 15.3785 4.12508C15.217 4.04261 15.0383 3.99973 14.857 4H13.7141V2.85714C13.7141 2.55404 13.5937 2.26335 13.3794 2.04902C13.1651 1.83469 12.8744 1.71429 12.5713 1.71429H7.61919L5.6385 0.228571C5.44035 0.0808446 5.19996 0.0007143 4.9528 0H1.14284C0.839742 0 0.549056 0.120408 0.334731 0.334735C0.120406 0.549062 0 0.839753 0 1.14286V11.4286C0 11.5801 0.0602032 11.7255 0.167365 11.8326C0.274528 11.9398 0.419871 12 0.571422 12H13.3641C13.4841 12 13.601 11.9623 13.6983 11.8922C13.7956 11.822 13.8683 11.7231 13.9063 11.6093L15.9412 5.50429C15.9985 5.3325 16.0142 5.14961 15.9871 4.97058C15.9601 4.79155 15.891 4.62148 15.7855 4.47429ZM4.9528 1.14286L7.08563 2.74286C7.18454 2.81704 7.30484 2.85714 7.42848 2.85714H12.5713V4H3.26925C3.02937 3.99998 2.79558 4.07544 2.60097 4.21569C2.40637 4.35594 2.26083 4.55386 2.18497 4.78143L1.14284 7.90714V1.14286H4.9528ZM12.9527 10.8571H1.36427L3.26925 5.14286H14.857L12.9527 10.8571Z" fill="white"/>
</svg>
