<svg width="16" height="14" viewBox="0 0 16 14" fill="none" xmlns="http://www.w3.org/2000/svg">
<path d="M14.1538 1.82609H12.0215L10.9731 0.27087C10.9169 0.187594 10.8408 0.119307 10.7516 0.0720586C10.6624 0.0248106 10.5627 6.01124e-05 10.4615 0H5.53846C5.43725 6.01124e-05 5.33762 0.0248106 5.24839 0.0720586C5.15916 0.119307 5.08309 0.187594 5.02692 0.27087L3.97769 1.82609H1.84615C1.35652 1.82609 0.886947 2.01848 0.540726 2.36094C0.194505 2.70339 0 3.16787 0 3.65217V12.1739C0 12.6582 0.194505 13.1227 0.540726 13.4652C0.886947 13.8076 1.35652 14 1.84615 14H14.1538C14.6435 14 15.1131 13.8076 15.4593 13.4652C15.8055 13.1227 16 12.6582 16 12.1739V3.65217C16 3.16787 15.8055 2.70339 15.4593 2.36094C15.1131 2.01848 14.6435 1.82609 14.1538 1.82609ZM14.7692 12.1739C14.7692 12.3353 14.7044 12.4902 14.589 12.6043C14.4736 12.7185 14.3171 12.7826 14.1538 12.7826H1.84615C1.68294 12.7826 1.52642 12.7185 1.41101 12.6043C1.2956 12.4902 1.23077 12.3353 1.23077 12.1739V3.65217C1.23077 3.49074 1.2956 3.33591 1.41101 3.22176C1.52642 3.10761 1.68294 3.04348 1.84615 3.04348H4.30769C4.40903 3.04354 4.50882 3.01885 4.59819 2.9716C4.68756 2.92435 4.76376 2.85599 4.82 2.77261L5.86769 1.21739H10.1315L11.18 2.77261C11.2362 2.85599 11.3124 2.92435 11.4018 2.9716C11.4912 3.01885 11.591 3.04354 11.6923 3.04348H14.1538C14.3171 3.04348 14.4736 3.10761 14.589 3.22176C14.7044 3.33591 14.7692 3.49074 14.7692 3.65217V12.1739ZM8 4.26087C7.33059 4.26087 6.67621 4.45722 6.11961 4.82508C5.56301 5.19294 5.1292 5.7158 4.87302 6.32754C4.61685 6.93927 4.54982 7.61241 4.68042 8.26182C4.81102 8.91124 5.13337 9.50776 5.60672 9.97597C6.08006 10.4442 6.68314 10.763 7.33969 10.8922C7.99625 11.0214 8.67678 10.9551 9.29524 10.7017C9.91369 10.4483 10.4423 10.0192 10.8142 9.46865C11.1861 8.9181 11.3846 8.27083 11.3846 7.6087C11.3836 6.72111 11.0267 5.87016 10.3922 5.24254C9.75764 4.61492 8.89734 4.26188 8 4.26087ZM8 9.73913C7.57401 9.73913 7.15759 9.61418 6.80339 9.38009C6.44919 9.14599 6.17313 8.81326 6.01011 8.42398C5.84709 8.03469 5.80443 7.60633 5.88754 7.19307C5.97065 6.7798 6.17578 6.4002 6.477 6.10225C6.77822 5.8043 7.162 5.6014 7.57981 5.5192C7.99761 5.43699 8.43068 5.47918 8.82424 5.64043C9.2178 5.80168 9.55419 6.07474 9.79086 6.42509C10.0275 6.77544 10.1538 7.18734 10.1538 7.6087C10.1538 8.17372 9.92692 8.71561 9.523 9.11514C9.11908 9.51467 8.57124 9.73913 8 9.73913Z" fill="black"/>
<path d="M14.1538 1.82609H12.0215L10.9731 0.27087C10.9169 0.187594 10.8408 0.119307 10.7516 0.0720586C10.6624 0.0248106 10.5627 6.01124e-05 10.4615 0H5.53846C5.43725 6.01124e-05 5.33762 0.0248106 5.24839 0.0720586C5.15916 0.119307 5.08309 0.187594 5.02692 0.27087L3.97769 1.82609H1.84615C1.35652 1.82609 0.886947 2.01848 0.540726 2.36094C0.194505 2.70339 0 3.16787 0 3.65217V12.1739C0 12.6582 0.194505 13.1227 0.540726 13.4652C0.886947 13.8076 1.35652 14 1.84615 14H14.1538C14.6435 14 15.1131 13.8076 15.4593 13.4652C15.8055 13.1227 16 12.6582 16 12.1739V3.65217C16 3.16787 15.8055 2.70339 15.4593 2.36094C15.1131 2.01848 14.6435 1.82609 14.1538 1.82609ZM14.7692 12.1739C14.7692 12.3353 14.7044 12.4902 14.589 12.6043C14.4736 12.7185 14.3171 12.7826 14.1538 12.7826H1.84615C1.68294 12.7826 1.52642 12.7185 1.41101 12.6043C1.2956 12.4902 1.23077 12.3353 1.23077 12.1739V3.65217C1.23077 3.49074 1.2956 3.33591 1.41101 3.22176C1.52642 3.10761 1.68294 3.04348 1.84615 3.04348H4.30769C4.40903 3.04354 4.50882 3.01885 4.59819 2.9716C4.68756 2.92435 4.76376 2.85599 4.82 2.77261L5.86769 1.21739H10.1315L11.18 2.77261C11.2362 2.85599 11.3124 2.92435 11.4018 2.9716C11.4912 3.01885 11.591 3.04354 11.6923 3.04348H14.1538C14.3171 3.04348 14.4736 3.10761 14.589 3.22176C14.7044 3.33591 14.7692 3.49074 14.7692 3.65217V12.1739ZM8 4.26087C7.33059 4.26087 6.67621 4.45722 6.11961 4.82508C5.56301 5.19294 5.1292 5.7158 4.87302 6.32754C4.61685 6.93927 4.54982 7.61241 4.68042 8.26182C4.81102 8.91124 5.13337 9.50776 5.60672 9.97597C6.08006 10.4442 6.68314 10.763 7.33969 10.8922C7.99625 11.0214 8.67678 10.9551 9.29524 10.7017C9.91369 10.4483 10.4423 10.0192 10.8142 9.46865C11.1861 8.9181 11.3846 8.27083 11.3846 7.6087C11.3836 6.72111 11.0267 5.87016 10.3922 5.24254C9.75764 4.61492 8.89734 4.26188 8 4.26087ZM8 9.73913C7.57401 9.73913 7.15759 9.61418 6.80339 9.38009C6.44919 9.14599 6.17313 8.81326 6.01011 8.42398C5.84709 8.03469 5.80443 7.60633 5.88754 7.19307C5.97065 6.7798 6.17578 6.4002 6.477 6.10225C6.77822 5.8043 7.162 5.6014 7.57981 5.5192C7.99761 5.43699 8.43068 5.47918 8.82424 5.64043C9.2178 5.80168 9.55419 6.07474 9.79086 6.42509C10.0275 6.77544 10.1538 7.18734 10.1538 7.6087C10.1538 8.17372 9.92692 8.71561 9.523 9.11514C9.11908 9.51467 8.57124 9.73913 8 9.73913Z" fill="white"/>
</svg>
