<svg width="31" height="33" viewBox="0 0 31 33" fill="none" xmlns="http://www.w3.org/2000/svg">
<path d="M30.7803 30.8682L19.7581 13.9698L30.6342 2.29824C30.8802 2.02775 31.007 1.67357 30.987 1.31251C30.9671 0.951441 30.8021 0.612581 30.5278 0.369395C30.2535 0.126208 29.892 -0.00170365 29.5217 0.0133906C29.1513 0.0284849 28.802 0.185369 28.5495 0.450029L18.1893 11.5668L11.06 0.637255C10.9329 0.44205 10.7573 0.281303 10.5496 0.169908C10.3418 0.0585126 10.1086 7.16787e-05 9.87152 1.62551e-07H1.41995C1.16739 -0.000119659 0.919447 0.0660054 0.702076 0.191451C0.484705 0.316896 0.305905 0.497048 0.1844 0.713041C0.0628942 0.929035 0.00315272 1.17292 0.0114305 1.41917C0.0197084 1.66542 0.0957011 1.90497 0.231452 2.11273L11.2537 19.0094L0.377594 30.6896C0.250585 30.8227 0.151919 30.979 0.0873132 31.1496C0.0227074 31.3202 -0.00655327 31.5015 0.00122787 31.6832C0.00900901 31.8649 0.0536773 32.0433 0.132643 32.208C0.211608 32.3727 0.3233 32.5205 0.461247 32.6428C0.599193 32.7651 0.76065 32.8595 0.936258 32.9204C1.11187 32.9814 1.29813 33.0078 1.48426 32.998C1.6704 32.9882 1.85269 32.9425 2.02058 32.8635C2.18847 32.7845 2.33861 32.6738 2.46231 32.5378L12.8225 21.421L19.9518 32.3505C20.0799 32.5442 20.256 32.7032 20.4637 32.8131C20.6713 32.9229 20.904 32.9801 21.1403 32.9792H29.5918C29.8441 32.9791 30.0918 32.913 30.3089 32.7876C30.526 32.6623 30.7046 32.4823 30.826 32.2666C30.9475 32.0509 31.0073 31.8073 30.9993 31.5613C30.9912 31.3153 30.9156 31.0759 30.7803 30.8682ZM21.9132 30.2309L3.98536 2.74827H9.09151L27.0264 30.2309H21.9132Z" fill="black"/>
</svg>
